M48
;Layer_Color=9474304
;FILE_FORMAT=4:4
METRIC,LZ
;TYPE=PLATED
T1F00S00C0.3000
;TYPE=NON_PLATED
%
T01
X00670524Y0015414
Y0016176
X00685512Y0022907
Y0023669
X00669002Y0024431
X00674082Y0025701
X00732472Y0025104
X00737582Y0027225
Y0027987
X00773176Y00280457
X00773142Y00268352
X00789652Y0026336
X00796002Y0027225
X00793176Y00287116
X00784572Y002786
X00783972Y0023854
X00771872Y0023923
X00764252Y0019986
X00743932Y0021129
X00770602Y0017065
X00794732Y0018716
X00812212Y0019956
X00823942Y0021129
X00817972Y0023754
X00834102Y0024431
X00839182Y0025701
X00830292Y002659
X00827752Y0027352
X00829202Y0032881
X00821582
X00728972Y0030904
X00850612Y0023669
Y0022907
X00835624Y0016176
Y0015414
X00768422Y0011397
Y0010762
Y0010127
X00603322
Y0010762
Y0011397
X00605502Y0017065
X00599152Y0019986
X00578832Y0021129
X00567372Y0025104
X00572482Y0027225
Y0027987
X00608076Y00280457
X00608042Y00268352
X00624552Y0026336
X00630902Y0027225
X00628076Y00287116
X00619472Y002786
X00618872Y0023854
X00606772Y0023923
X00652872Y0023754
X00658842Y0021129
X00647112Y0019956
X00629632Y0018716
X00665192Y002659
X00662652Y0027352
X00664102Y0032881
X00656482
X00563872Y0030904
X00499002Y0032881
X00491382
X00497552Y0027352
X00500092Y002659
X00508982Y0025701
X00503902Y0024431
X00487772Y0023754
X00493742Y0021129
X00482012Y0019956
X00464532Y0018716
X00440402Y0017065
X00434052Y0019986
X00413732Y0021129
X00402272Y0025104
X00407382Y0027225
Y0027987
X00442976Y00280457
X00442942Y00268352
X00459452Y0026336
X00465802Y0027225
X00462976Y00287116
X00454372Y002786
X00453772Y0023854
X00441672Y0023923
X00520412Y0023669
Y0022907
X00505424Y0016176
Y0015414
X00438222Y0011397
Y0010762
Y0010127
X00340324Y0015414
Y0016176
X00328642Y0021129
X00316912Y0019956
X00299432Y0018716
X00275302Y0017065
X00273122Y0011397
Y0010762
Y0010127
X00276572Y0023923
X00288672Y0023854
X00294352Y0026336
X00300702Y0027225
X00297876Y00287116
X00289272Y002786
X00277876Y00280457
X00277842Y00268352
X00334992Y002659
X00332452Y0027352
X00343882Y0025701
X00338802Y0024431
X00322672Y0023754
X00355312Y0023669
Y0022907
X00333902Y0032881
X00326282
X00398772Y0030904
X00233672
X00242282Y0027987
Y0027225
X00237172Y0025104
X00248632Y0021129
X00268952Y0019986
X00190212Y0022907
Y0023669
X00173702Y0024431
X00178782Y0025701
X00169892Y002659
X00167352Y0027352
X00135602Y0027225
X00129252Y0026336
X00124172Y002786
X00112776Y00280457
X00112742Y00268352
X00111472Y0023923
X00123572Y0023854
X00157572Y0023754
X00163542Y0021129
X00151812Y0019956
X00134332Y0018716
X00110202Y0017065
X00103852Y0019986
X00083532Y0021129
X00072072Y0025104
X00077182Y0027225
Y0027987
X00068572Y0030904
X00132776Y00287116
X00161182Y0032881
X00168802
X00175224Y0016176
Y0015414
X00108022Y0011397
Y0010762
Y0010127
X00099862Y0041127
X00092242
X00093692Y0046656
X00091152Y0047418
X00082262Y0048307
X00087342Y0049577
X00103472Y0050254
X00097502Y0052879
X00109232Y0054052
X00126712Y0055292
X00150842Y0056943
X00157192Y0054022
X00177512Y0052879
X00188972Y0048904
X00183862Y0046783
Y0046021
X00148268Y00459623
X00148302Y00471728
X00131792Y0047672
X00125442Y0046783
X00128268Y00452964
X00136872Y0046148
X00137472Y0050154
X00149572Y0050085
X00070832Y0050339
Y0051101
X00085821Y0057832
Y0058594
X00153022Y0062611
Y0063246
Y0063881
X00250921Y0058594
Y0057832
X00262602Y0052879
X00268572Y0050254
X00252442Y0049577
X00247362Y0048307
X00256252Y0047418
X00258792Y0046656
X00257342Y0041127
X00264962
X00192472Y0043104
X00235932Y0050339
Y0051101
X00274332Y0054052
X00291812Y0055292
X00315942Y0056943
X00322292Y0054022
X00342612Y0052879
X00354072Y0048904
X00348962Y0046783
Y0046021
X00313368Y00459623
X00313402Y00471728
X00296892Y0047672
X00290542Y0046783
X00293368Y00452964
X00301972Y0046148
X00302572Y0050154
X00314672Y0050085
X00401032Y0050339
Y0051101
X00417542Y0049577
X00412462Y0048307
X00421352Y0047418
X00423892Y0046656
X00455642Y0046783
X00461992Y0047672
X00467072Y0046148
X00478468Y00459623
X00478502Y00471728
X00479772Y0050085
X00467672Y0050154
X00433672Y0050254
X00427702Y0052879
X00439432Y0054052
X00456912Y0055292
X00481042Y0056943
X00487392Y0054022
X00507712Y0052879
X00519172Y0048904
X00514062Y0046783
Y0046021
X00522672Y0043104
X00587542Y0041127
X00595162
X00588992Y0046656
X00586452Y0047418
X00577562Y0048307
X00582642Y0049577
X00598772Y0050254
X00592802Y0052879
X00604532Y0054052
X00622012Y0055292
X00646142Y0056943
X00652492Y0054022
X00644872Y0050085
X00632772Y0050154
X00627092Y0047672
X00620742Y0046783
X00623568Y00452964
X00632172Y0046148
X00643568Y00459623
X00643602Y00471728
X00566132Y0050339
Y0051101
X00581121Y0057832
Y0058594
X00648322Y0062611
Y0063246
Y0063881
X00483222
Y0063246
Y0062611
X00416021Y0058594
Y0057832
X00318122Y0062611
Y0063246
Y0063881
X00357572Y0043104
X00422442Y0041127
X00430062
X00458468Y00452964
X00679162Y0046021
Y0046783
X00684272Y0048904
X00672812Y0052879
X00731232Y0051101
Y0050339
X00747742Y0049577
X00742662Y0048307
X00751552Y0047418
X00754092Y0046656
X00785842Y0046783
X00792192Y0047672
X00797272Y0046148
X00808668Y00459623
X00808702Y00471728
X00809972Y0050085
X00797872Y0050154
X00763872Y0050254
X00757902Y0052879
X00769632Y0054052
X00787112Y0055292
X00811242Y0056943
X00817592Y0054022
X00837912Y0052879
X00849372Y0048904
X00844262Y0046783
Y0046021
X00852872Y0043104
X00788668Y00452964
X00760262Y0041127
X00752642
X00687772Y0043104
X00746221Y0057832
Y0058594
X00813422Y0062611
Y0063246
Y0063881
M30
