G04 Layer_Color=2752767*
%FSLAX44Y44*%
%MOMM*%
G71*
G01*
G75*
%ADD31C,0.0508*%
%ADD32C,0.0677*%
D31*
X128490Y386008D02*
Y390072D01*
X132554D01*
Y386008D01*
X128490D01*
X293590D02*
Y390072D01*
X297654D01*
Y386008D01*
X293590D01*
X458690D02*
Y390072D01*
X462754D01*
Y386008D01*
X458690D01*
X623790D02*
Y390072D01*
X627854D01*
Y386008D01*
X623790D01*
X788890D02*
Y390072D01*
X792954D01*
Y386008D01*
X788890D01*
Y350008D02*
Y354072D01*
X792954D01*
Y350008D01*
X788890D01*
X623790D02*
Y354072D01*
X627854D01*
Y350008D01*
X623790D01*
X458690D02*
Y354072D01*
X462754D01*
Y350008D01*
X458690D01*
X293590D02*
Y354072D01*
X297654D01*
Y350008D01*
X293590D01*
X128490D02*
Y354072D01*
X132554D01*
Y350008D01*
X128490D01*
D32*
X139504Y501540D02*
G03*
X139504Y501540I-2032J0D01*
G01*
X194504Y431040D02*
G03*
X194504Y431040I-2032J0D01*
G01*
X150300Y459623D02*
G03*
X150300Y459623I-2032J0D01*
G01*
X72864Y503390D02*
G03*
X72864Y503390I-2032J0D01*
G01*
X84294Y483070D02*
G03*
X84294Y483070I-2032J0D01*
G01*
X152874Y569430D02*
G03*
X152874Y569430I-2032J0D01*
G01*
X179544Y528790D02*
G03*
X179544Y528790I-2032J0D01*
G01*
X94274Y411270D02*
G03*
X94274Y411270I-2032J0D01*
G01*
X101894D02*
G03*
X101894Y411270I-2032J0D01*
G01*
X89374Y495770D02*
G03*
X89374Y495770I-2032J0D01*
G01*
X93184Y474180D02*
G03*
X93184Y474180I-2032J0D01*
G01*
X133824Y476720D02*
G03*
X133824Y476720I-2032J0D01*
G01*
X87853Y585940D02*
G03*
X87853Y585940I-2032J0D01*
G01*
Y578320D02*
G03*
X87853Y578320I-2032J0D01*
G01*
X72864Y511010D02*
G03*
X72864Y511010I-2032J0D01*
G01*
X185894Y460210D02*
G03*
X185894Y460210I-2032J0D01*
G01*
Y467830D02*
G03*
X185894Y467830I-2032J0D01*
G01*
X155054Y626110D02*
G03*
X155054Y626110I-2032J0D01*
G01*
Y632460D02*
G03*
X155054Y632460I-2032J0D01*
G01*
Y638810D02*
G03*
X155054Y638810I-2032J0D01*
G01*
X95724Y466560D02*
G03*
X95724Y466560I-2032J0D01*
G01*
X127474Y467830D02*
G03*
X127474Y467830I-2032J0D01*
G01*
X138904Y461480D02*
G03*
X138904Y461480I-2032J0D01*
G01*
X130300Y452964D02*
G03*
X130300Y452964I-2032J0D01*
G01*
X150334Y471728D02*
G03*
X150334Y471728I-2032J0D01*
G01*
X128744Y552920D02*
G03*
X128744Y552920I-2032J0D01*
G01*
X151604Y500850D02*
G03*
X151604Y500850I-2032J0D01*
G01*
X99534Y528790D02*
G03*
X99534Y528790I-2032J0D01*
G01*
X159224Y540220D02*
G03*
X159224Y540220I-2032J0D01*
G01*
X111264Y540520D02*
G03*
X111264Y540520I-2032J0D01*
G01*
X191004Y489040D02*
G03*
X191004Y489040I-2032J0D01*
G01*
X105504Y502540D02*
G03*
X105504Y502540I-2032J0D01*
G01*
X304604Y501540D02*
G03*
X304604Y501540I-2032J0D01*
G01*
X359604Y431040D02*
G03*
X359604Y431040I-2032J0D01*
G01*
X315400Y459623D02*
G03*
X315400Y459623I-2032J0D01*
G01*
X237964Y503390D02*
G03*
X237964Y503390I-2032J0D01*
G01*
X249394Y483070D02*
G03*
X249394Y483070I-2032J0D01*
G01*
X317974Y569430D02*
G03*
X317974Y569430I-2032J0D01*
G01*
X344644Y528790D02*
G03*
X344644Y528790I-2032J0D01*
G01*
X259374Y411270D02*
G03*
X259374Y411270I-2032J0D01*
G01*
X266994D02*
G03*
X266994Y411270I-2032J0D01*
G01*
X254474Y495770D02*
G03*
X254474Y495770I-2032J0D01*
G01*
X258284Y474180D02*
G03*
X258284Y474180I-2032J0D01*
G01*
X298924Y476720D02*
G03*
X298924Y476720I-2032J0D01*
G01*
X252953Y585940D02*
G03*
X252953Y585940I-2032J0D01*
G01*
Y578320D02*
G03*
X252953Y578320I-2032J0D01*
G01*
X237964Y511010D02*
G03*
X237964Y511010I-2032J0D01*
G01*
X350994Y460210D02*
G03*
X350994Y460210I-2032J0D01*
G01*
Y467830D02*
G03*
X350994Y467830I-2032J0D01*
G01*
X320154Y626110D02*
G03*
X320154Y626110I-2032J0D01*
G01*
Y632460D02*
G03*
X320154Y632460I-2032J0D01*
G01*
Y638810D02*
G03*
X320154Y638810I-2032J0D01*
G01*
X260824Y466560D02*
G03*
X260824Y466560I-2032J0D01*
G01*
X292574Y467830D02*
G03*
X292574Y467830I-2032J0D01*
G01*
X304004Y461480D02*
G03*
X304004Y461480I-2032J0D01*
G01*
X295400Y452964D02*
G03*
X295400Y452964I-2032J0D01*
G01*
X315434Y471728D02*
G03*
X315434Y471728I-2032J0D01*
G01*
X293844Y552920D02*
G03*
X293844Y552920I-2032J0D01*
G01*
X316704Y500850D02*
G03*
X316704Y500850I-2032J0D01*
G01*
X264634Y528790D02*
G03*
X264634Y528790I-2032J0D01*
G01*
X324324Y540220D02*
G03*
X324324Y540220I-2032J0D01*
G01*
X276364Y540520D02*
G03*
X276364Y540520I-2032J0D01*
G01*
X356104Y489040D02*
G03*
X356104Y489040I-2032J0D01*
G01*
X270604Y502540D02*
G03*
X270604Y502540I-2032J0D01*
G01*
X469704Y501540D02*
G03*
X469704Y501540I-2032J0D01*
G01*
X524704Y431040D02*
G03*
X524704Y431040I-2032J0D01*
G01*
X480500Y459623D02*
G03*
X480500Y459623I-2032J0D01*
G01*
X403064Y503390D02*
G03*
X403064Y503390I-2032J0D01*
G01*
X414494Y483070D02*
G03*
X414494Y483070I-2032J0D01*
G01*
X483074Y569430D02*
G03*
X483074Y569430I-2032J0D01*
G01*
X509744Y528790D02*
G03*
X509744Y528790I-2032J0D01*
G01*
X424474Y411270D02*
G03*
X424474Y411270I-2032J0D01*
G01*
X432094D02*
G03*
X432094Y411270I-2032J0D01*
G01*
X419574Y495770D02*
G03*
X419574Y495770I-2032J0D01*
G01*
X423384Y474180D02*
G03*
X423384Y474180I-2032J0D01*
G01*
X464024Y476720D02*
G03*
X464024Y476720I-2032J0D01*
G01*
X418053Y585940D02*
G03*
X418053Y585940I-2032J0D01*
G01*
Y578320D02*
G03*
X418053Y578320I-2032J0D01*
G01*
X403064Y511010D02*
G03*
X403064Y511010I-2032J0D01*
G01*
X516094Y460210D02*
G03*
X516094Y460210I-2032J0D01*
G01*
Y467830D02*
G03*
X516094Y467830I-2032J0D01*
G01*
X485254Y626110D02*
G03*
X485254Y626110I-2032J0D01*
G01*
Y632460D02*
G03*
X485254Y632460I-2032J0D01*
G01*
Y638810D02*
G03*
X485254Y638810I-2032J0D01*
G01*
X425924Y466560D02*
G03*
X425924Y466560I-2032J0D01*
G01*
X457674Y467830D02*
G03*
X457674Y467830I-2032J0D01*
G01*
X469104Y461480D02*
G03*
X469104Y461480I-2032J0D01*
G01*
X460500Y452964D02*
G03*
X460500Y452964I-2032J0D01*
G01*
X480534Y471728D02*
G03*
X480534Y471728I-2032J0D01*
G01*
X458944Y552920D02*
G03*
X458944Y552920I-2032J0D01*
G01*
X481804Y500850D02*
G03*
X481804Y500850I-2032J0D01*
G01*
X429734Y528790D02*
G03*
X429734Y528790I-2032J0D01*
G01*
X489424Y540220D02*
G03*
X489424Y540220I-2032J0D01*
G01*
X441464Y540520D02*
G03*
X441464Y540520I-2032J0D01*
G01*
X521204Y489040D02*
G03*
X521204Y489040I-2032J0D01*
G01*
X435704Y502540D02*
G03*
X435704Y502540I-2032J0D01*
G01*
X634804Y501540D02*
G03*
X634804Y501540I-2032J0D01*
G01*
X689804Y431040D02*
G03*
X689804Y431040I-2032J0D01*
G01*
X645600Y459623D02*
G03*
X645600Y459623I-2032J0D01*
G01*
X568164Y503390D02*
G03*
X568164Y503390I-2032J0D01*
G01*
X579594Y483070D02*
G03*
X579594Y483070I-2032J0D01*
G01*
X648174Y569430D02*
G03*
X648174Y569430I-2032J0D01*
G01*
X674844Y528790D02*
G03*
X674844Y528790I-2032J0D01*
G01*
X589574Y411270D02*
G03*
X589574Y411270I-2032J0D01*
G01*
X597194D02*
G03*
X597194Y411270I-2032J0D01*
G01*
X584674Y495770D02*
G03*
X584674Y495770I-2032J0D01*
G01*
X588484Y474180D02*
G03*
X588484Y474180I-2032J0D01*
G01*
X629124Y476720D02*
G03*
X629124Y476720I-2032J0D01*
G01*
X583153Y585940D02*
G03*
X583153Y585940I-2032J0D01*
G01*
Y578320D02*
G03*
X583153Y578320I-2032J0D01*
G01*
X568164Y511010D02*
G03*
X568164Y511010I-2032J0D01*
G01*
X681194Y460210D02*
G03*
X681194Y460210I-2032J0D01*
G01*
Y467830D02*
G03*
X681194Y467830I-2032J0D01*
G01*
X650354Y626110D02*
G03*
X650354Y626110I-2032J0D01*
G01*
Y632460D02*
G03*
X650354Y632460I-2032J0D01*
G01*
Y638810D02*
G03*
X650354Y638810I-2032J0D01*
G01*
X591024Y466560D02*
G03*
X591024Y466560I-2032J0D01*
G01*
X622774Y467830D02*
G03*
X622774Y467830I-2032J0D01*
G01*
X634204Y461480D02*
G03*
X634204Y461480I-2032J0D01*
G01*
X625600Y452964D02*
G03*
X625600Y452964I-2032J0D01*
G01*
X645634Y471728D02*
G03*
X645634Y471728I-2032J0D01*
G01*
X624044Y552920D02*
G03*
X624044Y552920I-2032J0D01*
G01*
X646904Y500850D02*
G03*
X646904Y500850I-2032J0D01*
G01*
X594834Y528790D02*
G03*
X594834Y528790I-2032J0D01*
G01*
X654524Y540220D02*
G03*
X654524Y540220I-2032J0D01*
G01*
X606564Y540520D02*
G03*
X606564Y540520I-2032J0D01*
G01*
X686304Y489040D02*
G03*
X686304Y489040I-2032J0D01*
G01*
X600804Y502540D02*
G03*
X600804Y502540I-2032J0D01*
G01*
X799904Y501540D02*
G03*
X799904Y501540I-2032J0D01*
G01*
X854904Y431040D02*
G03*
X854904Y431040I-2032J0D01*
G01*
X810700Y459623D02*
G03*
X810700Y459623I-2032J0D01*
G01*
X733264Y503390D02*
G03*
X733264Y503390I-2032J0D01*
G01*
X744694Y483070D02*
G03*
X744694Y483070I-2032J0D01*
G01*
X813274Y569430D02*
G03*
X813274Y569430I-2032J0D01*
G01*
X839944Y528790D02*
G03*
X839944Y528790I-2032J0D01*
G01*
X754674Y411270D02*
G03*
X754674Y411270I-2032J0D01*
G01*
X762294D02*
G03*
X762294Y411270I-2032J0D01*
G01*
X749774Y495770D02*
G03*
X749774Y495770I-2032J0D01*
G01*
X753584Y474180D02*
G03*
X753584Y474180I-2032J0D01*
G01*
X794224Y476720D02*
G03*
X794224Y476720I-2032J0D01*
G01*
X748253Y585940D02*
G03*
X748253Y585940I-2032J0D01*
G01*
Y578320D02*
G03*
X748253Y578320I-2032J0D01*
G01*
X733264Y511010D02*
G03*
X733264Y511010I-2032J0D01*
G01*
X846294Y460210D02*
G03*
X846294Y460210I-2032J0D01*
G01*
Y467830D02*
G03*
X846294Y467830I-2032J0D01*
G01*
X815454Y626110D02*
G03*
X815454Y626110I-2032J0D01*
G01*
Y632460D02*
G03*
X815454Y632460I-2032J0D01*
G01*
Y638810D02*
G03*
X815454Y638810I-2032J0D01*
G01*
X756124Y466560D02*
G03*
X756124Y466560I-2032J0D01*
G01*
X787874Y467830D02*
G03*
X787874Y467830I-2032J0D01*
G01*
X799304Y461480D02*
G03*
X799304Y461480I-2032J0D01*
G01*
X790700Y452964D02*
G03*
X790700Y452964I-2032J0D01*
G01*
X810734Y471728D02*
G03*
X810734Y471728I-2032J0D01*
G01*
X789144Y552920D02*
G03*
X789144Y552920I-2032J0D01*
G01*
X812004Y500850D02*
G03*
X812004Y500850I-2032J0D01*
G01*
X759934Y528790D02*
G03*
X759934Y528790I-2032J0D01*
G01*
X819624Y540220D02*
G03*
X819624Y540220I-2032J0D01*
G01*
X771664Y540520D02*
G03*
X771664Y540520I-2032J0D01*
G01*
X851404Y489040D02*
G03*
X851404Y489040I-2032J0D01*
G01*
X765904Y502540D02*
G03*
X765904Y502540I-2032J0D01*
G01*
X786004Y238540D02*
G03*
X786004Y238540I-2032J0D01*
G01*
X731004Y309040D02*
G03*
X731004Y309040I-2032J0D01*
G01*
X775208Y280457D02*
G03*
X775208Y280457I-2032J0D01*
G01*
X852644Y236690D02*
G03*
X852644Y236690I-2032J0D01*
G01*
X841214Y257010D02*
G03*
X841214Y257010I-2032J0D01*
G01*
X772634Y170650D02*
G03*
X772634Y170650I-2032J0D01*
G01*
X745964Y211290D02*
G03*
X745964Y211290I-2032J0D01*
G01*
X831234Y328810D02*
G03*
X831234Y328810I-2032J0D01*
G01*
X823614D02*
G03*
X823614Y328810I-2032J0D01*
G01*
X836134Y244310D02*
G03*
X836134Y244310I-2032J0D01*
G01*
X832324Y265900D02*
G03*
X832324Y265900I-2032J0D01*
G01*
X791684Y263360D02*
G03*
X791684Y263360I-2032J0D01*
G01*
X837656Y154140D02*
G03*
X837656Y154140I-2032J0D01*
G01*
Y161760D02*
G03*
X837656Y161760I-2032J0D01*
G01*
X852644Y229070D02*
G03*
X852644Y229070I-2032J0D01*
G01*
X739614Y279870D02*
G03*
X739614Y279870I-2032J0D01*
G01*
Y272250D02*
G03*
X739614Y272250I-2032J0D01*
G01*
X770454Y113970D02*
G03*
X770454Y113970I-2032J0D01*
G01*
Y107620D02*
G03*
X770454Y107620I-2032J0D01*
G01*
Y101270D02*
G03*
X770454Y101270I-2032J0D01*
G01*
X829784Y273520D02*
G03*
X829784Y273520I-2032J0D01*
G01*
X798034Y272250D02*
G03*
X798034Y272250I-2032J0D01*
G01*
X786604Y278600D02*
G03*
X786604Y278600I-2032J0D01*
G01*
X795208Y287116D02*
G03*
X795208Y287116I-2032J0D01*
G01*
X775174Y268352D02*
G03*
X775174Y268352I-2032J0D01*
G01*
X796764Y187160D02*
G03*
X796764Y187160I-2032J0D01*
G01*
X773904Y239230D02*
G03*
X773904Y239230I-2032J0D01*
G01*
X825974Y211290D02*
G03*
X825974Y211290I-2032J0D01*
G01*
X766284Y199860D02*
G03*
X766284Y199860I-2032J0D01*
G01*
X814244Y199560D02*
G03*
X814244Y199560I-2032J0D01*
G01*
X734504Y251040D02*
G03*
X734504Y251040I-2032J0D01*
G01*
X820004Y237540D02*
G03*
X820004Y237540I-2032J0D01*
G01*
X620904Y238540D02*
G03*
X620904Y238540I-2032J0D01*
G01*
X565904Y309040D02*
G03*
X565904Y309040I-2032J0D01*
G01*
X610108Y280457D02*
G03*
X610108Y280457I-2032J0D01*
G01*
X687544Y236690D02*
G03*
X687544Y236690I-2032J0D01*
G01*
X676114Y257010D02*
G03*
X676114Y257010I-2032J0D01*
G01*
X607534Y170650D02*
G03*
X607534Y170650I-2032J0D01*
G01*
X580864Y211290D02*
G03*
X580864Y211290I-2032J0D01*
G01*
X666134Y328810D02*
G03*
X666134Y328810I-2032J0D01*
G01*
X658514D02*
G03*
X658514Y328810I-2032J0D01*
G01*
X671034Y244310D02*
G03*
X671034Y244310I-2032J0D01*
G01*
X667224Y265900D02*
G03*
X667224Y265900I-2032J0D01*
G01*
X626584Y263360D02*
G03*
X626584Y263360I-2032J0D01*
G01*
X672556Y154140D02*
G03*
X672556Y154140I-2032J0D01*
G01*
Y161760D02*
G03*
X672556Y161760I-2032J0D01*
G01*
X687544Y229070D02*
G03*
X687544Y229070I-2032J0D01*
G01*
X574514Y279870D02*
G03*
X574514Y279870I-2032J0D01*
G01*
Y272250D02*
G03*
X574514Y272250I-2032J0D01*
G01*
X605354Y113970D02*
G03*
X605354Y113970I-2032J0D01*
G01*
Y107620D02*
G03*
X605354Y107620I-2032J0D01*
G01*
Y101270D02*
G03*
X605354Y101270I-2032J0D01*
G01*
X664684Y273520D02*
G03*
X664684Y273520I-2032J0D01*
G01*
X632934Y272250D02*
G03*
X632934Y272250I-2032J0D01*
G01*
X621504Y278600D02*
G03*
X621504Y278600I-2032J0D01*
G01*
X630108Y287116D02*
G03*
X630108Y287116I-2032J0D01*
G01*
X610074Y268352D02*
G03*
X610074Y268352I-2032J0D01*
G01*
X631664Y187160D02*
G03*
X631664Y187160I-2032J0D01*
G01*
X608804Y239230D02*
G03*
X608804Y239230I-2032J0D01*
G01*
X660874Y211290D02*
G03*
X660874Y211290I-2032J0D01*
G01*
X601184Y199860D02*
G03*
X601184Y199860I-2032J0D01*
G01*
X649144Y199560D02*
G03*
X649144Y199560I-2032J0D01*
G01*
X569404Y251040D02*
G03*
X569404Y251040I-2032J0D01*
G01*
X654904Y237540D02*
G03*
X654904Y237540I-2032J0D01*
G01*
X455804Y238540D02*
G03*
X455804Y238540I-2032J0D01*
G01*
X400804Y309040D02*
G03*
X400804Y309040I-2032J0D01*
G01*
X445008Y280457D02*
G03*
X445008Y280457I-2032J0D01*
G01*
X522444Y236690D02*
G03*
X522444Y236690I-2032J0D01*
G01*
X511014Y257010D02*
G03*
X511014Y257010I-2032J0D01*
G01*
X442434Y170650D02*
G03*
X442434Y170650I-2032J0D01*
G01*
X415764Y211290D02*
G03*
X415764Y211290I-2032J0D01*
G01*
X501034Y328810D02*
G03*
X501034Y328810I-2032J0D01*
G01*
X493414D02*
G03*
X493414Y328810I-2032J0D01*
G01*
X505934Y244310D02*
G03*
X505934Y244310I-2032J0D01*
G01*
X502124Y265900D02*
G03*
X502124Y265900I-2032J0D01*
G01*
X461484Y263360D02*
G03*
X461484Y263360I-2032J0D01*
G01*
X507456Y154140D02*
G03*
X507456Y154140I-2032J0D01*
G01*
Y161760D02*
G03*
X507456Y161760I-2032J0D01*
G01*
X522444Y229070D02*
G03*
X522444Y229070I-2032J0D01*
G01*
X409414Y279870D02*
G03*
X409414Y279870I-2032J0D01*
G01*
Y272250D02*
G03*
X409414Y272250I-2032J0D01*
G01*
X440254Y113970D02*
G03*
X440254Y113970I-2032J0D01*
G01*
Y107620D02*
G03*
X440254Y107620I-2032J0D01*
G01*
Y101270D02*
G03*
X440254Y101270I-2032J0D01*
G01*
X499584Y273520D02*
G03*
X499584Y273520I-2032J0D01*
G01*
X467834Y272250D02*
G03*
X467834Y272250I-2032J0D01*
G01*
X456404Y278600D02*
G03*
X456404Y278600I-2032J0D01*
G01*
X465008Y287116D02*
G03*
X465008Y287116I-2032J0D01*
G01*
X444974Y268352D02*
G03*
X444974Y268352I-2032J0D01*
G01*
X466564Y187160D02*
G03*
X466564Y187160I-2032J0D01*
G01*
X443704Y239230D02*
G03*
X443704Y239230I-2032J0D01*
G01*
X495774Y211290D02*
G03*
X495774Y211290I-2032J0D01*
G01*
X436084Y199860D02*
G03*
X436084Y199860I-2032J0D01*
G01*
X484044Y199560D02*
G03*
X484044Y199560I-2032J0D01*
G01*
X404304Y251040D02*
G03*
X404304Y251040I-2032J0D01*
G01*
X489804Y237540D02*
G03*
X489804Y237540I-2032J0D01*
G01*
X290704Y238540D02*
G03*
X290704Y238540I-2032J0D01*
G01*
X235704Y309040D02*
G03*
X235704Y309040I-2032J0D01*
G01*
X279908Y280457D02*
G03*
X279908Y280457I-2032J0D01*
G01*
X357344Y236690D02*
G03*
X357344Y236690I-2032J0D01*
G01*
X345914Y257010D02*
G03*
X345914Y257010I-2032J0D01*
G01*
X277334Y170650D02*
G03*
X277334Y170650I-2032J0D01*
G01*
X250664Y211290D02*
G03*
X250664Y211290I-2032J0D01*
G01*
X335934Y328810D02*
G03*
X335934Y328810I-2032J0D01*
G01*
X328314D02*
G03*
X328314Y328810I-2032J0D01*
G01*
X340834Y244310D02*
G03*
X340834Y244310I-2032J0D01*
G01*
X337024Y265900D02*
G03*
X337024Y265900I-2032J0D01*
G01*
X296384Y263360D02*
G03*
X296384Y263360I-2032J0D01*
G01*
X342356Y154140D02*
G03*
X342356Y154140I-2032J0D01*
G01*
Y161760D02*
G03*
X342356Y161760I-2032J0D01*
G01*
X357344Y229070D02*
G03*
X357344Y229070I-2032J0D01*
G01*
X244314Y279870D02*
G03*
X244314Y279870I-2032J0D01*
G01*
Y272250D02*
G03*
X244314Y272250I-2032J0D01*
G01*
X275154Y113970D02*
G03*
X275154Y113970I-2032J0D01*
G01*
Y107620D02*
G03*
X275154Y107620I-2032J0D01*
G01*
Y101270D02*
G03*
X275154Y101270I-2032J0D01*
G01*
X334484Y273520D02*
G03*
X334484Y273520I-2032J0D01*
G01*
X302734Y272250D02*
G03*
X302734Y272250I-2032J0D01*
G01*
X291304Y278600D02*
G03*
X291304Y278600I-2032J0D01*
G01*
X299908Y287116D02*
G03*
X299908Y287116I-2032J0D01*
G01*
X279874Y268352D02*
G03*
X279874Y268352I-2032J0D01*
G01*
X301464Y187160D02*
G03*
X301464Y187160I-2032J0D01*
G01*
X278604Y239230D02*
G03*
X278604Y239230I-2032J0D01*
G01*
X330674Y211290D02*
G03*
X330674Y211290I-2032J0D01*
G01*
X270984Y199860D02*
G03*
X270984Y199860I-2032J0D01*
G01*
X318944Y199560D02*
G03*
X318944Y199560I-2032J0D01*
G01*
X239204Y251040D02*
G03*
X239204Y251040I-2032J0D01*
G01*
X324704Y237540D02*
G03*
X324704Y237540I-2032J0D01*
G01*
X125604Y238540D02*
G03*
X125604Y238540I-2032J0D01*
G01*
X70604Y309040D02*
G03*
X70604Y309040I-2032J0D01*
G01*
X114808Y280457D02*
G03*
X114808Y280457I-2032J0D01*
G01*
X192244Y236690D02*
G03*
X192244Y236690I-2032J0D01*
G01*
X180814Y257010D02*
G03*
X180814Y257010I-2032J0D01*
G01*
X112234Y170650D02*
G03*
X112234Y170650I-2032J0D01*
G01*
X85564Y211290D02*
G03*
X85564Y211290I-2032J0D01*
G01*
X170834Y328810D02*
G03*
X170834Y328810I-2032J0D01*
G01*
X163214D02*
G03*
X163214Y328810I-2032J0D01*
G01*
X175734Y244310D02*
G03*
X175734Y244310I-2032J0D01*
G01*
X171924Y265900D02*
G03*
X171924Y265900I-2032J0D01*
G01*
X131284Y263360D02*
G03*
X131284Y263360I-2032J0D01*
G01*
X177256Y154140D02*
G03*
X177256Y154140I-2032J0D01*
G01*
Y161760D02*
G03*
X177256Y161760I-2032J0D01*
G01*
X192244Y229070D02*
G03*
X192244Y229070I-2032J0D01*
G01*
X79214Y279870D02*
G03*
X79214Y279870I-2032J0D01*
G01*
Y272250D02*
G03*
X79214Y272250I-2032J0D01*
G01*
X110054Y113970D02*
G03*
X110054Y113970I-2032J0D01*
G01*
Y107620D02*
G03*
X110054Y107620I-2032J0D01*
G01*
Y101270D02*
G03*
X110054Y101270I-2032J0D01*
G01*
X169384Y273520D02*
G03*
X169384Y273520I-2032J0D01*
G01*
X137634Y272250D02*
G03*
X137634Y272250I-2032J0D01*
G01*
X126204Y278600D02*
G03*
X126204Y278600I-2032J0D01*
G01*
X134808Y287116D02*
G03*
X134808Y287116I-2032J0D01*
G01*
X114774Y268352D02*
G03*
X114774Y268352I-2032J0D01*
G01*
X136364Y187160D02*
G03*
X136364Y187160I-2032J0D01*
G01*
X113504Y239230D02*
G03*
X113504Y239230I-2032J0D01*
G01*
X165574Y211290D02*
G03*
X165574Y211290I-2032J0D01*
G01*
X105884Y199860D02*
G03*
X105884Y199860I-2032J0D01*
G01*
X153844Y199560D02*
G03*
X153844Y199560I-2032J0D01*
G01*
X74104Y251040D02*
G03*
X74104Y251040I-2032J0D01*
G01*
X159604Y237540D02*
G03*
X159604Y237540I-2032J0D01*
G01*
M02*
