G04 Layer_Physical_Order=2*
G04 Layer_Color=16711680*
%FSLAX44Y44*%
%MOMM*%
G71*
G01*
G75*
%ADD14C,0.3000*%
%ADD15C,0.1500*%
%ADD17R,1.0160X1.0160*%
%ADD18O,6.0000X1.5000*%
%ADD19C,0.4500*%
%ADD20C,0.3000*%
%ADD21C,0.4000*%
%ADD22R,1.0160X1.0911*%
G36*
X179524Y687612D02*
X181466Y686314D01*
X182764Y684372D01*
X183207Y682149D01*
X183193Y682080D01*
Y535080D01*
X183348Y534300D01*
X183790Y533638D01*
X200240Y517188D01*
X200240Y517188D01*
X200902Y516746D01*
X201682Y516591D01*
X207992D01*
Y516561D01*
X209144Y516332D01*
X210121Y515679D01*
X210774Y514702D01*
X211003Y513550D01*
X211033D01*
Y375120D01*
X211003D01*
X210774Y373968D01*
X210121Y372991D01*
X209144Y372338D01*
X207992Y372109D01*
Y372079D01*
X53052D01*
Y372109D01*
X51900Y372338D01*
X50923Y372991D01*
X50270Y373968D01*
X50041Y375120D01*
X50011D01*
Y390360D01*
Y513550D01*
X50041D01*
X50270Y514702D01*
X50923Y515679D01*
X51900Y516332D01*
X53052Y516561D01*
Y516591D01*
X58782D01*
X59562Y516746D01*
X60224Y517188D01*
X76674Y533638D01*
X76674Y533638D01*
X77116Y534300D01*
X77271Y535080D01*
Y593235D01*
X83674Y599638D01*
X83674Y599638D01*
X84116Y600300D01*
X84271Y601080D01*
X84271Y601080D01*
Y611080D01*
X84116Y611860D01*
X83674Y612522D01*
X83013Y612964D01*
X82232Y613119D01*
X77271D01*
Y629997D01*
X89674Y642400D01*
X90116Y643062D01*
X90271Y643842D01*
Y682080D01*
X90258Y682149D01*
X90700Y684372D01*
X91998Y686314D01*
X93941Y687612D01*
X96164Y688055D01*
X96232Y688041D01*
X177232D01*
X177301Y688055D01*
X179524Y687612D01*
D02*
G37*
%LPC*%
G36*
X129818Y466560D02*
X126712D01*
Y463454D01*
X127213Y463553D01*
X128715Y464557D01*
X129719Y466059D01*
X129818Y466560D01*
D02*
G37*
G36*
X124172D02*
X121066D01*
X121166Y466059D01*
X122169Y464557D01*
X123671Y463553D01*
X124172Y463454D01*
Y466560D01*
D02*
G37*
G36*
X152169Y470458D02*
X149572D01*
Y467862D01*
X149878Y467923D01*
X151215Y468815D01*
X152108Y470152D01*
X152169Y470458D01*
D02*
G37*
G36*
X147032D02*
X144436D01*
X144496Y470152D01*
X145389Y468815D01*
X146726Y467923D01*
X147032Y467862D01*
Y470458D01*
D02*
G37*
G36*
X97559Y465290D02*
X94962D01*
Y462693D01*
X95268Y462754D01*
X96605Y463647D01*
X97498Y464984D01*
X97559Y465290D01*
D02*
G37*
G36*
X92422D02*
X89826D01*
X89887Y464984D01*
X90779Y463647D01*
X92116Y462754D01*
X92422Y462693D01*
Y465290D01*
D02*
G37*
G36*
X138142Y466111D02*
Y462750D01*
X141503D01*
X141384Y463349D01*
X140325Y464933D01*
X138741Y465992D01*
X138142Y466111D01*
D02*
G37*
G36*
X135602D02*
X135003Y465992D01*
X133419Y464933D01*
X132360Y463349D01*
X132241Y462750D01*
X135602D01*
Y466111D01*
D02*
G37*
G36*
X80992Y481800D02*
X77631D01*
X77750Y481201D01*
X78809Y479617D01*
X80393Y478558D01*
X80992Y478439D01*
Y481800D01*
D02*
G37*
G36*
X149572Y475595D02*
Y472998D01*
X152169D01*
X152108Y473304D01*
X151215Y474641D01*
X149878Y475534D01*
X149572Y475595D01*
D02*
G37*
G36*
X80992Y487701D02*
X80393Y487582D01*
X78809Y486523D01*
X77750Y484939D01*
X77631Y484340D01*
X80992D01*
Y487701D01*
D02*
G37*
G36*
X86893Y481800D02*
X83532D01*
Y478439D01*
X84131Y478558D01*
X85716Y479617D01*
X86774Y481201D01*
X86893Y481800D01*
D02*
G37*
G36*
X182592Y472461D02*
X181993Y472342D01*
X180409Y471283D01*
X179350Y469699D01*
X179231Y469100D01*
X182592D01*
Y472461D01*
D02*
G37*
G36*
X131792Y479779D02*
X93692D01*
X92521Y479546D01*
X91529Y478883D01*
X91529Y478883D01*
X90525Y477879D01*
X89689Y477712D01*
X88448Y476884D01*
X87620Y475643D01*
X87329Y474180D01*
X87620Y472717D01*
X88448Y471477D01*
X89689Y470648D01*
X90123Y470561D01*
X90334Y470211D01*
X90581Y469175D01*
X89887Y468136D01*
X89826Y467830D01*
X97559D01*
X97498Y468136D01*
X96605Y469473D01*
X95268Y470366D01*
X94612Y470496D01*
X94483Y470663D01*
X94130Y471887D01*
X94684Y472717D01*
X94851Y473553D01*
X94959Y473661D01*
X124977D01*
X125102Y472391D01*
X124587Y472289D01*
X123671Y472107D01*
X122169Y471103D01*
X121166Y469601D01*
X121066Y469100D01*
X129818D01*
X129719Y469601D01*
X128715Y471103D01*
X127213Y472107D01*
X126297Y472289D01*
X125783Y472391D01*
X125908Y473661D01*
X131792D01*
X132963Y473894D01*
X133955Y474557D01*
X134618Y475550D01*
X134851Y476720D01*
X134618Y477891D01*
X133955Y478883D01*
X132963Y479546D01*
X131792Y479779D01*
D02*
G37*
G36*
X147032Y475595D02*
X146726Y475534D01*
X145389Y474641D01*
X144496Y473304D01*
X144436Y472998D01*
X147032D01*
Y475595D01*
D02*
G37*
G36*
X185132Y472461D02*
Y469100D01*
X188493D01*
X188374Y469699D01*
X187316Y471283D01*
X185731Y472342D01*
X185132Y472461D01*
D02*
G37*
G36*
X98592Y415901D02*
X97993Y415782D01*
X96409Y414723D01*
X95695D01*
X94111Y415782D01*
X93512Y415901D01*
Y411270D01*
Y406639D01*
X94111Y406758D01*
X95695Y407817D01*
X96409D01*
X97993Y406758D01*
X98592Y406639D01*
Y411270D01*
Y415901D01*
D02*
G37*
G36*
X101132D02*
Y412540D01*
X104493D01*
X104374Y413139D01*
X103315Y414723D01*
X101731Y415782D01*
X101132Y415901D01*
D02*
G37*
G36*
X126998Y451694D02*
X123637D01*
X123756Y451095D01*
X124815Y449511D01*
X126399Y448452D01*
X126998Y448333D01*
Y451694D01*
D02*
G37*
G36*
X148268Y463447D02*
X146805Y463156D01*
X145565Y462327D01*
X144736Y461086D01*
X144445Y459623D01*
X144736Y458160D01*
X145565Y456920D01*
X146805Y456091D01*
X147641Y455924D01*
X174688Y428877D01*
X175681Y428214D01*
X176851Y427981D01*
X190300D01*
X191009Y427508D01*
X192472Y427217D01*
X193935Y427508D01*
X195176Y428336D01*
X196005Y429577D01*
X196296Y431040D01*
X196005Y432503D01*
X195176Y433744D01*
X193935Y434572D01*
X192472Y434864D01*
X191009Y434572D01*
X190300Y434099D01*
X178118D01*
X151967Y460250D01*
X151800Y461086D01*
X150972Y462327D01*
X149731Y463156D01*
X148268Y463447D01*
D02*
G37*
G36*
X90972Y410000D02*
X87611D01*
X87730Y409401D01*
X88789Y407817D01*
X90373Y406758D01*
X90972Y406639D01*
Y410000D01*
D02*
G37*
G36*
X153022Y397118D02*
X108022D01*
X105673Y396808D01*
X103483Y395901D01*
X101603Y394459D01*
X100161Y392579D01*
X99254Y390390D01*
X98945Y388040D01*
X99254Y385690D01*
X100161Y383501D01*
X101603Y381621D01*
X103483Y380179D01*
X105673Y379272D01*
X108022Y378962D01*
X153022D01*
X155372Y379272D01*
X157561Y380179D01*
X159441Y381621D01*
X160884Y383501D01*
X161790Y385690D01*
X162100Y388040D01*
X161790Y390390D01*
X160884Y392579D01*
X159441Y394459D01*
X157561Y395901D01*
X155372Y396808D01*
X153022Y397118D01*
D02*
G37*
G36*
X90972Y415901D02*
X90373Y415782D01*
X88789Y414723D01*
X87730Y413139D01*
X87611Y412540D01*
X90972D01*
Y415901D01*
D02*
G37*
G36*
X104493Y410000D02*
X101132D01*
Y406639D01*
X101731Y406758D01*
X103315Y407817D01*
X104374Y409401D01*
X104493Y410000D01*
D02*
G37*
G36*
X135602Y460210D02*
X132241D01*
X132360Y459611D01*
X133419Y458027D01*
X135003Y456968D01*
X135602Y456849D01*
Y460210D01*
D02*
G37*
G36*
X188493Y458940D02*
X185132D01*
Y455579D01*
X185731Y455698D01*
X187316Y456757D01*
X188374Y458341D01*
X188493Y458940D01*
D02*
G37*
G36*
Y466560D02*
X179231D01*
X179350Y465961D01*
X180409Y464377D01*
Y463663D01*
X179350Y462079D01*
X179231Y461480D01*
X188493D01*
X188374Y462079D01*
X187316Y463663D01*
Y464377D01*
X188374Y465961D01*
X188493Y466560D01*
D02*
G37*
G36*
X141503Y460210D02*
X138142D01*
Y456849D01*
X138741Y456968D01*
X140325Y458027D01*
X141384Y459611D01*
X141503Y460210D01*
D02*
G37*
G36*
X126998Y457595D02*
X126399Y457476D01*
X124815Y456418D01*
X123756Y454833D01*
X123637Y454234D01*
X126998D01*
Y457595D01*
D02*
G37*
G36*
X132899Y451694D02*
X129538D01*
Y448333D01*
X130137Y448452D01*
X131722Y449511D01*
X132780Y451095D01*
X132899Y451694D01*
D02*
G37*
G36*
X182592Y458940D02*
X179231D01*
X179350Y458341D01*
X180409Y456757D01*
X181993Y455698D01*
X182592Y455579D01*
Y458940D01*
D02*
G37*
G36*
X129538Y457595D02*
Y454234D01*
X132899D01*
X132780Y454833D01*
X131722Y456418D01*
X130137Y457476D01*
X129538Y457595D01*
D02*
G37*
G36*
X83532Y487701D02*
Y484340D01*
X86893D01*
X86774Y484939D01*
X85716Y486523D01*
X84131Y487582D01*
X83532Y487701D01*
D02*
G37*
G36*
X84551Y577050D02*
X81189D01*
X81308Y576451D01*
X82367Y574867D01*
X83952Y573808D01*
X84551Y573689D01*
Y577050D01*
D02*
G37*
G36*
X152112Y574061D02*
Y570700D01*
X155473D01*
X155354Y571299D01*
X154296Y572883D01*
X152711Y573942D01*
X152112Y574061D01*
D02*
G37*
G36*
X90452Y584670D02*
X81189D01*
X81308Y584071D01*
X82367Y582487D01*
Y581773D01*
X81308Y580189D01*
X81189Y579590D01*
X90452D01*
X90333Y580189D01*
X89274Y581773D01*
Y582487D01*
X90333Y584071D01*
X90452Y584670D01*
D02*
G37*
G36*
Y577050D02*
X87091D01*
Y573689D01*
X87690Y573808D01*
X89274Y574867D01*
X90333Y576451D01*
X90452Y577050D01*
D02*
G37*
G36*
X149572Y568160D02*
X146211D01*
X146330Y567561D01*
X147389Y565977D01*
X148973Y564918D01*
X149572Y564799D01*
Y568160D01*
D02*
G37*
G36*
X126712Y556744D02*
X125249Y556452D01*
X124540Y555979D01*
X102582D01*
X101412Y555746D01*
X100419Y555083D01*
X85179Y539843D01*
X84516Y538851D01*
X84283Y537680D01*
X84283Y537680D01*
Y497942D01*
X83810Y497233D01*
X83519Y495770D01*
X83810Y494307D01*
X84639Y493066D01*
X85879Y492238D01*
X87342Y491947D01*
X88805Y492238D01*
X90046Y493066D01*
X90875Y494307D01*
X91166Y495770D01*
X90875Y497233D01*
X90401Y497942D01*
Y536413D01*
X103849Y549861D01*
X124540D01*
X125249Y549388D01*
X126712Y549097D01*
X128175Y549388D01*
X129416Y550216D01*
X130245Y551457D01*
X130535Y552920D01*
X130245Y554383D01*
X129416Y555624D01*
X128175Y556452D01*
X126712Y556744D01*
D02*
G37*
G36*
X149572Y574061D02*
X148973Y573942D01*
X147389Y572883D01*
X146330Y571299D01*
X146211Y570700D01*
X149572D01*
Y574061D01*
D02*
G37*
G36*
X155473Y568160D02*
X152112D01*
Y564799D01*
X152711Y564918D01*
X154296Y565977D01*
X155354Y567561D01*
X155473Y568160D01*
D02*
G37*
G36*
X157653Y637540D02*
X148391D01*
X148510Y636941D01*
X149383Y635635D01*
X148510Y634329D01*
X148391Y633730D01*
X157653D01*
X157534Y634329D01*
X156662Y635635D01*
X157534Y636941D01*
X157653Y637540D01*
D02*
G37*
G36*
Y631190D02*
X148391D01*
X148510Y630591D01*
X149383Y629285D01*
X148510Y627979D01*
X148391Y627380D01*
X157653D01*
X157534Y627979D01*
X156662Y629285D01*
X157534Y630591D01*
X157653Y631190D01*
D02*
G37*
G36*
X154292Y643441D02*
Y640080D01*
X157653D01*
X157534Y640679D01*
X156475Y642263D01*
X154891Y643322D01*
X154292Y643441D01*
D02*
G37*
G36*
X151752D02*
X151153Y643322D01*
X149569Y642263D01*
X148510Y640679D01*
X148391Y640080D01*
X151752D01*
Y643441D01*
D02*
G37*
G36*
X87091Y590571D02*
Y587210D01*
X90452D01*
X90333Y587809D01*
X89274Y589393D01*
X87690Y590452D01*
X87091Y590571D01*
D02*
G37*
G36*
X84551D02*
X83952Y590452D01*
X82367Y589393D01*
X81308Y587809D01*
X81189Y587210D01*
X84551D01*
Y590571D01*
D02*
G37*
G36*
X157653Y624840D02*
X154292D01*
Y621479D01*
X154891Y621598D01*
X156475Y622657D01*
X157534Y624241D01*
X157653Y624840D01*
D02*
G37*
G36*
X151752D02*
X148391D01*
X148510Y624241D01*
X149569Y622657D01*
X151153Y621598D01*
X151752Y621479D01*
Y624840D01*
D02*
G37*
G36*
X69562Y502120D02*
X66201D01*
X66320Y501521D01*
X67379Y499937D01*
X68963Y498878D01*
X69562Y498759D01*
Y502120D01*
D02*
G37*
G36*
X108103Y501270D02*
X104742D01*
Y497909D01*
X105341Y498028D01*
X106925Y499087D01*
X107984Y500671D01*
X108103Y501270D01*
D02*
G37*
G36*
X136202Y506171D02*
X135603Y506052D01*
X134019Y504993D01*
X132960Y503409D01*
X132841Y502810D01*
X136202D01*
Y506171D01*
D02*
G37*
G36*
X75463Y502120D02*
X72102D01*
Y498759D01*
X72701Y498878D01*
X74285Y499937D01*
X75344Y501521D01*
X75463Y502120D01*
D02*
G37*
G36*
X136202Y500270D02*
X132841D01*
X132960Y499671D01*
X134019Y498087D01*
X135603Y497028D01*
X136202Y496909D01*
Y500270D01*
D02*
G37*
G36*
X149572Y504674D02*
X148109Y504382D01*
X146868Y503554D01*
X146040Y502313D01*
X145749Y500850D01*
X146040Y499387D01*
X146868Y498147D01*
X148109Y497318D01*
X149572Y497027D01*
X150055Y497123D01*
X159760Y487418D01*
X160504Y486921D01*
X161382Y486746D01*
X185995D01*
X186269Y486336D01*
X187509Y485508D01*
X188972Y485217D01*
X190435Y485508D01*
X191676Y486336D01*
X192505Y487577D01*
X192796Y489040D01*
X192505Y490503D01*
X191676Y491744D01*
X190435Y492572D01*
X188972Y492864D01*
X187509Y492572D01*
X186269Y491744D01*
X185995Y491334D01*
X162332D01*
X153299Y500367D01*
X153396Y500850D01*
X153104Y502313D01*
X152276Y503554D01*
X151035Y504382D01*
X149572Y504674D01*
D02*
G37*
G36*
X102202Y501270D02*
X98841D01*
X98960Y500671D01*
X100019Y499087D01*
X101603Y498028D01*
X102202Y497909D01*
Y501270D01*
D02*
G37*
G36*
X142103Y500270D02*
X138742D01*
Y496909D01*
X139341Y497028D01*
X140926Y498087D01*
X141984Y499671D01*
X142103Y500270D01*
D02*
G37*
G36*
X72102Y515641D02*
Y512280D01*
X75463D01*
X75344Y512879D01*
X74285Y514463D01*
X72701Y515522D01*
X72102Y515641D01*
D02*
G37*
G36*
X69562D02*
X68963Y515522D01*
X67379Y514463D01*
X66320Y512879D01*
X66201Y512280D01*
X69562D01*
Y515641D01*
D02*
G37*
G36*
X109232Y544343D02*
X107769Y544052D01*
X106529Y543224D01*
X105700Y541983D01*
X105409Y540520D01*
X105700Y539057D01*
X106529Y537816D01*
X107769Y536988D01*
X109232Y536697D01*
X110695Y536988D01*
X111936Y537816D01*
X112209Y538226D01*
X154014D01*
X154488Y537517D01*
X155729Y536688D01*
X157192Y536397D01*
X158655Y536688D01*
X159896Y537517D01*
X160725Y538757D01*
X161015Y540220D01*
X160725Y541683D01*
X159896Y542924D01*
X158655Y543752D01*
X157192Y544044D01*
X155729Y543752D01*
X154488Y542924D01*
X154415Y542814D01*
X112209D01*
X111936Y543224D01*
X110695Y544052D01*
X109232Y544343D01*
D02*
G37*
G36*
X177512Y532613D02*
X176049Y532322D01*
X174809Y531494D01*
X174535Y531084D01*
X100479D01*
X100206Y531494D01*
X98965Y532322D01*
X97502Y532613D01*
X96039Y532322D01*
X94798Y531494D01*
X93970Y530253D01*
X93679Y528790D01*
X93970Y527327D01*
X94798Y526087D01*
X96039Y525258D01*
X97502Y524967D01*
X98965Y525258D01*
X100206Y526087D01*
X100479Y526496D01*
X174535D01*
X174809Y526087D01*
X176049Y525258D01*
X177512Y524967D01*
X178975Y525258D01*
X180216Y526087D01*
X181045Y527327D01*
X181336Y528790D01*
X181045Y530253D01*
X180216Y531494D01*
X178975Y532322D01*
X177512Y532613D01*
D02*
G37*
G36*
X102202Y507171D02*
X101603Y507052D01*
X100019Y505993D01*
X98960Y504409D01*
X98841Y503810D01*
X102202D01*
Y507171D01*
D02*
G37*
G36*
X138742Y506171D02*
Y502810D01*
X142103D01*
X141984Y503409D01*
X140926Y504993D01*
X139341Y506052D01*
X138742Y506171D01*
D02*
G37*
G36*
X75463Y509740D02*
X66201D01*
X66320Y509141D01*
X67379Y507557D01*
Y506843D01*
X66320Y505259D01*
X66201Y504660D01*
X75463D01*
X75344Y505259D01*
X74285Y506843D01*
Y507557D01*
X75344Y509141D01*
X75463Y509740D01*
D02*
G37*
G36*
X104742Y507171D02*
Y503810D01*
X108103D01*
X107984Y504409D01*
X106925Y505993D01*
X105341Y507052D01*
X104742Y507171D01*
D02*
G37*
%LPD*%
G36*
X344624Y687612D02*
X346566Y686314D01*
X347864Y684372D01*
X348307Y682149D01*
X348293Y682080D01*
Y535080D01*
X348448Y534300D01*
X348890Y533638D01*
X365340Y517188D01*
X365340Y517188D01*
X366002Y516746D01*
X366782Y516591D01*
X373092D01*
Y516561D01*
X374244Y516332D01*
X375221Y515679D01*
X375874Y514702D01*
X376103Y513550D01*
X376133D01*
Y375120D01*
X376103D01*
X375874Y373968D01*
X375221Y372991D01*
X374244Y372338D01*
X373092Y372109D01*
Y372079D01*
X218152D01*
Y372109D01*
X217000Y372338D01*
X216023Y372991D01*
X215370Y373968D01*
X215141Y375120D01*
X215111D01*
Y390360D01*
Y513550D01*
X215141D01*
X215370Y514702D01*
X216023Y515679D01*
X217000Y516332D01*
X218152Y516561D01*
Y516591D01*
X223882D01*
X224662Y516746D01*
X225324Y517188D01*
X241774Y533638D01*
X241774Y533638D01*
X242216Y534300D01*
X242371Y535080D01*
Y593235D01*
X248774Y599638D01*
X248774Y599638D01*
X249216Y600300D01*
X249371Y601080D01*
X249371Y601080D01*
Y611080D01*
X249216Y611860D01*
X248774Y612522D01*
X248113Y612964D01*
X247332Y613119D01*
X242371D01*
Y629997D01*
X254774Y642400D01*
X255216Y643062D01*
X255371Y643842D01*
Y682080D01*
X255358Y682149D01*
X255800Y684372D01*
X257098Y686314D01*
X259041Y687612D01*
X261264Y688055D01*
X261332Y688041D01*
X342332D01*
X342401Y688055D01*
X344624Y687612D01*
D02*
G37*
%LPC*%
G36*
X294918Y466560D02*
X291812D01*
Y463454D01*
X292313Y463553D01*
X293815Y464557D01*
X294819Y466059D01*
X294918Y466560D01*
D02*
G37*
G36*
X289272D02*
X286166D01*
X286266Y466059D01*
X287269Y464557D01*
X288771Y463553D01*
X289272Y463454D01*
Y466560D01*
D02*
G37*
G36*
X317269Y470458D02*
X314672D01*
Y467862D01*
X314978Y467923D01*
X316315Y468815D01*
X317208Y470152D01*
X317269Y470458D01*
D02*
G37*
G36*
X312132D02*
X309536D01*
X309597Y470152D01*
X310489Y468815D01*
X311826Y467923D01*
X312132Y467862D01*
Y470458D01*
D02*
G37*
G36*
X262659Y465290D02*
X260062D01*
Y462693D01*
X260368Y462754D01*
X261705Y463647D01*
X262598Y464984D01*
X262659Y465290D01*
D02*
G37*
G36*
X257522D02*
X254926D01*
X254986Y464984D01*
X255879Y463647D01*
X257216Y462754D01*
X257522Y462693D01*
Y465290D01*
D02*
G37*
G36*
X303242Y466111D02*
Y462750D01*
X306603D01*
X306484Y463349D01*
X305425Y464933D01*
X303841Y465992D01*
X303242Y466111D01*
D02*
G37*
G36*
X300702D02*
X300103Y465992D01*
X298519Y464933D01*
X297460Y463349D01*
X297341Y462750D01*
X300702D01*
Y466111D01*
D02*
G37*
G36*
X246092Y481800D02*
X242731D01*
X242850Y481201D01*
X243909Y479617D01*
X245493Y478558D01*
X246092Y478439D01*
Y481800D01*
D02*
G37*
G36*
X314672Y475595D02*
Y472998D01*
X317269D01*
X317208Y473304D01*
X316315Y474641D01*
X314978Y475534D01*
X314672Y475595D01*
D02*
G37*
G36*
X246092Y487701D02*
X245493Y487582D01*
X243909Y486523D01*
X242850Y484939D01*
X242731Y484340D01*
X246092D01*
Y487701D01*
D02*
G37*
G36*
X251993Y481800D02*
X248632D01*
Y478439D01*
X249231Y478558D01*
X250816Y479617D01*
X251874Y481201D01*
X251993Y481800D01*
D02*
G37*
G36*
X347692Y472461D02*
X347093Y472342D01*
X345509Y471283D01*
X344450Y469699D01*
X344331Y469100D01*
X347692D01*
Y472461D01*
D02*
G37*
G36*
X296892Y479779D02*
X258792D01*
X257621Y479546D01*
X256629Y478883D01*
X256629Y478883D01*
X255625Y477879D01*
X254789Y477712D01*
X253549Y476884D01*
X252720Y475643D01*
X252429Y474180D01*
X252720Y472717D01*
X253549Y471477D01*
X254789Y470648D01*
X255223Y470561D01*
X255434Y470211D01*
X255681Y469175D01*
X254986Y468136D01*
X254926Y467830D01*
X262659D01*
X262598Y468136D01*
X261705Y469473D01*
X260368Y470366D01*
X259712Y470496D01*
X259583Y470663D01*
X259230Y471887D01*
X259785Y472717D01*
X259951Y473553D01*
X260059Y473661D01*
X290077D01*
X290202Y472391D01*
X289688Y472289D01*
X288771Y472107D01*
X287269Y471103D01*
X286266Y469601D01*
X286166Y469100D01*
X294918D01*
X294819Y469601D01*
X293815Y471103D01*
X292313Y472107D01*
X291397Y472289D01*
X290883Y472391D01*
X291008Y473661D01*
X296892D01*
X298063Y473894D01*
X299055Y474557D01*
X299718Y475550D01*
X299951Y476720D01*
X299718Y477891D01*
X299055Y478883D01*
X298063Y479546D01*
X296892Y479779D01*
D02*
G37*
G36*
X312132Y475595D02*
X311826Y475534D01*
X310489Y474641D01*
X309597Y473304D01*
X309536Y472998D01*
X312132D01*
Y475595D01*
D02*
G37*
G36*
X350232Y472461D02*
Y469100D01*
X353593D01*
X353474Y469699D01*
X352416Y471283D01*
X350831Y472342D01*
X350232Y472461D01*
D02*
G37*
G36*
X263692Y415901D02*
X263093Y415782D01*
X261509Y414723D01*
X260795D01*
X259211Y415782D01*
X258612Y415901D01*
Y411270D01*
Y406639D01*
X259211Y406758D01*
X260795Y407817D01*
X261509D01*
X263093Y406758D01*
X263692Y406639D01*
Y411270D01*
Y415901D01*
D02*
G37*
G36*
X266232D02*
Y412540D01*
X269593D01*
X269474Y413139D01*
X268416Y414723D01*
X266831Y415782D01*
X266232Y415901D01*
D02*
G37*
G36*
X292098Y451694D02*
X288737D01*
X288856Y451095D01*
X289915Y449511D01*
X291499Y448452D01*
X292098Y448333D01*
Y451694D01*
D02*
G37*
G36*
X313368Y463447D02*
X311905Y463156D01*
X310665Y462327D01*
X309836Y461086D01*
X309545Y459623D01*
X309836Y458160D01*
X310665Y456920D01*
X311905Y456091D01*
X312741Y455924D01*
X339788Y428877D01*
X340781Y428214D01*
X341951Y427981D01*
X355400D01*
X356109Y427508D01*
X357572Y427217D01*
X359035Y427508D01*
X360276Y428336D01*
X361105Y429577D01*
X361395Y431040D01*
X361105Y432503D01*
X360276Y433744D01*
X359035Y434572D01*
X357572Y434864D01*
X356109Y434572D01*
X355400Y434099D01*
X343218D01*
X317067Y460250D01*
X316901Y461086D01*
X316072Y462327D01*
X314831Y463156D01*
X313368Y463447D01*
D02*
G37*
G36*
X256072Y410000D02*
X252711D01*
X252830Y409401D01*
X253889Y407817D01*
X255473Y406758D01*
X256072Y406639D01*
Y410000D01*
D02*
G37*
G36*
X318122Y397118D02*
X273122D01*
X270773Y396808D01*
X268583Y395901D01*
X266703Y394459D01*
X265261Y392579D01*
X264354Y390390D01*
X264044Y388040D01*
X264354Y385690D01*
X265261Y383501D01*
X266703Y381621D01*
X268583Y380179D01*
X270773Y379272D01*
X273122Y378962D01*
X318122D01*
X320472Y379272D01*
X322661Y380179D01*
X324541Y381621D01*
X325984Y383501D01*
X326890Y385690D01*
X327200Y388040D01*
X326890Y390390D01*
X325984Y392579D01*
X324541Y394459D01*
X322661Y395901D01*
X320472Y396808D01*
X318122Y397118D01*
D02*
G37*
G36*
X256072Y415901D02*
X255473Y415782D01*
X253889Y414723D01*
X252830Y413139D01*
X252711Y412540D01*
X256072D01*
Y415901D01*
D02*
G37*
G36*
X269593Y410000D02*
X266232D01*
Y406639D01*
X266831Y406758D01*
X268416Y407817D01*
X269474Y409401D01*
X269593Y410000D01*
D02*
G37*
G36*
X300702Y460210D02*
X297341D01*
X297460Y459611D01*
X298519Y458027D01*
X300103Y456968D01*
X300702Y456849D01*
Y460210D01*
D02*
G37*
G36*
X353593Y458940D02*
X350232D01*
Y455579D01*
X350831Y455698D01*
X352416Y456757D01*
X353474Y458341D01*
X353593Y458940D01*
D02*
G37*
G36*
Y466560D02*
X344331D01*
X344450Y465961D01*
X345509Y464377D01*
Y463663D01*
X344450Y462079D01*
X344331Y461480D01*
X353593D01*
X353474Y462079D01*
X352416Y463663D01*
Y464377D01*
X353474Y465961D01*
X353593Y466560D01*
D02*
G37*
G36*
X306603Y460210D02*
X303242D01*
Y456849D01*
X303841Y456968D01*
X305425Y458027D01*
X306484Y459611D01*
X306603Y460210D01*
D02*
G37*
G36*
X292098Y457595D02*
X291499Y457476D01*
X289915Y456418D01*
X288856Y454833D01*
X288737Y454234D01*
X292098D01*
Y457595D01*
D02*
G37*
G36*
X297999Y451694D02*
X294638D01*
Y448333D01*
X295237Y448452D01*
X296822Y449511D01*
X297880Y451095D01*
X297999Y451694D01*
D02*
G37*
G36*
X347692Y458940D02*
X344331D01*
X344450Y458341D01*
X345509Y456757D01*
X347093Y455698D01*
X347692Y455579D01*
Y458940D01*
D02*
G37*
G36*
X294638Y457595D02*
Y454234D01*
X297999D01*
X297880Y454833D01*
X296822Y456418D01*
X295237Y457476D01*
X294638Y457595D01*
D02*
G37*
G36*
X248632Y487701D02*
Y484340D01*
X251993D01*
X251874Y484939D01*
X250816Y486523D01*
X249231Y487582D01*
X248632Y487701D01*
D02*
G37*
G36*
X249651Y577050D02*
X246289D01*
X246409Y576451D01*
X247467Y574867D01*
X249052Y573808D01*
X249651Y573689D01*
Y577050D01*
D02*
G37*
G36*
X317212Y574061D02*
Y570700D01*
X320573D01*
X320454Y571299D01*
X319396Y572883D01*
X317811Y573942D01*
X317212Y574061D01*
D02*
G37*
G36*
X255552Y584670D02*
X246289D01*
X246409Y584071D01*
X247467Y582487D01*
Y581773D01*
X246409Y580189D01*
X246289Y579590D01*
X255552D01*
X255433Y580189D01*
X254374Y581773D01*
Y582487D01*
X255433Y584071D01*
X255552Y584670D01*
D02*
G37*
G36*
Y577050D02*
X252191D01*
Y573689D01*
X252790Y573808D01*
X254374Y574867D01*
X255433Y576451D01*
X255552Y577050D01*
D02*
G37*
G36*
X314672Y568160D02*
X311311D01*
X311430Y567561D01*
X312489Y565977D01*
X314073Y564918D01*
X314672Y564799D01*
Y568160D01*
D02*
G37*
G36*
X291812Y556744D02*
X290349Y556452D01*
X289640Y555979D01*
X267682D01*
X266512Y555746D01*
X265519Y555083D01*
X250279Y539843D01*
X249616Y538851D01*
X249383Y537680D01*
X249383Y537680D01*
Y497942D01*
X248910Y497233D01*
X248619Y495770D01*
X248910Y494307D01*
X249739Y493066D01*
X250979Y492238D01*
X252442Y491947D01*
X253905Y492238D01*
X255146Y493066D01*
X255975Y494307D01*
X256266Y495770D01*
X255975Y497233D01*
X255501Y497942D01*
Y536413D01*
X268949Y549861D01*
X289640D01*
X290349Y549388D01*
X291812Y549097D01*
X293275Y549388D01*
X294516Y550216D01*
X295345Y551457D01*
X295636Y552920D01*
X295345Y554383D01*
X294516Y555624D01*
X293275Y556452D01*
X291812Y556744D01*
D02*
G37*
G36*
X314672Y574061D02*
X314073Y573942D01*
X312489Y572883D01*
X311430Y571299D01*
X311311Y570700D01*
X314672D01*
Y574061D01*
D02*
G37*
G36*
X320573Y568160D02*
X317212D01*
Y564799D01*
X317811Y564918D01*
X319396Y565977D01*
X320454Y567561D01*
X320573Y568160D01*
D02*
G37*
G36*
X322753Y637540D02*
X313491D01*
X313610Y636941D01*
X314483Y635635D01*
X313610Y634329D01*
X313491Y633730D01*
X322753D01*
X322634Y634329D01*
X321762Y635635D01*
X322634Y636941D01*
X322753Y637540D01*
D02*
G37*
G36*
Y631190D02*
X313491D01*
X313610Y630591D01*
X314483Y629285D01*
X313610Y627979D01*
X313491Y627380D01*
X322753D01*
X322634Y627979D01*
X321762Y629285D01*
X322634Y630591D01*
X322753Y631190D01*
D02*
G37*
G36*
X319392Y643441D02*
Y640080D01*
X322753D01*
X322634Y640679D01*
X321576Y642263D01*
X319991Y643322D01*
X319392Y643441D01*
D02*
G37*
G36*
X316852D02*
X316253Y643322D01*
X314669Y642263D01*
X313610Y640679D01*
X313491Y640080D01*
X316852D01*
Y643441D01*
D02*
G37*
G36*
X252191Y590571D02*
Y587210D01*
X255552D01*
X255433Y587809D01*
X254374Y589393D01*
X252790Y590452D01*
X252191Y590571D01*
D02*
G37*
G36*
X249651D02*
X249052Y590452D01*
X247467Y589393D01*
X246409Y587809D01*
X246289Y587210D01*
X249651D01*
Y590571D01*
D02*
G37*
G36*
X322753Y624840D02*
X319392D01*
Y621479D01*
X319991Y621598D01*
X321576Y622657D01*
X322634Y624241D01*
X322753Y624840D01*
D02*
G37*
G36*
X316852D02*
X313491D01*
X313610Y624241D01*
X314669Y622657D01*
X316253Y621598D01*
X316852Y621479D01*
Y624840D01*
D02*
G37*
G36*
X234662Y502120D02*
X231301D01*
X231420Y501521D01*
X232479Y499937D01*
X234063Y498878D01*
X234662Y498759D01*
Y502120D01*
D02*
G37*
G36*
X273203Y501270D02*
X269842D01*
Y497909D01*
X270441Y498028D01*
X272026Y499087D01*
X273084Y500671D01*
X273203Y501270D01*
D02*
G37*
G36*
X301302Y506171D02*
X300703Y506052D01*
X299119Y504993D01*
X298060Y503409D01*
X297941Y502810D01*
X301302D01*
Y506171D01*
D02*
G37*
G36*
X240563Y502120D02*
X237202D01*
Y498759D01*
X237801Y498878D01*
X239386Y499937D01*
X240444Y501521D01*
X240563Y502120D01*
D02*
G37*
G36*
X301302Y500270D02*
X297941D01*
X298060Y499671D01*
X299119Y498087D01*
X300703Y497028D01*
X301302Y496909D01*
Y500270D01*
D02*
G37*
G36*
X314672Y504674D02*
X313209Y504382D01*
X311968Y503554D01*
X311140Y502313D01*
X310849Y500850D01*
X311140Y499387D01*
X311968Y498147D01*
X313209Y497318D01*
X314672Y497027D01*
X315155Y497123D01*
X324860Y487418D01*
X325604Y486921D01*
X326482Y486746D01*
X351095D01*
X351368Y486336D01*
X352609Y485508D01*
X354072Y485217D01*
X355535Y485508D01*
X356776Y486336D01*
X357604Y487577D01*
X357896Y489040D01*
X357604Y490503D01*
X356776Y491744D01*
X355535Y492572D01*
X354072Y492864D01*
X352609Y492572D01*
X351368Y491744D01*
X351095Y491334D01*
X327432D01*
X318399Y500367D01*
X318496Y500850D01*
X318204Y502313D01*
X317376Y503554D01*
X316135Y504382D01*
X314672Y504674D01*
D02*
G37*
G36*
X267302Y501270D02*
X263941D01*
X264060Y500671D01*
X265119Y499087D01*
X266703Y498028D01*
X267302Y497909D01*
Y501270D01*
D02*
G37*
G36*
X307203Y500270D02*
X303842D01*
Y496909D01*
X304441Y497028D01*
X306026Y498087D01*
X307084Y499671D01*
X307203Y500270D01*
D02*
G37*
G36*
X237202Y515641D02*
Y512280D01*
X240563D01*
X240444Y512879D01*
X239386Y514463D01*
X237801Y515522D01*
X237202Y515641D01*
D02*
G37*
G36*
X234662D02*
X234063Y515522D01*
X232479Y514463D01*
X231420Y512879D01*
X231301Y512280D01*
X234662D01*
Y515641D01*
D02*
G37*
G36*
X274332Y544343D02*
X272869Y544052D01*
X271628Y543224D01*
X270800Y541983D01*
X270509Y540520D01*
X270800Y539057D01*
X271628Y537816D01*
X272869Y536988D01*
X274332Y536697D01*
X275795Y536988D01*
X277036Y537816D01*
X277309Y538226D01*
X319114D01*
X319589Y537517D01*
X320829Y536688D01*
X322292Y536397D01*
X323755Y536688D01*
X324996Y537517D01*
X325825Y538757D01*
X326115Y540220D01*
X325825Y541683D01*
X324996Y542924D01*
X323755Y543752D01*
X322292Y544044D01*
X320829Y543752D01*
X319589Y542924D01*
X319515Y542814D01*
X277309D01*
X277036Y543224D01*
X275795Y544052D01*
X274332Y544343D01*
D02*
G37*
G36*
X342612Y532613D02*
X341149Y532322D01*
X339908Y531494D01*
X339635Y531084D01*
X265579D01*
X265306Y531494D01*
X264065Y532322D01*
X262602Y532613D01*
X261139Y532322D01*
X259898Y531494D01*
X259070Y530253D01*
X258779Y528790D01*
X259070Y527327D01*
X259898Y526087D01*
X261139Y525258D01*
X262602Y524967D01*
X264065Y525258D01*
X265306Y526087D01*
X265579Y526496D01*
X339635D01*
X339908Y526087D01*
X341149Y525258D01*
X342612Y524967D01*
X344075Y525258D01*
X345316Y526087D01*
X346144Y527327D01*
X346436Y528790D01*
X346144Y530253D01*
X345316Y531494D01*
X344075Y532322D01*
X342612Y532613D01*
D02*
G37*
G36*
X267302Y507171D02*
X266703Y507052D01*
X265119Y505993D01*
X264060Y504409D01*
X263941Y503810D01*
X267302D01*
Y507171D01*
D02*
G37*
G36*
X303842Y506171D02*
Y502810D01*
X307203D01*
X307084Y503409D01*
X306026Y504993D01*
X304441Y506052D01*
X303842Y506171D01*
D02*
G37*
G36*
X240563Y509740D02*
X231301D01*
X231420Y509141D01*
X232479Y507557D01*
Y506843D01*
X231420Y505259D01*
X231301Y504660D01*
X240563D01*
X240444Y505259D01*
X239386Y506843D01*
Y507557D01*
X240444Y509141D01*
X240563Y509740D01*
D02*
G37*
G36*
X269842Y507171D02*
Y503810D01*
X273203D01*
X273084Y504409D01*
X272026Y505993D01*
X270441Y507052D01*
X269842Y507171D01*
D02*
G37*
%LPD*%
G36*
X509724Y687612D02*
X511666Y686314D01*
X512964Y684372D01*
X513406Y682149D01*
X513393Y682080D01*
Y535080D01*
X513548Y534300D01*
X513990Y533638D01*
X530440Y517188D01*
X530440Y517188D01*
X531102Y516746D01*
X531882Y516591D01*
X538192D01*
Y516561D01*
X539344Y516332D01*
X540321Y515679D01*
X540974Y514702D01*
X541203Y513550D01*
X541233D01*
Y375120D01*
X541203D01*
X540974Y373968D01*
X540321Y372991D01*
X539344Y372338D01*
X538192Y372109D01*
Y372079D01*
X383252D01*
Y372109D01*
X382100Y372338D01*
X381123Y372991D01*
X380470Y373968D01*
X380241Y375120D01*
X380211D01*
Y390360D01*
Y513550D01*
X380241D01*
X380470Y514702D01*
X381123Y515679D01*
X382100Y516332D01*
X383252Y516561D01*
Y516591D01*
X388982D01*
X389762Y516746D01*
X390424Y517188D01*
X406874Y533638D01*
X406874Y533638D01*
X407316Y534300D01*
X407471Y535080D01*
Y593235D01*
X413874Y599638D01*
X413874Y599638D01*
X414316Y600300D01*
X414471Y601080D01*
X414471Y601080D01*
Y611080D01*
X414316Y611860D01*
X413874Y612522D01*
X413213Y612964D01*
X412432Y613119D01*
X407471D01*
Y629997D01*
X419874Y642400D01*
X420316Y643062D01*
X420471Y643842D01*
Y682080D01*
X420458Y682149D01*
X420900Y684372D01*
X422198Y686314D01*
X424141Y687612D01*
X426364Y688055D01*
X426432Y688041D01*
X507432D01*
X507501Y688055D01*
X509724Y687612D01*
D02*
G37*
%LPC*%
G36*
X460018Y466560D02*
X456912D01*
Y463454D01*
X457413Y463553D01*
X458915Y464557D01*
X459919Y466059D01*
X460018Y466560D01*
D02*
G37*
G36*
X454372D02*
X451266D01*
X451366Y466059D01*
X452369Y464557D01*
X453871Y463553D01*
X454372Y463454D01*
Y466560D01*
D02*
G37*
G36*
X482369Y470458D02*
X479772D01*
Y467862D01*
X480078Y467923D01*
X481415Y468815D01*
X482308Y470152D01*
X482369Y470458D01*
D02*
G37*
G36*
X477232D02*
X474636D01*
X474697Y470152D01*
X475589Y468815D01*
X476926Y467923D01*
X477232Y467862D01*
Y470458D01*
D02*
G37*
G36*
X427759Y465290D02*
X425162D01*
Y462693D01*
X425468Y462754D01*
X426805Y463647D01*
X427698Y464984D01*
X427759Y465290D01*
D02*
G37*
G36*
X422622D02*
X420026D01*
X420087Y464984D01*
X420979Y463647D01*
X422316Y462754D01*
X422622Y462693D01*
Y465290D01*
D02*
G37*
G36*
X468342Y466111D02*
Y462750D01*
X471703D01*
X471584Y463349D01*
X470526Y464933D01*
X468941Y465992D01*
X468342Y466111D01*
D02*
G37*
G36*
X465802D02*
X465203Y465992D01*
X463619Y464933D01*
X462560Y463349D01*
X462441Y462750D01*
X465802D01*
Y466111D01*
D02*
G37*
G36*
X411192Y481800D02*
X407831D01*
X407950Y481201D01*
X409009Y479617D01*
X410593Y478558D01*
X411192Y478439D01*
Y481800D01*
D02*
G37*
G36*
X479772Y475595D02*
Y472998D01*
X482369D01*
X482308Y473304D01*
X481415Y474641D01*
X480078Y475534D01*
X479772Y475595D01*
D02*
G37*
G36*
X411192Y487701D02*
X410593Y487582D01*
X409009Y486523D01*
X407950Y484939D01*
X407831Y484340D01*
X411192D01*
Y487701D01*
D02*
G37*
G36*
X417093Y481800D02*
X413732D01*
Y478439D01*
X414331Y478558D01*
X415915Y479617D01*
X416974Y481201D01*
X417093Y481800D01*
D02*
G37*
G36*
X512792Y472461D02*
X512193Y472342D01*
X510609Y471283D01*
X509550Y469699D01*
X509431Y469100D01*
X512792D01*
Y472461D01*
D02*
G37*
G36*
X461992Y479779D02*
X423892D01*
X422721Y479546D01*
X421729Y478883D01*
X421729Y478883D01*
X420725Y477879D01*
X419889Y477712D01*
X418648Y476884D01*
X417820Y475643D01*
X417529Y474180D01*
X417820Y472717D01*
X418648Y471477D01*
X419889Y470648D01*
X420323Y470561D01*
X420534Y470211D01*
X420781Y469175D01*
X420087Y468136D01*
X420026Y467830D01*
X427759D01*
X427698Y468136D01*
X426805Y469473D01*
X425468Y470366D01*
X424812Y470496D01*
X424683Y470663D01*
X424330Y471887D01*
X424884Y472717D01*
X425051Y473553D01*
X425159Y473661D01*
X455177D01*
X455302Y472391D01*
X454787Y472289D01*
X453871Y472107D01*
X452369Y471103D01*
X451366Y469601D01*
X451266Y469100D01*
X460018D01*
X459919Y469601D01*
X458915Y471103D01*
X457413Y472107D01*
X456497Y472289D01*
X455983Y472391D01*
X456108Y473661D01*
X461992D01*
X463163Y473894D01*
X464155Y474557D01*
X464818Y475550D01*
X465051Y476720D01*
X464818Y477891D01*
X464155Y478883D01*
X463163Y479546D01*
X461992Y479779D01*
D02*
G37*
G36*
X477232Y475595D02*
X476926Y475534D01*
X475589Y474641D01*
X474697Y473304D01*
X474636Y472998D01*
X477232D01*
Y475595D01*
D02*
G37*
G36*
X515332Y472461D02*
Y469100D01*
X518693D01*
X518574Y469699D01*
X517515Y471283D01*
X515931Y472342D01*
X515332Y472461D01*
D02*
G37*
G36*
X428792Y415901D02*
X428193Y415782D01*
X426609Y414723D01*
X425895D01*
X424311Y415782D01*
X423712Y415901D01*
Y411270D01*
Y406639D01*
X424311Y406758D01*
X425895Y407817D01*
X426609D01*
X428193Y406758D01*
X428792Y406639D01*
Y411270D01*
Y415901D01*
D02*
G37*
G36*
X431332D02*
Y412540D01*
X434693D01*
X434574Y413139D01*
X433516Y414723D01*
X431931Y415782D01*
X431332Y415901D01*
D02*
G37*
G36*
X457198Y451694D02*
X453837D01*
X453956Y451095D01*
X455015Y449511D01*
X456599Y448452D01*
X457198Y448333D01*
Y451694D01*
D02*
G37*
G36*
X478468Y463447D02*
X477005Y463156D01*
X475765Y462327D01*
X474936Y461086D01*
X474645Y459623D01*
X474936Y458160D01*
X475765Y456920D01*
X477005Y456091D01*
X477841Y455924D01*
X504888Y428877D01*
X505881Y428214D01*
X507051Y427981D01*
X520500D01*
X521209Y427508D01*
X522672Y427217D01*
X524135Y427508D01*
X525376Y428336D01*
X526204Y429577D01*
X526496Y431040D01*
X526204Y432503D01*
X525376Y433744D01*
X524135Y434572D01*
X522672Y434864D01*
X521209Y434572D01*
X520500Y434099D01*
X508318D01*
X482167Y460250D01*
X482001Y461086D01*
X481172Y462327D01*
X479931Y463156D01*
X478468Y463447D01*
D02*
G37*
G36*
X421172Y410000D02*
X417811D01*
X417930Y409401D01*
X418989Y407817D01*
X420573Y406758D01*
X421172Y406639D01*
Y410000D01*
D02*
G37*
G36*
X483222Y397118D02*
X438222D01*
X435873Y396808D01*
X433683Y395901D01*
X431803Y394459D01*
X430361Y392579D01*
X429454Y390390D01*
X429145Y388040D01*
X429454Y385690D01*
X430361Y383501D01*
X431803Y381621D01*
X433683Y380179D01*
X435873Y379272D01*
X438222Y378962D01*
X483222D01*
X485572Y379272D01*
X487761Y380179D01*
X489641Y381621D01*
X491083Y383501D01*
X491990Y385690D01*
X492300Y388040D01*
X491990Y390390D01*
X491083Y392579D01*
X489641Y394459D01*
X487761Y395901D01*
X485572Y396808D01*
X483222Y397118D01*
D02*
G37*
G36*
X421172Y415901D02*
X420573Y415782D01*
X418989Y414723D01*
X417930Y413139D01*
X417811Y412540D01*
X421172D01*
Y415901D01*
D02*
G37*
G36*
X434693Y410000D02*
X431332D01*
Y406639D01*
X431931Y406758D01*
X433516Y407817D01*
X434574Y409401D01*
X434693Y410000D01*
D02*
G37*
G36*
X465802Y460210D02*
X462441D01*
X462560Y459611D01*
X463619Y458027D01*
X465203Y456968D01*
X465802Y456849D01*
Y460210D01*
D02*
G37*
G36*
X518693Y458940D02*
X515332D01*
Y455579D01*
X515931Y455698D01*
X517515Y456757D01*
X518574Y458341D01*
X518693Y458940D01*
D02*
G37*
G36*
Y466560D02*
X509431D01*
X509550Y465961D01*
X510609Y464377D01*
Y463663D01*
X509550Y462079D01*
X509431Y461480D01*
X518693D01*
X518574Y462079D01*
X517515Y463663D01*
Y464377D01*
X518574Y465961D01*
X518693Y466560D01*
D02*
G37*
G36*
X471703Y460210D02*
X468342D01*
Y456849D01*
X468941Y456968D01*
X470526Y458027D01*
X471584Y459611D01*
X471703Y460210D01*
D02*
G37*
G36*
X457198Y457595D02*
X456599Y457476D01*
X455015Y456418D01*
X453956Y454833D01*
X453837Y454234D01*
X457198D01*
Y457595D01*
D02*
G37*
G36*
X463099Y451694D02*
X459738D01*
Y448333D01*
X460337Y448452D01*
X461922Y449511D01*
X462980Y451095D01*
X463099Y451694D01*
D02*
G37*
G36*
X512792Y458940D02*
X509431D01*
X509550Y458341D01*
X510609Y456757D01*
X512193Y455698D01*
X512792Y455579D01*
Y458940D01*
D02*
G37*
G36*
X459738Y457595D02*
Y454234D01*
X463099D01*
X462980Y454833D01*
X461922Y456418D01*
X460337Y457476D01*
X459738Y457595D01*
D02*
G37*
G36*
X413732Y487701D02*
Y484340D01*
X417093D01*
X416974Y484939D01*
X415915Y486523D01*
X414331Y487582D01*
X413732Y487701D01*
D02*
G37*
G36*
X414751Y577050D02*
X411389D01*
X411508Y576451D01*
X412567Y574867D01*
X414152Y573808D01*
X414751Y573689D01*
Y577050D01*
D02*
G37*
G36*
X482312Y574061D02*
Y570700D01*
X485673D01*
X485554Y571299D01*
X484496Y572883D01*
X482911Y573942D01*
X482312Y574061D01*
D02*
G37*
G36*
X420652Y584670D02*
X411389D01*
X411508Y584071D01*
X412567Y582487D01*
Y581773D01*
X411508Y580189D01*
X411389Y579590D01*
X420652D01*
X420533Y580189D01*
X419474Y581773D01*
Y582487D01*
X420533Y584071D01*
X420652Y584670D01*
D02*
G37*
G36*
Y577050D02*
X417291D01*
Y573689D01*
X417890Y573808D01*
X419474Y574867D01*
X420533Y576451D01*
X420652Y577050D01*
D02*
G37*
G36*
X479772Y568160D02*
X476411D01*
X476530Y567561D01*
X477589Y565977D01*
X479173Y564918D01*
X479772Y564799D01*
Y568160D01*
D02*
G37*
G36*
X456912Y556744D02*
X455449Y556452D01*
X454740Y555979D01*
X432782D01*
X431612Y555746D01*
X430619Y555083D01*
X415379Y539843D01*
X414716Y538851D01*
X414483Y537680D01*
X414483Y537680D01*
Y497942D01*
X414010Y497233D01*
X413719Y495770D01*
X414010Y494307D01*
X414838Y493066D01*
X416079Y492238D01*
X417542Y491947D01*
X419005Y492238D01*
X420246Y493066D01*
X421074Y494307D01*
X421366Y495770D01*
X421074Y497233D01*
X420601Y497942D01*
Y536413D01*
X434049Y549861D01*
X454740D01*
X455449Y549388D01*
X456912Y549097D01*
X458375Y549388D01*
X459616Y550216D01*
X460444Y551457D01*
X460736Y552920D01*
X460444Y554383D01*
X459616Y555624D01*
X458375Y556452D01*
X456912Y556744D01*
D02*
G37*
G36*
X479772Y574061D02*
X479173Y573942D01*
X477589Y572883D01*
X476530Y571299D01*
X476411Y570700D01*
X479772D01*
Y574061D01*
D02*
G37*
G36*
X485673Y568160D02*
X482312D01*
Y564799D01*
X482911Y564918D01*
X484496Y565977D01*
X485554Y567561D01*
X485673Y568160D01*
D02*
G37*
G36*
X487853Y637540D02*
X478591D01*
X478710Y636941D01*
X479583Y635635D01*
X478710Y634329D01*
X478591Y633730D01*
X487853D01*
X487734Y634329D01*
X486861Y635635D01*
X487734Y636941D01*
X487853Y637540D01*
D02*
G37*
G36*
Y631190D02*
X478591D01*
X478710Y630591D01*
X479583Y629285D01*
X478710Y627979D01*
X478591Y627380D01*
X487853D01*
X487734Y627979D01*
X486861Y629285D01*
X487734Y630591D01*
X487853Y631190D01*
D02*
G37*
G36*
X484492Y643441D02*
Y640080D01*
X487853D01*
X487734Y640679D01*
X486675Y642263D01*
X485091Y643322D01*
X484492Y643441D01*
D02*
G37*
G36*
X481952D02*
X481353Y643322D01*
X479769Y642263D01*
X478710Y640679D01*
X478591Y640080D01*
X481952D01*
Y643441D01*
D02*
G37*
G36*
X417291Y590571D02*
Y587210D01*
X420652D01*
X420533Y587809D01*
X419474Y589393D01*
X417890Y590452D01*
X417291Y590571D01*
D02*
G37*
G36*
X414751D02*
X414152Y590452D01*
X412567Y589393D01*
X411508Y587809D01*
X411389Y587210D01*
X414751D01*
Y590571D01*
D02*
G37*
G36*
X487853Y624840D02*
X484492D01*
Y621479D01*
X485091Y621598D01*
X486675Y622657D01*
X487734Y624241D01*
X487853Y624840D01*
D02*
G37*
G36*
X481952D02*
X478591D01*
X478710Y624241D01*
X479769Y622657D01*
X481353Y621598D01*
X481952Y621479D01*
Y624840D01*
D02*
G37*
G36*
X399762Y502120D02*
X396401D01*
X396520Y501521D01*
X397579Y499937D01*
X399163Y498878D01*
X399762Y498759D01*
Y502120D01*
D02*
G37*
G36*
X438303Y501270D02*
X434942D01*
Y497909D01*
X435541Y498028D01*
X437126Y499087D01*
X438184Y500671D01*
X438303Y501270D01*
D02*
G37*
G36*
X466402Y506171D02*
X465803Y506052D01*
X464219Y504993D01*
X463160Y503409D01*
X463041Y502810D01*
X466402D01*
Y506171D01*
D02*
G37*
G36*
X405663Y502120D02*
X402302D01*
Y498759D01*
X402901Y498878D01*
X404486Y499937D01*
X405544Y501521D01*
X405663Y502120D01*
D02*
G37*
G36*
X466402Y500270D02*
X463041D01*
X463160Y499671D01*
X464219Y498087D01*
X465803Y497028D01*
X466402Y496909D01*
Y500270D01*
D02*
G37*
G36*
X479772Y504674D02*
X478309Y504382D01*
X477068Y503554D01*
X476240Y502313D01*
X475949Y500850D01*
X476240Y499387D01*
X477068Y498147D01*
X478309Y497318D01*
X479772Y497027D01*
X480255Y497123D01*
X489960Y487418D01*
X490704Y486921D01*
X491582Y486746D01*
X516195D01*
X516469Y486336D01*
X517709Y485508D01*
X519172Y485217D01*
X520635Y485508D01*
X521876Y486336D01*
X522705Y487577D01*
X522995Y489040D01*
X522705Y490503D01*
X521876Y491744D01*
X520635Y492572D01*
X519172Y492864D01*
X517709Y492572D01*
X516469Y491744D01*
X516195Y491334D01*
X492532D01*
X483499Y500367D01*
X483596Y500850D01*
X483304Y502313D01*
X482476Y503554D01*
X481235Y504382D01*
X479772Y504674D01*
D02*
G37*
G36*
X432402Y501270D02*
X429041D01*
X429160Y500671D01*
X430219Y499087D01*
X431803Y498028D01*
X432402Y497909D01*
Y501270D01*
D02*
G37*
G36*
X472303Y500270D02*
X468942D01*
Y496909D01*
X469541Y497028D01*
X471125Y498087D01*
X472184Y499671D01*
X472303Y500270D01*
D02*
G37*
G36*
X402302Y515641D02*
Y512280D01*
X405663D01*
X405544Y512879D01*
X404486Y514463D01*
X402901Y515522D01*
X402302Y515641D01*
D02*
G37*
G36*
X399762D02*
X399163Y515522D01*
X397579Y514463D01*
X396520Y512879D01*
X396401Y512280D01*
X399762D01*
Y515641D01*
D02*
G37*
G36*
X439432Y544343D02*
X437969Y544052D01*
X436729Y543224D01*
X435900Y541983D01*
X435609Y540520D01*
X435900Y539057D01*
X436729Y537816D01*
X437969Y536988D01*
X439432Y536697D01*
X440895Y536988D01*
X442136Y537816D01*
X442409Y538226D01*
X484214D01*
X484688Y537517D01*
X485929Y536688D01*
X487392Y536397D01*
X488855Y536688D01*
X490096Y537517D01*
X490924Y538757D01*
X491216Y540220D01*
X490924Y541683D01*
X490096Y542924D01*
X488855Y543752D01*
X487392Y544044D01*
X485929Y543752D01*
X484688Y542924D01*
X484615Y542814D01*
X442409D01*
X442136Y543224D01*
X440895Y544052D01*
X439432Y544343D01*
D02*
G37*
G36*
X507712Y532613D02*
X506249Y532322D01*
X505009Y531494D01*
X504735Y531084D01*
X430679D01*
X430406Y531494D01*
X429165Y532322D01*
X427702Y532613D01*
X426239Y532322D01*
X424999Y531494D01*
X424170Y530253D01*
X423879Y528790D01*
X424170Y527327D01*
X424999Y526087D01*
X426239Y525258D01*
X427702Y524967D01*
X429165Y525258D01*
X430406Y526087D01*
X430679Y526496D01*
X504735D01*
X505009Y526087D01*
X506249Y525258D01*
X507712Y524967D01*
X509175Y525258D01*
X510416Y526087D01*
X511245Y527327D01*
X511535Y528790D01*
X511245Y530253D01*
X510416Y531494D01*
X509175Y532322D01*
X507712Y532613D01*
D02*
G37*
G36*
X432402Y507171D02*
X431803Y507052D01*
X430219Y505993D01*
X429160Y504409D01*
X429041Y503810D01*
X432402D01*
Y507171D01*
D02*
G37*
G36*
X468942Y506171D02*
Y502810D01*
X472303D01*
X472184Y503409D01*
X471125Y504993D01*
X469541Y506052D01*
X468942Y506171D01*
D02*
G37*
G36*
X405663Y509740D02*
X396401D01*
X396520Y509141D01*
X397579Y507557D01*
Y506843D01*
X396520Y505259D01*
X396401Y504660D01*
X405663D01*
X405544Y505259D01*
X404486Y506843D01*
Y507557D01*
X405544Y509141D01*
X405663Y509740D01*
D02*
G37*
G36*
X434942Y507171D02*
Y503810D01*
X438303D01*
X438184Y504409D01*
X437126Y505993D01*
X435541Y507052D01*
X434942Y507171D01*
D02*
G37*
%LPD*%
G36*
X674824Y687612D02*
X676766Y686314D01*
X678064Y684372D01*
X678506Y682149D01*
X678493Y682080D01*
Y535080D01*
X678648Y534300D01*
X679090Y533638D01*
X695540Y517188D01*
X695540Y517188D01*
X696202Y516746D01*
X696982Y516591D01*
X703292D01*
Y516561D01*
X704444Y516332D01*
X705421Y515679D01*
X706074Y514702D01*
X706303Y513550D01*
X706333D01*
Y375120D01*
X706303D01*
X706074Y373968D01*
X705421Y372991D01*
X704444Y372338D01*
X703292Y372109D01*
Y372079D01*
X548352D01*
Y372109D01*
X547200Y372338D01*
X546223Y372991D01*
X545570Y373968D01*
X545341Y375120D01*
X545311D01*
Y390360D01*
Y513550D01*
X545341D01*
X545570Y514702D01*
X546223Y515679D01*
X547200Y516332D01*
X548352Y516561D01*
Y516591D01*
X554082D01*
X554862Y516746D01*
X555524Y517188D01*
X571974Y533638D01*
X571974Y533638D01*
X572416Y534300D01*
X572571Y535080D01*
Y593235D01*
X578974Y599638D01*
X578974Y599638D01*
X579416Y600300D01*
X579571Y601080D01*
X579571Y601080D01*
Y611080D01*
X579416Y611860D01*
X578974Y612522D01*
X578312Y612964D01*
X577532Y613119D01*
X572571D01*
Y629997D01*
X584974Y642400D01*
X585416Y643062D01*
X585571Y643842D01*
Y682080D01*
X585558Y682149D01*
X586000Y684372D01*
X587298Y686314D01*
X589241Y687612D01*
X591464Y688055D01*
X591532Y688041D01*
X672532D01*
X672601Y688055D01*
X674824Y687612D01*
D02*
G37*
%LPC*%
G36*
X625118Y466560D02*
X622012D01*
Y463454D01*
X622514Y463553D01*
X624015Y464557D01*
X625019Y466059D01*
X625118Y466560D01*
D02*
G37*
G36*
X619472D02*
X616366D01*
X616465Y466059D01*
X617469Y464557D01*
X618971Y463553D01*
X619472Y463454D01*
Y466560D01*
D02*
G37*
G36*
X647469Y470458D02*
X644872D01*
Y467862D01*
X645178Y467923D01*
X646515Y468815D01*
X647408Y470152D01*
X647469Y470458D01*
D02*
G37*
G36*
X642332D02*
X639736D01*
X639796Y470152D01*
X640689Y468815D01*
X642026Y467923D01*
X642332Y467862D01*
Y470458D01*
D02*
G37*
G36*
X592859Y465290D02*
X590262D01*
Y462693D01*
X590568Y462754D01*
X591905Y463647D01*
X592798Y464984D01*
X592859Y465290D01*
D02*
G37*
G36*
X587722D02*
X585126D01*
X585187Y464984D01*
X586079Y463647D01*
X587416Y462754D01*
X587722Y462693D01*
Y465290D01*
D02*
G37*
G36*
X633442Y466111D02*
Y462750D01*
X636803D01*
X636684Y463349D01*
X635625Y464933D01*
X634041Y465992D01*
X633442Y466111D01*
D02*
G37*
G36*
X630902D02*
X630303Y465992D01*
X628719Y464933D01*
X627660Y463349D01*
X627541Y462750D01*
X630902D01*
Y466111D01*
D02*
G37*
G36*
X576292Y481800D02*
X572931D01*
X573050Y481201D01*
X574109Y479617D01*
X575693Y478558D01*
X576292Y478439D01*
Y481800D01*
D02*
G37*
G36*
X644872Y475595D02*
Y472998D01*
X647469D01*
X647408Y473304D01*
X646515Y474641D01*
X645178Y475534D01*
X644872Y475595D01*
D02*
G37*
G36*
X576292Y487701D02*
X575693Y487582D01*
X574109Y486523D01*
X573050Y484939D01*
X572931Y484340D01*
X576292D01*
Y487701D01*
D02*
G37*
G36*
X582193Y481800D02*
X578832D01*
Y478439D01*
X579431Y478558D01*
X581016Y479617D01*
X582074Y481201D01*
X582193Y481800D01*
D02*
G37*
G36*
X677892Y472461D02*
X677293Y472342D01*
X675709Y471283D01*
X674650Y469699D01*
X674531Y469100D01*
X677892D01*
Y472461D01*
D02*
G37*
G36*
X627092Y479779D02*
X588992D01*
X587822Y479546D01*
X586829Y478883D01*
X586829Y478883D01*
X585825Y477879D01*
X584989Y477712D01*
X583749Y476884D01*
X582920Y475643D01*
X582629Y474180D01*
X582920Y472717D01*
X583749Y471477D01*
X584989Y470648D01*
X585423Y470561D01*
X585634Y470211D01*
X585881Y469175D01*
X585187Y468136D01*
X585126Y467830D01*
X592859D01*
X592798Y468136D01*
X591905Y469473D01*
X590568Y470366D01*
X589912Y470496D01*
X589783Y470663D01*
X589430Y471887D01*
X589985Y472717D01*
X590151Y473553D01*
X590259Y473661D01*
X620276D01*
X620402Y472391D01*
X619888Y472289D01*
X618971Y472107D01*
X617469Y471103D01*
X616465Y469601D01*
X616366Y469100D01*
X625118D01*
X625019Y469601D01*
X624015Y471103D01*
X622514Y472107D01*
X621597Y472289D01*
X621083Y472391D01*
X621208Y473661D01*
X627092D01*
X628263Y473894D01*
X629255Y474557D01*
X629918Y475550D01*
X630151Y476720D01*
X629918Y477891D01*
X629255Y478883D01*
X628263Y479546D01*
X627092Y479779D01*
D02*
G37*
G36*
X642332Y475595D02*
X642026Y475534D01*
X640689Y474641D01*
X639796Y473304D01*
X639736Y472998D01*
X642332D01*
Y475595D01*
D02*
G37*
G36*
X680432Y472461D02*
Y469100D01*
X683793D01*
X683674Y469699D01*
X682616Y471283D01*
X681031Y472342D01*
X680432Y472461D01*
D02*
G37*
G36*
X593892Y415901D02*
X593293Y415782D01*
X591709Y414723D01*
X590995D01*
X589411Y415782D01*
X588812Y415901D01*
Y411270D01*
Y406639D01*
X589411Y406758D01*
X590995Y407817D01*
X591709D01*
X593293Y406758D01*
X593892Y406639D01*
Y411270D01*
Y415901D01*
D02*
G37*
G36*
X596432D02*
Y412540D01*
X599793D01*
X599674Y413139D01*
X598615Y414723D01*
X597031Y415782D01*
X596432Y415901D01*
D02*
G37*
G36*
X622298Y451694D02*
X618937D01*
X619056Y451095D01*
X620115Y449511D01*
X621699Y448452D01*
X622298Y448333D01*
Y451694D01*
D02*
G37*
G36*
X643568Y463447D02*
X642105Y463156D01*
X640865Y462327D01*
X640036Y461086D01*
X639745Y459623D01*
X640036Y458160D01*
X640865Y456920D01*
X642105Y456091D01*
X642941Y455924D01*
X669988Y428877D01*
X670981Y428214D01*
X672151Y427981D01*
X685600D01*
X686309Y427508D01*
X687772Y427217D01*
X689235Y427508D01*
X690476Y428336D01*
X691304Y429577D01*
X691596Y431040D01*
X691304Y432503D01*
X690476Y433744D01*
X689235Y434572D01*
X687772Y434864D01*
X686309Y434572D01*
X685600Y434099D01*
X673418D01*
X647267Y460250D01*
X647101Y461086D01*
X646272Y462327D01*
X645031Y463156D01*
X643568Y463447D01*
D02*
G37*
G36*
X586272Y410000D02*
X582911D01*
X583030Y409401D01*
X584089Y407817D01*
X585673Y406758D01*
X586272Y406639D01*
Y410000D01*
D02*
G37*
G36*
X648322Y397118D02*
X603322D01*
X600973Y396808D01*
X598783Y395901D01*
X596903Y394459D01*
X595461Y392579D01*
X594554Y390390D01*
X594244Y388040D01*
X594554Y385690D01*
X595461Y383501D01*
X596903Y381621D01*
X598783Y380179D01*
X600973Y379272D01*
X603322Y378962D01*
X648322D01*
X650672Y379272D01*
X652861Y380179D01*
X654741Y381621D01*
X656183Y383501D01*
X657090Y385690D01*
X657400Y388040D01*
X657090Y390390D01*
X656183Y392579D01*
X654741Y394459D01*
X652861Y395901D01*
X650672Y396808D01*
X648322Y397118D01*
D02*
G37*
G36*
X586272Y415901D02*
X585673Y415782D01*
X584089Y414723D01*
X583030Y413139D01*
X582911Y412540D01*
X586272D01*
Y415901D01*
D02*
G37*
G36*
X599793Y410000D02*
X596432D01*
Y406639D01*
X597031Y406758D01*
X598615Y407817D01*
X599674Y409401D01*
X599793Y410000D01*
D02*
G37*
G36*
X630902Y460210D02*
X627541D01*
X627660Y459611D01*
X628719Y458027D01*
X630303Y456968D01*
X630902Y456849D01*
Y460210D01*
D02*
G37*
G36*
X683793Y458940D02*
X680432D01*
Y455579D01*
X681031Y455698D01*
X682616Y456757D01*
X683674Y458341D01*
X683793Y458940D01*
D02*
G37*
G36*
Y466560D02*
X674531D01*
X674650Y465961D01*
X675709Y464377D01*
Y463663D01*
X674650Y462079D01*
X674531Y461480D01*
X683793D01*
X683674Y462079D01*
X682616Y463663D01*
Y464377D01*
X683674Y465961D01*
X683793Y466560D01*
D02*
G37*
G36*
X636803Y460210D02*
X633442D01*
Y456849D01*
X634041Y456968D01*
X635625Y458027D01*
X636684Y459611D01*
X636803Y460210D01*
D02*
G37*
G36*
X622298Y457595D02*
X621699Y457476D01*
X620115Y456418D01*
X619056Y454833D01*
X618937Y454234D01*
X622298D01*
Y457595D01*
D02*
G37*
G36*
X628199Y451694D02*
X624838D01*
Y448333D01*
X625437Y448452D01*
X627022Y449511D01*
X628080Y451095D01*
X628199Y451694D01*
D02*
G37*
G36*
X677892Y458940D02*
X674531D01*
X674650Y458341D01*
X675709Y456757D01*
X677293Y455698D01*
X677892Y455579D01*
Y458940D01*
D02*
G37*
G36*
X624838Y457595D02*
Y454234D01*
X628199D01*
X628080Y454833D01*
X627022Y456418D01*
X625437Y457476D01*
X624838Y457595D01*
D02*
G37*
G36*
X578832Y487701D02*
Y484340D01*
X582193D01*
X582074Y484939D01*
X581016Y486523D01*
X579431Y487582D01*
X578832Y487701D01*
D02*
G37*
G36*
X579851Y577050D02*
X576489D01*
X576609Y576451D01*
X577667Y574867D01*
X579252Y573808D01*
X579851Y573689D01*
Y577050D01*
D02*
G37*
G36*
X647412Y574061D02*
Y570700D01*
X650773D01*
X650654Y571299D01*
X649595Y572883D01*
X648011Y573942D01*
X647412Y574061D01*
D02*
G37*
G36*
X585752Y584670D02*
X576489D01*
X576609Y584071D01*
X577667Y582487D01*
Y581773D01*
X576609Y580189D01*
X576489Y579590D01*
X585752D01*
X585633Y580189D01*
X584574Y581773D01*
Y582487D01*
X585633Y584071D01*
X585752Y584670D01*
D02*
G37*
G36*
Y577050D02*
X582391D01*
Y573689D01*
X582990Y573808D01*
X584574Y574867D01*
X585633Y576451D01*
X585752Y577050D01*
D02*
G37*
G36*
X644872Y568160D02*
X641511D01*
X641630Y567561D01*
X642689Y565977D01*
X644273Y564918D01*
X644872Y564799D01*
Y568160D01*
D02*
G37*
G36*
X622012Y556744D02*
X620549Y556452D01*
X619840Y555979D01*
X597882D01*
X596712Y555746D01*
X595719Y555083D01*
X580479Y539843D01*
X579816Y538851D01*
X579583Y537680D01*
X579583Y537680D01*
Y497942D01*
X579110Y497233D01*
X578819Y495770D01*
X579110Y494307D01*
X579939Y493066D01*
X581179Y492238D01*
X582642Y491947D01*
X584105Y492238D01*
X585346Y493066D01*
X586175Y494307D01*
X586465Y495770D01*
X586175Y497233D01*
X585701Y497942D01*
Y536413D01*
X599149Y549861D01*
X619840D01*
X620549Y549388D01*
X622012Y549097D01*
X623475Y549388D01*
X624716Y550216D01*
X625545Y551457D01*
X625835Y552920D01*
X625545Y554383D01*
X624716Y555624D01*
X623475Y556452D01*
X622012Y556744D01*
D02*
G37*
G36*
X644872Y574061D02*
X644273Y573942D01*
X642689Y572883D01*
X641630Y571299D01*
X641511Y570700D01*
X644872D01*
Y574061D01*
D02*
G37*
G36*
X650773Y568160D02*
X647412D01*
Y564799D01*
X648011Y564918D01*
X649595Y565977D01*
X650654Y567561D01*
X650773Y568160D01*
D02*
G37*
G36*
X652953Y637540D02*
X643691D01*
X643810Y636941D01*
X644683Y635635D01*
X643810Y634329D01*
X643691Y633730D01*
X652953D01*
X652834Y634329D01*
X651962Y635635D01*
X652834Y636941D01*
X652953Y637540D01*
D02*
G37*
G36*
Y631190D02*
X643691D01*
X643810Y630591D01*
X644683Y629285D01*
X643810Y627979D01*
X643691Y627380D01*
X652953D01*
X652834Y627979D01*
X651962Y629285D01*
X652834Y630591D01*
X652953Y631190D01*
D02*
G37*
G36*
X649592Y643441D02*
Y640080D01*
X652953D01*
X652834Y640679D01*
X651776Y642263D01*
X650191Y643322D01*
X649592Y643441D01*
D02*
G37*
G36*
X647052D02*
X646453Y643322D01*
X644869Y642263D01*
X643810Y640679D01*
X643691Y640080D01*
X647052D01*
Y643441D01*
D02*
G37*
G36*
X582391Y590571D02*
Y587210D01*
X585752D01*
X585633Y587809D01*
X584574Y589393D01*
X582990Y590452D01*
X582391Y590571D01*
D02*
G37*
G36*
X579851D02*
X579252Y590452D01*
X577667Y589393D01*
X576609Y587809D01*
X576489Y587210D01*
X579851D01*
Y590571D01*
D02*
G37*
G36*
X652953Y624840D02*
X649592D01*
Y621479D01*
X650191Y621598D01*
X651776Y622657D01*
X652834Y624241D01*
X652953Y624840D01*
D02*
G37*
G36*
X647052D02*
X643691D01*
X643810Y624241D01*
X644869Y622657D01*
X646453Y621598D01*
X647052Y621479D01*
Y624840D01*
D02*
G37*
G36*
X564862Y502120D02*
X561501D01*
X561620Y501521D01*
X562679Y499937D01*
X564263Y498878D01*
X564862Y498759D01*
Y502120D01*
D02*
G37*
G36*
X603403Y501270D02*
X600042D01*
Y497909D01*
X600641Y498028D01*
X602225Y499087D01*
X603284Y500671D01*
X603403Y501270D01*
D02*
G37*
G36*
X631502Y506171D02*
X630903Y506052D01*
X629319Y504993D01*
X628260Y503409D01*
X628141Y502810D01*
X631502D01*
Y506171D01*
D02*
G37*
G36*
X570763Y502120D02*
X567402D01*
Y498759D01*
X568001Y498878D01*
X569585Y499937D01*
X570644Y501521D01*
X570763Y502120D01*
D02*
G37*
G36*
X631502Y500270D02*
X628141D01*
X628260Y499671D01*
X629319Y498087D01*
X630903Y497028D01*
X631502Y496909D01*
Y500270D01*
D02*
G37*
G36*
X644872Y504674D02*
X643409Y504382D01*
X642169Y503554D01*
X641340Y502313D01*
X641049Y500850D01*
X641340Y499387D01*
X642169Y498147D01*
X643409Y497318D01*
X644872Y497027D01*
X645355Y497123D01*
X655060Y487418D01*
X655804Y486921D01*
X656682Y486746D01*
X681295D01*
X681569Y486336D01*
X682809Y485508D01*
X684272Y485217D01*
X685735Y485508D01*
X686976Y486336D01*
X687804Y487577D01*
X688095Y489040D01*
X687804Y490503D01*
X686976Y491744D01*
X685735Y492572D01*
X684272Y492864D01*
X682809Y492572D01*
X681569Y491744D01*
X681295Y491334D01*
X657632D01*
X648599Y500367D01*
X648696Y500850D01*
X648404Y502313D01*
X647576Y503554D01*
X646335Y504382D01*
X644872Y504674D01*
D02*
G37*
G36*
X597502Y501270D02*
X594141D01*
X594260Y500671D01*
X595319Y499087D01*
X596903Y498028D01*
X597502Y497909D01*
Y501270D01*
D02*
G37*
G36*
X637403Y500270D02*
X634042D01*
Y496909D01*
X634641Y497028D01*
X636226Y498087D01*
X637284Y499671D01*
X637403Y500270D01*
D02*
G37*
G36*
X567402Y515641D02*
Y512280D01*
X570763D01*
X570644Y512879D01*
X569585Y514463D01*
X568001Y515522D01*
X567402Y515641D01*
D02*
G37*
G36*
X564862D02*
X564263Y515522D01*
X562679Y514463D01*
X561620Y512879D01*
X561501Y512280D01*
X564862D01*
Y515641D01*
D02*
G37*
G36*
X604532Y544343D02*
X603069Y544052D01*
X601828Y543224D01*
X601000Y541983D01*
X600709Y540520D01*
X601000Y539057D01*
X601828Y537816D01*
X603069Y536988D01*
X604532Y536697D01*
X605995Y536988D01*
X607236Y537816D01*
X607509Y538226D01*
X649314D01*
X649789Y537517D01*
X651029Y536688D01*
X652492Y536397D01*
X653955Y536688D01*
X655196Y537517D01*
X656024Y538757D01*
X656316Y540220D01*
X656024Y541683D01*
X655196Y542924D01*
X653955Y543752D01*
X652492Y544044D01*
X651029Y543752D01*
X649789Y542924D01*
X649715Y542814D01*
X607509D01*
X607236Y543224D01*
X605995Y544052D01*
X604532Y544343D01*
D02*
G37*
G36*
X672812Y532613D02*
X671349Y532322D01*
X670108Y531494D01*
X669835Y531084D01*
X595779D01*
X595506Y531494D01*
X594265Y532322D01*
X592802Y532613D01*
X591339Y532322D01*
X590098Y531494D01*
X589270Y530253D01*
X588979Y528790D01*
X589270Y527327D01*
X590098Y526087D01*
X591339Y525258D01*
X592802Y524967D01*
X594265Y525258D01*
X595506Y526087D01*
X595779Y526496D01*
X669835D01*
X670108Y526087D01*
X671349Y525258D01*
X672812Y524967D01*
X674275Y525258D01*
X675516Y526087D01*
X676345Y527327D01*
X676636Y528790D01*
X676345Y530253D01*
X675516Y531494D01*
X674275Y532322D01*
X672812Y532613D01*
D02*
G37*
G36*
X597502Y507171D02*
X596903Y507052D01*
X595319Y505993D01*
X594260Y504409D01*
X594141Y503810D01*
X597502D01*
Y507171D01*
D02*
G37*
G36*
X634042Y506171D02*
Y502810D01*
X637403D01*
X637284Y503409D01*
X636226Y504993D01*
X634641Y506052D01*
X634042Y506171D01*
D02*
G37*
G36*
X570763Y509740D02*
X561501D01*
X561620Y509141D01*
X562679Y507557D01*
Y506843D01*
X561620Y505259D01*
X561501Y504660D01*
X570763D01*
X570644Y505259D01*
X569585Y506843D01*
Y507557D01*
X570644Y509141D01*
X570763Y509740D01*
D02*
G37*
G36*
X600042Y507171D02*
Y503810D01*
X603403D01*
X603284Y504409D01*
X602225Y505993D01*
X600641Y507052D01*
X600042Y507171D01*
D02*
G37*
%LPD*%
G36*
X839924Y687612D02*
X841866Y686314D01*
X843164Y684372D01*
X843606Y682149D01*
X843593Y682080D01*
Y535080D01*
X843748Y534300D01*
X844190Y533638D01*
X860640Y517188D01*
X860640Y517188D01*
X861302Y516746D01*
X862082Y516591D01*
X868392D01*
Y516561D01*
X869544Y516332D01*
X870521Y515679D01*
X871174Y514702D01*
X871403Y513550D01*
X871433D01*
Y375120D01*
X871403D01*
X871174Y373968D01*
X870521Y372991D01*
X869544Y372338D01*
X868392Y372109D01*
Y372079D01*
X713452D01*
Y372109D01*
X712300Y372338D01*
X711323Y372991D01*
X710670Y373968D01*
X710441Y375120D01*
X710411D01*
Y390360D01*
Y513550D01*
X710441D01*
X710670Y514702D01*
X711323Y515679D01*
X712300Y516332D01*
X713452Y516561D01*
Y516591D01*
X719182D01*
X719962Y516746D01*
X720624Y517188D01*
X737074Y533638D01*
X737074Y533638D01*
X737516Y534300D01*
X737671Y535080D01*
Y593235D01*
X744074Y599638D01*
X744074Y599638D01*
X744516Y600300D01*
X744671Y601080D01*
X744671Y601080D01*
Y611080D01*
X744516Y611860D01*
X744074Y612522D01*
X743412Y612964D01*
X742632Y613119D01*
X737671D01*
Y629997D01*
X750074Y642400D01*
X750516Y643062D01*
X750671Y643842D01*
Y682080D01*
X750658Y682149D01*
X751100Y684372D01*
X752398Y686314D01*
X754341Y687612D01*
X756564Y688055D01*
X756632Y688041D01*
X837632D01*
X837701Y688055D01*
X839924Y687612D01*
D02*
G37*
%LPC*%
G36*
X790218Y466560D02*
X787112D01*
Y463454D01*
X787614Y463553D01*
X789115Y464557D01*
X790119Y466059D01*
X790218Y466560D01*
D02*
G37*
G36*
X784572D02*
X781466D01*
X781565Y466059D01*
X782569Y464557D01*
X784071Y463553D01*
X784572Y463454D01*
Y466560D01*
D02*
G37*
G36*
X812569Y470458D02*
X809972D01*
Y467862D01*
X810278Y467923D01*
X811615Y468815D01*
X812508Y470152D01*
X812569Y470458D01*
D02*
G37*
G36*
X807432D02*
X804836D01*
X804896Y470152D01*
X805789Y468815D01*
X807126Y467923D01*
X807432Y467862D01*
Y470458D01*
D02*
G37*
G36*
X757959Y465290D02*
X755362D01*
Y462693D01*
X755668Y462754D01*
X757005Y463647D01*
X757898Y464984D01*
X757959Y465290D01*
D02*
G37*
G36*
X752822D02*
X750226D01*
X750286Y464984D01*
X751179Y463647D01*
X752516Y462754D01*
X752822Y462693D01*
Y465290D01*
D02*
G37*
G36*
X798542Y466111D02*
Y462750D01*
X801903D01*
X801784Y463349D01*
X800725Y464933D01*
X799141Y465992D01*
X798542Y466111D01*
D02*
G37*
G36*
X796002D02*
X795403Y465992D01*
X793819Y464933D01*
X792760Y463349D01*
X792641Y462750D01*
X796002D01*
Y466111D01*
D02*
G37*
G36*
X741392Y481800D02*
X738031D01*
X738150Y481201D01*
X739209Y479617D01*
X740793Y478558D01*
X741392Y478439D01*
Y481800D01*
D02*
G37*
G36*
X809972Y475595D02*
Y472998D01*
X812569D01*
X812508Y473304D01*
X811615Y474641D01*
X810278Y475534D01*
X809972Y475595D01*
D02*
G37*
G36*
X741392Y487701D02*
X740793Y487582D01*
X739209Y486523D01*
X738150Y484939D01*
X738031Y484340D01*
X741392D01*
Y487701D01*
D02*
G37*
G36*
X747293Y481800D02*
X743932D01*
Y478439D01*
X744531Y478558D01*
X746115Y479617D01*
X747174Y481201D01*
X747293Y481800D01*
D02*
G37*
G36*
X842992Y472461D02*
X842393Y472342D01*
X840809Y471283D01*
X839750Y469699D01*
X839631Y469100D01*
X842992D01*
Y472461D01*
D02*
G37*
G36*
X792192Y479779D02*
X754092D01*
X752922Y479546D01*
X751929Y478883D01*
X751929Y478883D01*
X750925Y477879D01*
X750089Y477712D01*
X748848Y476884D01*
X748020Y475643D01*
X747729Y474180D01*
X748020Y472717D01*
X748848Y471477D01*
X750089Y470648D01*
X750523Y470561D01*
X750734Y470211D01*
X750981Y469175D01*
X750286Y468136D01*
X750226Y467830D01*
X757959D01*
X757898Y468136D01*
X757005Y469473D01*
X755668Y470366D01*
X755012Y470496D01*
X754883Y470663D01*
X754530Y471887D01*
X755085Y472717D01*
X755251Y473553D01*
X755359Y473661D01*
X785377D01*
X785502Y472391D01*
X784987Y472289D01*
X784071Y472107D01*
X782569Y471103D01*
X781565Y469601D01*
X781466Y469100D01*
X790218D01*
X790119Y469601D01*
X789115Y471103D01*
X787614Y472107D01*
X786697Y472289D01*
X786183Y472391D01*
X786308Y473661D01*
X792192D01*
X793363Y473894D01*
X794355Y474557D01*
X795018Y475550D01*
X795251Y476720D01*
X795018Y477891D01*
X794355Y478883D01*
X793363Y479546D01*
X792192Y479779D01*
D02*
G37*
G36*
X807432Y475595D02*
X807126Y475534D01*
X805789Y474641D01*
X804896Y473304D01*
X804836Y472998D01*
X807432D01*
Y475595D01*
D02*
G37*
G36*
X845532Y472461D02*
Y469100D01*
X848893D01*
X848774Y469699D01*
X847716Y471283D01*
X846131Y472342D01*
X845532Y472461D01*
D02*
G37*
G36*
X758992Y415901D02*
X758393Y415782D01*
X756809Y414723D01*
X756095D01*
X754511Y415782D01*
X753912Y415901D01*
Y411270D01*
Y406639D01*
X754511Y406758D01*
X756095Y407817D01*
X756809D01*
X758393Y406758D01*
X758992Y406639D01*
Y411270D01*
Y415901D01*
D02*
G37*
G36*
X761532D02*
Y412540D01*
X764893D01*
X764774Y413139D01*
X763716Y414723D01*
X762131Y415782D01*
X761532Y415901D01*
D02*
G37*
G36*
X787398Y451694D02*
X784037D01*
X784156Y451095D01*
X785215Y449511D01*
X786799Y448452D01*
X787398Y448333D01*
Y451694D01*
D02*
G37*
G36*
X808668Y463447D02*
X807205Y463156D01*
X805965Y462327D01*
X805136Y461086D01*
X804845Y459623D01*
X805136Y458160D01*
X805965Y456920D01*
X807205Y456091D01*
X808041Y455924D01*
X835088Y428877D01*
X836081Y428214D01*
X837251Y427981D01*
X850700D01*
X851409Y427508D01*
X852872Y427217D01*
X854335Y427508D01*
X855576Y428336D01*
X856404Y429577D01*
X856695Y431040D01*
X856404Y432503D01*
X855576Y433744D01*
X854335Y434572D01*
X852872Y434864D01*
X851409Y434572D01*
X850700Y434099D01*
X838518D01*
X812367Y460250D01*
X812200Y461086D01*
X811372Y462327D01*
X810131Y463156D01*
X808668Y463447D01*
D02*
G37*
G36*
X751372Y410000D02*
X748011D01*
X748130Y409401D01*
X749189Y407817D01*
X750773Y406758D01*
X751372Y406639D01*
Y410000D01*
D02*
G37*
G36*
X813422Y397118D02*
X768422D01*
X766073Y396808D01*
X763883Y395901D01*
X762003Y394459D01*
X760561Y392579D01*
X759654Y390390D01*
X759344Y388040D01*
X759654Y385690D01*
X760561Y383501D01*
X762003Y381621D01*
X763883Y380179D01*
X766073Y379272D01*
X768422Y378962D01*
X813422D01*
X815772Y379272D01*
X817961Y380179D01*
X819841Y381621D01*
X821283Y383501D01*
X822190Y385690D01*
X822500Y388040D01*
X822190Y390390D01*
X821283Y392579D01*
X819841Y394459D01*
X817961Y395901D01*
X815772Y396808D01*
X813422Y397118D01*
D02*
G37*
G36*
X751372Y415901D02*
X750773Y415782D01*
X749189Y414723D01*
X748130Y413139D01*
X748011Y412540D01*
X751372D01*
Y415901D01*
D02*
G37*
G36*
X764893Y410000D02*
X761532D01*
Y406639D01*
X762131Y406758D01*
X763716Y407817D01*
X764774Y409401D01*
X764893Y410000D01*
D02*
G37*
G36*
X796002Y460210D02*
X792641D01*
X792760Y459611D01*
X793819Y458027D01*
X795403Y456968D01*
X796002Y456849D01*
Y460210D01*
D02*
G37*
G36*
X848893Y458940D02*
X845532D01*
Y455579D01*
X846131Y455698D01*
X847716Y456757D01*
X848774Y458341D01*
X848893Y458940D01*
D02*
G37*
G36*
Y466560D02*
X839631D01*
X839750Y465961D01*
X840809Y464377D01*
Y463663D01*
X839750Y462079D01*
X839631Y461480D01*
X848893D01*
X848774Y462079D01*
X847716Y463663D01*
Y464377D01*
X848774Y465961D01*
X848893Y466560D01*
D02*
G37*
G36*
X801903Y460210D02*
X798542D01*
Y456849D01*
X799141Y456968D01*
X800725Y458027D01*
X801784Y459611D01*
X801903Y460210D01*
D02*
G37*
G36*
X787398Y457595D02*
X786799Y457476D01*
X785215Y456418D01*
X784156Y454833D01*
X784037Y454234D01*
X787398D01*
Y457595D01*
D02*
G37*
G36*
X793299Y451694D02*
X789938D01*
Y448333D01*
X790537Y448452D01*
X792122Y449511D01*
X793180Y451095D01*
X793299Y451694D01*
D02*
G37*
G36*
X842992Y458940D02*
X839631D01*
X839750Y458341D01*
X840809Y456757D01*
X842393Y455698D01*
X842992Y455579D01*
Y458940D01*
D02*
G37*
G36*
X789938Y457595D02*
Y454234D01*
X793299D01*
X793180Y454833D01*
X792122Y456418D01*
X790537Y457476D01*
X789938Y457595D01*
D02*
G37*
G36*
X743932Y487701D02*
Y484340D01*
X747293D01*
X747174Y484939D01*
X746115Y486523D01*
X744531Y487582D01*
X743932Y487701D01*
D02*
G37*
G36*
X744951Y577050D02*
X741589D01*
X741709Y576451D01*
X742767Y574867D01*
X744352Y573808D01*
X744951Y573689D01*
Y577050D01*
D02*
G37*
G36*
X812512Y574061D02*
Y570700D01*
X815873D01*
X815754Y571299D01*
X814696Y572883D01*
X813111Y573942D01*
X812512Y574061D01*
D02*
G37*
G36*
X750852Y584670D02*
X741589D01*
X741709Y584071D01*
X742767Y582487D01*
Y581773D01*
X741709Y580189D01*
X741589Y579590D01*
X750852D01*
X750733Y580189D01*
X749674Y581773D01*
Y582487D01*
X750733Y584071D01*
X750852Y584670D01*
D02*
G37*
G36*
Y577050D02*
X747491D01*
Y573689D01*
X748090Y573808D01*
X749674Y574867D01*
X750733Y576451D01*
X750852Y577050D01*
D02*
G37*
G36*
X809972Y568160D02*
X806611D01*
X806730Y567561D01*
X807789Y565977D01*
X809373Y564918D01*
X809972Y564799D01*
Y568160D01*
D02*
G37*
G36*
X787112Y556744D02*
X785649Y556452D01*
X784940Y555979D01*
X762982D01*
X761812Y555746D01*
X760819Y555083D01*
X745579Y539843D01*
X744916Y538851D01*
X744683Y537680D01*
X744683Y537680D01*
Y497942D01*
X744210Y497233D01*
X743919Y495770D01*
X744210Y494307D01*
X745039Y493066D01*
X746279Y492238D01*
X747742Y491947D01*
X749205Y492238D01*
X750446Y493066D01*
X751274Y494307D01*
X751565Y495770D01*
X751274Y497233D01*
X750801Y497942D01*
Y536413D01*
X764249Y549861D01*
X784940D01*
X785649Y549388D01*
X787112Y549097D01*
X788575Y549388D01*
X789816Y550216D01*
X790645Y551457D01*
X790936Y552920D01*
X790645Y554383D01*
X789816Y555624D01*
X788575Y556452D01*
X787112Y556744D01*
D02*
G37*
G36*
X809972Y574061D02*
X809373Y573942D01*
X807789Y572883D01*
X806730Y571299D01*
X806611Y570700D01*
X809972D01*
Y574061D01*
D02*
G37*
G36*
X815873Y568160D02*
X812512D01*
Y564799D01*
X813111Y564918D01*
X814696Y565977D01*
X815754Y567561D01*
X815873Y568160D01*
D02*
G37*
G36*
X818053Y637540D02*
X808791D01*
X808910Y636941D01*
X809783Y635635D01*
X808910Y634329D01*
X808791Y633730D01*
X818053D01*
X817934Y634329D01*
X817061Y635635D01*
X817934Y636941D01*
X818053Y637540D01*
D02*
G37*
G36*
Y631190D02*
X808791D01*
X808910Y630591D01*
X809783Y629285D01*
X808910Y627979D01*
X808791Y627380D01*
X818053D01*
X817934Y627979D01*
X817061Y629285D01*
X817934Y630591D01*
X818053Y631190D01*
D02*
G37*
G36*
X814692Y643441D02*
Y640080D01*
X818053D01*
X817934Y640679D01*
X816876Y642263D01*
X815291Y643322D01*
X814692Y643441D01*
D02*
G37*
G36*
X812152D02*
X811553Y643322D01*
X809969Y642263D01*
X808910Y640679D01*
X808791Y640080D01*
X812152D01*
Y643441D01*
D02*
G37*
G36*
X747491Y590571D02*
Y587210D01*
X750852D01*
X750733Y587809D01*
X749674Y589393D01*
X748090Y590452D01*
X747491Y590571D01*
D02*
G37*
G36*
X744951D02*
X744352Y590452D01*
X742767Y589393D01*
X741709Y587809D01*
X741589Y587210D01*
X744951D01*
Y590571D01*
D02*
G37*
G36*
X818053Y624840D02*
X814692D01*
Y621479D01*
X815291Y621598D01*
X816876Y622657D01*
X817934Y624241D01*
X818053Y624840D01*
D02*
G37*
G36*
X812152D02*
X808791D01*
X808910Y624241D01*
X809969Y622657D01*
X811553Y621598D01*
X812152Y621479D01*
Y624840D01*
D02*
G37*
G36*
X729962Y502120D02*
X726601D01*
X726720Y501521D01*
X727779Y499937D01*
X729363Y498878D01*
X729962Y498759D01*
Y502120D01*
D02*
G37*
G36*
X768503Y501270D02*
X765142D01*
Y497909D01*
X765741Y498028D01*
X767326Y499087D01*
X768384Y500671D01*
X768503Y501270D01*
D02*
G37*
G36*
X796602Y506171D02*
X796003Y506052D01*
X794419Y504993D01*
X793360Y503409D01*
X793241Y502810D01*
X796602D01*
Y506171D01*
D02*
G37*
G36*
X735863Y502120D02*
X732502D01*
Y498759D01*
X733101Y498878D01*
X734686Y499937D01*
X735744Y501521D01*
X735863Y502120D01*
D02*
G37*
G36*
X796602Y500270D02*
X793241D01*
X793360Y499671D01*
X794419Y498087D01*
X796003Y497028D01*
X796602Y496909D01*
Y500270D01*
D02*
G37*
G36*
X809972Y504674D02*
X808509Y504382D01*
X807269Y503554D01*
X806440Y502313D01*
X806149Y500850D01*
X806440Y499387D01*
X807269Y498147D01*
X808509Y497318D01*
X809972Y497027D01*
X810455Y497123D01*
X820160Y487418D01*
X820904Y486921D01*
X821782Y486746D01*
X846395D01*
X846668Y486336D01*
X847909Y485508D01*
X849372Y485217D01*
X850835Y485508D01*
X852076Y486336D01*
X852905Y487577D01*
X853195Y489040D01*
X852905Y490503D01*
X852076Y491744D01*
X850835Y492572D01*
X849372Y492864D01*
X847909Y492572D01*
X846668Y491744D01*
X846395Y491334D01*
X822732D01*
X813699Y500367D01*
X813795Y500850D01*
X813504Y502313D01*
X812676Y503554D01*
X811435Y504382D01*
X809972Y504674D01*
D02*
G37*
G36*
X762602Y501270D02*
X759241D01*
X759360Y500671D01*
X760419Y499087D01*
X762003Y498028D01*
X762602Y497909D01*
Y501270D01*
D02*
G37*
G36*
X802503Y500270D02*
X799142D01*
Y496909D01*
X799741Y497028D01*
X801326Y498087D01*
X802384Y499671D01*
X802503Y500270D01*
D02*
G37*
G36*
X732502Y515641D02*
Y512280D01*
X735863D01*
X735744Y512879D01*
X734686Y514463D01*
X733101Y515522D01*
X732502Y515641D01*
D02*
G37*
G36*
X729962D02*
X729363Y515522D01*
X727779Y514463D01*
X726720Y512879D01*
X726601Y512280D01*
X729962D01*
Y515641D01*
D02*
G37*
G36*
X769632Y544343D02*
X768169Y544052D01*
X766928Y543224D01*
X766100Y541983D01*
X765809Y540520D01*
X766100Y539057D01*
X766928Y537816D01*
X768169Y536988D01*
X769632Y536697D01*
X771095Y536988D01*
X772336Y537816D01*
X772609Y538226D01*
X814414D01*
X814889Y537517D01*
X816129Y536688D01*
X817592Y536397D01*
X819055Y536688D01*
X820296Y537517D01*
X821124Y538757D01*
X821415Y540220D01*
X821124Y541683D01*
X820296Y542924D01*
X819055Y543752D01*
X817592Y544044D01*
X816129Y543752D01*
X814889Y542924D01*
X814815Y542814D01*
X772609D01*
X772336Y543224D01*
X771095Y544052D01*
X769632Y544343D01*
D02*
G37*
G36*
X837912Y532613D02*
X836449Y532322D01*
X835209Y531494D01*
X834935Y531084D01*
X760879D01*
X760606Y531494D01*
X759365Y532322D01*
X757902Y532613D01*
X756439Y532322D01*
X755199Y531494D01*
X754370Y530253D01*
X754079Y528790D01*
X754370Y527327D01*
X755199Y526087D01*
X756439Y525258D01*
X757902Y524967D01*
X759365Y525258D01*
X760606Y526087D01*
X760879Y526496D01*
X834935D01*
X835209Y526087D01*
X836449Y525258D01*
X837912Y524967D01*
X839375Y525258D01*
X840616Y526087D01*
X841444Y527327D01*
X841736Y528790D01*
X841444Y530253D01*
X840616Y531494D01*
X839375Y532322D01*
X837912Y532613D01*
D02*
G37*
G36*
X762602Y507171D02*
X762003Y507052D01*
X760419Y505993D01*
X759360Y504409D01*
X759241Y503810D01*
X762602D01*
Y507171D01*
D02*
G37*
G36*
X799142Y506171D02*
Y502810D01*
X802503D01*
X802384Y503409D01*
X801326Y504993D01*
X799741Y506052D01*
X799142Y506171D01*
D02*
G37*
G36*
X735863Y509740D02*
X726601D01*
X726720Y509141D01*
X727779Y507557D01*
Y506843D01*
X726720Y505259D01*
X726601Y504660D01*
X735863D01*
X735744Y505259D01*
X734686Y506843D01*
Y507557D01*
X735744Y509141D01*
X735863Y509740D01*
D02*
G37*
G36*
X765142Y507171D02*
Y503810D01*
X768503D01*
X768384Y504409D01*
X767326Y505993D01*
X765741Y507052D01*
X765142Y507171D01*
D02*
G37*
%LPD*%
G36*
X741920Y52468D02*
X739978Y53766D01*
X738680Y55708D01*
X738238Y57931D01*
X738251Y58000D01*
Y205000D01*
X738096Y205780D01*
X737654Y206442D01*
X721204Y222892D01*
X721204Y222892D01*
X720543Y223334D01*
X719762Y223489D01*
X713452D01*
Y223519D01*
X712300Y223748D01*
X711323Y224401D01*
X710670Y225378D01*
X710441Y226530D01*
X710411D01*
Y364960D01*
X710441D01*
X710670Y366112D01*
X711323Y367089D01*
X712300Y367742D01*
X713452Y367971D01*
Y368001D01*
X868392D01*
Y367971D01*
X869544Y367742D01*
X870521Y367089D01*
X871174Y366112D01*
X871403Y364960D01*
X871433D01*
Y349720D01*
Y226530D01*
X871403D01*
X871174Y225378D01*
X870521Y224401D01*
X869544Y223748D01*
X868392Y223519D01*
Y223489D01*
X862662D01*
X861882Y223334D01*
X861220Y222892D01*
X844770Y206442D01*
X844770Y206442D01*
X844328Y205780D01*
X844173Y205000D01*
Y146845D01*
X837770Y140442D01*
X837770Y140442D01*
X837328Y139780D01*
X837173Y139000D01*
X837173Y139000D01*
Y129000D01*
X837328Y128220D01*
X837770Y127558D01*
X838432Y127116D01*
X839212Y126961D01*
X844173D01*
Y110083D01*
X831770Y97680D01*
X831328Y97018D01*
X831173Y96238D01*
Y58000D01*
X831187Y57931D01*
X830744Y55708D01*
X829446Y53766D01*
X827504Y52468D01*
X825281Y52026D01*
X825212Y52039D01*
X744212D01*
X744144Y52026D01*
X741920Y52468D01*
D02*
G37*
%LPC*%
G36*
X791626Y273520D02*
X794732D01*
Y276626D01*
X794231Y276527D01*
X792729Y275523D01*
X791725Y274021D01*
X791626Y273520D01*
D02*
G37*
G36*
X797272D02*
X800378D01*
X800279Y274021D01*
X799275Y275523D01*
X797774Y276527D01*
X797272Y276626D01*
Y273520D01*
D02*
G37*
G36*
X769276Y269622D02*
X771872D01*
Y272218D01*
X771566Y272158D01*
X770229Y271265D01*
X769336Y269928D01*
X769276Y269622D01*
D02*
G37*
G36*
X774412D02*
X777009D01*
X776948Y269928D01*
X776055Y271265D01*
X774718Y272158D01*
X774412Y272218D01*
Y269622D01*
D02*
G37*
G36*
X823886Y274790D02*
X826482D01*
Y277386D01*
X826176Y277326D01*
X824839Y276433D01*
X823947Y275096D01*
X823886Y274790D01*
D02*
G37*
G36*
X829022D02*
X831619D01*
X831558Y275096D01*
X830665Y276433D01*
X829328Y277326D01*
X829022Y277386D01*
Y274790D01*
D02*
G37*
G36*
X783302Y273969D02*
Y277330D01*
X779941D01*
X780060Y276731D01*
X781119Y275147D01*
X782703Y274088D01*
X783302Y273969D01*
D02*
G37*
G36*
X785842D02*
X786441Y274088D01*
X788026Y275147D01*
X789084Y276731D01*
X789203Y277330D01*
X785842D01*
Y273969D01*
D02*
G37*
G36*
X840452Y258280D02*
X843813D01*
X843694Y258879D01*
X842635Y260463D01*
X841051Y261522D01*
X840452Y261641D01*
Y258280D01*
D02*
G37*
G36*
X771872Y264485D02*
Y267082D01*
X769276D01*
X769336Y266776D01*
X770229Y265439D01*
X771566Y264546D01*
X771872Y264485D01*
D02*
G37*
G36*
X840452Y252379D02*
X841051Y252498D01*
X842635Y253557D01*
X843694Y255141D01*
X843813Y255740D01*
X840452D01*
Y252379D01*
D02*
G37*
G36*
X834551Y258280D02*
X837912D01*
Y261641D01*
X837313Y261522D01*
X835729Y260463D01*
X834670Y258879D01*
X834551Y258280D01*
D02*
G37*
G36*
X738852Y267619D02*
X739451Y267738D01*
X741036Y268797D01*
X742094Y270381D01*
X742213Y270980D01*
X738852D01*
Y267619D01*
D02*
G37*
G36*
X789652Y260301D02*
X827752D01*
X828923Y260534D01*
X829915Y261197D01*
X829915Y261197D01*
X830919Y262201D01*
X831755Y262368D01*
X832996Y263197D01*
X833824Y264437D01*
X834116Y265900D01*
X833824Y267363D01*
X832996Y268604D01*
X831755Y269432D01*
X831321Y269519D01*
X831110Y269869D01*
X830863Y270905D01*
X831558Y271944D01*
X831619Y272250D01*
X823886D01*
X823947Y271944D01*
X824839Y270607D01*
X826176Y269714D01*
X826832Y269584D01*
X826961Y269417D01*
X827314Y268193D01*
X826760Y267363D01*
X826593Y266527D01*
X826485Y266419D01*
X796468D01*
X796343Y267689D01*
X796857Y267791D01*
X797774Y267973D01*
X799275Y268977D01*
X800279Y270479D01*
X800378Y270980D01*
X791626D01*
X791725Y270479D01*
X792729Y268977D01*
X794231Y267973D01*
X795147Y267791D01*
X795662Y267689D01*
X795536Y266419D01*
X789652D01*
X788482Y266186D01*
X787489Y265523D01*
X786826Y264531D01*
X786593Y263360D01*
X786826Y262190D01*
X787489Y261197D01*
X788482Y260534D01*
X789652Y260301D01*
D02*
G37*
G36*
X774412Y264485D02*
X774718Y264546D01*
X776055Y265439D01*
X776948Y266776D01*
X777009Y267082D01*
X774412D01*
Y264485D01*
D02*
G37*
G36*
X736312Y267619D02*
Y270980D01*
X732951D01*
X733070Y270381D01*
X734129Y268797D01*
X735713Y267738D01*
X736312Y267619D01*
D02*
G37*
G36*
X822852Y324179D02*
X823451Y324298D01*
X825035Y325357D01*
X825749D01*
X827333Y324298D01*
X827932Y324179D01*
Y328810D01*
Y333441D01*
X827333Y333322D01*
X825749Y332263D01*
X825035D01*
X823451Y333322D01*
X822852Y333441D01*
Y328810D01*
Y324179D01*
D02*
G37*
G36*
X820312D02*
Y327540D01*
X816951D01*
X817070Y326941D01*
X818129Y325357D01*
X819713Y324298D01*
X820312Y324179D01*
D02*
G37*
G36*
X794446Y288386D02*
X797807D01*
X797688Y288985D01*
X796629Y290569D01*
X795045Y291628D01*
X794446Y291747D01*
Y288386D01*
D02*
G37*
G36*
X773176Y276634D02*
X774639Y276925D01*
X775880Y277753D01*
X776709Y278994D01*
X777000Y280457D01*
X776709Y281920D01*
X775880Y283161D01*
X774639Y283989D01*
X773803Y284156D01*
X746756Y311203D01*
X745764Y311866D01*
X744593Y312099D01*
X731144D01*
X730435Y312572D01*
X728972Y312864D01*
X727509Y312572D01*
X726268Y311744D01*
X725440Y310503D01*
X725149Y309040D01*
X725440Y307577D01*
X726268Y306336D01*
X727509Y305508D01*
X728972Y305217D01*
X730435Y305508D01*
X731144Y305981D01*
X743326D01*
X769477Y279830D01*
X769644Y278994D01*
X770472Y277753D01*
X771713Y276925D01*
X773176Y276634D01*
D02*
G37*
G36*
X830472Y330080D02*
X833833D01*
X833714Y330679D01*
X832655Y332263D01*
X831071Y333322D01*
X830472Y333441D01*
Y330080D01*
D02*
G37*
G36*
X768422Y342962D02*
X813422D01*
X815772Y343272D01*
X817961Y344179D01*
X819841Y345621D01*
X821283Y347501D01*
X822190Y349691D01*
X822500Y352040D01*
X822190Y354389D01*
X821283Y356579D01*
X819841Y358459D01*
X817961Y359902D01*
X815772Y360808D01*
X813422Y361118D01*
X768422D01*
X766073Y360808D01*
X763883Y359902D01*
X762003Y358459D01*
X760561Y356579D01*
X759654Y354389D01*
X759344Y352040D01*
X759654Y349691D01*
X760561Y347501D01*
X762003Y345621D01*
X763883Y344179D01*
X766073Y343272D01*
X768422Y342962D01*
D02*
G37*
G36*
X830472Y324179D02*
X831071Y324298D01*
X832655Y325357D01*
X833714Y326941D01*
X833833Y327540D01*
X830472D01*
Y324179D01*
D02*
G37*
G36*
X816951Y330080D02*
X820312D01*
Y333441D01*
X819713Y333322D01*
X818129Y332263D01*
X817070Y330679D01*
X816951Y330080D01*
D02*
G37*
G36*
X785842Y279870D02*
X789203D01*
X789084Y280469D01*
X788026Y282053D01*
X786441Y283112D01*
X785842Y283231D01*
Y279870D01*
D02*
G37*
G36*
X732951Y281140D02*
X736312D01*
Y284501D01*
X735713Y284382D01*
X734129Y283323D01*
X733070Y281739D01*
X732951Y281140D01*
D02*
G37*
G36*
Y273520D02*
X742213D01*
X742094Y274119D01*
X741036Y275703D01*
Y276417D01*
X742094Y278001D01*
X742213Y278600D01*
X732951D01*
X733070Y278001D01*
X734129Y276417D01*
Y275703D01*
X733070Y274119D01*
X732951Y273520D01*
D02*
G37*
G36*
X779941Y279870D02*
X783302D01*
Y283231D01*
X782703Y283112D01*
X781119Y282053D01*
X780060Y280469D01*
X779941Y279870D01*
D02*
G37*
G36*
X794446Y282485D02*
X795045Y282604D01*
X796629Y283663D01*
X797688Y285247D01*
X797807Y285846D01*
X794446D01*
Y282485D01*
D02*
G37*
G36*
X788545Y288386D02*
X791906D01*
Y291747D01*
X791307Y291628D01*
X789723Y290569D01*
X788664Y288985D01*
X788545Y288386D01*
D02*
G37*
G36*
X738852Y281140D02*
X742213D01*
X742094Y281739D01*
X741036Y283323D01*
X739451Y284382D01*
X738852Y284501D01*
Y281140D01*
D02*
G37*
G36*
X791906Y282485D02*
Y285846D01*
X788545D01*
X788664Y285247D01*
X789723Y283663D01*
X791307Y282604D01*
X791906Y282485D01*
D02*
G37*
G36*
X837912Y252379D02*
Y255740D01*
X834551D01*
X834670Y255141D01*
X835729Y253557D01*
X837313Y252498D01*
X837912Y252379D01*
D02*
G37*
G36*
X836894Y163030D02*
X840255D01*
X840136Y163629D01*
X839077Y165213D01*
X837493Y166272D01*
X836894Y166391D01*
Y163030D01*
D02*
G37*
G36*
X769332Y166019D02*
Y169380D01*
X765971D01*
X766090Y168781D01*
X767149Y167197D01*
X768733Y166138D01*
X769332Y166019D01*
D02*
G37*
G36*
X830992Y155410D02*
X840255D01*
X840136Y156009D01*
X839077Y157593D01*
Y158307D01*
X840136Y159891D01*
X840255Y160490D01*
X830992D01*
X831112Y159891D01*
X832170Y158307D01*
Y157593D01*
X831112Y156009D01*
X830992Y155410D01*
D02*
G37*
G36*
Y163030D02*
X834354D01*
Y166391D01*
X833755Y166272D01*
X832170Y165213D01*
X831112Y163629D01*
X830992Y163030D01*
D02*
G37*
G36*
X771872Y171920D02*
X775233D01*
X775114Y172519D01*
X774055Y174103D01*
X772471Y175162D01*
X771872Y175281D01*
Y171920D01*
D02*
G37*
G36*
X794732Y183337D02*
X796195Y183628D01*
X796904Y184101D01*
X818862D01*
X820033Y184334D01*
X821025Y184997D01*
X836265Y200237D01*
X836928Y201229D01*
X837161Y202400D01*
X837161Y202400D01*
Y242138D01*
X837635Y242847D01*
X837925Y244310D01*
X837635Y245773D01*
X836806Y247014D01*
X835565Y247842D01*
X834102Y248134D01*
X832639Y247842D01*
X831398Y247014D01*
X830570Y245773D01*
X830279Y244310D01*
X830570Y242847D01*
X831043Y242138D01*
Y203667D01*
X817595Y190219D01*
X796904D01*
X796195Y190692D01*
X794732Y190984D01*
X793269Y190692D01*
X792029Y189864D01*
X791200Y188623D01*
X790909Y187160D01*
X791200Y185697D01*
X792029Y184457D01*
X793269Y183628D01*
X794732Y183337D01*
D02*
G37*
G36*
X771872Y166019D02*
X772471Y166138D01*
X774055Y167197D01*
X775114Y168781D01*
X775233Y169380D01*
X771872D01*
Y166019D01*
D02*
G37*
G36*
X765971Y171920D02*
X769332D01*
Y175281D01*
X768733Y175162D01*
X767149Y174103D01*
X766090Y172519D01*
X765971Y171920D01*
D02*
G37*
G36*
X763791Y102540D02*
X773053D01*
X772934Y103139D01*
X772061Y104445D01*
X772934Y105751D01*
X773053Y106350D01*
X763791D01*
X763910Y105751D01*
X764783Y104445D01*
X763910Y103139D01*
X763791Y102540D01*
D02*
G37*
G36*
Y108890D02*
X773053D01*
X772934Y109489D01*
X772061Y110795D01*
X772934Y112101D01*
X773053Y112700D01*
X763791D01*
X763910Y112101D01*
X764783Y110795D01*
X763910Y109489D01*
X763791Y108890D01*
D02*
G37*
G36*
X767152Y96639D02*
Y100000D01*
X763791D01*
X763910Y99401D01*
X764969Y97817D01*
X766553Y96758D01*
X767152Y96639D01*
D02*
G37*
G36*
X769692D02*
X770291Y96758D01*
X771876Y97817D01*
X772934Y99401D01*
X773053Y100000D01*
X769692D01*
Y96639D01*
D02*
G37*
G36*
X834354Y149509D02*
Y152870D01*
X830992D01*
X831112Y152271D01*
X832170Y150687D01*
X833755Y149628D01*
X834354Y149509D01*
D02*
G37*
G36*
X836894D02*
X837493Y149628D01*
X839077Y150687D01*
X840136Y152271D01*
X840255Y152870D01*
X836894D01*
Y149509D01*
D02*
G37*
G36*
X763791Y115240D02*
X767152D01*
Y118601D01*
X766553Y118482D01*
X764969Y117423D01*
X763910Y115839D01*
X763791Y115240D01*
D02*
G37*
G36*
X769692D02*
X773053D01*
X772934Y115839D01*
X771876Y117423D01*
X770291Y118482D01*
X769692Y118601D01*
Y115240D01*
D02*
G37*
G36*
X851882Y237960D02*
X855243D01*
X855124Y238559D01*
X854065Y240143D01*
X852481Y241202D01*
X851882Y241321D01*
Y237960D01*
D02*
G37*
G36*
X813341Y238810D02*
X816702D01*
Y242171D01*
X816103Y242052D01*
X814519Y240993D01*
X813460Y239409D01*
X813341Y238810D01*
D02*
G37*
G36*
X785242Y233909D02*
X785841Y234028D01*
X787426Y235087D01*
X788484Y236671D01*
X788603Y237270D01*
X785242D01*
Y233909D01*
D02*
G37*
G36*
X845981Y237960D02*
X849342D01*
Y241321D01*
X848743Y241202D01*
X847159Y240143D01*
X846100Y238559D01*
X845981Y237960D01*
D02*
G37*
G36*
X785242Y239810D02*
X788603D01*
X788484Y240409D01*
X787426Y241993D01*
X785841Y243052D01*
X785242Y243171D01*
Y239810D01*
D02*
G37*
G36*
X771872Y235407D02*
X773335Y235698D01*
X774576Y236527D01*
X775405Y237767D01*
X775695Y239230D01*
X775405Y240693D01*
X774576Y241934D01*
X773335Y242762D01*
X771872Y243053D01*
X771389Y242957D01*
X761684Y252662D01*
X760940Y253160D01*
X760062Y253334D01*
X735449D01*
X735176Y253744D01*
X733935Y254572D01*
X732472Y254863D01*
X731009Y254572D01*
X729769Y253744D01*
X728940Y252503D01*
X728649Y251040D01*
X728940Y249577D01*
X729769Y248337D01*
X731009Y247508D01*
X732472Y247217D01*
X733935Y247508D01*
X735176Y248337D01*
X735449Y248746D01*
X759112D01*
X768145Y239713D01*
X768049Y239230D01*
X768340Y237767D01*
X769168Y236527D01*
X770409Y235698D01*
X771872Y235407D01*
D02*
G37*
G36*
X819242Y238810D02*
X822603D01*
X822484Y239409D01*
X821425Y240993D01*
X819841Y242052D01*
X819242Y242171D01*
Y238810D01*
D02*
G37*
G36*
X779341Y239810D02*
X782702D01*
Y243171D01*
X782103Y243052D01*
X780519Y241993D01*
X779460Y240409D01*
X779341Y239810D01*
D02*
G37*
G36*
X849342Y224439D02*
Y227800D01*
X845981D01*
X846100Y227201D01*
X847159Y225617D01*
X848743Y224558D01*
X849342Y224439D01*
D02*
G37*
G36*
X851882D02*
X852481Y224558D01*
X854065Y225617D01*
X855124Y227201D01*
X855243Y227800D01*
X851882D01*
Y224439D01*
D02*
G37*
G36*
X812212Y195737D02*
X813675Y196028D01*
X814916Y196856D01*
X815744Y198097D01*
X816036Y199560D01*
X815744Y201023D01*
X814916Y202264D01*
X813675Y203092D01*
X812212Y203384D01*
X810749Y203092D01*
X809509Y202264D01*
X809235Y201854D01*
X767430D01*
X766956Y202564D01*
X765715Y203392D01*
X764252Y203683D01*
X762789Y203392D01*
X761548Y202564D01*
X760720Y201323D01*
X760429Y199860D01*
X760720Y198397D01*
X761548Y197157D01*
X762789Y196328D01*
X764252Y196037D01*
X765715Y196328D01*
X766956Y197157D01*
X767029Y197266D01*
X809235D01*
X809509Y196856D01*
X810749Y196028D01*
X812212Y195737D01*
D02*
G37*
G36*
X743932Y207467D02*
X745395Y207758D01*
X746636Y208587D01*
X746909Y208996D01*
X820965D01*
X821238Y208587D01*
X822479Y207758D01*
X823942Y207467D01*
X825405Y207758D01*
X826646Y208587D01*
X827475Y209827D01*
X827766Y211290D01*
X827475Y212753D01*
X826646Y213994D01*
X825405Y214822D01*
X823942Y215114D01*
X822479Y214822D01*
X821238Y213994D01*
X820965Y213584D01*
X746909D01*
X746636Y213994D01*
X745395Y214822D01*
X743932Y215114D01*
X742469Y214822D01*
X741228Y213994D01*
X740400Y212753D01*
X740109Y211290D01*
X740400Y209827D01*
X741228Y208587D01*
X742469Y207758D01*
X743932Y207467D01*
D02*
G37*
G36*
X819242Y232909D02*
X819841Y233028D01*
X821425Y234087D01*
X822484Y235671D01*
X822603Y236270D01*
X819242D01*
Y232909D01*
D02*
G37*
G36*
X782702Y233909D02*
Y237270D01*
X779341D01*
X779460Y236671D01*
X780519Y235087D01*
X782103Y234028D01*
X782702Y233909D01*
D02*
G37*
G36*
X845981Y230340D02*
X855243D01*
X855124Y230939D01*
X854065Y232523D01*
Y233237D01*
X855124Y234821D01*
X855243Y235420D01*
X845981D01*
X846100Y234821D01*
X847159Y233237D01*
Y232523D01*
X846100Y230939D01*
X845981Y230340D01*
D02*
G37*
G36*
X816702Y232909D02*
Y236270D01*
X813341D01*
X813460Y235671D01*
X814519Y234087D01*
X816103Y233028D01*
X816702Y232909D01*
D02*
G37*
%LPD*%
G36*
X576820Y52468D02*
X574878Y53766D01*
X573580Y55708D01*
X573138Y57931D01*
X573151Y58000D01*
Y205000D01*
X572996Y205780D01*
X572554Y206442D01*
X556104Y222892D01*
X556104Y222892D01*
X555443Y223334D01*
X554662Y223489D01*
X548352D01*
Y223519D01*
X547200Y223748D01*
X546223Y224401D01*
X545570Y225378D01*
X545341Y226530D01*
X545311D01*
Y364960D01*
X545341D01*
X545570Y366112D01*
X546223Y367089D01*
X547200Y367742D01*
X548352Y367971D01*
Y368001D01*
X703292D01*
Y367971D01*
X704444Y367742D01*
X705421Y367089D01*
X706074Y366112D01*
X706303Y364960D01*
X706333D01*
Y349720D01*
Y226530D01*
X706303D01*
X706074Y225378D01*
X705421Y224401D01*
X704444Y223748D01*
X703292Y223519D01*
Y223489D01*
X697562D01*
X696782Y223334D01*
X696120Y222892D01*
X679670Y206442D01*
X679670Y206442D01*
X679228Y205780D01*
X679073Y205000D01*
Y146845D01*
X672670Y140442D01*
X672670Y140442D01*
X672228Y139780D01*
X672073Y139000D01*
X672073Y139000D01*
Y129000D01*
X672228Y128220D01*
X672670Y127558D01*
X673332Y127116D01*
X674112Y126961D01*
X679073D01*
Y110083D01*
X666670Y97680D01*
X666228Y97018D01*
X666073Y96238D01*
Y58000D01*
X666087Y57931D01*
X665644Y55708D01*
X664346Y53766D01*
X662404Y52468D01*
X660181Y52026D01*
X660112Y52039D01*
X579112D01*
X579044Y52026D01*
X576820Y52468D01*
D02*
G37*
%LPC*%
G36*
X626526Y273520D02*
X629632D01*
Y276626D01*
X629131Y276527D01*
X627629Y275523D01*
X626626Y274021D01*
X626526Y273520D01*
D02*
G37*
G36*
X632172D02*
X635278D01*
X635179Y274021D01*
X634175Y275523D01*
X632673Y276527D01*
X632172Y276626D01*
Y273520D01*
D02*
G37*
G36*
X604176Y269622D02*
X606772D01*
Y272218D01*
X606466Y272158D01*
X605129Y271265D01*
X604236Y269928D01*
X604176Y269622D01*
D02*
G37*
G36*
X609312D02*
X611909D01*
X611848Y269928D01*
X610955Y271265D01*
X609618Y272158D01*
X609312Y272218D01*
Y269622D01*
D02*
G37*
G36*
X658786Y274790D02*
X661382D01*
Y277386D01*
X661076Y277326D01*
X659739Y276433D01*
X658847Y275096D01*
X658786Y274790D01*
D02*
G37*
G36*
X663922D02*
X666519D01*
X666458Y275096D01*
X665565Y276433D01*
X664228Y277326D01*
X663922Y277386D01*
Y274790D01*
D02*
G37*
G36*
X618202Y273969D02*
Y277330D01*
X614841D01*
X614960Y276731D01*
X616019Y275147D01*
X617603Y274088D01*
X618202Y273969D01*
D02*
G37*
G36*
X620742D02*
X621341Y274088D01*
X622925Y275147D01*
X623984Y276731D01*
X624103Y277330D01*
X620742D01*
Y273969D01*
D02*
G37*
G36*
X675352Y258280D02*
X678713D01*
X678594Y258879D01*
X677535Y260463D01*
X675951Y261522D01*
X675352Y261641D01*
Y258280D01*
D02*
G37*
G36*
X606772Y264485D02*
Y267082D01*
X604176D01*
X604236Y266776D01*
X605129Y265439D01*
X606466Y264546D01*
X606772Y264485D01*
D02*
G37*
G36*
X675352Y252379D02*
X675951Y252498D01*
X677535Y253557D01*
X678594Y255141D01*
X678713Y255740D01*
X675352D01*
Y252379D01*
D02*
G37*
G36*
X669451Y258280D02*
X672812D01*
Y261641D01*
X672213Y261522D01*
X670629Y260463D01*
X669570Y258879D01*
X669451Y258280D01*
D02*
G37*
G36*
X573752Y267619D02*
X574351Y267738D01*
X575936Y268797D01*
X576994Y270381D01*
X577113Y270980D01*
X573752D01*
Y267619D01*
D02*
G37*
G36*
X624552Y260301D02*
X662652D01*
X663823Y260534D01*
X664815Y261197D01*
X664815Y261197D01*
X665819Y262201D01*
X666655Y262368D01*
X667896Y263197D01*
X668725Y264437D01*
X669016Y265900D01*
X668725Y267363D01*
X667896Y268604D01*
X666655Y269432D01*
X666221Y269519D01*
X666010Y269869D01*
X665763Y270905D01*
X666458Y271944D01*
X666519Y272250D01*
X658786D01*
X658847Y271944D01*
X659739Y270607D01*
X661076Y269714D01*
X661732Y269584D01*
X661861Y269417D01*
X662214Y268193D01*
X661660Y267363D01*
X661493Y266527D01*
X661385Y266419D01*
X631368D01*
X631243Y267689D01*
X631757Y267791D01*
X632673Y267973D01*
X634175Y268977D01*
X635179Y270479D01*
X635278Y270980D01*
X626526D01*
X626626Y270479D01*
X627629Y268977D01*
X629131Y267973D01*
X630047Y267791D01*
X630562Y267689D01*
X630437Y266419D01*
X624552D01*
X623382Y266186D01*
X622389Y265523D01*
X621726Y264531D01*
X621493Y263360D01*
X621726Y262190D01*
X622389Y261197D01*
X623382Y260534D01*
X624552Y260301D01*
D02*
G37*
G36*
X609312Y264485D02*
X609618Y264546D01*
X610955Y265439D01*
X611848Y266776D01*
X611909Y267082D01*
X609312D01*
Y264485D01*
D02*
G37*
G36*
X571212Y267619D02*
Y270980D01*
X567851D01*
X567970Y270381D01*
X569029Y268797D01*
X570613Y267738D01*
X571212Y267619D01*
D02*
G37*
G36*
X657752Y324179D02*
X658351Y324298D01*
X659936Y325357D01*
X660649D01*
X662233Y324298D01*
X662832Y324179D01*
Y328810D01*
Y333441D01*
X662233Y333322D01*
X660649Y332263D01*
X659936D01*
X658351Y333322D01*
X657752Y333441D01*
Y328810D01*
Y324179D01*
D02*
G37*
G36*
X655212D02*
Y327540D01*
X651851D01*
X651970Y326941D01*
X653029Y325357D01*
X654613Y324298D01*
X655212Y324179D01*
D02*
G37*
G36*
X629346Y288386D02*
X632707D01*
X632588Y288985D01*
X631529Y290569D01*
X629945Y291628D01*
X629346Y291747D01*
Y288386D01*
D02*
G37*
G36*
X608076Y276634D02*
X609539Y276925D01*
X610780Y277753D01*
X611609Y278994D01*
X611899Y280457D01*
X611609Y281920D01*
X610780Y283161D01*
X609539Y283989D01*
X608703Y284156D01*
X581656Y311203D01*
X580664Y311866D01*
X579493Y312099D01*
X566044D01*
X565335Y312572D01*
X563872Y312864D01*
X562409Y312572D01*
X561169Y311744D01*
X560340Y310503D01*
X560049Y309040D01*
X560340Y307577D01*
X561169Y306336D01*
X562409Y305508D01*
X563872Y305217D01*
X565335Y305508D01*
X566044Y305981D01*
X578226D01*
X604377Y279830D01*
X604544Y278994D01*
X605373Y277753D01*
X606613Y276925D01*
X608076Y276634D01*
D02*
G37*
G36*
X665372Y330080D02*
X668733D01*
X668614Y330679D01*
X667555Y332263D01*
X665971Y333322D01*
X665372Y333441D01*
Y330080D01*
D02*
G37*
G36*
X603322Y342962D02*
X648322D01*
X650672Y343272D01*
X652861Y344179D01*
X654741Y345621D01*
X656183Y347501D01*
X657090Y349691D01*
X657400Y352040D01*
X657090Y354389D01*
X656183Y356579D01*
X654741Y358459D01*
X652861Y359902D01*
X650672Y360808D01*
X648322Y361118D01*
X603322D01*
X600973Y360808D01*
X598783Y359902D01*
X596903Y358459D01*
X595461Y356579D01*
X594554Y354389D01*
X594244Y352040D01*
X594554Y349691D01*
X595461Y347501D01*
X596903Y345621D01*
X598783Y344179D01*
X600973Y343272D01*
X603322Y342962D01*
D02*
G37*
G36*
X665372Y324179D02*
X665971Y324298D01*
X667555Y325357D01*
X668614Y326941D01*
X668733Y327540D01*
X665372D01*
Y324179D01*
D02*
G37*
G36*
X651851Y330080D02*
X655212D01*
Y333441D01*
X654613Y333322D01*
X653029Y332263D01*
X651970Y330679D01*
X651851Y330080D01*
D02*
G37*
G36*
X620742Y279870D02*
X624103D01*
X623984Y280469D01*
X622925Y282053D01*
X621341Y283112D01*
X620742Y283231D01*
Y279870D01*
D02*
G37*
G36*
X567851Y281140D02*
X571212D01*
Y284501D01*
X570613Y284382D01*
X569029Y283323D01*
X567970Y281739D01*
X567851Y281140D01*
D02*
G37*
G36*
Y273520D02*
X577113D01*
X576994Y274119D01*
X575936Y275703D01*
Y276417D01*
X576994Y278001D01*
X577113Y278600D01*
X567851D01*
X567970Y278001D01*
X569029Y276417D01*
Y275703D01*
X567970Y274119D01*
X567851Y273520D01*
D02*
G37*
G36*
X614841Y279870D02*
X618202D01*
Y283231D01*
X617603Y283112D01*
X616019Y282053D01*
X614960Y280469D01*
X614841Y279870D01*
D02*
G37*
G36*
X629346Y282485D02*
X629945Y282604D01*
X631529Y283663D01*
X632588Y285247D01*
X632707Y285846D01*
X629346D01*
Y282485D01*
D02*
G37*
G36*
X623445Y288386D02*
X626806D01*
Y291747D01*
X626207Y291628D01*
X624623Y290569D01*
X623564Y288985D01*
X623445Y288386D01*
D02*
G37*
G36*
X573752Y281140D02*
X577113D01*
X576994Y281739D01*
X575936Y283323D01*
X574351Y284382D01*
X573752Y284501D01*
Y281140D01*
D02*
G37*
G36*
X626806Y282485D02*
Y285846D01*
X623445D01*
X623564Y285247D01*
X624623Y283663D01*
X626207Y282604D01*
X626806Y282485D01*
D02*
G37*
G36*
X672812Y252379D02*
Y255740D01*
X669451D01*
X669570Y255141D01*
X670629Y253557D01*
X672213Y252498D01*
X672812Y252379D01*
D02*
G37*
G36*
X671794Y163030D02*
X675155D01*
X675036Y163629D01*
X673977Y165213D01*
X672393Y166272D01*
X671794Y166391D01*
Y163030D01*
D02*
G37*
G36*
X604232Y166019D02*
Y169380D01*
X600871D01*
X600990Y168781D01*
X602049Y167197D01*
X603633Y166138D01*
X604232Y166019D01*
D02*
G37*
G36*
X665892Y155410D02*
X675155D01*
X675036Y156009D01*
X673977Y157593D01*
Y158307D01*
X675036Y159891D01*
X675155Y160490D01*
X665892D01*
X666012Y159891D01*
X667070Y158307D01*
Y157593D01*
X666012Y156009D01*
X665892Y155410D01*
D02*
G37*
G36*
Y163030D02*
X669254D01*
Y166391D01*
X668655Y166272D01*
X667070Y165213D01*
X666012Y163629D01*
X665892Y163030D01*
D02*
G37*
G36*
X606772Y171920D02*
X610133D01*
X610014Y172519D01*
X608955Y174103D01*
X607371Y175162D01*
X606772Y175281D01*
Y171920D01*
D02*
G37*
G36*
X629632Y183337D02*
X631095Y183628D01*
X631804Y184101D01*
X653762D01*
X654933Y184334D01*
X655925Y184997D01*
X671165Y200237D01*
X671828Y201229D01*
X672061Y202400D01*
X672061Y202400D01*
Y242138D01*
X672534Y242847D01*
X672825Y244310D01*
X672534Y245773D01*
X671706Y247014D01*
X670465Y247842D01*
X669002Y248134D01*
X667539Y247842D01*
X666299Y247014D01*
X665470Y245773D01*
X665179Y244310D01*
X665470Y242847D01*
X665943Y242138D01*
Y203667D01*
X652495Y190219D01*
X631804D01*
X631095Y190692D01*
X629632Y190984D01*
X628169Y190692D01*
X626928Y189864D01*
X626100Y188623D01*
X625809Y187160D01*
X626100Y185697D01*
X626928Y184457D01*
X628169Y183628D01*
X629632Y183337D01*
D02*
G37*
G36*
X606772Y166019D02*
X607371Y166138D01*
X608955Y167197D01*
X610014Y168781D01*
X610133Y169380D01*
X606772D01*
Y166019D01*
D02*
G37*
G36*
X600871Y171920D02*
X604232D01*
Y175281D01*
X603633Y175162D01*
X602049Y174103D01*
X600990Y172519D01*
X600871Y171920D01*
D02*
G37*
G36*
X598691Y102540D02*
X607953D01*
X607834Y103139D01*
X606962Y104445D01*
X607834Y105751D01*
X607953Y106350D01*
X598691D01*
X598810Y105751D01*
X599683Y104445D01*
X598810Y103139D01*
X598691Y102540D01*
D02*
G37*
G36*
Y108890D02*
X607953D01*
X607834Y109489D01*
X606962Y110795D01*
X607834Y112101D01*
X607953Y112700D01*
X598691D01*
X598810Y112101D01*
X599683Y110795D01*
X598810Y109489D01*
X598691Y108890D01*
D02*
G37*
G36*
X602052Y96639D02*
Y100000D01*
X598691D01*
X598810Y99401D01*
X599869Y97817D01*
X601453Y96758D01*
X602052Y96639D01*
D02*
G37*
G36*
X604592D02*
X605191Y96758D01*
X606776Y97817D01*
X607834Y99401D01*
X607953Y100000D01*
X604592D01*
Y96639D01*
D02*
G37*
G36*
X669254Y149509D02*
Y152870D01*
X665892D01*
X666012Y152271D01*
X667070Y150687D01*
X668655Y149628D01*
X669254Y149509D01*
D02*
G37*
G36*
X671794D02*
X672393Y149628D01*
X673977Y150687D01*
X675036Y152271D01*
X675155Y152870D01*
X671794D01*
Y149509D01*
D02*
G37*
G36*
X598691Y115240D02*
X602052D01*
Y118601D01*
X601453Y118482D01*
X599869Y117423D01*
X598810Y115839D01*
X598691Y115240D01*
D02*
G37*
G36*
X604592D02*
X607953D01*
X607834Y115839D01*
X606776Y117423D01*
X605191Y118482D01*
X604592Y118601D01*
Y115240D01*
D02*
G37*
G36*
X686782Y237960D02*
X690143D01*
X690024Y238559D01*
X688966Y240143D01*
X687381Y241202D01*
X686782Y241321D01*
Y237960D01*
D02*
G37*
G36*
X648241Y238810D02*
X651602D01*
Y242171D01*
X651003Y242052D01*
X649419Y240993D01*
X648360Y239409D01*
X648241Y238810D01*
D02*
G37*
G36*
X620142Y233909D02*
X620741Y234028D01*
X622326Y235087D01*
X623384Y236671D01*
X623503Y237270D01*
X620142D01*
Y233909D01*
D02*
G37*
G36*
X680881Y237960D02*
X684242D01*
Y241321D01*
X683643Y241202D01*
X682059Y240143D01*
X681000Y238559D01*
X680881Y237960D01*
D02*
G37*
G36*
X620142Y239810D02*
X623503D01*
X623384Y240409D01*
X622326Y241993D01*
X620741Y243052D01*
X620142Y243171D01*
Y239810D01*
D02*
G37*
G36*
X606772Y235407D02*
X608235Y235698D01*
X609476Y236527D01*
X610304Y237767D01*
X610596Y239230D01*
X610304Y240693D01*
X609476Y241934D01*
X608235Y242762D01*
X606772Y243053D01*
X606289Y242957D01*
X596584Y252662D01*
X595840Y253160D01*
X594962Y253334D01*
X570349D01*
X570076Y253744D01*
X568835Y254572D01*
X567372Y254863D01*
X565909Y254572D01*
X564669Y253744D01*
X563840Y252503D01*
X563549Y251040D01*
X563840Y249577D01*
X564669Y248337D01*
X565909Y247508D01*
X567372Y247217D01*
X568835Y247508D01*
X570076Y248337D01*
X570349Y248746D01*
X594012D01*
X603045Y239713D01*
X602949Y239230D01*
X603240Y237767D01*
X604068Y236527D01*
X605309Y235698D01*
X606772Y235407D01*
D02*
G37*
G36*
X654142Y238810D02*
X657503D01*
X657384Y239409D01*
X656326Y240993D01*
X654741Y242052D01*
X654142Y242171D01*
Y238810D01*
D02*
G37*
G36*
X614241Y239810D02*
X617602D01*
Y243171D01*
X617003Y243052D01*
X615419Y241993D01*
X614360Y240409D01*
X614241Y239810D01*
D02*
G37*
G36*
X684242Y224439D02*
Y227800D01*
X680881D01*
X681000Y227201D01*
X682059Y225617D01*
X683643Y224558D01*
X684242Y224439D01*
D02*
G37*
G36*
X686782D02*
X687381Y224558D01*
X688966Y225617D01*
X690024Y227201D01*
X690143Y227800D01*
X686782D01*
Y224439D01*
D02*
G37*
G36*
X647112Y195737D02*
X648575Y196028D01*
X649816Y196856D01*
X650645Y198097D01*
X650936Y199560D01*
X650645Y201023D01*
X649816Y202264D01*
X648575Y203092D01*
X647112Y203384D01*
X645649Y203092D01*
X644408Y202264D01*
X644135Y201854D01*
X602330D01*
X601856Y202564D01*
X600615Y203392D01*
X599152Y203683D01*
X597689Y203392D01*
X596449Y202564D01*
X595620Y201323D01*
X595329Y199860D01*
X595620Y198397D01*
X596449Y197157D01*
X597689Y196328D01*
X599152Y196037D01*
X600615Y196328D01*
X601856Y197157D01*
X601929Y197266D01*
X644135D01*
X644408Y196856D01*
X645649Y196028D01*
X647112Y195737D01*
D02*
G37*
G36*
X578832Y207467D02*
X580295Y207758D01*
X581536Y208587D01*
X581809Y208996D01*
X655865D01*
X656139Y208587D01*
X657379Y207758D01*
X658842Y207467D01*
X660305Y207758D01*
X661546Y208587D01*
X662374Y209827D01*
X662665Y211290D01*
X662374Y212753D01*
X661546Y213994D01*
X660305Y214822D01*
X658842Y215114D01*
X657379Y214822D01*
X656139Y213994D01*
X655865Y213584D01*
X581809D01*
X581536Y213994D01*
X580295Y214822D01*
X578832Y215114D01*
X577369Y214822D01*
X576129Y213994D01*
X575300Y212753D01*
X575009Y211290D01*
X575300Y209827D01*
X576129Y208587D01*
X577369Y207758D01*
X578832Y207467D01*
D02*
G37*
G36*
X654142Y232909D02*
X654741Y233028D01*
X656326Y234087D01*
X657384Y235671D01*
X657503Y236270D01*
X654142D01*
Y232909D01*
D02*
G37*
G36*
X617602Y233909D02*
Y237270D01*
X614241D01*
X614360Y236671D01*
X615419Y235087D01*
X617003Y234028D01*
X617602Y233909D01*
D02*
G37*
G36*
X680881Y230340D02*
X690143D01*
X690024Y230939D01*
X688966Y232523D01*
Y233237D01*
X690024Y234821D01*
X690143Y235420D01*
X680881D01*
X681000Y234821D01*
X682059Y233237D01*
Y232523D01*
X681000Y230939D01*
X680881Y230340D01*
D02*
G37*
G36*
X651602Y232909D02*
Y236270D01*
X648241D01*
X648360Y235671D01*
X649419Y234087D01*
X651003Y233028D01*
X651602Y232909D01*
D02*
G37*
%LPD*%
G36*
X411721Y52468D02*
X409778Y53766D01*
X408480Y55708D01*
X408038Y57931D01*
X408051Y58000D01*
Y205000D01*
X407896Y205780D01*
X407454Y206442D01*
X391004Y222892D01*
X391004Y222892D01*
X390342Y223334D01*
X389562Y223489D01*
X383252D01*
Y223519D01*
X382100Y223748D01*
X381123Y224401D01*
X380470Y225378D01*
X380241Y226530D01*
X380211D01*
Y364960D01*
X380241D01*
X380470Y366112D01*
X381123Y367089D01*
X382100Y367742D01*
X383252Y367971D01*
Y368001D01*
X538192D01*
Y367971D01*
X539344Y367742D01*
X540321Y367089D01*
X540974Y366112D01*
X541203Y364960D01*
X541233D01*
Y349720D01*
Y226530D01*
X541203D01*
X540974Y225378D01*
X540321Y224401D01*
X539344Y223748D01*
X538192Y223519D01*
Y223489D01*
X532462D01*
X531682Y223334D01*
X531020Y222892D01*
X514570Y206442D01*
X514570Y206442D01*
X514128Y205780D01*
X513973Y205000D01*
Y146845D01*
X507570Y140442D01*
X507570Y140442D01*
X507128Y139780D01*
X506973Y139000D01*
X506973Y139000D01*
Y129000D01*
X507128Y128220D01*
X507570Y127558D01*
X508232Y127116D01*
X509012Y126961D01*
X513973D01*
Y110083D01*
X501570Y97680D01*
X501128Y97018D01*
X500973Y96238D01*
Y58000D01*
X500987Y57931D01*
X500544Y55708D01*
X499246Y53766D01*
X497304Y52468D01*
X495081Y52026D01*
X495012Y52039D01*
X414012D01*
X413944Y52026D01*
X411721Y52468D01*
D02*
G37*
%LPC*%
G36*
X461426Y273520D02*
X464532D01*
Y276626D01*
X464031Y276527D01*
X462529Y275523D01*
X461525Y274021D01*
X461426Y273520D01*
D02*
G37*
G36*
X467072D02*
X470178D01*
X470079Y274021D01*
X469075Y275523D01*
X467574Y276527D01*
X467072Y276626D01*
Y273520D01*
D02*
G37*
G36*
X439076Y269622D02*
X441672D01*
Y272218D01*
X441366Y272158D01*
X440029Y271265D01*
X439137Y269928D01*
X439076Y269622D01*
D02*
G37*
G36*
X444212D02*
X446809D01*
X446748Y269928D01*
X445855Y271265D01*
X444518Y272158D01*
X444212Y272218D01*
Y269622D01*
D02*
G37*
G36*
X493686Y274790D02*
X496282D01*
Y277386D01*
X495976Y277326D01*
X494639Y276433D01*
X493746Y275096D01*
X493686Y274790D01*
D02*
G37*
G36*
X498822D02*
X501419D01*
X501358Y275096D01*
X500465Y276433D01*
X499128Y277326D01*
X498822Y277386D01*
Y274790D01*
D02*
G37*
G36*
X453102Y273969D02*
Y277330D01*
X449741D01*
X449860Y276731D01*
X450919Y275147D01*
X452503Y274088D01*
X453102Y273969D01*
D02*
G37*
G36*
X455642D02*
X456241Y274088D01*
X457826Y275147D01*
X458884Y276731D01*
X459003Y277330D01*
X455642D01*
Y273969D01*
D02*
G37*
G36*
X510252Y258280D02*
X513613D01*
X513494Y258879D01*
X512435Y260463D01*
X510851Y261522D01*
X510252Y261641D01*
Y258280D01*
D02*
G37*
G36*
X441672Y264485D02*
Y267082D01*
X439076D01*
X439137Y266776D01*
X440029Y265439D01*
X441366Y264546D01*
X441672Y264485D01*
D02*
G37*
G36*
X510252Y252379D02*
X510851Y252498D01*
X512435Y253557D01*
X513494Y255141D01*
X513613Y255740D01*
X510252D01*
Y252379D01*
D02*
G37*
G36*
X504351Y258280D02*
X507712D01*
Y261641D01*
X507113Y261522D01*
X505529Y260463D01*
X504470Y258879D01*
X504351Y258280D01*
D02*
G37*
G36*
X408652Y267619D02*
X409251Y267738D01*
X410835Y268797D01*
X411894Y270381D01*
X412013Y270980D01*
X408652D01*
Y267619D01*
D02*
G37*
G36*
X459452Y260301D02*
X497552D01*
X498723Y260534D01*
X499715Y261197D01*
X499715Y261197D01*
X500719Y262201D01*
X501555Y262368D01*
X502796Y263197D01*
X503624Y264437D01*
X503915Y265900D01*
X503624Y267363D01*
X502796Y268604D01*
X501555Y269432D01*
X501121Y269519D01*
X500910Y269869D01*
X500663Y270905D01*
X501358Y271944D01*
X501419Y272250D01*
X493686D01*
X493746Y271944D01*
X494639Y270607D01*
X495976Y269714D01*
X496632Y269584D01*
X496761Y269417D01*
X497114Y268193D01*
X496560Y267363D01*
X496393Y266527D01*
X496285Y266419D01*
X466268D01*
X466143Y267689D01*
X466657Y267791D01*
X467574Y267973D01*
X469075Y268977D01*
X470079Y270479D01*
X470178Y270980D01*
X461426D01*
X461525Y270479D01*
X462529Y268977D01*
X464031Y267973D01*
X464947Y267791D01*
X465462Y267689D01*
X465336Y266419D01*
X459452D01*
X458282Y266186D01*
X457289Y265523D01*
X456626Y264531D01*
X456393Y263360D01*
X456626Y262190D01*
X457289Y261197D01*
X458282Y260534D01*
X459452Y260301D01*
D02*
G37*
G36*
X444212Y264485D02*
X444518Y264546D01*
X445855Y265439D01*
X446748Y266776D01*
X446809Y267082D01*
X444212D01*
Y264485D01*
D02*
G37*
G36*
X406112Y267619D02*
Y270980D01*
X402751D01*
X402870Y270381D01*
X403929Y268797D01*
X405513Y267738D01*
X406112Y267619D01*
D02*
G37*
G36*
X492652Y324179D02*
X493251Y324298D01*
X494836Y325357D01*
X495549D01*
X497133Y324298D01*
X497732Y324179D01*
Y328810D01*
Y333441D01*
X497133Y333322D01*
X495549Y332263D01*
X494836D01*
X493251Y333322D01*
X492652Y333441D01*
Y328810D01*
Y324179D01*
D02*
G37*
G36*
X490112D02*
Y327540D01*
X486751D01*
X486870Y326941D01*
X487929Y325357D01*
X489513Y324298D01*
X490112Y324179D01*
D02*
G37*
G36*
X464246Y288386D02*
X467607D01*
X467488Y288985D01*
X466429Y290569D01*
X464845Y291628D01*
X464246Y291747D01*
Y288386D01*
D02*
G37*
G36*
X442976Y276634D02*
X444439Y276925D01*
X445680Y277753D01*
X446508Y278994D01*
X446800Y280457D01*
X446508Y281920D01*
X445680Y283161D01*
X444439Y283989D01*
X443603Y284156D01*
X416556Y311203D01*
X415564Y311866D01*
X414393Y312099D01*
X400944D01*
X400235Y312572D01*
X398772Y312864D01*
X397309Y312572D01*
X396068Y311744D01*
X395240Y310503D01*
X394949Y309040D01*
X395240Y307577D01*
X396068Y306336D01*
X397309Y305508D01*
X398772Y305217D01*
X400235Y305508D01*
X400944Y305981D01*
X413126D01*
X439277Y279830D01*
X439444Y278994D01*
X440272Y277753D01*
X441513Y276925D01*
X442976Y276634D01*
D02*
G37*
G36*
X500272Y330080D02*
X503633D01*
X503514Y330679D01*
X502455Y332263D01*
X500871Y333322D01*
X500272Y333441D01*
Y330080D01*
D02*
G37*
G36*
X438222Y342962D02*
X483222D01*
X485572Y343272D01*
X487761Y344179D01*
X489641Y345621D01*
X491083Y347501D01*
X491990Y349691D01*
X492300Y352040D01*
X491990Y354389D01*
X491083Y356579D01*
X489641Y358459D01*
X487761Y359902D01*
X485572Y360808D01*
X483222Y361118D01*
X438222D01*
X435873Y360808D01*
X433683Y359902D01*
X431803Y358459D01*
X430361Y356579D01*
X429454Y354389D01*
X429145Y352040D01*
X429454Y349691D01*
X430361Y347501D01*
X431803Y345621D01*
X433683Y344179D01*
X435873Y343272D01*
X438222Y342962D01*
D02*
G37*
G36*
X500272Y324179D02*
X500871Y324298D01*
X502455Y325357D01*
X503514Y326941D01*
X503633Y327540D01*
X500272D01*
Y324179D01*
D02*
G37*
G36*
X486751Y330080D02*
X490112D01*
Y333441D01*
X489513Y333322D01*
X487929Y332263D01*
X486870Y330679D01*
X486751Y330080D01*
D02*
G37*
G36*
X455642Y279870D02*
X459003D01*
X458884Y280469D01*
X457826Y282053D01*
X456241Y283112D01*
X455642Y283231D01*
Y279870D01*
D02*
G37*
G36*
X402751Y281140D02*
X406112D01*
Y284501D01*
X405513Y284382D01*
X403929Y283323D01*
X402870Y281739D01*
X402751Y281140D01*
D02*
G37*
G36*
Y273520D02*
X412013D01*
X411894Y274119D01*
X410835Y275703D01*
Y276417D01*
X411894Y278001D01*
X412013Y278600D01*
X402751D01*
X402870Y278001D01*
X403929Y276417D01*
Y275703D01*
X402870Y274119D01*
X402751Y273520D01*
D02*
G37*
G36*
X449741Y279870D02*
X453102D01*
Y283231D01*
X452503Y283112D01*
X450919Y282053D01*
X449860Y280469D01*
X449741Y279870D01*
D02*
G37*
G36*
X464246Y282485D02*
X464845Y282604D01*
X466429Y283663D01*
X467488Y285247D01*
X467607Y285846D01*
X464246D01*
Y282485D01*
D02*
G37*
G36*
X458345Y288386D02*
X461706D01*
Y291747D01*
X461107Y291628D01*
X459523Y290569D01*
X458464Y288985D01*
X458345Y288386D01*
D02*
G37*
G36*
X408652Y281140D02*
X412013D01*
X411894Y281739D01*
X410835Y283323D01*
X409251Y284382D01*
X408652Y284501D01*
Y281140D01*
D02*
G37*
G36*
X461706Y282485D02*
Y285846D01*
X458345D01*
X458464Y285247D01*
X459523Y283663D01*
X461107Y282604D01*
X461706Y282485D01*
D02*
G37*
G36*
X507712Y252379D02*
Y255740D01*
X504351D01*
X504470Y255141D01*
X505529Y253557D01*
X507113Y252498D01*
X507712Y252379D01*
D02*
G37*
G36*
X506694Y163030D02*
X510055D01*
X509936Y163629D01*
X508877Y165213D01*
X507293Y166272D01*
X506694Y166391D01*
Y163030D01*
D02*
G37*
G36*
X439132Y166019D02*
Y169380D01*
X435771D01*
X435890Y168781D01*
X436949Y167197D01*
X438533Y166138D01*
X439132Y166019D01*
D02*
G37*
G36*
X500792Y155410D02*
X510055D01*
X509936Y156009D01*
X508877Y157593D01*
Y158307D01*
X509936Y159891D01*
X510055Y160490D01*
X500792D01*
X500911Y159891D01*
X501970Y158307D01*
Y157593D01*
X500911Y156009D01*
X500792Y155410D01*
D02*
G37*
G36*
Y163030D02*
X504154D01*
Y166391D01*
X503555Y166272D01*
X501970Y165213D01*
X500911Y163629D01*
X500792Y163030D01*
D02*
G37*
G36*
X441672Y171920D02*
X445033D01*
X444914Y172519D01*
X443856Y174103D01*
X442271Y175162D01*
X441672Y175281D01*
Y171920D01*
D02*
G37*
G36*
X464532Y183337D02*
X465995Y183628D01*
X466704Y184101D01*
X488662D01*
X489833Y184334D01*
X490825Y184997D01*
X506065Y200237D01*
X506728Y201229D01*
X506961Y202400D01*
X506961Y202400D01*
Y242138D01*
X507435Y242847D01*
X507725Y244310D01*
X507435Y245773D01*
X506606Y247014D01*
X505365Y247842D01*
X503902Y248134D01*
X502439Y247842D01*
X501199Y247014D01*
X500370Y245773D01*
X500079Y244310D01*
X500370Y242847D01*
X500843Y242138D01*
Y203667D01*
X487395Y190219D01*
X466704D01*
X465995Y190692D01*
X464532Y190984D01*
X463069Y190692D01*
X461828Y189864D01*
X461000Y188623D01*
X460709Y187160D01*
X461000Y185697D01*
X461828Y184457D01*
X463069Y183628D01*
X464532Y183337D01*
D02*
G37*
G36*
X441672Y166019D02*
X442271Y166138D01*
X443856Y167197D01*
X444914Y168781D01*
X445033Y169380D01*
X441672D01*
Y166019D01*
D02*
G37*
G36*
X435771Y171920D02*
X439132D01*
Y175281D01*
X438533Y175162D01*
X436949Y174103D01*
X435890Y172519D01*
X435771Y171920D01*
D02*
G37*
G36*
X433591Y102540D02*
X442853D01*
X442734Y103139D01*
X441861Y104445D01*
X442734Y105751D01*
X442853Y106350D01*
X433591D01*
X433710Y105751D01*
X434583Y104445D01*
X433710Y103139D01*
X433591Y102540D01*
D02*
G37*
G36*
Y108890D02*
X442853D01*
X442734Y109489D01*
X441861Y110795D01*
X442734Y112101D01*
X442853Y112700D01*
X433591D01*
X433710Y112101D01*
X434583Y110795D01*
X433710Y109489D01*
X433591Y108890D01*
D02*
G37*
G36*
X436952Y96639D02*
Y100000D01*
X433591D01*
X433710Y99401D01*
X434769Y97817D01*
X436353Y96758D01*
X436952Y96639D01*
D02*
G37*
G36*
X439492D02*
X440091Y96758D01*
X441675Y97817D01*
X442734Y99401D01*
X442853Y100000D01*
X439492D01*
Y96639D01*
D02*
G37*
G36*
X504154Y149509D02*
Y152870D01*
X500792D01*
X500911Y152271D01*
X501970Y150687D01*
X503555Y149628D01*
X504154Y149509D01*
D02*
G37*
G36*
X506694D02*
X507293Y149628D01*
X508877Y150687D01*
X509936Y152271D01*
X510055Y152870D01*
X506694D01*
Y149509D01*
D02*
G37*
G36*
X433591Y115240D02*
X436952D01*
Y118601D01*
X436353Y118482D01*
X434769Y117423D01*
X433710Y115839D01*
X433591Y115240D01*
D02*
G37*
G36*
X439492D02*
X442853D01*
X442734Y115839D01*
X441675Y117423D01*
X440091Y118482D01*
X439492Y118601D01*
Y115240D01*
D02*
G37*
G36*
X521682Y237960D02*
X525043D01*
X524924Y238559D01*
X523866Y240143D01*
X522281Y241202D01*
X521682Y241321D01*
Y237960D01*
D02*
G37*
G36*
X483141Y238810D02*
X486502D01*
Y242171D01*
X485903Y242052D01*
X484319Y240993D01*
X483260Y239409D01*
X483141Y238810D01*
D02*
G37*
G36*
X455042Y233909D02*
X455641Y234028D01*
X457225Y235087D01*
X458284Y236671D01*
X458403Y237270D01*
X455042D01*
Y233909D01*
D02*
G37*
G36*
X515781Y237960D02*
X519142D01*
Y241321D01*
X518543Y241202D01*
X516959Y240143D01*
X515900Y238559D01*
X515781Y237960D01*
D02*
G37*
G36*
X455042Y239810D02*
X458403D01*
X458284Y240409D01*
X457225Y241993D01*
X455641Y243052D01*
X455042Y243171D01*
Y239810D01*
D02*
G37*
G36*
X441672Y235407D02*
X443135Y235698D01*
X444376Y236527D01*
X445205Y237767D01*
X445495Y239230D01*
X445205Y240693D01*
X444376Y241934D01*
X443135Y242762D01*
X441672Y243053D01*
X441189Y242957D01*
X431484Y252662D01*
X430740Y253160D01*
X429862Y253334D01*
X405249D01*
X404976Y253744D01*
X403735Y254572D01*
X402272Y254863D01*
X400809Y254572D01*
X399568Y253744D01*
X398740Y252503D01*
X398449Y251040D01*
X398740Y249577D01*
X399568Y248337D01*
X400809Y247508D01*
X402272Y247217D01*
X403735Y247508D01*
X404976Y248337D01*
X405249Y248746D01*
X428912D01*
X437945Y239713D01*
X437849Y239230D01*
X438140Y237767D01*
X438969Y236527D01*
X440209Y235698D01*
X441672Y235407D01*
D02*
G37*
G36*
X489042Y238810D02*
X492403D01*
X492284Y239409D01*
X491226Y240993D01*
X489641Y242052D01*
X489042Y242171D01*
Y238810D01*
D02*
G37*
G36*
X449141Y239810D02*
X452502D01*
Y243171D01*
X451903Y243052D01*
X450319Y241993D01*
X449260Y240409D01*
X449141Y239810D01*
D02*
G37*
G36*
X519142Y224439D02*
Y227800D01*
X515781D01*
X515900Y227201D01*
X516959Y225617D01*
X518543Y224558D01*
X519142Y224439D01*
D02*
G37*
G36*
X521682D02*
X522281Y224558D01*
X523866Y225617D01*
X524924Y227201D01*
X525043Y227800D01*
X521682D01*
Y224439D01*
D02*
G37*
G36*
X482012Y195737D02*
X483475Y196028D01*
X484716Y196856D01*
X485545Y198097D01*
X485836Y199560D01*
X485545Y201023D01*
X484716Y202264D01*
X483475Y203092D01*
X482012Y203384D01*
X480549Y203092D01*
X479309Y202264D01*
X479035Y201854D01*
X437230D01*
X436756Y202564D01*
X435515Y203392D01*
X434052Y203683D01*
X432589Y203392D01*
X431348Y202564D01*
X430520Y201323D01*
X430229Y199860D01*
X430520Y198397D01*
X431348Y197157D01*
X432589Y196328D01*
X434052Y196037D01*
X435515Y196328D01*
X436756Y197157D01*
X436829Y197266D01*
X479035D01*
X479309Y196856D01*
X480549Y196028D01*
X482012Y195737D01*
D02*
G37*
G36*
X413732Y207467D02*
X415195Y207758D01*
X416436Y208587D01*
X416709Y208996D01*
X490765D01*
X491039Y208587D01*
X492279Y207758D01*
X493742Y207467D01*
X495205Y207758D01*
X496446Y208587D01*
X497275Y209827D01*
X497565Y211290D01*
X497275Y212753D01*
X496446Y213994D01*
X495205Y214822D01*
X493742Y215114D01*
X492279Y214822D01*
X491039Y213994D01*
X490765Y213584D01*
X416709D01*
X416436Y213994D01*
X415195Y214822D01*
X413732Y215114D01*
X412269Y214822D01*
X411029Y213994D01*
X410200Y212753D01*
X409909Y211290D01*
X410200Y209827D01*
X411029Y208587D01*
X412269Y207758D01*
X413732Y207467D01*
D02*
G37*
G36*
X489042Y232909D02*
X489641Y233028D01*
X491226Y234087D01*
X492284Y235671D01*
X492403Y236270D01*
X489042D01*
Y232909D01*
D02*
G37*
G36*
X452502Y233909D02*
Y237270D01*
X449141D01*
X449260Y236671D01*
X450319Y235087D01*
X451903Y234028D01*
X452502Y233909D01*
D02*
G37*
G36*
X515781Y230340D02*
X525043D01*
X524924Y230939D01*
X523866Y232523D01*
Y233237D01*
X524924Y234821D01*
X525043Y235420D01*
X515781D01*
X515900Y234821D01*
X516959Y233237D01*
Y232523D01*
X515900Y230939D01*
X515781Y230340D01*
D02*
G37*
G36*
X486502Y232909D02*
Y236270D01*
X483141D01*
X483260Y235671D01*
X484319Y234087D01*
X485903Y233028D01*
X486502Y232909D01*
D02*
G37*
%LPD*%
G36*
X246621Y52468D02*
X244678Y53766D01*
X243380Y55708D01*
X242938Y57931D01*
X242951Y58000D01*
Y205000D01*
X242796Y205780D01*
X242354Y206442D01*
X225904Y222892D01*
X225904Y222892D01*
X225243Y223334D01*
X224462Y223489D01*
X218152D01*
Y223519D01*
X217000Y223748D01*
X216023Y224401D01*
X215370Y225378D01*
X215141Y226530D01*
X215111D01*
Y364960D01*
X215141D01*
X215370Y366112D01*
X216023Y367089D01*
X217000Y367742D01*
X218152Y367971D01*
Y368001D01*
X373092D01*
Y367971D01*
X374244Y367742D01*
X375221Y367089D01*
X375874Y366112D01*
X376103Y364960D01*
X376133D01*
Y349720D01*
Y226530D01*
X376103D01*
X375874Y225378D01*
X375221Y224401D01*
X374244Y223748D01*
X373092Y223519D01*
Y223489D01*
X367362D01*
X366582Y223334D01*
X365920Y222892D01*
X349470Y206442D01*
X349470Y206442D01*
X349028Y205780D01*
X348873Y205000D01*
Y146845D01*
X342470Y140442D01*
X342470Y140442D01*
X342028Y139780D01*
X341873Y139000D01*
X341873Y139000D01*
Y129000D01*
X342028Y128220D01*
X342470Y127558D01*
X343132Y127116D01*
X343912Y126961D01*
X348873D01*
Y110083D01*
X336470Y97680D01*
X336028Y97018D01*
X335873Y96238D01*
Y58000D01*
X335886Y57931D01*
X335444Y55708D01*
X334146Y53766D01*
X332204Y52468D01*
X329981Y52026D01*
X329912Y52039D01*
X248912D01*
X248844Y52026D01*
X246621Y52468D01*
D02*
G37*
%LPC*%
G36*
X296326Y273520D02*
X299432D01*
Y276626D01*
X298931Y276527D01*
X297429Y275523D01*
X296425Y274021D01*
X296326Y273520D01*
D02*
G37*
G36*
X301972D02*
X305078D01*
X304979Y274021D01*
X303975Y275523D01*
X302474Y276527D01*
X301972Y276626D01*
Y273520D01*
D02*
G37*
G36*
X273976Y269622D02*
X276572D01*
Y272218D01*
X276266Y272158D01*
X274929Y271265D01*
X274037Y269928D01*
X273976Y269622D01*
D02*
G37*
G36*
X279112D02*
X281709D01*
X281648Y269928D01*
X280755Y271265D01*
X279418Y272158D01*
X279112Y272218D01*
Y269622D01*
D02*
G37*
G36*
X328586Y274790D02*
X331182D01*
Y277386D01*
X330876Y277326D01*
X329539Y276433D01*
X328647Y275096D01*
X328586Y274790D01*
D02*
G37*
G36*
X333722D02*
X336319D01*
X336258Y275096D01*
X335365Y276433D01*
X334028Y277326D01*
X333722Y277386D01*
Y274790D01*
D02*
G37*
G36*
X288002Y273969D02*
Y277330D01*
X284641D01*
X284760Y276731D01*
X285819Y275147D01*
X287403Y274088D01*
X288002Y273969D01*
D02*
G37*
G36*
X290542D02*
X291141Y274088D01*
X292726Y275147D01*
X293784Y276731D01*
X293903Y277330D01*
X290542D01*
Y273969D01*
D02*
G37*
G36*
X345152Y258280D02*
X348513D01*
X348394Y258879D01*
X347336Y260463D01*
X345751Y261522D01*
X345152Y261641D01*
Y258280D01*
D02*
G37*
G36*
X276572Y264485D02*
Y267082D01*
X273976D01*
X274037Y266776D01*
X274929Y265439D01*
X276266Y264546D01*
X276572Y264485D01*
D02*
G37*
G36*
X345152Y252379D02*
X345751Y252498D01*
X347336Y253557D01*
X348394Y255141D01*
X348513Y255740D01*
X345152D01*
Y252379D01*
D02*
G37*
G36*
X339251Y258280D02*
X342612D01*
Y261641D01*
X342013Y261522D01*
X340429Y260463D01*
X339370Y258879D01*
X339251Y258280D01*
D02*
G37*
G36*
X243552Y267619D02*
X244151Y267738D01*
X245735Y268797D01*
X246794Y270381D01*
X246913Y270980D01*
X243552D01*
Y267619D01*
D02*
G37*
G36*
X294352Y260301D02*
X332452D01*
X333623Y260534D01*
X334615Y261197D01*
X334615Y261197D01*
X335619Y262201D01*
X336455Y262368D01*
X337696Y263197D01*
X338525Y264437D01*
X338815Y265900D01*
X338525Y267363D01*
X337696Y268604D01*
X336455Y269432D01*
X336021Y269519D01*
X335810Y269869D01*
X335563Y270905D01*
X336258Y271944D01*
X336319Y272250D01*
X328586D01*
X328647Y271944D01*
X329539Y270607D01*
X330876Y269714D01*
X331532Y269584D01*
X331661Y269417D01*
X332014Y268193D01*
X331460Y267363D01*
X331293Y266527D01*
X331185Y266419D01*
X301168D01*
X301043Y267689D01*
X301557Y267791D01*
X302474Y267973D01*
X303975Y268977D01*
X304979Y270479D01*
X305078Y270980D01*
X296326D01*
X296425Y270479D01*
X297429Y268977D01*
X298931Y267973D01*
X299847Y267791D01*
X300362Y267689D01*
X300236Y266419D01*
X294352D01*
X293182Y266186D01*
X292189Y265523D01*
X291526Y264531D01*
X291293Y263360D01*
X291526Y262190D01*
X292189Y261197D01*
X293182Y260534D01*
X294352Y260301D01*
D02*
G37*
G36*
X279112Y264485D02*
X279418Y264546D01*
X280755Y265439D01*
X281648Y266776D01*
X281709Y267082D01*
X279112D01*
Y264485D01*
D02*
G37*
G36*
X241012Y267619D02*
Y270980D01*
X237651D01*
X237770Y270381D01*
X238829Y268797D01*
X240413Y267738D01*
X241012Y267619D01*
D02*
G37*
G36*
X327552Y324179D02*
X328151Y324298D01*
X329735Y325357D01*
X330449D01*
X332033Y324298D01*
X332632Y324179D01*
Y328810D01*
Y333441D01*
X332033Y333322D01*
X330449Y332263D01*
X329735D01*
X328151Y333322D01*
X327552Y333441D01*
Y328810D01*
Y324179D01*
D02*
G37*
G36*
X325012D02*
Y327540D01*
X321651D01*
X321770Y326941D01*
X322829Y325357D01*
X324413Y324298D01*
X325012Y324179D01*
D02*
G37*
G36*
X299146Y288386D02*
X302507D01*
X302388Y288985D01*
X301329Y290569D01*
X299745Y291628D01*
X299146Y291747D01*
Y288386D01*
D02*
G37*
G36*
X277876Y276634D02*
X279339Y276925D01*
X280580Y277753D01*
X281409Y278994D01*
X281700Y280457D01*
X281409Y281920D01*
X280580Y283161D01*
X279339Y283989D01*
X278503Y284156D01*
X251456Y311203D01*
X250464Y311866D01*
X249293Y312099D01*
X235844D01*
X235135Y312572D01*
X233672Y312864D01*
X232209Y312572D01*
X230968Y311744D01*
X230140Y310503D01*
X229849Y309040D01*
X230140Y307577D01*
X230968Y306336D01*
X232209Y305508D01*
X233672Y305217D01*
X235135Y305508D01*
X235844Y305981D01*
X248026D01*
X274177Y279830D01*
X274344Y278994D01*
X275173Y277753D01*
X276413Y276925D01*
X277876Y276634D01*
D02*
G37*
G36*
X335172Y330080D02*
X338533D01*
X338414Y330679D01*
X337355Y332263D01*
X335771Y333322D01*
X335172Y333441D01*
Y330080D01*
D02*
G37*
G36*
X273122Y342962D02*
X318122D01*
X320472Y343272D01*
X322661Y344179D01*
X324541Y345621D01*
X325984Y347501D01*
X326890Y349691D01*
X327200Y352040D01*
X326890Y354389D01*
X325984Y356579D01*
X324541Y358459D01*
X322661Y359902D01*
X320472Y360808D01*
X318122Y361118D01*
X273122D01*
X270773Y360808D01*
X268583Y359902D01*
X266703Y358459D01*
X265261Y356579D01*
X264354Y354389D01*
X264044Y352040D01*
X264354Y349691D01*
X265261Y347501D01*
X266703Y345621D01*
X268583Y344179D01*
X270773Y343272D01*
X273122Y342962D01*
D02*
G37*
G36*
X335172Y324179D02*
X335771Y324298D01*
X337355Y325357D01*
X338414Y326941D01*
X338533Y327540D01*
X335172D01*
Y324179D01*
D02*
G37*
G36*
X321651Y330080D02*
X325012D01*
Y333441D01*
X324413Y333322D01*
X322829Y332263D01*
X321770Y330679D01*
X321651Y330080D01*
D02*
G37*
G36*
X290542Y279870D02*
X293903D01*
X293784Y280469D01*
X292726Y282053D01*
X291141Y283112D01*
X290542Y283231D01*
Y279870D01*
D02*
G37*
G36*
X237651Y281140D02*
X241012D01*
Y284501D01*
X240413Y284382D01*
X238829Y283323D01*
X237770Y281739D01*
X237651Y281140D01*
D02*
G37*
G36*
Y273520D02*
X246913D01*
X246794Y274119D01*
X245735Y275703D01*
Y276417D01*
X246794Y278001D01*
X246913Y278600D01*
X237651D01*
X237770Y278001D01*
X238829Y276417D01*
Y275703D01*
X237770Y274119D01*
X237651Y273520D01*
D02*
G37*
G36*
X284641Y279870D02*
X288002D01*
Y283231D01*
X287403Y283112D01*
X285819Y282053D01*
X284760Y280469D01*
X284641Y279870D01*
D02*
G37*
G36*
X299146Y282485D02*
X299745Y282604D01*
X301329Y283663D01*
X302388Y285247D01*
X302507Y285846D01*
X299146D01*
Y282485D01*
D02*
G37*
G36*
X293245Y288386D02*
X296606D01*
Y291747D01*
X296007Y291628D01*
X294423Y290569D01*
X293364Y288985D01*
X293245Y288386D01*
D02*
G37*
G36*
X243552Y281140D02*
X246913D01*
X246794Y281739D01*
X245735Y283323D01*
X244151Y284382D01*
X243552Y284501D01*
Y281140D01*
D02*
G37*
G36*
X296606Y282485D02*
Y285846D01*
X293245D01*
X293364Y285247D01*
X294423Y283663D01*
X296007Y282604D01*
X296606Y282485D01*
D02*
G37*
G36*
X342612Y252379D02*
Y255740D01*
X339251D01*
X339370Y255141D01*
X340429Y253557D01*
X342013Y252498D01*
X342612Y252379D01*
D02*
G37*
G36*
X341594Y163030D02*
X344955D01*
X344836Y163629D01*
X343777Y165213D01*
X342192Y166272D01*
X341594Y166391D01*
Y163030D01*
D02*
G37*
G36*
X274032Y166019D02*
Y169380D01*
X270671D01*
X270790Y168781D01*
X271849Y167197D01*
X273433Y166138D01*
X274032Y166019D01*
D02*
G37*
G36*
X335692Y155410D02*
X344955D01*
X344836Y156009D01*
X343777Y157593D01*
Y158307D01*
X344836Y159891D01*
X344955Y160490D01*
X335692D01*
X335812Y159891D01*
X336870Y158307D01*
Y157593D01*
X335812Y156009D01*
X335692Y155410D01*
D02*
G37*
G36*
Y163030D02*
X339054D01*
Y166391D01*
X338455Y166272D01*
X336870Y165213D01*
X335812Y163629D01*
X335692Y163030D01*
D02*
G37*
G36*
X276572Y171920D02*
X279933D01*
X279814Y172519D01*
X278755Y174103D01*
X277171Y175162D01*
X276572Y175281D01*
Y171920D01*
D02*
G37*
G36*
X299432Y183337D02*
X300895Y183628D01*
X301604Y184101D01*
X323562D01*
X324733Y184334D01*
X325725Y184997D01*
X340965Y200237D01*
X341628Y201229D01*
X341861Y202400D01*
X341861Y202400D01*
Y242138D01*
X342335Y242847D01*
X342626Y244310D01*
X342335Y245773D01*
X341506Y247014D01*
X340265Y247842D01*
X338802Y248134D01*
X337339Y247842D01*
X336099Y247014D01*
X335270Y245773D01*
X334979Y244310D01*
X335270Y242847D01*
X335743Y242138D01*
Y203667D01*
X322295Y190219D01*
X301604D01*
X300895Y190692D01*
X299432Y190984D01*
X297969Y190692D01*
X296728Y189864D01*
X295900Y188623D01*
X295609Y187160D01*
X295900Y185697D01*
X296728Y184457D01*
X297969Y183628D01*
X299432Y183337D01*
D02*
G37*
G36*
X276572Y166019D02*
X277171Y166138D01*
X278755Y167197D01*
X279814Y168781D01*
X279933Y169380D01*
X276572D01*
Y166019D01*
D02*
G37*
G36*
X270671Y171920D02*
X274032D01*
Y175281D01*
X273433Y175162D01*
X271849Y174103D01*
X270790Y172519D01*
X270671Y171920D01*
D02*
G37*
G36*
X268491Y102540D02*
X277753D01*
X277634Y103139D01*
X276761Y104445D01*
X277634Y105751D01*
X277753Y106350D01*
X268491D01*
X268610Y105751D01*
X269483Y104445D01*
X268610Y103139D01*
X268491Y102540D01*
D02*
G37*
G36*
Y108890D02*
X277753D01*
X277634Y109489D01*
X276761Y110795D01*
X277634Y112101D01*
X277753Y112700D01*
X268491D01*
X268610Y112101D01*
X269483Y110795D01*
X268610Y109489D01*
X268491Y108890D01*
D02*
G37*
G36*
X271852Y96639D02*
Y100000D01*
X268491D01*
X268610Y99401D01*
X269669Y97817D01*
X271253Y96758D01*
X271852Y96639D01*
D02*
G37*
G36*
X274392D02*
X274991Y96758D01*
X276576Y97817D01*
X277634Y99401D01*
X277753Y100000D01*
X274392D01*
Y96639D01*
D02*
G37*
G36*
X339054Y149509D02*
Y152870D01*
X335692D01*
X335812Y152271D01*
X336870Y150687D01*
X338455Y149628D01*
X339054Y149509D01*
D02*
G37*
G36*
X341594D02*
X342192Y149628D01*
X343777Y150687D01*
X344836Y152271D01*
X344955Y152870D01*
X341594D01*
Y149509D01*
D02*
G37*
G36*
X268491Y115240D02*
X271852D01*
Y118601D01*
X271253Y118482D01*
X269669Y117423D01*
X268610Y115839D01*
X268491Y115240D01*
D02*
G37*
G36*
X274392D02*
X277753D01*
X277634Y115839D01*
X276576Y117423D01*
X274991Y118482D01*
X274392Y118601D01*
Y115240D01*
D02*
G37*
G36*
X356582Y237960D02*
X359943D01*
X359824Y238559D01*
X358765Y240143D01*
X357181Y241202D01*
X356582Y241321D01*
Y237960D01*
D02*
G37*
G36*
X318041Y238810D02*
X321402D01*
Y242171D01*
X320803Y242052D01*
X319219Y240993D01*
X318160Y239409D01*
X318041Y238810D01*
D02*
G37*
G36*
X289942Y233909D02*
X290541Y234028D01*
X292125Y235087D01*
X293184Y236671D01*
X293303Y237270D01*
X289942D01*
Y233909D01*
D02*
G37*
G36*
X350681Y237960D02*
X354042D01*
Y241321D01*
X353443Y241202D01*
X351859Y240143D01*
X350800Y238559D01*
X350681Y237960D01*
D02*
G37*
G36*
X289942Y239810D02*
X293303D01*
X293184Y240409D01*
X292125Y241993D01*
X290541Y243052D01*
X289942Y243171D01*
Y239810D01*
D02*
G37*
G36*
X276572Y235407D02*
X278035Y235698D01*
X279276Y236527D01*
X280105Y237767D01*
X280396Y239230D01*
X280105Y240693D01*
X279276Y241934D01*
X278035Y242762D01*
X276572Y243053D01*
X276089Y242957D01*
X266384Y252662D01*
X265640Y253160D01*
X264762Y253334D01*
X240149D01*
X239876Y253744D01*
X238635Y254572D01*
X237172Y254863D01*
X235709Y254572D01*
X234468Y253744D01*
X233640Y252503D01*
X233349Y251040D01*
X233640Y249577D01*
X234468Y248337D01*
X235709Y247508D01*
X237172Y247217D01*
X238635Y247508D01*
X239876Y248337D01*
X240149Y248746D01*
X263812D01*
X272845Y239713D01*
X272749Y239230D01*
X273040Y237767D01*
X273869Y236527D01*
X275109Y235698D01*
X276572Y235407D01*
D02*
G37*
G36*
X323942Y238810D02*
X327303D01*
X327184Y239409D01*
X326125Y240993D01*
X324541Y242052D01*
X323942Y242171D01*
Y238810D01*
D02*
G37*
G36*
X284041Y239810D02*
X287402D01*
Y243171D01*
X286803Y243052D01*
X285219Y241993D01*
X284160Y240409D01*
X284041Y239810D01*
D02*
G37*
G36*
X354042Y224439D02*
Y227800D01*
X350681D01*
X350800Y227201D01*
X351859Y225617D01*
X353443Y224558D01*
X354042Y224439D01*
D02*
G37*
G36*
X356582D02*
X357181Y224558D01*
X358765Y225617D01*
X359824Y227201D01*
X359943Y227800D01*
X356582D01*
Y224439D01*
D02*
G37*
G36*
X316912Y195737D02*
X318375Y196028D01*
X319616Y196856D01*
X320444Y198097D01*
X320736Y199560D01*
X320444Y201023D01*
X319616Y202264D01*
X318375Y203092D01*
X316912Y203384D01*
X315449Y203092D01*
X314209Y202264D01*
X313935Y201854D01*
X272130D01*
X271656Y202564D01*
X270415Y203392D01*
X268952Y203683D01*
X267489Y203392D01*
X266248Y202564D01*
X265420Y201323D01*
X265129Y199860D01*
X265420Y198397D01*
X266248Y197157D01*
X267489Y196328D01*
X268952Y196037D01*
X270415Y196328D01*
X271656Y197157D01*
X271729Y197266D01*
X313935D01*
X314209Y196856D01*
X315449Y196028D01*
X316912Y195737D01*
D02*
G37*
G36*
X248632Y207467D02*
X250095Y207758D01*
X251336Y208587D01*
X251609Y208996D01*
X325665D01*
X325938Y208587D01*
X327179Y207758D01*
X328642Y207467D01*
X330105Y207758D01*
X331346Y208587D01*
X332174Y209827D01*
X332466Y211290D01*
X332174Y212753D01*
X331346Y213994D01*
X330105Y214822D01*
X328642Y215114D01*
X327179Y214822D01*
X325938Y213994D01*
X325665Y213584D01*
X251609D01*
X251336Y213994D01*
X250095Y214822D01*
X248632Y215114D01*
X247169Y214822D01*
X245928Y213994D01*
X245100Y212753D01*
X244809Y211290D01*
X245100Y209827D01*
X245928Y208587D01*
X247169Y207758D01*
X248632Y207467D01*
D02*
G37*
G36*
X323942Y232909D02*
X324541Y233028D01*
X326125Y234087D01*
X327184Y235671D01*
X327303Y236270D01*
X323942D01*
Y232909D01*
D02*
G37*
G36*
X287402Y233909D02*
Y237270D01*
X284041D01*
X284160Y236671D01*
X285219Y235087D01*
X286803Y234028D01*
X287402Y233909D01*
D02*
G37*
G36*
X350681Y230340D02*
X359943D01*
X359824Y230939D01*
X358765Y232523D01*
Y233237D01*
X359824Y234821D01*
X359943Y235420D01*
X350681D01*
X350800Y234821D01*
X351859Y233237D01*
Y232523D01*
X350800Y230939D01*
X350681Y230340D01*
D02*
G37*
G36*
X321402Y232909D02*
Y236270D01*
X318041D01*
X318160Y235671D01*
X319219Y234087D01*
X320803Y233028D01*
X321402Y232909D01*
D02*
G37*
%LPD*%
G36*
X81521Y52468D02*
X79578Y53766D01*
X78280Y55708D01*
X77838Y57931D01*
X77851Y58000D01*
Y205000D01*
X77696Y205780D01*
X77254Y206442D01*
X60804Y222892D01*
X60804Y222892D01*
X60142Y223334D01*
X59362Y223489D01*
X53052D01*
Y223519D01*
X51900Y223748D01*
X50923Y224401D01*
X50270Y225378D01*
X50041Y226530D01*
X50011D01*
Y364960D01*
X50041D01*
X50270Y366112D01*
X50923Y367089D01*
X51900Y367742D01*
X53052Y367971D01*
Y368001D01*
X207992D01*
Y367971D01*
X209144Y367742D01*
X210121Y367089D01*
X210774Y366112D01*
X211003Y364960D01*
X211033D01*
Y349720D01*
Y226530D01*
X211003D01*
X210774Y225378D01*
X210121Y224401D01*
X209144Y223748D01*
X207992Y223519D01*
Y223489D01*
X202262D01*
X201482Y223334D01*
X200820Y222892D01*
X184370Y206442D01*
X184370Y206442D01*
X183928Y205780D01*
X183773Y205000D01*
Y146845D01*
X177370Y140442D01*
X177370Y140442D01*
X176928Y139780D01*
X176773Y139000D01*
X176773Y139000D01*
Y129000D01*
X176928Y128220D01*
X177370Y127558D01*
X178032Y127116D01*
X178812Y126961D01*
X183773D01*
Y110083D01*
X171370Y97680D01*
X170928Y97018D01*
X170773Y96238D01*
Y58000D01*
X170786Y57931D01*
X170344Y55708D01*
X169046Y53766D01*
X167104Y52468D01*
X164881Y52026D01*
X164812Y52039D01*
X83812D01*
X83744Y52026D01*
X81521Y52468D01*
D02*
G37*
%LPC*%
G36*
X131226Y273520D02*
X134332D01*
Y276626D01*
X133831Y276527D01*
X132329Y275523D01*
X131326Y274021D01*
X131226Y273520D01*
D02*
G37*
G36*
X136872D02*
X139978D01*
X139879Y274021D01*
X138875Y275523D01*
X137374Y276527D01*
X136872Y276626D01*
Y273520D01*
D02*
G37*
G36*
X108876Y269622D02*
X111472D01*
Y272218D01*
X111166Y272158D01*
X109829Y271265D01*
X108937Y269928D01*
X108876Y269622D01*
D02*
G37*
G36*
X114012D02*
X116609D01*
X116548Y269928D01*
X115655Y271265D01*
X114318Y272158D01*
X114012Y272218D01*
Y269622D01*
D02*
G37*
G36*
X163486Y274790D02*
X166082D01*
Y277386D01*
X165776Y277326D01*
X164439Y276433D01*
X163547Y275096D01*
X163486Y274790D01*
D02*
G37*
G36*
X168622D02*
X171219D01*
X171158Y275096D01*
X170265Y276433D01*
X168928Y277326D01*
X168622Y277386D01*
Y274790D01*
D02*
G37*
G36*
X122902Y273969D02*
Y277330D01*
X119541D01*
X119660Y276731D01*
X120719Y275147D01*
X122303Y274088D01*
X122902Y273969D01*
D02*
G37*
G36*
X125442D02*
X126041Y274088D01*
X127626Y275147D01*
X128684Y276731D01*
X128803Y277330D01*
X125442D01*
Y273969D01*
D02*
G37*
G36*
X180052Y258280D02*
X183413D01*
X183294Y258879D01*
X182236Y260463D01*
X180651Y261522D01*
X180052Y261641D01*
Y258280D01*
D02*
G37*
G36*
X111472Y264485D02*
Y267082D01*
X108876D01*
X108937Y266776D01*
X109829Y265439D01*
X111166Y264546D01*
X111472Y264485D01*
D02*
G37*
G36*
X180052Y252379D02*
X180651Y252498D01*
X182236Y253557D01*
X183294Y255141D01*
X183413Y255740D01*
X180052D01*
Y252379D01*
D02*
G37*
G36*
X174151Y258280D02*
X177512D01*
Y261641D01*
X176913Y261522D01*
X175329Y260463D01*
X174270Y258879D01*
X174151Y258280D01*
D02*
G37*
G36*
X78452Y267619D02*
X79051Y267738D01*
X80635Y268797D01*
X81694Y270381D01*
X81813Y270980D01*
X78452D01*
Y267619D01*
D02*
G37*
G36*
X129252Y260301D02*
X167352D01*
X168523Y260534D01*
X169515Y261197D01*
X169515Y261197D01*
X170519Y262201D01*
X171355Y262368D01*
X172596Y263197D01*
X173424Y264437D01*
X173715Y265900D01*
X173424Y267363D01*
X172596Y268604D01*
X171355Y269432D01*
X170921Y269519D01*
X170710Y269869D01*
X170463Y270905D01*
X171158Y271944D01*
X171219Y272250D01*
X163486D01*
X163547Y271944D01*
X164439Y270607D01*
X165776Y269714D01*
X166432Y269584D01*
X166561Y269417D01*
X166914Y268193D01*
X166360Y267363D01*
X166193Y266527D01*
X166085Y266419D01*
X136068D01*
X135943Y267689D01*
X136457Y267791D01*
X137374Y267973D01*
X138875Y268977D01*
X139879Y270479D01*
X139978Y270980D01*
X131226D01*
X131326Y270479D01*
X132329Y268977D01*
X133831Y267973D01*
X134747Y267791D01*
X135262Y267689D01*
X135136Y266419D01*
X129252D01*
X128082Y266186D01*
X127089Y265523D01*
X126426Y264531D01*
X126193Y263360D01*
X126426Y262190D01*
X127089Y261197D01*
X128082Y260534D01*
X129252Y260301D01*
D02*
G37*
G36*
X114012Y264485D02*
X114318Y264546D01*
X115655Y265439D01*
X116548Y266776D01*
X116609Y267082D01*
X114012D01*
Y264485D01*
D02*
G37*
G36*
X75912Y267619D02*
Y270980D01*
X72551D01*
X72670Y270381D01*
X73729Y268797D01*
X75313Y267738D01*
X75912Y267619D01*
D02*
G37*
G36*
X162452Y324179D02*
X163051Y324298D01*
X164636Y325357D01*
X165349D01*
X166933Y324298D01*
X167532Y324179D01*
Y328810D01*
Y333441D01*
X166933Y333322D01*
X165349Y332263D01*
X164636D01*
X163051Y333322D01*
X162452Y333441D01*
Y328810D01*
Y324179D01*
D02*
G37*
G36*
X159912D02*
Y327540D01*
X156551D01*
X156670Y326941D01*
X157729Y325357D01*
X159313Y324298D01*
X159912Y324179D01*
D02*
G37*
G36*
X134046Y288386D02*
X137407D01*
X137288Y288985D01*
X136229Y290569D01*
X134645Y291628D01*
X134046Y291747D01*
Y288386D01*
D02*
G37*
G36*
X112776Y276634D02*
X114239Y276925D01*
X115480Y277753D01*
X116308Y278994D01*
X116600Y280457D01*
X116308Y281920D01*
X115480Y283161D01*
X114239Y283989D01*
X113403Y284156D01*
X86356Y311203D01*
X85364Y311866D01*
X84193Y312099D01*
X70744D01*
X70035Y312572D01*
X68572Y312864D01*
X67109Y312572D01*
X65869Y311744D01*
X65040Y310503D01*
X64749Y309040D01*
X65040Y307577D01*
X65869Y306336D01*
X67109Y305508D01*
X68572Y305217D01*
X70035Y305508D01*
X70744Y305981D01*
X82926D01*
X109077Y279830D01*
X109244Y278994D01*
X110072Y277753D01*
X111313Y276925D01*
X112776Y276634D01*
D02*
G37*
G36*
X170072Y330080D02*
X173433D01*
X173314Y330679D01*
X172255Y332263D01*
X170671Y333322D01*
X170072Y333441D01*
Y330080D01*
D02*
G37*
G36*
X108022Y342962D02*
X153022D01*
X155372Y343272D01*
X157561Y344179D01*
X159441Y345621D01*
X160884Y347501D01*
X161790Y349691D01*
X162100Y352040D01*
X161790Y354389D01*
X160884Y356579D01*
X159441Y358459D01*
X157561Y359902D01*
X155372Y360808D01*
X153022Y361118D01*
X108022D01*
X105673Y360808D01*
X103483Y359902D01*
X101603Y358459D01*
X100161Y356579D01*
X99254Y354389D01*
X98945Y352040D01*
X99254Y349691D01*
X100161Y347501D01*
X101603Y345621D01*
X103483Y344179D01*
X105673Y343272D01*
X108022Y342962D01*
D02*
G37*
G36*
X170072Y324179D02*
X170671Y324298D01*
X172255Y325357D01*
X173314Y326941D01*
X173433Y327540D01*
X170072D01*
Y324179D01*
D02*
G37*
G36*
X156551Y330080D02*
X159912D01*
Y333441D01*
X159313Y333322D01*
X157729Y332263D01*
X156670Y330679D01*
X156551Y330080D01*
D02*
G37*
G36*
X125442Y279870D02*
X128803D01*
X128684Y280469D01*
X127626Y282053D01*
X126041Y283112D01*
X125442Y283231D01*
Y279870D01*
D02*
G37*
G36*
X72551Y281140D02*
X75912D01*
Y284501D01*
X75313Y284382D01*
X73729Y283323D01*
X72670Y281739D01*
X72551Y281140D01*
D02*
G37*
G36*
Y273520D02*
X81813D01*
X81694Y274119D01*
X80635Y275703D01*
Y276417D01*
X81694Y278001D01*
X81813Y278600D01*
X72551D01*
X72670Y278001D01*
X73729Y276417D01*
Y275703D01*
X72670Y274119D01*
X72551Y273520D01*
D02*
G37*
G36*
X119541Y279870D02*
X122902D01*
Y283231D01*
X122303Y283112D01*
X120719Y282053D01*
X119660Y280469D01*
X119541Y279870D01*
D02*
G37*
G36*
X134046Y282485D02*
X134645Y282604D01*
X136229Y283663D01*
X137288Y285247D01*
X137407Y285846D01*
X134046D01*
Y282485D01*
D02*
G37*
G36*
X128145Y288386D02*
X131506D01*
Y291747D01*
X130907Y291628D01*
X129323Y290569D01*
X128264Y288985D01*
X128145Y288386D01*
D02*
G37*
G36*
X78452Y281140D02*
X81813D01*
X81694Y281739D01*
X80635Y283323D01*
X79051Y284382D01*
X78452Y284501D01*
Y281140D01*
D02*
G37*
G36*
X131506Y282485D02*
Y285846D01*
X128145D01*
X128264Y285247D01*
X129323Y283663D01*
X130907Y282604D01*
X131506Y282485D01*
D02*
G37*
G36*
X177512Y252379D02*
Y255740D01*
X174151D01*
X174270Y255141D01*
X175329Y253557D01*
X176913Y252498D01*
X177512Y252379D01*
D02*
G37*
G36*
X176494Y163030D02*
X179855D01*
X179736Y163629D01*
X178677Y165213D01*
X177092Y166272D01*
X176494Y166391D01*
Y163030D01*
D02*
G37*
G36*
X108932Y166019D02*
Y169380D01*
X105571D01*
X105690Y168781D01*
X106749Y167197D01*
X108333Y166138D01*
X108932Y166019D01*
D02*
G37*
G36*
X170592Y155410D02*
X179855D01*
X179736Y156009D01*
X178677Y157593D01*
Y158307D01*
X179736Y159891D01*
X179855Y160490D01*
X170592D01*
X170711Y159891D01*
X171770Y158307D01*
Y157593D01*
X170711Y156009D01*
X170592Y155410D01*
D02*
G37*
G36*
Y163030D02*
X173954D01*
Y166391D01*
X173355Y166272D01*
X171770Y165213D01*
X170711Y163629D01*
X170592Y163030D01*
D02*
G37*
G36*
X111472Y171920D02*
X114833D01*
X114714Y172519D01*
X113656Y174103D01*
X112071Y175162D01*
X111472Y175281D01*
Y171920D01*
D02*
G37*
G36*
X134332Y183337D02*
X135795Y183628D01*
X136504Y184101D01*
X158462D01*
X159633Y184334D01*
X160625Y184997D01*
X175865Y200237D01*
X176528Y201229D01*
X176761Y202400D01*
X176761Y202400D01*
Y242138D01*
X177234Y242847D01*
X177526Y244310D01*
X177234Y245773D01*
X176406Y247014D01*
X175165Y247842D01*
X173702Y248134D01*
X172239Y247842D01*
X170998Y247014D01*
X170170Y245773D01*
X169879Y244310D01*
X170170Y242847D01*
X170643Y242138D01*
Y203667D01*
X157195Y190219D01*
X136504D01*
X135795Y190692D01*
X134332Y190984D01*
X132869Y190692D01*
X131629Y189864D01*
X130800Y188623D01*
X130509Y187160D01*
X130800Y185697D01*
X131629Y184457D01*
X132869Y183628D01*
X134332Y183337D01*
D02*
G37*
G36*
X111472Y166019D02*
X112071Y166138D01*
X113656Y167197D01*
X114714Y168781D01*
X114833Y169380D01*
X111472D01*
Y166019D01*
D02*
G37*
G36*
X105571Y171920D02*
X108932D01*
Y175281D01*
X108333Y175162D01*
X106749Y174103D01*
X105690Y172519D01*
X105571Y171920D01*
D02*
G37*
G36*
X103391Y102540D02*
X112653D01*
X112534Y103139D01*
X111662Y104445D01*
X112534Y105751D01*
X112653Y106350D01*
X103391D01*
X103510Y105751D01*
X104383Y104445D01*
X103510Y103139D01*
X103391Y102540D01*
D02*
G37*
G36*
Y108890D02*
X112653D01*
X112534Y109489D01*
X111662Y110795D01*
X112534Y112101D01*
X112653Y112700D01*
X103391D01*
X103510Y112101D01*
X104383Y110795D01*
X103510Y109489D01*
X103391Y108890D01*
D02*
G37*
G36*
X106752Y96639D02*
Y100000D01*
X103391D01*
X103510Y99401D01*
X104569Y97817D01*
X106153Y96758D01*
X106752Y96639D01*
D02*
G37*
G36*
X109292D02*
X109891Y96758D01*
X111475Y97817D01*
X112534Y99401D01*
X112653Y100000D01*
X109292D01*
Y96639D01*
D02*
G37*
G36*
X173954Y149509D02*
Y152870D01*
X170592D01*
X170711Y152271D01*
X171770Y150687D01*
X173355Y149628D01*
X173954Y149509D01*
D02*
G37*
G36*
X176494D02*
X177092Y149628D01*
X178677Y150687D01*
X179736Y152271D01*
X179855Y152870D01*
X176494D01*
Y149509D01*
D02*
G37*
G36*
X103391Y115240D02*
X106752D01*
Y118601D01*
X106153Y118482D01*
X104569Y117423D01*
X103510Y115839D01*
X103391Y115240D01*
D02*
G37*
G36*
X109292D02*
X112653D01*
X112534Y115839D01*
X111475Y117423D01*
X109891Y118482D01*
X109292Y118601D01*
Y115240D01*
D02*
G37*
G36*
X191482Y237960D02*
X194843D01*
X194724Y238559D01*
X193666Y240143D01*
X192081Y241202D01*
X191482Y241321D01*
Y237960D01*
D02*
G37*
G36*
X152941Y238810D02*
X156302D01*
Y242171D01*
X155703Y242052D01*
X154119Y240993D01*
X153060Y239409D01*
X152941Y238810D01*
D02*
G37*
G36*
X124842Y233909D02*
X125441Y234028D01*
X127025Y235087D01*
X128084Y236671D01*
X128203Y237270D01*
X124842D01*
Y233909D01*
D02*
G37*
G36*
X185581Y237960D02*
X188942D01*
Y241321D01*
X188343Y241202D01*
X186759Y240143D01*
X185700Y238559D01*
X185581Y237960D01*
D02*
G37*
G36*
X124842Y239810D02*
X128203D01*
X128084Y240409D01*
X127025Y241993D01*
X125441Y243052D01*
X124842Y243171D01*
Y239810D01*
D02*
G37*
G36*
X111472Y235407D02*
X112935Y235698D01*
X114176Y236527D01*
X115005Y237767D01*
X115295Y239230D01*
X115005Y240693D01*
X114176Y241934D01*
X112935Y242762D01*
X111472Y243053D01*
X110989Y242957D01*
X101284Y252662D01*
X100540Y253160D01*
X99662Y253334D01*
X75049D01*
X74776Y253744D01*
X73535Y254572D01*
X72072Y254863D01*
X70609Y254572D01*
X69369Y253744D01*
X68540Y252503D01*
X68249Y251040D01*
X68540Y249577D01*
X69369Y248337D01*
X70609Y247508D01*
X72072Y247217D01*
X73535Y247508D01*
X74776Y248337D01*
X75049Y248746D01*
X98712D01*
X107745Y239713D01*
X107649Y239230D01*
X107940Y237767D01*
X108769Y236527D01*
X110009Y235698D01*
X111472Y235407D01*
D02*
G37*
G36*
X158842Y238810D02*
X162203D01*
X162084Y239409D01*
X161026Y240993D01*
X159441Y242052D01*
X158842Y242171D01*
Y238810D01*
D02*
G37*
G36*
X118941Y239810D02*
X122302D01*
Y243171D01*
X121703Y243052D01*
X120119Y241993D01*
X119060Y240409D01*
X118941Y239810D01*
D02*
G37*
G36*
X188942Y224439D02*
Y227800D01*
X185581D01*
X185700Y227201D01*
X186759Y225617D01*
X188343Y224558D01*
X188942Y224439D01*
D02*
G37*
G36*
X191482D02*
X192081Y224558D01*
X193666Y225617D01*
X194724Y227201D01*
X194843Y227800D01*
X191482D01*
Y224439D01*
D02*
G37*
G36*
X151812Y195737D02*
X153275Y196028D01*
X154516Y196856D01*
X155344Y198097D01*
X155636Y199560D01*
X155344Y201023D01*
X154516Y202264D01*
X153275Y203092D01*
X151812Y203384D01*
X150349Y203092D01*
X149108Y202264D01*
X148835Y201854D01*
X107030D01*
X106556Y202564D01*
X105315Y203392D01*
X103852Y203683D01*
X102389Y203392D01*
X101149Y202564D01*
X100320Y201323D01*
X100029Y199860D01*
X100320Y198397D01*
X101149Y197157D01*
X102389Y196328D01*
X103852Y196037D01*
X105315Y196328D01*
X106556Y197157D01*
X106629Y197266D01*
X148835D01*
X149108Y196856D01*
X150349Y196028D01*
X151812Y195737D01*
D02*
G37*
G36*
X83532Y207467D02*
X84995Y207758D01*
X86236Y208587D01*
X86509Y208996D01*
X160565D01*
X160839Y208587D01*
X162079Y207758D01*
X163542Y207467D01*
X165005Y207758D01*
X166246Y208587D01*
X167075Y209827D01*
X167365Y211290D01*
X167075Y212753D01*
X166246Y213994D01*
X165005Y214822D01*
X163542Y215114D01*
X162079Y214822D01*
X160839Y213994D01*
X160565Y213584D01*
X86509D01*
X86236Y213994D01*
X84995Y214822D01*
X83532Y215114D01*
X82069Y214822D01*
X80829Y213994D01*
X80000Y212753D01*
X79709Y211290D01*
X80000Y209827D01*
X80829Y208587D01*
X82069Y207758D01*
X83532Y207467D01*
D02*
G37*
G36*
X158842Y232909D02*
X159441Y233028D01*
X161026Y234087D01*
X162084Y235671D01*
X162203Y236270D01*
X158842D01*
Y232909D01*
D02*
G37*
G36*
X122302Y233909D02*
Y237270D01*
X118941D01*
X119060Y236671D01*
X120119Y235087D01*
X121703Y234028D01*
X122302Y233909D01*
D02*
G37*
G36*
X185581Y230340D02*
X194843D01*
X194724Y230939D01*
X193666Y232523D01*
Y233237D01*
X194724Y234821D01*
X194843Y235420D01*
X185581D01*
X185700Y234821D01*
X186759Y233237D01*
Y232523D01*
X185700Y230939D01*
X185581Y230340D01*
D02*
G37*
G36*
X156302Y232909D02*
Y236270D01*
X152941D01*
X153060Y235671D01*
X154119Y234087D01*
X155703Y233028D01*
X156302Y232909D01*
D02*
G37*
%LPD*%
D14*
X176851Y431040D02*
X192472D01*
X148268Y459623D02*
X176851Y431040D01*
X102582Y552920D02*
X126712D01*
X87342Y537680D02*
X102582Y552920D01*
X87342Y495770D02*
Y537680D01*
X91152Y474180D02*
X93692Y476720D01*
X131792D01*
X341951Y431040D02*
X357572D01*
X313368Y459623D02*
X341951Y431040D01*
X267682Y552920D02*
X291812D01*
X252442Y537680D02*
X267682Y552920D01*
X252442Y495770D02*
Y537680D01*
X256252Y474180D02*
X258792Y476720D01*
X296892D01*
X507051Y431040D02*
X522672D01*
X478468Y459623D02*
X507051Y431040D01*
X432782Y552920D02*
X456912D01*
X417542Y537680D02*
X432782Y552920D01*
X417542Y495770D02*
Y537680D01*
X421352Y474180D02*
X423892Y476720D01*
X461992D01*
X672151Y431040D02*
X687772D01*
X643568Y459623D02*
X672151Y431040D01*
X597882Y552920D02*
X622012D01*
X582642Y537680D02*
X597882Y552920D01*
X582642Y495770D02*
Y537680D01*
X586452Y474180D02*
X588992Y476720D01*
X627092D01*
X837251Y431040D02*
X852872D01*
X808668Y459623D02*
X837251Y431040D01*
X762982Y552920D02*
X787112D01*
X747742Y537680D02*
X762982Y552920D01*
X747742Y495770D02*
Y537680D01*
X751552Y474180D02*
X754092Y476720D01*
X792192D01*
X744593Y309040D02*
X728972D01*
X773176Y280457D02*
X744593Y309040D01*
X818862Y187160D02*
X794732D01*
X834102Y202400D02*
X818862Y187160D01*
X834102Y244310D02*
Y202400D01*
X830292Y265900D02*
X827752Y263360D01*
X789652D01*
X579493Y309040D02*
X563872D01*
X608076Y280457D02*
X579493Y309040D01*
X653762Y187160D02*
X629632D01*
X669002Y202400D02*
X653762Y187160D01*
X669002Y244310D02*
Y202400D01*
X665192Y265900D02*
X662652Y263360D01*
X624552D01*
X414393Y309040D02*
X398772D01*
X442976Y280457D02*
X414393Y309040D01*
X488662Y187160D02*
X464532D01*
X503902Y202400D02*
X488662Y187160D01*
X503902Y244310D02*
Y202400D01*
X500092Y265900D02*
X497552Y263360D01*
X459452D01*
X249293Y309040D02*
X233672D01*
X277876Y280457D02*
X249293Y309040D01*
X323562Y187160D02*
X299432D01*
X338802Y202400D02*
X323562Y187160D01*
X338802Y244310D02*
Y202400D01*
X334992Y265900D02*
X332452Y263360D01*
X294352D01*
X84193Y309040D02*
X68572D01*
X112776Y280457D02*
X84193Y309040D01*
X158462Y187160D02*
X134332D01*
X173702Y202400D02*
X158462Y187160D01*
X173702Y244310D02*
Y202400D01*
X169892Y265900D02*
X167352Y263360D01*
X129252D01*
D15*
X97502Y528790D02*
X177512D01*
X109232Y540520D02*
X156892D01*
X157192Y540220D01*
X149572Y500850D02*
X161382Y489040D01*
X188972D01*
X262602Y528790D02*
X342612D01*
X274332Y540520D02*
X321992D01*
X322292Y540220D01*
X314672Y500850D02*
X326482Y489040D01*
X354072D01*
X427702Y528790D02*
X507712D01*
X439432Y540520D02*
X487092D01*
X487392Y540220D01*
X479772Y500850D02*
X491582Y489040D01*
X519172D01*
X592802Y528790D02*
X672812D01*
X604532Y540520D02*
X652192D01*
X652492Y540220D01*
X644872Y500850D02*
X656682Y489040D01*
X684272D01*
X757902Y528790D02*
X837912D01*
X769632Y540520D02*
X817292D01*
X817592Y540220D01*
X809972Y500850D02*
X821782Y489040D01*
X849372D01*
X823942Y211290D02*
X743932D01*
X812212Y199560D02*
X764552D01*
X764252Y199860D01*
X771872Y239230D02*
X760062Y251040D01*
X732472D01*
X658842Y211290D02*
X578832D01*
X647112Y199560D02*
X599452D01*
X599152Y199860D01*
X606772Y239230D02*
X594962Y251040D01*
X567372D01*
X493742Y211290D02*
X413732D01*
X482012Y199560D02*
X434352D01*
X434052Y199860D01*
X441672Y239230D02*
X429862Y251040D01*
X402272D01*
X328642Y211290D02*
X248632D01*
X316912Y199560D02*
X269252D01*
X268952Y199860D01*
X276572Y239230D02*
X264762Y251040D01*
X237172D01*
X163542Y211290D02*
X83532D01*
X151812Y199560D02*
X104152D01*
X103852Y199860D01*
X111472Y239230D02*
X99662Y251040D01*
X72072D01*
D17*
X137472Y501540D02*
D03*
X70832Y503390D02*
D03*
X82262Y483070D02*
D03*
X128268Y452964D02*
D03*
X136872Y461480D02*
D03*
X148302Y471728D02*
D03*
X150842Y569430D02*
D03*
X92242Y411270D02*
D03*
X99862D02*
D03*
X85821Y585940D02*
D03*
Y578320D02*
D03*
X70832Y511010D02*
D03*
X183862Y460210D02*
D03*
Y467830D02*
D03*
X153022Y626110D02*
D03*
Y632460D02*
D03*
Y638810D02*
D03*
X103472Y502540D02*
D03*
X302572Y501540D02*
D03*
X235932Y503390D02*
D03*
X247362Y483070D02*
D03*
X293368Y452964D02*
D03*
X301972Y461480D02*
D03*
X313402Y471728D02*
D03*
X315942Y569430D02*
D03*
X257342Y411270D02*
D03*
X264962D02*
D03*
X250921Y585940D02*
D03*
Y578320D02*
D03*
X235932Y511010D02*
D03*
X348962Y460210D02*
D03*
Y467830D02*
D03*
X318122Y626110D02*
D03*
Y632460D02*
D03*
Y638810D02*
D03*
X268572Y502540D02*
D03*
X467672Y501540D02*
D03*
X401032Y503390D02*
D03*
X412462Y483070D02*
D03*
X458468Y452964D02*
D03*
X467072Y461480D02*
D03*
X478502Y471728D02*
D03*
X481042Y569430D02*
D03*
X422442Y411270D02*
D03*
X430062D02*
D03*
X416021Y585940D02*
D03*
Y578320D02*
D03*
X401032Y511010D02*
D03*
X514062Y460210D02*
D03*
Y467830D02*
D03*
X483222Y626110D02*
D03*
Y632460D02*
D03*
Y638810D02*
D03*
X433672Y502540D02*
D03*
X632772Y501540D02*
D03*
X566132Y503390D02*
D03*
X577562Y483070D02*
D03*
X623568Y452964D02*
D03*
X632172Y461480D02*
D03*
X643602Y471728D02*
D03*
X646142Y569430D02*
D03*
X587542Y411270D02*
D03*
X595162D02*
D03*
X581121Y585940D02*
D03*
Y578320D02*
D03*
X566132Y511010D02*
D03*
X679162Y460210D02*
D03*
Y467830D02*
D03*
X648322Y626110D02*
D03*
Y632460D02*
D03*
Y638810D02*
D03*
X598772Y502540D02*
D03*
X797872Y501540D02*
D03*
X731232Y503390D02*
D03*
X742662Y483070D02*
D03*
X788668Y452964D02*
D03*
X797272Y461480D02*
D03*
X808702Y471728D02*
D03*
X811242Y569430D02*
D03*
X752642Y411270D02*
D03*
X760262D02*
D03*
X746221Y585940D02*
D03*
Y578320D02*
D03*
X731232Y511010D02*
D03*
X844262Y460210D02*
D03*
Y467830D02*
D03*
X813422Y626110D02*
D03*
Y632460D02*
D03*
Y638810D02*
D03*
X763872Y502540D02*
D03*
X783972Y238540D02*
D03*
X850612Y236690D02*
D03*
X839182Y257010D02*
D03*
X793176Y287116D02*
D03*
X784572Y278600D02*
D03*
X773142Y268352D02*
D03*
X770602Y170650D02*
D03*
X829202Y328810D02*
D03*
X821582D02*
D03*
X835624Y154140D02*
D03*
Y161760D02*
D03*
X850612Y229070D02*
D03*
X737582Y279870D02*
D03*
Y272250D02*
D03*
X768422Y113970D02*
D03*
Y107620D02*
D03*
Y101270D02*
D03*
X817972Y237540D02*
D03*
X618872Y238540D02*
D03*
X685512Y236690D02*
D03*
X674082Y257010D02*
D03*
X628076Y287116D02*
D03*
X619472Y278600D02*
D03*
X608042Y268352D02*
D03*
X605502Y170650D02*
D03*
X664102Y328810D02*
D03*
X656482D02*
D03*
X670524Y154140D02*
D03*
Y161760D02*
D03*
X685512Y229070D02*
D03*
X572482Y279870D02*
D03*
Y272250D02*
D03*
X603322Y113970D02*
D03*
Y107620D02*
D03*
Y101270D02*
D03*
X652872Y237540D02*
D03*
X453772Y238540D02*
D03*
X520412Y236690D02*
D03*
X508982Y257010D02*
D03*
X462976Y287116D02*
D03*
X454372Y278600D02*
D03*
X442942Y268352D02*
D03*
X440402Y170650D02*
D03*
X499002Y328810D02*
D03*
X491382D02*
D03*
X505424Y154140D02*
D03*
Y161760D02*
D03*
X520412Y229070D02*
D03*
X407382Y279870D02*
D03*
Y272250D02*
D03*
X438222Y113970D02*
D03*
Y107620D02*
D03*
Y101270D02*
D03*
X487772Y237540D02*
D03*
X288672Y238540D02*
D03*
X355312Y236690D02*
D03*
X343882Y257010D02*
D03*
X297876Y287116D02*
D03*
X289272Y278600D02*
D03*
X277842Y268352D02*
D03*
X275302Y170650D02*
D03*
X333902Y328810D02*
D03*
X326282D02*
D03*
X340324Y154140D02*
D03*
Y161760D02*
D03*
X355312Y229070D02*
D03*
X242282Y279870D02*
D03*
Y272250D02*
D03*
X273122Y113970D02*
D03*
Y107620D02*
D03*
Y101270D02*
D03*
X322672Y237540D02*
D03*
X123572Y238540D02*
D03*
X190212Y236690D02*
D03*
X178782Y257010D02*
D03*
X132776Y287116D02*
D03*
X124172Y278600D02*
D03*
X112742Y268352D02*
D03*
X110202Y170650D02*
D03*
X168802Y328810D02*
D03*
X161182D02*
D03*
X175224Y154140D02*
D03*
Y161760D02*
D03*
X190212Y229070D02*
D03*
X77182Y279870D02*
D03*
Y272250D02*
D03*
X108022Y113970D02*
D03*
Y107620D02*
D03*
Y101270D02*
D03*
X157572Y237540D02*
D03*
D18*
X130522Y388040D02*
D03*
X295622D02*
D03*
X460722D02*
D03*
X625822D02*
D03*
X790922D02*
D03*
Y352040D02*
D03*
X625822D02*
D03*
X460722D02*
D03*
X295622D02*
D03*
X130522D02*
D03*
D19*
X137472Y501540D02*
D03*
X192472Y431040D02*
D03*
X148268Y459623D02*
D03*
X70832Y503390D02*
D03*
X82262Y483070D02*
D03*
X150842Y569430D02*
D03*
X177512Y528790D02*
D03*
X92242Y411270D02*
D03*
X99862D02*
D03*
X87342Y495770D02*
D03*
X91152Y474180D02*
D03*
X85821Y585940D02*
D03*
Y578320D02*
D03*
X70832Y511010D02*
D03*
X183862Y460210D02*
D03*
Y467830D02*
D03*
X153022Y626110D02*
D03*
Y632460D02*
D03*
Y638810D02*
D03*
X136872Y461480D02*
D03*
X128268Y452964D02*
D03*
X126712Y552920D02*
D03*
X149572Y500850D02*
D03*
X97502Y528790D02*
D03*
X157192Y540220D02*
D03*
X109232Y540520D02*
D03*
X188972Y489040D02*
D03*
X103472Y502540D02*
D03*
X302572Y501540D02*
D03*
X357572Y431040D02*
D03*
X313368Y459623D02*
D03*
X235932Y503390D02*
D03*
X247362Y483070D02*
D03*
X315942Y569430D02*
D03*
X342612Y528790D02*
D03*
X257342Y411270D02*
D03*
X264962D02*
D03*
X252442Y495770D02*
D03*
X256252Y474180D02*
D03*
X250921Y585940D02*
D03*
Y578320D02*
D03*
X235932Y511010D02*
D03*
X348962Y460210D02*
D03*
Y467830D02*
D03*
X318122Y626110D02*
D03*
Y632460D02*
D03*
Y638810D02*
D03*
X301972Y461480D02*
D03*
X293368Y452964D02*
D03*
X291812Y552920D02*
D03*
X314672Y500850D02*
D03*
X262602Y528790D02*
D03*
X322292Y540220D02*
D03*
X274332Y540520D02*
D03*
X354072Y489040D02*
D03*
X268572Y502540D02*
D03*
X467672Y501540D02*
D03*
X522672Y431040D02*
D03*
X478468Y459623D02*
D03*
X401032Y503390D02*
D03*
X412462Y483070D02*
D03*
X481042Y569430D02*
D03*
X507712Y528790D02*
D03*
X422442Y411270D02*
D03*
X430062D02*
D03*
X417542Y495770D02*
D03*
X421352Y474180D02*
D03*
X416021Y585940D02*
D03*
Y578320D02*
D03*
X401032Y511010D02*
D03*
X514062Y460210D02*
D03*
Y467830D02*
D03*
X483222Y626110D02*
D03*
Y632460D02*
D03*
Y638810D02*
D03*
X467072Y461480D02*
D03*
X458468Y452964D02*
D03*
X456912Y552920D02*
D03*
X479772Y500850D02*
D03*
X427702Y528790D02*
D03*
X487392Y540220D02*
D03*
X439432Y540520D02*
D03*
X519172Y489040D02*
D03*
X433672Y502540D02*
D03*
X632772Y501540D02*
D03*
X687772Y431040D02*
D03*
X643568Y459623D02*
D03*
X566132Y503390D02*
D03*
X577562Y483070D02*
D03*
X646142Y569430D02*
D03*
X672812Y528790D02*
D03*
X587542Y411270D02*
D03*
X595162D02*
D03*
X582642Y495770D02*
D03*
X586452Y474180D02*
D03*
X581121Y585940D02*
D03*
Y578320D02*
D03*
X566132Y511010D02*
D03*
X679162Y460210D02*
D03*
Y467830D02*
D03*
X648322Y626110D02*
D03*
Y632460D02*
D03*
Y638810D02*
D03*
X632172Y461480D02*
D03*
X623568Y452964D02*
D03*
X622012Y552920D02*
D03*
X644872Y500850D02*
D03*
X592802Y528790D02*
D03*
X652492Y540220D02*
D03*
X604532Y540520D02*
D03*
X684272Y489040D02*
D03*
X598772Y502540D02*
D03*
X797872Y501540D02*
D03*
X852872Y431040D02*
D03*
X808668Y459623D02*
D03*
X731232Y503390D02*
D03*
X742662Y483070D02*
D03*
X811242Y569430D02*
D03*
X837912Y528790D02*
D03*
X752642Y411270D02*
D03*
X760262D02*
D03*
X747742Y495770D02*
D03*
X751552Y474180D02*
D03*
X746221Y585940D02*
D03*
Y578320D02*
D03*
X731232Y511010D02*
D03*
X844262Y460210D02*
D03*
Y467830D02*
D03*
X813422Y626110D02*
D03*
Y632460D02*
D03*
Y638810D02*
D03*
X797272Y461480D02*
D03*
X788668Y452964D02*
D03*
X787112Y552920D02*
D03*
X809972Y500850D02*
D03*
X757902Y528790D02*
D03*
X817592Y540220D02*
D03*
X769632Y540520D02*
D03*
X849372Y489040D02*
D03*
X763872Y502540D02*
D03*
X783972Y238540D02*
D03*
X728972Y309040D02*
D03*
X773176Y280457D02*
D03*
X850612Y236690D02*
D03*
X839182Y257010D02*
D03*
X770602Y170650D02*
D03*
X743932Y211290D02*
D03*
X829202Y328810D02*
D03*
X821582D02*
D03*
X834102Y244310D02*
D03*
X830292Y265900D02*
D03*
X835624Y154140D02*
D03*
Y161760D02*
D03*
X850612Y229070D02*
D03*
X737582Y279870D02*
D03*
Y272250D02*
D03*
X768422Y113970D02*
D03*
Y107620D02*
D03*
Y101270D02*
D03*
X784572Y278600D02*
D03*
X793176Y287116D02*
D03*
X794732Y187160D02*
D03*
X771872Y239230D02*
D03*
X823942Y211290D02*
D03*
X764252Y199860D02*
D03*
X812212Y199560D02*
D03*
X732472Y251040D02*
D03*
X817972Y237540D02*
D03*
X618872Y238540D02*
D03*
X563872Y309040D02*
D03*
X608076Y280457D02*
D03*
X685512Y236690D02*
D03*
X674082Y257010D02*
D03*
X605502Y170650D02*
D03*
X578832Y211290D02*
D03*
X664102Y328810D02*
D03*
X656482D02*
D03*
X669002Y244310D02*
D03*
X665192Y265900D02*
D03*
X670524Y154140D02*
D03*
Y161760D02*
D03*
X685512Y229070D02*
D03*
X572482Y279870D02*
D03*
Y272250D02*
D03*
X603322Y113970D02*
D03*
Y107620D02*
D03*
Y101270D02*
D03*
X619472Y278600D02*
D03*
X628076Y287116D02*
D03*
X629632Y187160D02*
D03*
X606772Y239230D02*
D03*
X658842Y211290D02*
D03*
X599152Y199860D02*
D03*
X647112Y199560D02*
D03*
X567372Y251040D02*
D03*
X652872Y237540D02*
D03*
X453772Y238540D02*
D03*
X398772Y309040D02*
D03*
X442976Y280457D02*
D03*
X520412Y236690D02*
D03*
X508982Y257010D02*
D03*
X440402Y170650D02*
D03*
X413732Y211290D02*
D03*
X499002Y328810D02*
D03*
X491382D02*
D03*
X503902Y244310D02*
D03*
X500092Y265900D02*
D03*
X505424Y154140D02*
D03*
Y161760D02*
D03*
X520412Y229070D02*
D03*
X407382Y279870D02*
D03*
Y272250D02*
D03*
X438222Y113970D02*
D03*
Y107620D02*
D03*
Y101270D02*
D03*
X454372Y278600D02*
D03*
X462976Y287116D02*
D03*
X464532Y187160D02*
D03*
X441672Y239230D02*
D03*
X493742Y211290D02*
D03*
X434052Y199860D02*
D03*
X482012Y199560D02*
D03*
X402272Y251040D02*
D03*
X487772Y237540D02*
D03*
X288672Y238540D02*
D03*
X233672Y309040D02*
D03*
X277876Y280457D02*
D03*
X355312Y236690D02*
D03*
X343882Y257010D02*
D03*
X275302Y170650D02*
D03*
X248632Y211290D02*
D03*
X333902Y328810D02*
D03*
X326282D02*
D03*
X338802Y244310D02*
D03*
X334992Y265900D02*
D03*
X340324Y154140D02*
D03*
Y161760D02*
D03*
X355312Y229070D02*
D03*
X242282Y279870D02*
D03*
Y272250D02*
D03*
X273122Y113970D02*
D03*
Y107620D02*
D03*
Y101270D02*
D03*
X289272Y278600D02*
D03*
X297876Y287116D02*
D03*
X299432Y187160D02*
D03*
X276572Y239230D02*
D03*
X328642Y211290D02*
D03*
X268952Y199860D02*
D03*
X316912Y199560D02*
D03*
X237172Y251040D02*
D03*
X322672Y237540D02*
D03*
X123572Y238540D02*
D03*
X68572Y309040D02*
D03*
X112776Y280457D02*
D03*
X190212Y236690D02*
D03*
X178782Y257010D02*
D03*
X110202Y170650D02*
D03*
X83532Y211290D02*
D03*
X168802Y328810D02*
D03*
X161182D02*
D03*
X173702Y244310D02*
D03*
X169892Y265900D02*
D03*
X175224Y154140D02*
D03*
Y161760D02*
D03*
X190212Y229070D02*
D03*
X77182Y279870D02*
D03*
Y272250D02*
D03*
X108022Y113970D02*
D03*
Y107620D02*
D03*
Y101270D02*
D03*
X124172Y278600D02*
D03*
X132776Y287116D02*
D03*
X134332Y187160D02*
D03*
X111472Y239230D02*
D03*
X163542Y211290D02*
D03*
X103852Y199860D02*
D03*
X151812Y199560D02*
D03*
X72072Y251040D02*
D03*
X157572Y237540D02*
D03*
D20*
X131792Y476720D02*
D03*
X93692Y466560D02*
D03*
X148302Y471728D02*
D03*
X296892Y476720D02*
D03*
X258792Y466560D02*
D03*
X313402Y471728D02*
D03*
X461992Y476720D02*
D03*
X423892Y466560D02*
D03*
X478502Y471728D02*
D03*
X627092Y476720D02*
D03*
X588992Y466560D02*
D03*
X643602Y471728D02*
D03*
X792192Y476720D02*
D03*
X754092Y466560D02*
D03*
X808702Y471728D02*
D03*
X789652Y263360D02*
D03*
X827752Y273520D02*
D03*
X773142Y268352D02*
D03*
X624552Y263360D02*
D03*
X662652Y273520D02*
D03*
X608042Y268352D02*
D03*
X459452Y263360D02*
D03*
X497552Y273520D02*
D03*
X442942Y268352D02*
D03*
X294352Y263360D02*
D03*
X332452Y273520D02*
D03*
X277842Y268352D02*
D03*
X129252Y263360D02*
D03*
X167352Y273520D02*
D03*
X112742Y268352D02*
D03*
D21*
X125442Y467830D02*
D03*
X290542D02*
D03*
X455642D02*
D03*
X620742D02*
D03*
X785842D02*
D03*
X796002Y272250D02*
D03*
X630902D02*
D03*
X465802D02*
D03*
X300702D02*
D03*
X135602D02*
D03*
D22*
X125442Y468206D02*
D03*
X290542D02*
D03*
X455642D02*
D03*
X620742D02*
D03*
X785842D02*
D03*
X796002Y271874D02*
D03*
X630902D02*
D03*
X465802D02*
D03*
X300702D02*
D03*
X135602D02*
D03*
M02*
