G04 Layer_Color=32896*
%FSLAX44Y44*%
%MOMM*%
G71*
G01*
G75*
%ADD23C,0.2000*%
D23*
X121461Y620882D02*
Y623881D01*
X119962Y625380D01*
X116963D01*
X115463Y623881D01*
Y620882D01*
X116963Y619382D01*
X118462D01*
Y625380D01*
X121461Y616383D02*
X112464D01*
X115463Y613384D01*
X112464Y610385D01*
X121461D01*
Y607386D02*
X112464D01*
X115463Y604387D01*
X112464Y601388D01*
X121461D01*
X113964Y592391D02*
X112464Y593890D01*
Y596889D01*
X113964Y598389D01*
X119962D01*
X121461Y596889D01*
Y593890D01*
X119962Y592391D01*
X113964Y578895D02*
X115463D01*
Y580395D01*
Y577396D01*
Y578895D01*
X119962D01*
X121461Y577396D01*
Y571398D02*
Y568399D01*
X119962Y566899D01*
X116963D01*
X115463Y568399D01*
Y571398D01*
X116963Y572897D01*
X119962D01*
X121461Y571398D01*
Y554903D02*
X112464D01*
X115463Y551904D01*
X112464Y548905D01*
X121461D01*
Y545906D02*
Y542907D01*
Y544406D01*
X115463D01*
Y545906D01*
Y532410D02*
Y536909D01*
X116963Y538408D01*
X119962D01*
X121461Y536909D01*
Y532410D01*
X115463Y529411D02*
X121461D01*
X118462D01*
X116963Y527912D01*
X115463Y526412D01*
Y524913D01*
X121461Y518914D02*
Y515915D01*
X119962Y514416D01*
X116963D01*
X115463Y515915D01*
Y518914D01*
X116963Y520414D01*
X119962D01*
X121461Y518914D01*
X113964Y505419D02*
X112464Y506918D01*
Y509917D01*
X113964Y511417D01*
X115463D01*
X116963Y509917D01*
Y506918D01*
X118462Y505419D01*
X119962D01*
X121461Y506918D01*
Y509917D01*
X119962Y511417D01*
X112464Y502420D02*
X121461D01*
Y497921D01*
X119962Y496422D01*
X113964D01*
X112464Y497921D01*
Y502420D01*
X121461Y484426D02*
X115463D01*
X112464Y481427D01*
X115463Y478428D01*
X121461D01*
X116963D01*
Y484426D01*
X112464Y469431D02*
X121461D01*
Y473929D01*
X119962Y475429D01*
X116963D01*
X115463Y473929D01*
Y469431D01*
Y464932D02*
Y461933D01*
X116963Y460433D01*
X121461D01*
Y464932D01*
X119962Y466432D01*
X118462Y464932D01*
Y460433D01*
X124460Y457434D02*
X115463D01*
Y452936D01*
X116963Y451436D01*
X119962D01*
X121461Y452936D01*
Y457434D01*
X113964Y446938D02*
X115463D01*
Y448437D01*
Y445438D01*
Y446938D01*
X119962D01*
X121461Y445438D01*
Y436441D02*
Y439440D01*
X119962Y440940D01*
X116963D01*
X115463Y439440D01*
Y436441D01*
X116963Y434942D01*
X118462D01*
Y440940D01*
X115463Y431943D02*
X121461D01*
X118462D01*
X116963Y430443D01*
X115463Y428944D01*
Y427444D01*
X131060Y625380D02*
X132559D01*
X135558Y622381D01*
X132559Y619382D01*
X131060D01*
X135558Y622381D02*
X140057D01*
X134059Y616383D02*
X138557D01*
X140057Y614883D01*
Y610385D01*
X134059D01*
X135558Y607386D02*
Y601388D01*
X140057Y598389D02*
X134059D01*
X131060Y595390D01*
X134059Y592391D01*
X140057D01*
X135558D01*
Y598389D01*
X140057Y589392D02*
X134059D01*
Y584893D01*
X135558Y583394D01*
X140057D01*
X132559Y565400D02*
X131060Y566899D01*
Y569898D01*
X132559Y571398D01*
X138557D01*
X140057Y569898D01*
Y566899D01*
X138557Y565400D01*
X131060Y562400D02*
X140057D01*
X135558D01*
X134059Y560901D01*
Y557902D01*
X135558Y556402D01*
X140057D01*
Y548905D02*
Y551904D01*
X138557Y553403D01*
X135558D01*
X134059Y551904D01*
Y548905D01*
X135558Y547405D01*
X137058D01*
Y553403D01*
X140057Y544406D02*
X134059D01*
Y539908D01*
X135558Y538408D01*
X140057D01*
X155653Y619382D02*
Y625380D01*
X149655Y619382D01*
X148156D01*
X146656Y620882D01*
Y623881D01*
X148156Y625380D01*
Y616383D02*
X146656Y614883D01*
Y611884D01*
X148156Y610385D01*
X154154D01*
X155653Y611884D01*
Y614883D01*
X154154Y616383D01*
X148156D01*
X155653Y601388D02*
Y607386D01*
X149655Y601388D01*
X148156D01*
X146656Y602887D01*
Y605886D01*
X148156Y607386D01*
Y598389D02*
X146656Y596889D01*
Y593890D01*
X148156Y592391D01*
X149655D01*
X151155Y593890D01*
Y595390D01*
Y593890D01*
X152654Y592391D01*
X154154D01*
X155653Y593890D01*
Y596889D01*
X154154Y598389D01*
X155653Y589392D02*
X149655Y583394D01*
X148156Y580395D02*
X146656Y578895D01*
Y575896D01*
X148156Y574397D01*
X154154D01*
X155653Y575896D01*
Y578895D01*
X154154Y580395D01*
X148156D01*
Y571398D02*
X146656Y569898D01*
Y566899D01*
X148156Y565400D01*
X149655D01*
X151155Y566899D01*
Y568399D01*
Y566899D01*
X152654Y565400D01*
X154154D01*
X155653Y566899D01*
Y569898D01*
X154154Y571398D01*
X155653Y562400D02*
X149655Y556402D01*
X155653Y553403D02*
Y550404D01*
Y551904D01*
X146656D01*
X148156Y553403D01*
X155653Y545906D02*
Y542907D01*
Y544406D01*
X146656D01*
X148156Y545906D01*
X286561Y620882D02*
Y623881D01*
X285062Y625380D01*
X282063D01*
X280563Y623881D01*
Y620882D01*
X282063Y619382D01*
X283562D01*
Y625380D01*
X286561Y616383D02*
X277564D01*
X280563Y613384D01*
X277564Y610385D01*
X286561D01*
Y607386D02*
X277564D01*
X280563Y604387D01*
X277564Y601388D01*
X286561D01*
X279064Y592391D02*
X277564Y593890D01*
Y596889D01*
X279064Y598389D01*
X285062D01*
X286561Y596889D01*
Y593890D01*
X285062Y592391D01*
X279064Y578895D02*
X280563D01*
Y580395D01*
Y577396D01*
Y578895D01*
X285062D01*
X286561Y577396D01*
Y571398D02*
Y568399D01*
X285062Y566899D01*
X282063D01*
X280563Y568399D01*
Y571398D01*
X282063Y572897D01*
X285062D01*
X286561Y571398D01*
Y554903D02*
X277564D01*
X280563Y551904D01*
X277564Y548905D01*
X286561D01*
Y545906D02*
Y542907D01*
Y544406D01*
X280563D01*
Y545906D01*
Y532410D02*
Y536909D01*
X282063Y538408D01*
X285062D01*
X286561Y536909D01*
Y532410D01*
X280563Y529411D02*
X286561D01*
X283562D01*
X282063Y527912D01*
X280563Y526412D01*
Y524913D01*
X286561Y518914D02*
Y515915D01*
X285062Y514416D01*
X282063D01*
X280563Y515915D01*
Y518914D01*
X282063Y520414D01*
X285062D01*
X286561Y518914D01*
X279064Y505419D02*
X277564Y506918D01*
Y509917D01*
X279064Y511417D01*
X280563D01*
X282063Y509917D01*
Y506918D01*
X283562Y505419D01*
X285062D01*
X286561Y506918D01*
Y509917D01*
X285062Y511417D01*
X277564Y502420D02*
X286561D01*
Y497921D01*
X285062Y496422D01*
X279064D01*
X277564Y497921D01*
Y502420D01*
X286561Y484426D02*
X280563D01*
X277564Y481427D01*
X280563Y478428D01*
X286561D01*
X282063D01*
Y484426D01*
X277564Y469431D02*
X286561D01*
Y473929D01*
X285062Y475429D01*
X282063D01*
X280563Y473929D01*
Y469431D01*
Y464932D02*
Y461933D01*
X282063Y460433D01*
X286561D01*
Y464932D01*
X285062Y466432D01*
X283562Y464932D01*
Y460433D01*
X289560Y457434D02*
X280563D01*
Y452936D01*
X282063Y451436D01*
X285062D01*
X286561Y452936D01*
Y457434D01*
X279064Y446938D02*
X280563D01*
Y448437D01*
Y445438D01*
Y446938D01*
X285062D01*
X286561Y445438D01*
Y436441D02*
Y439440D01*
X285062Y440940D01*
X282063D01*
X280563Y439440D01*
Y436441D01*
X282063Y434942D01*
X283562D01*
Y440940D01*
X280563Y431943D02*
X286561D01*
X283562D01*
X282063Y430443D01*
X280563Y428944D01*
Y427444D01*
X296160Y625380D02*
X297659D01*
X300658Y622381D01*
X297659Y619382D01*
X296160D01*
X300658Y622381D02*
X305157D01*
X299159Y616383D02*
X303657D01*
X305157Y614883D01*
Y610385D01*
X299159D01*
X300658Y607386D02*
Y601388D01*
X305157Y598389D02*
X299159D01*
X296160Y595390D01*
X299159Y592391D01*
X305157D01*
X300658D01*
Y598389D01*
X305157Y589392D02*
X299159D01*
Y584893D01*
X300658Y583394D01*
X305157D01*
X297659Y565400D02*
X296160Y566899D01*
Y569898D01*
X297659Y571398D01*
X303657D01*
X305157Y569898D01*
Y566899D01*
X303657Y565400D01*
X296160Y562400D02*
X305157D01*
X300658D01*
X299159Y560901D01*
Y557902D01*
X300658Y556402D01*
X305157D01*
Y548905D02*
Y551904D01*
X303657Y553403D01*
X300658D01*
X299159Y551904D01*
Y548905D01*
X300658Y547405D01*
X302158D01*
Y553403D01*
X305157Y544406D02*
X299159D01*
Y539908D01*
X300658Y538408D01*
X305157D01*
X320753Y619382D02*
Y625380D01*
X314755Y619382D01*
X313256D01*
X311756Y620882D01*
Y623881D01*
X313256Y625380D01*
Y616383D02*
X311756Y614883D01*
Y611884D01*
X313256Y610385D01*
X319254D01*
X320753Y611884D01*
Y614883D01*
X319254Y616383D01*
X313256D01*
X320753Y601388D02*
Y607386D01*
X314755Y601388D01*
X313256D01*
X311756Y602887D01*
Y605886D01*
X313256Y607386D01*
Y598389D02*
X311756Y596889D01*
Y593890D01*
X313256Y592391D01*
X314755D01*
X316255Y593890D01*
Y595390D01*
Y593890D01*
X317754Y592391D01*
X319254D01*
X320753Y593890D01*
Y596889D01*
X319254Y598389D01*
X320753Y589392D02*
X314755Y583394D01*
X313256Y580395D02*
X311756Y578895D01*
Y575896D01*
X313256Y574397D01*
X319254D01*
X320753Y575896D01*
Y578895D01*
X319254Y580395D01*
X313256D01*
Y571398D02*
X311756Y569898D01*
Y566899D01*
X313256Y565400D01*
X314755D01*
X316255Y566899D01*
Y568399D01*
Y566899D01*
X317754Y565400D01*
X319254D01*
X320753Y566899D01*
Y569898D01*
X319254Y571398D01*
X320753Y562400D02*
X314755Y556402D01*
X320753Y553403D02*
Y550404D01*
Y551904D01*
X311756D01*
X313256Y553403D01*
X320753Y545906D02*
Y542907D01*
Y544406D01*
X311756D01*
X313256Y545906D01*
X451661Y620882D02*
Y623881D01*
X450162Y625380D01*
X447163D01*
X445663Y623881D01*
Y620882D01*
X447163Y619382D01*
X448662D01*
Y625380D01*
X451661Y616383D02*
X442664D01*
X445663Y613384D01*
X442664Y610385D01*
X451661D01*
Y607386D02*
X442664D01*
X445663Y604387D01*
X442664Y601388D01*
X451661D01*
X444164Y592391D02*
X442664Y593890D01*
Y596889D01*
X444164Y598389D01*
X450162D01*
X451661Y596889D01*
Y593890D01*
X450162Y592391D01*
X444164Y578895D02*
X445663D01*
Y580395D01*
Y577396D01*
Y578895D01*
X450162D01*
X451661Y577396D01*
Y571398D02*
Y568399D01*
X450162Y566899D01*
X447163D01*
X445663Y568399D01*
Y571398D01*
X447163Y572897D01*
X450162D01*
X451661Y571398D01*
Y554903D02*
X442664D01*
X445663Y551904D01*
X442664Y548905D01*
X451661D01*
Y545906D02*
Y542907D01*
Y544406D01*
X445663D01*
Y545906D01*
Y532410D02*
Y536909D01*
X447163Y538408D01*
X450162D01*
X451661Y536909D01*
Y532410D01*
X445663Y529411D02*
X451661D01*
X448662D01*
X447163Y527912D01*
X445663Y526412D01*
Y524913D01*
X451661Y518914D02*
Y515915D01*
X450162Y514416D01*
X447163D01*
X445663Y515915D01*
Y518914D01*
X447163Y520414D01*
X450162D01*
X451661Y518914D01*
X444164Y505419D02*
X442664Y506918D01*
Y509917D01*
X444164Y511417D01*
X445663D01*
X447163Y509917D01*
Y506918D01*
X448662Y505419D01*
X450162D01*
X451661Y506918D01*
Y509917D01*
X450162Y511417D01*
X442664Y502420D02*
X451661D01*
Y497921D01*
X450162Y496422D01*
X444164D01*
X442664Y497921D01*
Y502420D01*
X451661Y484426D02*
X445663D01*
X442664Y481427D01*
X445663Y478428D01*
X451661D01*
X447163D01*
Y484426D01*
X442664Y469431D02*
X451661D01*
Y473929D01*
X450162Y475429D01*
X447163D01*
X445663Y473929D01*
Y469431D01*
Y464932D02*
Y461933D01*
X447163Y460433D01*
X451661D01*
Y464932D01*
X450162Y466432D01*
X448662Y464932D01*
Y460433D01*
X454660Y457434D02*
X445663D01*
Y452936D01*
X447163Y451436D01*
X450162D01*
X451661Y452936D01*
Y457434D01*
X444164Y446938D02*
X445663D01*
Y448437D01*
Y445438D01*
Y446938D01*
X450162D01*
X451661Y445438D01*
Y436441D02*
Y439440D01*
X450162Y440940D01*
X447163D01*
X445663Y439440D01*
Y436441D01*
X447163Y434942D01*
X448662D01*
Y440940D01*
X445663Y431943D02*
X451661D01*
X448662D01*
X447163Y430443D01*
X445663Y428944D01*
Y427444D01*
X461260Y625380D02*
X462759D01*
X465758Y622381D01*
X462759Y619382D01*
X461260D01*
X465758Y622381D02*
X470257D01*
X464259Y616383D02*
X468757D01*
X470257Y614883D01*
Y610385D01*
X464259D01*
X465758Y607386D02*
Y601388D01*
X470257Y598389D02*
X464259D01*
X461260Y595390D01*
X464259Y592391D01*
X470257D01*
X465758D01*
Y598389D01*
X470257Y589392D02*
X464259D01*
Y584893D01*
X465758Y583394D01*
X470257D01*
X462759Y565400D02*
X461260Y566899D01*
Y569898D01*
X462759Y571398D01*
X468757D01*
X470257Y569898D01*
Y566899D01*
X468757Y565400D01*
X461260Y562400D02*
X470257D01*
X465758D01*
X464259Y560901D01*
Y557902D01*
X465758Y556402D01*
X470257D01*
Y548905D02*
Y551904D01*
X468757Y553403D01*
X465758D01*
X464259Y551904D01*
Y548905D01*
X465758Y547405D01*
X467258D01*
Y553403D01*
X470257Y544406D02*
X464259D01*
Y539908D01*
X465758Y538408D01*
X470257D01*
X485853Y619382D02*
Y625380D01*
X479855Y619382D01*
X478356D01*
X476856Y620882D01*
Y623881D01*
X478356Y625380D01*
Y616383D02*
X476856Y614883D01*
Y611884D01*
X478356Y610385D01*
X484354D01*
X485853Y611884D01*
Y614883D01*
X484354Y616383D01*
X478356D01*
X485853Y601388D02*
Y607386D01*
X479855Y601388D01*
X478356D01*
X476856Y602887D01*
Y605886D01*
X478356Y607386D01*
Y598389D02*
X476856Y596889D01*
Y593890D01*
X478356Y592391D01*
X479855D01*
X481355Y593890D01*
Y595390D01*
Y593890D01*
X482854Y592391D01*
X484354D01*
X485853Y593890D01*
Y596889D01*
X484354Y598389D01*
X485853Y589392D02*
X479855Y583394D01*
X478356Y580395D02*
X476856Y578895D01*
Y575896D01*
X478356Y574397D01*
X484354D01*
X485853Y575896D01*
Y578895D01*
X484354Y580395D01*
X478356D01*
Y571398D02*
X476856Y569898D01*
Y566899D01*
X478356Y565400D01*
X479855D01*
X481355Y566899D01*
Y568399D01*
Y566899D01*
X482854Y565400D01*
X484354D01*
X485853Y566899D01*
Y569898D01*
X484354Y571398D01*
X485853Y562400D02*
X479855Y556402D01*
X485853Y553403D02*
Y550404D01*
Y551904D01*
X476856D01*
X478356Y553403D01*
X485853Y545906D02*
Y542907D01*
Y544406D01*
X476856D01*
X478356Y545906D01*
X616761Y620882D02*
Y623881D01*
X615262Y625380D01*
X612263D01*
X610763Y623881D01*
Y620882D01*
X612263Y619382D01*
X613762D01*
Y625380D01*
X616761Y616383D02*
X607764D01*
X610763Y613384D01*
X607764Y610385D01*
X616761D01*
Y607386D02*
X607764D01*
X610763Y604387D01*
X607764Y601388D01*
X616761D01*
X609264Y592391D02*
X607764Y593890D01*
Y596889D01*
X609264Y598389D01*
X615262D01*
X616761Y596889D01*
Y593890D01*
X615262Y592391D01*
X609264Y578895D02*
X610763D01*
Y580395D01*
Y577396D01*
Y578895D01*
X615262D01*
X616761Y577396D01*
Y571398D02*
Y568399D01*
X615262Y566899D01*
X612263D01*
X610763Y568399D01*
Y571398D01*
X612263Y572897D01*
X615262D01*
X616761Y571398D01*
Y554903D02*
X607764D01*
X610763Y551904D01*
X607764Y548905D01*
X616761D01*
Y545906D02*
Y542907D01*
Y544406D01*
X610763D01*
Y545906D01*
Y532410D02*
Y536909D01*
X612263Y538408D01*
X615262D01*
X616761Y536909D01*
Y532410D01*
X610763Y529411D02*
X616761D01*
X613762D01*
X612263Y527912D01*
X610763Y526412D01*
Y524913D01*
X616761Y518914D02*
Y515915D01*
X615262Y514416D01*
X612263D01*
X610763Y515915D01*
Y518914D01*
X612263Y520414D01*
X615262D01*
X616761Y518914D01*
X609264Y505419D02*
X607764Y506918D01*
Y509917D01*
X609264Y511417D01*
X610763D01*
X612263Y509917D01*
Y506918D01*
X613762Y505419D01*
X615262D01*
X616761Y506918D01*
Y509917D01*
X615262Y511417D01*
X607764Y502420D02*
X616761D01*
Y497921D01*
X615262Y496422D01*
X609264D01*
X607764Y497921D01*
Y502420D01*
X616761Y484426D02*
X610763D01*
X607764Y481427D01*
X610763Y478428D01*
X616761D01*
X612263D01*
Y484426D01*
X607764Y469431D02*
X616761D01*
Y473929D01*
X615262Y475429D01*
X612263D01*
X610763Y473929D01*
Y469431D01*
Y464932D02*
Y461933D01*
X612263Y460433D01*
X616761D01*
Y464932D01*
X615262Y466432D01*
X613762Y464932D01*
Y460433D01*
X619760Y457434D02*
X610763D01*
Y452936D01*
X612263Y451436D01*
X615262D01*
X616761Y452936D01*
Y457434D01*
X609264Y446938D02*
X610763D01*
Y448437D01*
Y445438D01*
Y446938D01*
X615262D01*
X616761Y445438D01*
Y436441D02*
Y439440D01*
X615262Y440940D01*
X612263D01*
X610763Y439440D01*
Y436441D01*
X612263Y434942D01*
X613762D01*
Y440940D01*
X610763Y431943D02*
X616761D01*
X613762D01*
X612263Y430443D01*
X610763Y428944D01*
Y427444D01*
X626360Y625380D02*
X627859D01*
X630858Y622381D01*
X627859Y619382D01*
X626360D01*
X630858Y622381D02*
X635357D01*
X629359Y616383D02*
X633857D01*
X635357Y614883D01*
Y610385D01*
X629359D01*
X630858Y607386D02*
Y601388D01*
X635357Y598389D02*
X629359D01*
X626360Y595390D01*
X629359Y592391D01*
X635357D01*
X630858D01*
Y598389D01*
X635357Y589392D02*
X629359D01*
Y584893D01*
X630858Y583394D01*
X635357D01*
X627859Y565400D02*
X626360Y566899D01*
Y569898D01*
X627859Y571398D01*
X633857D01*
X635357Y569898D01*
Y566899D01*
X633857Y565400D01*
X626360Y562400D02*
X635357D01*
X630858D01*
X629359Y560901D01*
Y557902D01*
X630858Y556402D01*
X635357D01*
Y548905D02*
Y551904D01*
X633857Y553403D01*
X630858D01*
X629359Y551904D01*
Y548905D01*
X630858Y547405D01*
X632358D01*
Y553403D01*
X635357Y544406D02*
X629359D01*
Y539908D01*
X630858Y538408D01*
X635357D01*
X650953Y619382D02*
Y625380D01*
X644955Y619382D01*
X643456D01*
X641956Y620882D01*
Y623881D01*
X643456Y625380D01*
Y616383D02*
X641956Y614883D01*
Y611884D01*
X643456Y610385D01*
X649454D01*
X650953Y611884D01*
Y614883D01*
X649454Y616383D01*
X643456D01*
X650953Y601388D02*
Y607386D01*
X644955Y601388D01*
X643456D01*
X641956Y602887D01*
Y605886D01*
X643456Y607386D01*
Y598389D02*
X641956Y596889D01*
Y593890D01*
X643456Y592391D01*
X644955D01*
X646455Y593890D01*
Y595390D01*
Y593890D01*
X647954Y592391D01*
X649454D01*
X650953Y593890D01*
Y596889D01*
X649454Y598389D01*
X650953Y589392D02*
X644955Y583394D01*
X643456Y580395D02*
X641956Y578895D01*
Y575896D01*
X643456Y574397D01*
X649454D01*
X650953Y575896D01*
Y578895D01*
X649454Y580395D01*
X643456D01*
Y571398D02*
X641956Y569898D01*
Y566899D01*
X643456Y565400D01*
X644955D01*
X646455Y566899D01*
Y568399D01*
Y566899D01*
X647954Y565400D01*
X649454D01*
X650953Y566899D01*
Y569898D01*
X649454Y571398D01*
X650953Y562400D02*
X644955Y556402D01*
X650953Y553403D02*
Y550404D01*
Y551904D01*
X641956D01*
X643456Y553403D01*
X650953Y545906D02*
Y542907D01*
Y544406D01*
X641956D01*
X643456Y545906D01*
X781861Y620882D02*
Y623881D01*
X780362Y625380D01*
X777363D01*
X775863Y623881D01*
Y620882D01*
X777363Y619382D01*
X778862D01*
Y625380D01*
X781861Y616383D02*
X772864D01*
X775863Y613384D01*
X772864Y610385D01*
X781861D01*
Y607386D02*
X772864D01*
X775863Y604387D01*
X772864Y601388D01*
X781861D01*
X774364Y592391D02*
X772864Y593890D01*
Y596889D01*
X774364Y598389D01*
X780362D01*
X781861Y596889D01*
Y593890D01*
X780362Y592391D01*
X774364Y578895D02*
X775863D01*
Y580395D01*
Y577396D01*
Y578895D01*
X780362D01*
X781861Y577396D01*
Y571398D02*
Y568399D01*
X780362Y566899D01*
X777363D01*
X775863Y568399D01*
Y571398D01*
X777363Y572897D01*
X780362D01*
X781861Y571398D01*
Y554903D02*
X772864D01*
X775863Y551904D01*
X772864Y548905D01*
X781861D01*
Y545906D02*
Y542907D01*
Y544406D01*
X775863D01*
Y545906D01*
Y532410D02*
Y536909D01*
X777363Y538408D01*
X780362D01*
X781861Y536909D01*
Y532410D01*
X775863Y529411D02*
X781861D01*
X778862D01*
X777363Y527912D01*
X775863Y526412D01*
Y524913D01*
X781861Y518914D02*
Y515915D01*
X780362Y514416D01*
X777363D01*
X775863Y515915D01*
Y518914D01*
X777363Y520414D01*
X780362D01*
X781861Y518914D01*
X774364Y505419D02*
X772864Y506918D01*
Y509917D01*
X774364Y511417D01*
X775863D01*
X777363Y509917D01*
Y506918D01*
X778862Y505419D01*
X780362D01*
X781861Y506918D01*
Y509917D01*
X780362Y511417D01*
X772864Y502420D02*
X781861D01*
Y497921D01*
X780362Y496422D01*
X774364D01*
X772864Y497921D01*
Y502420D01*
X781861Y484426D02*
X775863D01*
X772864Y481427D01*
X775863Y478428D01*
X781861D01*
X777363D01*
Y484426D01*
X772864Y469431D02*
X781861D01*
Y473929D01*
X780362Y475429D01*
X777363D01*
X775863Y473929D01*
Y469431D01*
Y464932D02*
Y461933D01*
X777363Y460433D01*
X781861D01*
Y464932D01*
X780362Y466432D01*
X778862Y464932D01*
Y460433D01*
X784860Y457434D02*
X775863D01*
Y452936D01*
X777363Y451436D01*
X780362D01*
X781861Y452936D01*
Y457434D01*
X774364Y446938D02*
X775863D01*
Y448437D01*
Y445438D01*
Y446938D01*
X780362D01*
X781861Y445438D01*
Y436441D02*
Y439440D01*
X780362Y440940D01*
X777363D01*
X775863Y439440D01*
Y436441D01*
X777363Y434942D01*
X778862D01*
Y440940D01*
X775863Y431943D02*
X781861D01*
X778862D01*
X777363Y430443D01*
X775863Y428944D01*
Y427444D01*
X791460Y625380D02*
X792959D01*
X795958Y622381D01*
X792959Y619382D01*
X791460D01*
X795958Y622381D02*
X800457D01*
X794459Y616383D02*
X798957D01*
X800457Y614883D01*
Y610385D01*
X794459D01*
X795958Y607386D02*
Y601388D01*
X800457Y598389D02*
X794459D01*
X791460Y595390D01*
X794459Y592391D01*
X800457D01*
X795958D01*
Y598389D01*
X800457Y589392D02*
X794459D01*
Y584893D01*
X795958Y583394D01*
X800457D01*
X792959Y565400D02*
X791460Y566899D01*
Y569898D01*
X792959Y571398D01*
X798957D01*
X800457Y569898D01*
Y566899D01*
X798957Y565400D01*
X791460Y562400D02*
X800457D01*
X795958D01*
X794459Y560901D01*
Y557902D01*
X795958Y556402D01*
X800457D01*
Y548905D02*
Y551904D01*
X798957Y553403D01*
X795958D01*
X794459Y551904D01*
Y548905D01*
X795958Y547405D01*
X797458D01*
Y553403D01*
X800457Y544406D02*
X794459D01*
Y539908D01*
X795958Y538408D01*
X800457D01*
X816053Y619382D02*
Y625380D01*
X810055Y619382D01*
X808556D01*
X807056Y620882D01*
Y623881D01*
X808556Y625380D01*
Y616383D02*
X807056Y614883D01*
Y611884D01*
X808556Y610385D01*
X814554D01*
X816053Y611884D01*
Y614883D01*
X814554Y616383D01*
X808556D01*
X816053Y601388D02*
Y607386D01*
X810055Y601388D01*
X808556D01*
X807056Y602887D01*
Y605886D01*
X808556Y607386D01*
Y598389D02*
X807056Y596889D01*
Y593890D01*
X808556Y592391D01*
X810055D01*
X811555Y593890D01*
Y595390D01*
Y593890D01*
X813054Y592391D01*
X814554D01*
X816053Y593890D01*
Y596889D01*
X814554Y598389D01*
X816053Y589392D02*
X810055Y583394D01*
X808556Y580395D02*
X807056Y578895D01*
Y575896D01*
X808556Y574397D01*
X814554D01*
X816053Y575896D01*
Y578895D01*
X814554Y580395D01*
X808556D01*
Y571398D02*
X807056Y569898D01*
Y566899D01*
X808556Y565400D01*
X810055D01*
X811555Y566899D01*
Y568399D01*
Y566899D01*
X813054Y565400D01*
X814554D01*
X816053Y566899D01*
Y569898D01*
X814554Y571398D01*
X816053Y562400D02*
X810055Y556402D01*
X816053Y553403D02*
Y550404D01*
Y551904D01*
X807056D01*
X808556Y553403D01*
X816053Y545906D02*
Y542907D01*
Y544406D01*
X807056D01*
X808556Y545906D01*
X799983Y119199D02*
Y116200D01*
X801482Y114700D01*
X804481D01*
X805981Y116200D01*
Y119199D01*
X804481Y120698D01*
X802982D01*
Y114700D01*
X799983Y123697D02*
X808980D01*
X805981Y126696D01*
X808980Y129695D01*
X799983D01*
Y132694D02*
X808980D01*
X805981Y135693D01*
X808980Y138692D01*
X799983D01*
X807480Y147689D02*
X808980Y146190D01*
Y143191D01*
X807480Y141691D01*
X801482D01*
X799983Y143191D01*
Y146190D01*
X801482Y147689D01*
X807480Y161185D02*
X805981D01*
Y159685D01*
Y162684D01*
Y161185D01*
X801482D01*
X799983Y162684D01*
Y168682D02*
Y171682D01*
X801482Y173181D01*
X804481D01*
X805981Y171682D01*
Y168682D01*
X804481Y167183D01*
X801482D01*
X799983Y168682D01*
Y185177D02*
X808980D01*
X805981Y188176D01*
X808980Y191175D01*
X799983D01*
Y194174D02*
Y197173D01*
Y195674D01*
X805981D01*
Y194174D01*
Y207670D02*
Y203171D01*
X804481Y201672D01*
X801482D01*
X799983Y203171D01*
Y207670D01*
X805981Y210669D02*
X799983D01*
X802982D01*
X804481Y212169D01*
X805981Y213668D01*
Y215168D01*
X799983Y221166D02*
Y224165D01*
X801482Y225664D01*
X804481D01*
X805981Y224165D01*
Y221166D01*
X804481Y219666D01*
X801482D01*
X799983Y221166D01*
X807480Y234661D02*
X808980Y233162D01*
Y230163D01*
X807480Y228663D01*
X805981D01*
X804481Y230163D01*
Y233162D01*
X802982Y234661D01*
X801482D01*
X799983Y233162D01*
Y230163D01*
X801482Y228663D01*
X808980Y237660D02*
X799983D01*
Y242159D01*
X801482Y243658D01*
X807480D01*
X808980Y242159D01*
Y237660D01*
X799983Y255654D02*
X805981D01*
X808980Y258653D01*
X805981Y261652D01*
X799983D01*
X804481D01*
Y255654D01*
X808980Y270650D02*
X799983D01*
Y266151D01*
X801482Y264652D01*
X804481D01*
X805981Y266151D01*
Y270650D01*
Y275148D02*
Y278147D01*
X804481Y279647D01*
X799983D01*
Y275148D01*
X801482Y273649D01*
X802982Y275148D01*
Y279647D01*
X796984Y282646D02*
X805981D01*
Y287144D01*
X804481Y288644D01*
X801482D01*
X799983Y287144D01*
Y282646D01*
X807480Y293142D02*
X805981D01*
Y291643D01*
Y294642D01*
Y293142D01*
X801482D01*
X799983Y294642D01*
Y303639D02*
Y300640D01*
X801482Y299140D01*
X804481D01*
X805981Y300640D01*
Y303639D01*
X804481Y305138D01*
X802982D01*
Y299140D01*
X805981Y308137D02*
X799983D01*
X802982D01*
X804481Y309637D01*
X805981Y311136D01*
Y312636D01*
X790384Y114700D02*
X788885D01*
X785886Y117699D01*
X788885Y120698D01*
X790384D01*
X785886Y117699D02*
X781387D01*
X787385Y123697D02*
X782887D01*
X781387Y125197D01*
Y129695D01*
X787385D01*
X785886Y132694D02*
Y138692D01*
X781387Y141691D02*
X787385D01*
X790384Y144690D01*
X787385Y147689D01*
X781387D01*
X785886D01*
Y141691D01*
X781387Y150688D02*
X787385D01*
Y155187D01*
X785886Y156686D01*
X781387D01*
X788885Y174681D02*
X790384Y173181D01*
Y170182D01*
X788885Y168682D01*
X782887D01*
X781387Y170182D01*
Y173181D01*
X782887Y174681D01*
X790384Y177680D02*
X781387D01*
X785886D01*
X787385Y179179D01*
Y182178D01*
X785886Y183678D01*
X781387D01*
Y191175D02*
Y188176D01*
X782887Y186677D01*
X785886D01*
X787385Y188176D01*
Y191175D01*
X785886Y192675D01*
X784386D01*
Y186677D01*
X781387Y195674D02*
X787385D01*
Y200172D01*
X785886Y201672D01*
X781387D01*
X765791Y120698D02*
Y114700D01*
X771789Y120698D01*
X773288D01*
X774788Y119199D01*
Y116200D01*
X773288Y114700D01*
Y123697D02*
X774788Y125197D01*
Y128196D01*
X773288Y129695D01*
X767290D01*
X765791Y128196D01*
Y125197D01*
X767290Y123697D01*
X773288D01*
X765791Y138692D02*
Y132694D01*
X771789Y138692D01*
X773288D01*
X774788Y137193D01*
Y134194D01*
X773288Y132694D01*
Y141691D02*
X774788Y143191D01*
Y146190D01*
X773288Y147689D01*
X771789D01*
X770289Y146190D01*
Y144690D01*
Y146190D01*
X768790Y147689D01*
X767290D01*
X765791Y146190D01*
Y143191D01*
X767290Y141691D01*
X765791Y150688D02*
X771789Y156686D01*
X773288Y159685D02*
X774788Y161185D01*
Y164184D01*
X773288Y165683D01*
X767290D01*
X765791Y164184D01*
Y161185D01*
X767290Y159685D01*
X773288D01*
Y168682D02*
X774788Y170182D01*
Y173181D01*
X773288Y174681D01*
X771789D01*
X770289Y173181D01*
Y171682D01*
Y173181D01*
X768790Y174681D01*
X767290D01*
X765791Y173181D01*
Y170182D01*
X767290Y168682D01*
X765791Y177680D02*
X771789Y183678D01*
X765791Y186677D02*
Y189676D01*
Y188176D01*
X774788D01*
X773288Y186677D01*
X765791Y194174D02*
Y197173D01*
Y195674D01*
X774788D01*
X773288Y194174D01*
X634883Y119199D02*
Y116200D01*
X636382Y114700D01*
X639381D01*
X640881Y116200D01*
Y119199D01*
X639381Y120698D01*
X637882D01*
Y114700D01*
X634883Y123697D02*
X643880D01*
X640881Y126696D01*
X643880Y129695D01*
X634883D01*
Y132694D02*
X643880D01*
X640881Y135693D01*
X643880Y138692D01*
X634883D01*
X642381Y147689D02*
X643880Y146190D01*
Y143191D01*
X642381Y141691D01*
X636382D01*
X634883Y143191D01*
Y146190D01*
X636382Y147689D01*
X642381Y161185D02*
X640881D01*
Y159685D01*
Y162684D01*
Y161185D01*
X636382D01*
X634883Y162684D01*
Y168682D02*
Y171682D01*
X636382Y173181D01*
X639381D01*
X640881Y171682D01*
Y168682D01*
X639381Y167183D01*
X636382D01*
X634883Y168682D01*
Y185177D02*
X643880D01*
X640881Y188176D01*
X643880Y191175D01*
X634883D01*
Y194174D02*
Y197173D01*
Y195674D01*
X640881D01*
Y194174D01*
Y207670D02*
Y203171D01*
X639381Y201672D01*
X636382D01*
X634883Y203171D01*
Y207670D01*
X640881Y210669D02*
X634883D01*
X637882D01*
X639381Y212169D01*
X640881Y213668D01*
Y215168D01*
X634883Y221166D02*
Y224165D01*
X636382Y225664D01*
X639381D01*
X640881Y224165D01*
Y221166D01*
X639381Y219666D01*
X636382D01*
X634883Y221166D01*
X642381Y234661D02*
X643880Y233162D01*
Y230163D01*
X642381Y228663D01*
X640881D01*
X639381Y230163D01*
Y233162D01*
X637882Y234661D01*
X636382D01*
X634883Y233162D01*
Y230163D01*
X636382Y228663D01*
X643880Y237660D02*
X634883D01*
Y242159D01*
X636382Y243658D01*
X642381D01*
X643880Y242159D01*
Y237660D01*
X634883Y255654D02*
X640881D01*
X643880Y258653D01*
X640881Y261652D01*
X634883D01*
X639381D01*
Y255654D01*
X643880Y270650D02*
X634883D01*
Y266151D01*
X636382Y264652D01*
X639381D01*
X640881Y266151D01*
Y270650D01*
Y275148D02*
Y278147D01*
X639381Y279647D01*
X634883D01*
Y275148D01*
X636382Y273649D01*
X637882Y275148D01*
Y279647D01*
X631884Y282646D02*
X640881D01*
Y287144D01*
X639381Y288644D01*
X636382D01*
X634883Y287144D01*
Y282646D01*
X642381Y293142D02*
X640881D01*
Y291643D01*
Y294642D01*
Y293142D01*
X636382D01*
X634883Y294642D01*
Y303639D02*
Y300640D01*
X636382Y299140D01*
X639381D01*
X640881Y300640D01*
Y303639D01*
X639381Y305138D01*
X637882D01*
Y299140D01*
X640881Y308137D02*
X634883D01*
X637882D01*
X639381Y309637D01*
X640881Y311136D01*
Y312636D01*
X625284Y114700D02*
X623785D01*
X620786Y117699D01*
X623785Y120698D01*
X625284D01*
X620786Y117699D02*
X616287D01*
X622285Y123697D02*
X617787D01*
X616287Y125197D01*
Y129695D01*
X622285D01*
X620786Y132694D02*
Y138692D01*
X616287Y141691D02*
X622285D01*
X625284Y144690D01*
X622285Y147689D01*
X616287D01*
X620786D01*
Y141691D01*
X616287Y150688D02*
X622285D01*
Y155187D01*
X620786Y156686D01*
X616287D01*
X623785Y174681D02*
X625284Y173181D01*
Y170182D01*
X623785Y168682D01*
X617787D01*
X616287Y170182D01*
Y173181D01*
X617787Y174681D01*
X625284Y177680D02*
X616287D01*
X620786D01*
X622285Y179179D01*
Y182178D01*
X620786Y183678D01*
X616287D01*
Y191175D02*
Y188176D01*
X617787Y186677D01*
X620786D01*
X622285Y188176D01*
Y191175D01*
X620786Y192675D01*
X619286D01*
Y186677D01*
X616287Y195674D02*
X622285D01*
Y200172D01*
X620786Y201672D01*
X616287D01*
X600691Y120698D02*
Y114700D01*
X606689Y120698D01*
X608188D01*
X609688Y119199D01*
Y116200D01*
X608188Y114700D01*
Y123697D02*
X609688Y125197D01*
Y128196D01*
X608188Y129695D01*
X602190D01*
X600691Y128196D01*
Y125197D01*
X602190Y123697D01*
X608188D01*
X600691Y138692D02*
Y132694D01*
X606689Y138692D01*
X608188D01*
X609688Y137193D01*
Y134194D01*
X608188Y132694D01*
Y141691D02*
X609688Y143191D01*
Y146190D01*
X608188Y147689D01*
X606689D01*
X605189Y146190D01*
Y144690D01*
Y146190D01*
X603690Y147689D01*
X602190D01*
X600691Y146190D01*
Y143191D01*
X602190Y141691D01*
X600691Y150688D02*
X606689Y156686D01*
X608188Y159685D02*
X609688Y161185D01*
Y164184D01*
X608188Y165683D01*
X602190D01*
X600691Y164184D01*
Y161185D01*
X602190Y159685D01*
X608188D01*
Y168682D02*
X609688Y170182D01*
Y173181D01*
X608188Y174681D01*
X606689D01*
X605189Y173181D01*
Y171682D01*
Y173181D01*
X603690Y174681D01*
X602190D01*
X600691Y173181D01*
Y170182D01*
X602190Y168682D01*
X600691Y177680D02*
X606689Y183678D01*
X600691Y186677D02*
Y189676D01*
Y188176D01*
X609688D01*
X608188Y186677D01*
X600691Y194174D02*
Y197173D01*
Y195674D01*
X609688D01*
X608188Y194174D01*
X469783Y119199D02*
Y116200D01*
X471282Y114700D01*
X474281D01*
X475781Y116200D01*
Y119199D01*
X474281Y120698D01*
X472782D01*
Y114700D01*
X469783Y123697D02*
X478780D01*
X475781Y126696D01*
X478780Y129695D01*
X469783D01*
Y132694D02*
X478780D01*
X475781Y135693D01*
X478780Y138692D01*
X469783D01*
X477281Y147689D02*
X478780Y146190D01*
Y143191D01*
X477281Y141691D01*
X471282D01*
X469783Y143191D01*
Y146190D01*
X471282Y147689D01*
X477281Y161185D02*
X475781D01*
Y159685D01*
Y162684D01*
Y161185D01*
X471282D01*
X469783Y162684D01*
Y168682D02*
Y171682D01*
X471282Y173181D01*
X474281D01*
X475781Y171682D01*
Y168682D01*
X474281Y167183D01*
X471282D01*
X469783Y168682D01*
Y185177D02*
X478780D01*
X475781Y188176D01*
X478780Y191175D01*
X469783D01*
Y194174D02*
Y197173D01*
Y195674D01*
X475781D01*
Y194174D01*
Y207670D02*
Y203171D01*
X474281Y201672D01*
X471282D01*
X469783Y203171D01*
Y207670D01*
X475781Y210669D02*
X469783D01*
X472782D01*
X474281Y212169D01*
X475781Y213668D01*
Y215168D01*
X469783Y221166D02*
Y224165D01*
X471282Y225664D01*
X474281D01*
X475781Y224165D01*
Y221166D01*
X474281Y219666D01*
X471282D01*
X469783Y221166D01*
X477281Y234661D02*
X478780Y233162D01*
Y230163D01*
X477281Y228663D01*
X475781D01*
X474281Y230163D01*
Y233162D01*
X472782Y234661D01*
X471282D01*
X469783Y233162D01*
Y230163D01*
X471282Y228663D01*
X478780Y237660D02*
X469783D01*
Y242159D01*
X471282Y243658D01*
X477281D01*
X478780Y242159D01*
Y237660D01*
X469783Y255654D02*
X475781D01*
X478780Y258653D01*
X475781Y261652D01*
X469783D01*
X474281D01*
Y255654D01*
X478780Y270650D02*
X469783D01*
Y266151D01*
X471282Y264652D01*
X474281D01*
X475781Y266151D01*
Y270650D01*
Y275148D02*
Y278147D01*
X474281Y279647D01*
X469783D01*
Y275148D01*
X471282Y273649D01*
X472782Y275148D01*
Y279647D01*
X466784Y282646D02*
X475781D01*
Y287144D01*
X474281Y288644D01*
X471282D01*
X469783Y287144D01*
Y282646D01*
X477281Y293142D02*
X475781D01*
Y291643D01*
Y294642D01*
Y293142D01*
X471282D01*
X469783Y294642D01*
Y303639D02*
Y300640D01*
X471282Y299140D01*
X474281D01*
X475781Y300640D01*
Y303639D01*
X474281Y305138D01*
X472782D01*
Y299140D01*
X475781Y308137D02*
X469783D01*
X472782D01*
X474281Y309637D01*
X475781Y311136D01*
Y312636D01*
X460184Y114700D02*
X458685D01*
X455686Y117699D01*
X458685Y120698D01*
X460184D01*
X455686Y117699D02*
X451187D01*
X457185Y123697D02*
X452687D01*
X451187Y125197D01*
Y129695D01*
X457185D01*
X455686Y132694D02*
Y138692D01*
X451187Y141691D02*
X457185D01*
X460184Y144690D01*
X457185Y147689D01*
X451187D01*
X455686D01*
Y141691D01*
X451187Y150688D02*
X457185D01*
Y155187D01*
X455686Y156686D01*
X451187D01*
X458685Y174681D02*
X460184Y173181D01*
Y170182D01*
X458685Y168682D01*
X452687D01*
X451187Y170182D01*
Y173181D01*
X452687Y174681D01*
X460184Y177680D02*
X451187D01*
X455686D01*
X457185Y179179D01*
Y182178D01*
X455686Y183678D01*
X451187D01*
Y191175D02*
Y188176D01*
X452687Y186677D01*
X455686D01*
X457185Y188176D01*
Y191175D01*
X455686Y192675D01*
X454186D01*
Y186677D01*
X451187Y195674D02*
X457185D01*
Y200172D01*
X455686Y201672D01*
X451187D01*
X435591Y120698D02*
Y114700D01*
X441589Y120698D01*
X443088D01*
X444588Y119199D01*
Y116200D01*
X443088Y114700D01*
Y123697D02*
X444588Y125197D01*
Y128196D01*
X443088Y129695D01*
X437090D01*
X435591Y128196D01*
Y125197D01*
X437090Y123697D01*
X443088D01*
X435591Y138692D02*
Y132694D01*
X441589Y138692D01*
X443088D01*
X444588Y137193D01*
Y134194D01*
X443088Y132694D01*
Y141691D02*
X444588Y143191D01*
Y146190D01*
X443088Y147689D01*
X441589D01*
X440089Y146190D01*
Y144690D01*
Y146190D01*
X438590Y147689D01*
X437090D01*
X435591Y146190D01*
Y143191D01*
X437090Y141691D01*
X435591Y150688D02*
X441589Y156686D01*
X443088Y159685D02*
X444588Y161185D01*
Y164184D01*
X443088Y165683D01*
X437090D01*
X435591Y164184D01*
Y161185D01*
X437090Y159685D01*
X443088D01*
Y168682D02*
X444588Y170182D01*
Y173181D01*
X443088Y174681D01*
X441589D01*
X440089Y173181D01*
Y171682D01*
Y173181D01*
X438590Y174681D01*
X437090D01*
X435591Y173181D01*
Y170182D01*
X437090Y168682D01*
X435591Y177680D02*
X441589Y183678D01*
X435591Y186677D02*
Y189676D01*
Y188176D01*
X444588D01*
X443088Y186677D01*
X435591Y194174D02*
Y197173D01*
Y195674D01*
X444588D01*
X443088Y194174D01*
X304683Y119199D02*
Y116200D01*
X306182Y114700D01*
X309181D01*
X310681Y116200D01*
Y119199D01*
X309181Y120698D01*
X307682D01*
Y114700D01*
X304683Y123697D02*
X313680D01*
X310681Y126696D01*
X313680Y129695D01*
X304683D01*
Y132694D02*
X313680D01*
X310681Y135693D01*
X313680Y138692D01*
X304683D01*
X312181Y147689D02*
X313680Y146190D01*
Y143191D01*
X312181Y141691D01*
X306182D01*
X304683Y143191D01*
Y146190D01*
X306182Y147689D01*
X312181Y161185D02*
X310681D01*
Y159685D01*
Y162684D01*
Y161185D01*
X306182D01*
X304683Y162684D01*
Y168682D02*
Y171682D01*
X306182Y173181D01*
X309181D01*
X310681Y171682D01*
Y168682D01*
X309181Y167183D01*
X306182D01*
X304683Y168682D01*
Y185177D02*
X313680D01*
X310681Y188176D01*
X313680Y191175D01*
X304683D01*
Y194174D02*
Y197173D01*
Y195674D01*
X310681D01*
Y194174D01*
Y207670D02*
Y203171D01*
X309181Y201672D01*
X306182D01*
X304683Y203171D01*
Y207670D01*
X310681Y210669D02*
X304683D01*
X307682D01*
X309181Y212169D01*
X310681Y213668D01*
Y215168D01*
X304683Y221166D02*
Y224165D01*
X306182Y225664D01*
X309181D01*
X310681Y224165D01*
Y221166D01*
X309181Y219666D01*
X306182D01*
X304683Y221166D01*
X312181Y234661D02*
X313680Y233162D01*
Y230163D01*
X312181Y228663D01*
X310681D01*
X309181Y230163D01*
Y233162D01*
X307682Y234661D01*
X306182D01*
X304683Y233162D01*
Y230163D01*
X306182Y228663D01*
X313680Y237660D02*
X304683D01*
Y242159D01*
X306182Y243658D01*
X312181D01*
X313680Y242159D01*
Y237660D01*
X304683Y255654D02*
X310681D01*
X313680Y258653D01*
X310681Y261652D01*
X304683D01*
X309181D01*
Y255654D01*
X313680Y270650D02*
X304683D01*
Y266151D01*
X306182Y264652D01*
X309181D01*
X310681Y266151D01*
Y270650D01*
Y275148D02*
Y278147D01*
X309181Y279647D01*
X304683D01*
Y275148D01*
X306182Y273649D01*
X307682Y275148D01*
Y279647D01*
X301684Y282646D02*
X310681D01*
Y287144D01*
X309181Y288644D01*
X306182D01*
X304683Y287144D01*
Y282646D01*
X312181Y293142D02*
X310681D01*
Y291643D01*
Y294642D01*
Y293142D01*
X306182D01*
X304683Y294642D01*
Y303639D02*
Y300640D01*
X306182Y299140D01*
X309181D01*
X310681Y300640D01*
Y303639D01*
X309181Y305138D01*
X307682D01*
Y299140D01*
X310681Y308137D02*
X304683D01*
X307682D01*
X309181Y309637D01*
X310681Y311136D01*
Y312636D01*
X295084Y114700D02*
X293585D01*
X290586Y117699D01*
X293585Y120698D01*
X295084D01*
X290586Y117699D02*
X286087D01*
X292085Y123697D02*
X287587D01*
X286087Y125197D01*
Y129695D01*
X292085D01*
X290586Y132694D02*
Y138692D01*
X286087Y141691D02*
X292085D01*
X295084Y144690D01*
X292085Y147689D01*
X286087D01*
X290586D01*
Y141691D01*
X286087Y150688D02*
X292085D01*
Y155187D01*
X290586Y156686D01*
X286087D01*
X293585Y174681D02*
X295084Y173181D01*
Y170182D01*
X293585Y168682D01*
X287587D01*
X286087Y170182D01*
Y173181D01*
X287587Y174681D01*
X295084Y177680D02*
X286087D01*
X290586D01*
X292085Y179179D01*
Y182178D01*
X290586Y183678D01*
X286087D01*
Y191175D02*
Y188176D01*
X287587Y186677D01*
X290586D01*
X292085Y188176D01*
Y191175D01*
X290586Y192675D01*
X289086D01*
Y186677D01*
X286087Y195674D02*
X292085D01*
Y200172D01*
X290586Y201672D01*
X286087D01*
X270491Y120698D02*
Y114700D01*
X276489Y120698D01*
X277988D01*
X279488Y119199D01*
Y116200D01*
X277988Y114700D01*
Y123697D02*
X279488Y125197D01*
Y128196D01*
X277988Y129695D01*
X271990D01*
X270491Y128196D01*
Y125197D01*
X271990Y123697D01*
X277988D01*
X270491Y138692D02*
Y132694D01*
X276489Y138692D01*
X277988D01*
X279488Y137193D01*
Y134194D01*
X277988Y132694D01*
Y141691D02*
X279488Y143191D01*
Y146190D01*
X277988Y147689D01*
X276489D01*
X274989Y146190D01*
Y144690D01*
Y146190D01*
X273490Y147689D01*
X271990D01*
X270491Y146190D01*
Y143191D01*
X271990Y141691D01*
X270491Y150688D02*
X276489Y156686D01*
X277988Y159685D02*
X279488Y161185D01*
Y164184D01*
X277988Y165683D01*
X271990D01*
X270491Y164184D01*
Y161185D01*
X271990Y159685D01*
X277988D01*
Y168682D02*
X279488Y170182D01*
Y173181D01*
X277988Y174681D01*
X276489D01*
X274989Y173181D01*
Y171682D01*
Y173181D01*
X273490Y174681D01*
X271990D01*
X270491Y173181D01*
Y170182D01*
X271990Y168682D01*
X270491Y177680D02*
X276489Y183678D01*
X270491Y186677D02*
Y189676D01*
Y188176D01*
X279488D01*
X277988Y186677D01*
X270491Y194174D02*
Y197173D01*
Y195674D01*
X279488D01*
X277988Y194174D01*
X139583Y119199D02*
Y116200D01*
X141082Y114700D01*
X144081D01*
X145581Y116200D01*
Y119199D01*
X144081Y120698D01*
X142582D01*
Y114700D01*
X139583Y123697D02*
X148580D01*
X145581Y126696D01*
X148580Y129695D01*
X139583D01*
Y132694D02*
X148580D01*
X145581Y135693D01*
X148580Y138692D01*
X139583D01*
X147080Y147689D02*
X148580Y146190D01*
Y143191D01*
X147080Y141691D01*
X141082D01*
X139583Y143191D01*
Y146190D01*
X141082Y147689D01*
X147080Y161185D02*
X145581D01*
Y159685D01*
Y162684D01*
Y161185D01*
X141082D01*
X139583Y162684D01*
Y168682D02*
Y171682D01*
X141082Y173181D01*
X144081D01*
X145581Y171682D01*
Y168682D01*
X144081Y167183D01*
X141082D01*
X139583Y168682D01*
Y185177D02*
X148580D01*
X145581Y188176D01*
X148580Y191175D01*
X139583D01*
Y194174D02*
Y197173D01*
Y195674D01*
X145581D01*
Y194174D01*
Y207670D02*
Y203171D01*
X144081Y201672D01*
X141082D01*
X139583Y203171D01*
Y207670D01*
X145581Y210669D02*
X139583D01*
X142582D01*
X144081Y212169D01*
X145581Y213668D01*
Y215168D01*
X139583Y221166D02*
Y224165D01*
X141082Y225664D01*
X144081D01*
X145581Y224165D01*
Y221166D01*
X144081Y219666D01*
X141082D01*
X139583Y221166D01*
X147080Y234661D02*
X148580Y233162D01*
Y230163D01*
X147080Y228663D01*
X145581D01*
X144081Y230163D01*
Y233162D01*
X142582Y234661D01*
X141082D01*
X139583Y233162D01*
Y230163D01*
X141082Y228663D01*
X148580Y237660D02*
X139583D01*
Y242159D01*
X141082Y243658D01*
X147080D01*
X148580Y242159D01*
Y237660D01*
X139583Y255654D02*
X145581D01*
X148580Y258653D01*
X145581Y261652D01*
X139583D01*
X144081D01*
Y255654D01*
X148580Y270650D02*
X139583D01*
Y266151D01*
X141082Y264652D01*
X144081D01*
X145581Y266151D01*
Y270650D01*
Y275148D02*
Y278147D01*
X144081Y279647D01*
X139583D01*
Y275148D01*
X141082Y273649D01*
X142582Y275148D01*
Y279647D01*
X136584Y282646D02*
X145581D01*
Y287144D01*
X144081Y288644D01*
X141082D01*
X139583Y287144D01*
Y282646D01*
X147080Y293142D02*
X145581D01*
Y291643D01*
Y294642D01*
Y293142D01*
X141082D01*
X139583Y294642D01*
Y303639D02*
Y300640D01*
X141082Y299140D01*
X144081D01*
X145581Y300640D01*
Y303639D01*
X144081Y305138D01*
X142582D01*
Y299140D01*
X145581Y308137D02*
X139583D01*
X142582D01*
X144081Y309637D01*
X145581Y311136D01*
Y312636D01*
X129984Y114700D02*
X128485D01*
X125486Y117699D01*
X128485Y120698D01*
X129984D01*
X125486Y117699D02*
X120987D01*
X126985Y123697D02*
X122487D01*
X120987Y125197D01*
Y129695D01*
X126985D01*
X125486Y132694D02*
Y138692D01*
X120987Y141691D02*
X126985D01*
X129984Y144690D01*
X126985Y147689D01*
X120987D01*
X125486D01*
Y141691D01*
X120987Y150688D02*
X126985D01*
Y155187D01*
X125486Y156686D01*
X120987D01*
X128485Y174681D02*
X129984Y173181D01*
Y170182D01*
X128485Y168682D01*
X122487D01*
X120987Y170182D01*
Y173181D01*
X122487Y174681D01*
X129984Y177680D02*
X120987D01*
X125486D01*
X126985Y179179D01*
Y182178D01*
X125486Y183678D01*
X120987D01*
Y191175D02*
Y188176D01*
X122487Y186677D01*
X125486D01*
X126985Y188176D01*
Y191175D01*
X125486Y192675D01*
X123986D01*
Y186677D01*
X120987Y195674D02*
X126985D01*
Y200172D01*
X125486Y201672D01*
X120987D01*
X105391Y120698D02*
Y114700D01*
X111389Y120698D01*
X112888D01*
X114388Y119199D01*
Y116200D01*
X112888Y114700D01*
Y123697D02*
X114388Y125197D01*
Y128196D01*
X112888Y129695D01*
X106890D01*
X105391Y128196D01*
Y125197D01*
X106890Y123697D01*
X112888D01*
X105391Y138692D02*
Y132694D01*
X111389Y138692D01*
X112888D01*
X114388Y137193D01*
Y134194D01*
X112888Y132694D01*
Y141691D02*
X114388Y143191D01*
Y146190D01*
X112888Y147689D01*
X111389D01*
X109889Y146190D01*
Y144690D01*
Y146190D01*
X108390Y147689D01*
X106890D01*
X105391Y146190D01*
Y143191D01*
X106890Y141691D01*
X105391Y150688D02*
X111389Y156686D01*
X112888Y159685D02*
X114388Y161185D01*
Y164184D01*
X112888Y165683D01*
X106890D01*
X105391Y164184D01*
Y161185D01*
X106890Y159685D01*
X112888D01*
Y168682D02*
X114388Y170182D01*
Y173181D01*
X112888Y174681D01*
X111389D01*
X109889Y173181D01*
Y171682D01*
Y173181D01*
X108390Y174681D01*
X106890D01*
X105391Y173181D01*
Y170182D01*
X106890Y168682D01*
X105391Y177680D02*
X111389Y183678D01*
X105391Y186677D02*
Y189676D01*
Y188176D01*
X114388D01*
X112888Y186677D01*
X105391Y194174D02*
Y197173D01*
Y195674D01*
X114388D01*
X112888Y194174D01*
M02*
