G04 Layer_Color=65535*
%FSLAX44Y44*%
%MOMM*%
G71*
G01*
G75*
%ADD23C,0.2000*%
%ADD24C,0.1000*%
%ADD25C,0.2540*%
G36*
X189958Y499072D02*
X178274Y510756D01*
X189958D01*
Y499072D01*
D02*
G37*
G36*
X355058D02*
X343374Y510756D01*
X355058D01*
Y499072D01*
D02*
G37*
G36*
X520158D02*
X508474Y510756D01*
X520158D01*
Y499072D01*
D02*
G37*
G36*
X685258D02*
X673574Y510756D01*
X685258D01*
Y499072D01*
D02*
G37*
G36*
X850358D02*
X838674Y510756D01*
X850358D01*
Y499072D01*
D02*
G37*
G36*
X731486Y241008D02*
X743170Y229324D01*
X731486D01*
Y241008D01*
D02*
G37*
G36*
X566386D02*
X578070Y229324D01*
X566386D01*
Y241008D01*
D02*
G37*
G36*
X401286D02*
X412970Y229324D01*
X401286D01*
Y241008D01*
D02*
G37*
G36*
X236186D02*
X247870Y229324D01*
X236186D01*
Y241008D01*
D02*
G37*
G36*
X71086D02*
X82770Y229324D01*
X71086D01*
Y241008D01*
D02*
G37*
D23*
X194389Y71370D02*
X192057Y69038D01*
Y64373D01*
X194389Y62040D01*
X203720D01*
X206052Y64373D01*
Y69038D01*
X203720Y71370D01*
X206052Y76035D02*
X192057D01*
X206052Y85366D01*
X192057D01*
X194389Y99361D02*
X192057Y97029D01*
Y92364D01*
X194389Y90031D01*
X203720D01*
X206052Y92364D01*
Y97029D01*
X203720Y99361D01*
X58389Y71370D02*
X56057Y69038D01*
Y64373D01*
X58389Y62040D01*
X67719D01*
X70052Y64373D01*
Y69038D01*
X67719Y71370D01*
X70052Y76035D02*
X56057D01*
X70052Y85366D01*
X56057D01*
X58389Y99361D02*
X56057Y97029D01*
Y92364D01*
X58389Y90031D01*
X67719D01*
X70052Y92364D01*
Y97029D01*
X67719Y99361D01*
X359489Y71370D02*
X357157Y69038D01*
Y64373D01*
X359489Y62040D01*
X368820D01*
X371152Y64373D01*
Y69038D01*
X368820Y71370D01*
X371152Y76035D02*
X357157D01*
X371152Y85366D01*
X357157D01*
X359489Y99361D02*
X357157Y97029D01*
Y92364D01*
X359489Y90031D01*
X368820D01*
X371152Y92364D01*
Y97029D01*
X368820Y99361D01*
X223489Y71370D02*
X221157Y69038D01*
Y64373D01*
X223489Y62040D01*
X232819D01*
X235152Y64373D01*
Y69038D01*
X232819Y71370D01*
X235152Y76035D02*
X221157D01*
X235152Y85366D01*
X221157D01*
X223489Y99361D02*
X221157Y97029D01*
Y92364D01*
X223489Y90031D01*
X232819D01*
X235152Y92364D01*
Y97029D01*
X232819Y99361D01*
X524589Y71370D02*
X522257Y69038D01*
Y64373D01*
X524589Y62040D01*
X533919D01*
X536252Y64373D01*
Y69038D01*
X533919Y71370D01*
X536252Y76035D02*
X522257D01*
X536252Y85366D01*
X522257D01*
X524589Y99361D02*
X522257Y97029D01*
Y92364D01*
X524589Y90031D01*
X533919D01*
X536252Y92364D01*
Y97029D01*
X533919Y99361D01*
X388589Y71370D02*
X386257Y69038D01*
Y64373D01*
X388589Y62040D01*
X397920D01*
X400252Y64373D01*
Y69038D01*
X397920Y71370D01*
X400252Y76035D02*
X386257D01*
X400252Y85366D01*
X386257D01*
X388589Y99361D02*
X386257Y97029D01*
Y92364D01*
X388589Y90031D01*
X397920D01*
X400252Y92364D01*
Y97029D01*
X397920Y99361D01*
X689689Y71370D02*
X687357Y69038D01*
Y64373D01*
X689689Y62040D01*
X699019D01*
X701352Y64373D01*
Y69038D01*
X699019Y71370D01*
X701352Y76035D02*
X687357D01*
X701352Y85366D01*
X687357D01*
X689689Y99361D02*
X687357Y97029D01*
Y92364D01*
X689689Y90031D01*
X699019D01*
X701352Y92364D01*
Y97029D01*
X699019Y99361D01*
X553689Y71370D02*
X551357Y69038D01*
Y64373D01*
X553689Y62040D01*
X563019D01*
X565352Y64373D01*
Y69038D01*
X563019Y71370D01*
X565352Y76035D02*
X551357D01*
X565352Y85366D01*
X551357D01*
X553689Y99361D02*
X551357Y97029D01*
Y92364D01*
X553689Y90031D01*
X563019D01*
X565352Y92364D01*
Y97029D01*
X563019Y99361D01*
X855389Y71330D02*
X853057Y68998D01*
Y64333D01*
X855389Y62000D01*
X864719D01*
X867052Y64333D01*
Y68998D01*
X864719Y71330D01*
X867052Y75995D02*
X853057D01*
X867052Y85326D01*
X853057D01*
X855389Y99321D02*
X853057Y96989D01*
Y92324D01*
X855389Y89991D01*
X864719D01*
X867052Y92324D01*
Y96989D01*
X864719Y99321D01*
X719389Y71330D02*
X717057Y68998D01*
Y64333D01*
X719389Y62000D01*
X728719D01*
X731052Y64333D01*
Y68998D01*
X728719Y71330D01*
X731052Y75995D02*
X717057D01*
X731052Y85326D01*
X717057D01*
X719389Y99321D02*
X717057Y96989D01*
Y92324D01*
X719389Y89991D01*
X728719D01*
X731052Y92324D01*
Y96989D01*
X728719Y99321D01*
X727015Y668710D02*
X729348Y671042D01*
Y675707D01*
X727015Y678040D01*
X717685D01*
X715352Y675707D01*
Y671042D01*
X717685Y668710D01*
X715352Y664044D02*
X729348D01*
X715352Y654714D01*
X729348D01*
X727015Y640719D02*
X729348Y643051D01*
Y647717D01*
X727015Y650049D01*
X717685D01*
X715352Y647717D01*
Y643051D01*
X717685Y640719D01*
X863015Y668710D02*
X865348Y671042D01*
Y675707D01*
X863015Y678040D01*
X853685D01*
X851352Y675707D01*
Y671042D01*
X853685Y668710D01*
X851352Y664044D02*
X865348D01*
X851352Y654714D01*
X865348D01*
X863015Y640719D02*
X865348Y643051D01*
Y647717D01*
X863015Y650049D01*
X853685D01*
X851352Y647717D01*
Y643051D01*
X853685Y640719D01*
X561915Y668710D02*
X564248Y671042D01*
Y675707D01*
X561915Y678040D01*
X552585D01*
X550252Y675707D01*
Y671042D01*
X552585Y668710D01*
X550252Y664044D02*
X564248D01*
X550252Y654714D01*
X564248D01*
X561915Y640719D02*
X564248Y643051D01*
Y647717D01*
X561915Y650049D01*
X552585D01*
X550252Y647717D01*
Y643051D01*
X552585Y640719D01*
X697915Y668710D02*
X700248Y671042D01*
Y675707D01*
X697915Y678040D01*
X688585D01*
X686252Y675707D01*
Y671042D01*
X688585Y668710D01*
X686252Y664044D02*
X700248D01*
X686252Y654714D01*
X700248D01*
X697915Y640719D02*
X700248Y643051D01*
Y647717D01*
X697915Y650049D01*
X688585D01*
X686252Y647717D01*
Y643051D01*
X688585Y640719D01*
X396815Y668710D02*
X399148Y671042D01*
Y675707D01*
X396815Y678040D01*
X387485D01*
X385152Y675707D01*
Y671042D01*
X387485Y668710D01*
X385152Y664044D02*
X399148D01*
X385152Y654714D01*
X399148D01*
X396815Y640719D02*
X399148Y643051D01*
Y647717D01*
X396815Y650049D01*
X387485D01*
X385152Y647717D01*
Y643051D01*
X387485Y640719D01*
X532815Y668710D02*
X535148Y671042D01*
Y675707D01*
X532815Y678040D01*
X523485D01*
X521152Y675707D01*
Y671042D01*
X523485Y668710D01*
X521152Y664044D02*
X535148D01*
X521152Y654714D01*
X535148D01*
X532815Y640719D02*
X535148Y643051D01*
Y647717D01*
X532815Y650049D01*
X523485D01*
X521152Y647717D01*
Y643051D01*
X523485Y640719D01*
X231715Y668710D02*
X234048Y671042D01*
Y675707D01*
X231715Y678040D01*
X222385D01*
X220052Y675707D01*
Y671042D01*
X222385Y668710D01*
X220052Y664044D02*
X234048D01*
X220052Y654714D01*
X234048D01*
X231715Y640719D02*
X234048Y643051D01*
Y647717D01*
X231715Y650049D01*
X222385D01*
X220052Y647717D01*
Y643051D01*
X222385Y640719D01*
X367715Y668710D02*
X370048Y671042D01*
Y675707D01*
X367715Y678040D01*
X358385D01*
X356052Y675707D01*
Y671042D01*
X358385Y668710D01*
X356052Y664044D02*
X370048D01*
X356052Y654714D01*
X370048D01*
X367715Y640719D02*
X370048Y643051D01*
Y647717D01*
X367715Y650049D01*
X358385D01*
X356052Y647717D01*
Y643051D01*
X358385Y640719D01*
X202715Y668710D02*
X205048Y671042D01*
Y675707D01*
X202715Y678040D01*
X193385D01*
X191052Y675707D01*
Y671042D01*
X193385Y668710D01*
X191052Y664044D02*
X205048D01*
X191052Y654714D01*
X205048D01*
X202715Y640719D02*
X205048Y643051D01*
Y647717D01*
X202715Y650049D01*
X193385D01*
X191052Y647717D01*
Y643051D01*
X193385Y640719D01*
X66715Y668710D02*
X69048Y671042D01*
Y675707D01*
X66715Y678040D01*
X57385D01*
X55052Y675707D01*
Y671042D01*
X57385Y668710D01*
X55052Y664044D02*
X69048D01*
X55052Y654714D01*
X69048D01*
X66715Y640719D02*
X69048Y643051D01*
Y647717D01*
X66715Y650049D01*
X57385D01*
X55052Y647717D01*
Y643051D01*
X57385Y640719D01*
X206970Y410542D02*
X208469Y412042D01*
Y415041D01*
X206970Y416540D01*
X200972D01*
X199472Y415041D01*
Y412042D01*
X200972Y410542D01*
X199472Y403044D02*
X208469D01*
X203971Y407543D01*
Y401545D01*
X207470Y497542D02*
X208969Y499041D01*
Y502040D01*
X207470Y503540D01*
X201472D01*
X199972Y502040D01*
Y499041D01*
X201472Y497542D01*
X207470Y494543D02*
X208969Y493043D01*
Y490044D01*
X207470Y488545D01*
X205970D01*
X204471Y490044D01*
Y491544D01*
Y490044D01*
X202971Y488545D01*
X201472D01*
X199972Y490044D01*
Y493043D01*
X201472Y494543D01*
X60210Y497332D02*
X61709Y498831D01*
Y501830D01*
X60210Y503330D01*
X54212D01*
X52712Y501830D01*
Y498831D01*
X54212Y497332D01*
X52712Y488335D02*
Y494333D01*
X58710Y488335D01*
X60210D01*
X61709Y489834D01*
Y492833D01*
X60210Y494333D01*
X60020Y409812D02*
X61519Y411311D01*
Y414310D01*
X60020Y415810D01*
X54022D01*
X52522Y414310D01*
Y411311D01*
X54022Y409812D01*
X52522Y406813D02*
Y403814D01*
Y405313D01*
X61519D01*
X60020Y406813D01*
X80969Y458040D02*
X71972D01*
Y453541D01*
X73472Y452042D01*
X74971D01*
X76471Y453541D01*
Y458040D01*
Y453541D01*
X77970Y452042D01*
X79470D01*
X80969Y453541D01*
Y458040D01*
X79470Y443045D02*
X80969Y444544D01*
Y447543D01*
X79470Y449043D01*
X73472D01*
X71972Y447543D01*
Y444544D01*
X73472Y443045D01*
X76471D01*
Y446044D01*
X71972Y440046D02*
X77970D01*
X80969Y437047D01*
X77970Y434048D01*
X71972D01*
X76471D01*
Y440046D01*
X71972Y431049D02*
Y428050D01*
Y429549D01*
X80969D01*
X79470Y431049D01*
X80969Y417553D02*
Y423551D01*
X76471D01*
X77970Y420552D01*
Y419053D01*
X76471Y417553D01*
X73472D01*
X71972Y419053D01*
Y422052D01*
X73472Y423551D01*
X79470Y414554D02*
X80969Y413055D01*
Y410056D01*
X79470Y408556D01*
X77970D01*
X76471Y410056D01*
Y411555D01*
Y410056D01*
X74971Y408556D01*
X73472D01*
X71972Y410056D01*
Y413055D01*
X73472Y414554D01*
X127982Y631660D02*
X139978D01*
X135979Y627661D01*
X139978Y623663D01*
X127982D01*
Y619664D02*
Y615665D01*
Y617665D01*
X135979D01*
Y619664D01*
Y601670D02*
Y607668D01*
X133980Y609667D01*
X129981D01*
X127982Y607668D01*
Y601670D01*
X135979Y597671D02*
X127982D01*
X131981D01*
X133980Y595672D01*
X135979Y593672D01*
Y591673D01*
X127982Y583675D02*
Y579677D01*
X129981Y577677D01*
X133980D01*
X135979Y579677D01*
Y583675D01*
X133980Y585675D01*
X129981D01*
X127982Y583675D01*
X137979Y565681D02*
X139978Y567681D01*
Y571679D01*
X137979Y573679D01*
X135979D01*
X133980Y571679D01*
Y567681D01*
X131981Y565681D01*
X129981D01*
X127982Y567681D01*
Y571679D01*
X129981Y573679D01*
X139978Y561683D02*
X127982D01*
Y555685D01*
X129981Y553685D01*
X137979D01*
X139978Y555685D01*
Y561683D01*
X372070Y410542D02*
X373569Y412042D01*
Y415041D01*
X372070Y416540D01*
X366072D01*
X364572Y415041D01*
Y412042D01*
X366072Y410542D01*
X364572Y403044D02*
X373569D01*
X369071Y407543D01*
Y401545D01*
X372570Y497542D02*
X374069Y499041D01*
Y502040D01*
X372570Y503540D01*
X366572D01*
X365072Y502040D01*
Y499041D01*
X366572Y497542D01*
X372570Y494543D02*
X374069Y493043D01*
Y490044D01*
X372570Y488545D01*
X371070D01*
X369571Y490044D01*
Y491544D01*
Y490044D01*
X368071Y488545D01*
X366572D01*
X365072Y490044D01*
Y493043D01*
X366572Y494543D01*
X225310Y497332D02*
X226809Y498831D01*
Y501830D01*
X225310Y503330D01*
X219312D01*
X217812Y501830D01*
Y498831D01*
X219312Y497332D01*
X217812Y488335D02*
Y494333D01*
X223810Y488335D01*
X225310D01*
X226809Y489834D01*
Y492833D01*
X225310Y494333D01*
X225120Y409812D02*
X226619Y411311D01*
Y414310D01*
X225120Y415810D01*
X219122D01*
X217622Y414310D01*
Y411311D01*
X219122Y409812D01*
X217622Y406813D02*
Y403814D01*
Y405313D01*
X226619D01*
X225120Y406813D01*
X246069Y458040D02*
X237072D01*
Y453541D01*
X238572Y452042D01*
X240071D01*
X241571Y453541D01*
Y458040D01*
Y453541D01*
X243070Y452042D01*
X244570D01*
X246069Y453541D01*
Y458040D01*
X244570Y443045D02*
X246069Y444544D01*
Y447543D01*
X244570Y449043D01*
X238572D01*
X237072Y447543D01*
Y444544D01*
X238572Y443045D01*
X241571D01*
Y446044D01*
X237072Y440046D02*
X243070D01*
X246069Y437047D01*
X243070Y434048D01*
X237072D01*
X241571D01*
Y440046D01*
X237072Y431049D02*
Y428050D01*
Y429549D01*
X246069D01*
X244570Y431049D01*
X246069Y417553D02*
Y423551D01*
X241571D01*
X243070Y420552D01*
Y419053D01*
X241571Y417553D01*
X238572D01*
X237072Y419053D01*
Y422052D01*
X238572Y423551D01*
X244570Y414554D02*
X246069Y413055D01*
Y410056D01*
X244570Y408556D01*
X243070D01*
X241571Y410056D01*
Y411555D01*
Y410056D01*
X240071Y408556D01*
X238572D01*
X237072Y410056D01*
Y413055D01*
X238572Y414554D01*
X293082Y631660D02*
X305078D01*
X301080Y627661D01*
X305078Y623663D01*
X293082D01*
Y619664D02*
Y615665D01*
Y617665D01*
X301080D01*
Y619664D01*
Y601670D02*
Y607668D01*
X299080Y609667D01*
X295082D01*
X293082Y607668D01*
Y601670D01*
X301080Y597671D02*
X293082D01*
X297081D01*
X299080Y595672D01*
X301080Y593672D01*
Y591673D01*
X293082Y583675D02*
Y579677D01*
X295082Y577677D01*
X299080D01*
X301080Y579677D01*
Y583675D01*
X299080Y585675D01*
X295082D01*
X293082Y583675D01*
X303079Y565681D02*
X305078Y567681D01*
Y571679D01*
X303079Y573679D01*
X301080D01*
X299080Y571679D01*
Y567681D01*
X297081Y565681D01*
X295082D01*
X293082Y567681D01*
Y571679D01*
X295082Y573679D01*
X305078Y561683D02*
X293082D01*
Y555685D01*
X295082Y553685D01*
X303079D01*
X305078Y555685D01*
Y561683D01*
X537170Y410542D02*
X538669Y412042D01*
Y415041D01*
X537170Y416540D01*
X531172D01*
X529672Y415041D01*
Y412042D01*
X531172Y410542D01*
X529672Y403044D02*
X538669D01*
X534171Y407543D01*
Y401545D01*
X537670Y497542D02*
X539169Y499041D01*
Y502040D01*
X537670Y503540D01*
X531672D01*
X530172Y502040D01*
Y499041D01*
X531672Y497542D01*
X537670Y494543D02*
X539169Y493043D01*
Y490044D01*
X537670Y488545D01*
X536170D01*
X534671Y490044D01*
Y491544D01*
Y490044D01*
X533171Y488545D01*
X531672D01*
X530172Y490044D01*
Y493043D01*
X531672Y494543D01*
X390410Y497332D02*
X391909Y498831D01*
Y501830D01*
X390410Y503330D01*
X384412D01*
X382912Y501830D01*
Y498831D01*
X384412Y497332D01*
X382912Y488335D02*
Y494333D01*
X388910Y488335D01*
X390410D01*
X391909Y489834D01*
Y492833D01*
X390410Y494333D01*
X390220Y409812D02*
X391719Y411311D01*
Y414310D01*
X390220Y415810D01*
X384222D01*
X382722Y414310D01*
Y411311D01*
X384222Y409812D01*
X382722Y406813D02*
Y403814D01*
Y405313D01*
X391719D01*
X390220Y406813D01*
X411169Y458040D02*
X402172D01*
Y453541D01*
X403672Y452042D01*
X405171D01*
X406671Y453541D01*
Y458040D01*
Y453541D01*
X408170Y452042D01*
X409670D01*
X411169Y453541D01*
Y458040D01*
X409670Y443045D02*
X411169Y444544D01*
Y447543D01*
X409670Y449043D01*
X403672D01*
X402172Y447543D01*
Y444544D01*
X403672Y443045D01*
X406671D01*
Y446044D01*
X402172Y440046D02*
X408170D01*
X411169Y437047D01*
X408170Y434048D01*
X402172D01*
X406671D01*
Y440046D01*
X402172Y431049D02*
Y428050D01*
Y429549D01*
X411169D01*
X409670Y431049D01*
X411169Y417553D02*
Y423551D01*
X406671D01*
X408170Y420552D01*
Y419053D01*
X406671Y417553D01*
X403672D01*
X402172Y419053D01*
Y422052D01*
X403672Y423551D01*
X409670Y414554D02*
X411169Y413055D01*
Y410056D01*
X409670Y408556D01*
X408170D01*
X406671Y410056D01*
Y411555D01*
Y410056D01*
X405171Y408556D01*
X403672D01*
X402172Y410056D01*
Y413055D01*
X403672Y414554D01*
X458182Y631660D02*
X470178D01*
X466180Y627661D01*
X470178Y623663D01*
X458182D01*
Y619664D02*
Y615665D01*
Y617665D01*
X466180D01*
Y619664D01*
Y601670D02*
Y607668D01*
X464180Y609667D01*
X460182D01*
X458182Y607668D01*
Y601670D01*
X466180Y597671D02*
X458182D01*
X462181D01*
X464180Y595672D01*
X466180Y593672D01*
Y591673D01*
X458182Y583675D02*
Y579677D01*
X460182Y577677D01*
X464180D01*
X466180Y579677D01*
Y583675D01*
X464180Y585675D01*
X460182D01*
X458182Y583675D01*
X468179Y565681D02*
X470178Y567681D01*
Y571679D01*
X468179Y573679D01*
X466180D01*
X464180Y571679D01*
Y567681D01*
X462181Y565681D01*
X460182D01*
X458182Y567681D01*
Y571679D01*
X460182Y573679D01*
X470178Y561683D02*
X458182D01*
Y555685D01*
X460182Y553685D01*
X468179D01*
X470178Y555685D01*
Y561683D01*
X702270Y410542D02*
X703769Y412042D01*
Y415041D01*
X702270Y416540D01*
X696272D01*
X694772Y415041D01*
Y412042D01*
X696272Y410542D01*
X694772Y403044D02*
X703769D01*
X699271Y407543D01*
Y401545D01*
X702770Y497542D02*
X704269Y499041D01*
Y502040D01*
X702770Y503540D01*
X696772D01*
X695272Y502040D01*
Y499041D01*
X696772Y497542D01*
X702770Y494543D02*
X704269Y493043D01*
Y490044D01*
X702770Y488545D01*
X701270D01*
X699771Y490044D01*
Y491544D01*
Y490044D01*
X698271Y488545D01*
X696772D01*
X695272Y490044D01*
Y493043D01*
X696772Y494543D01*
X555510Y497332D02*
X557009Y498831D01*
Y501830D01*
X555510Y503330D01*
X549512D01*
X548012Y501830D01*
Y498831D01*
X549512Y497332D01*
X548012Y488335D02*
Y494333D01*
X554010Y488335D01*
X555510D01*
X557009Y489834D01*
Y492833D01*
X555510Y494333D01*
X555320Y409812D02*
X556819Y411311D01*
Y414310D01*
X555320Y415810D01*
X549322D01*
X547822Y414310D01*
Y411311D01*
X549322Y409812D01*
X547822Y406813D02*
Y403814D01*
Y405313D01*
X556819D01*
X555320Y406813D01*
X576269Y458040D02*
X567272D01*
Y453541D01*
X568772Y452042D01*
X570271D01*
X571771Y453541D01*
Y458040D01*
Y453541D01*
X573270Y452042D01*
X574770D01*
X576269Y453541D01*
Y458040D01*
X574770Y443045D02*
X576269Y444544D01*
Y447543D01*
X574770Y449043D01*
X568772D01*
X567272Y447543D01*
Y444544D01*
X568772Y443045D01*
X571771D01*
Y446044D01*
X567272Y440046D02*
X573270D01*
X576269Y437047D01*
X573270Y434048D01*
X567272D01*
X571771D01*
Y440046D01*
X567272Y431049D02*
Y428050D01*
Y429549D01*
X576269D01*
X574770Y431049D01*
X576269Y417553D02*
Y423551D01*
X571771D01*
X573270Y420552D01*
Y419053D01*
X571771Y417553D01*
X568772D01*
X567272Y419053D01*
Y422052D01*
X568772Y423551D01*
X574770Y414554D02*
X576269Y413055D01*
Y410056D01*
X574770Y408556D01*
X573270D01*
X571771Y410056D01*
Y411555D01*
Y410056D01*
X570271Y408556D01*
X568772D01*
X567272Y410056D01*
Y413055D01*
X568772Y414554D01*
X623282Y631660D02*
X635278D01*
X631279Y627661D01*
X635278Y623663D01*
X623282D01*
Y619664D02*
Y615665D01*
Y617665D01*
X631279D01*
Y619664D01*
Y601670D02*
Y607668D01*
X629280Y609667D01*
X625281D01*
X623282Y607668D01*
Y601670D01*
X631279Y597671D02*
X623282D01*
X627281D01*
X629280Y595672D01*
X631279Y593672D01*
Y591673D01*
X623282Y583675D02*
Y579677D01*
X625281Y577677D01*
X629280D01*
X631279Y579677D01*
Y583675D01*
X629280Y585675D01*
X625281D01*
X623282Y583675D01*
X633279Y565681D02*
X635278Y567681D01*
Y571679D01*
X633279Y573679D01*
X631279D01*
X629280Y571679D01*
Y567681D01*
X627281Y565681D01*
X625281D01*
X623282Y567681D01*
Y571679D01*
X625281Y573679D01*
X635278Y561683D02*
X623282D01*
Y555685D01*
X625281Y553685D01*
X633279D01*
X635278Y555685D01*
Y561683D01*
X867370Y410542D02*
X868869Y412042D01*
Y415041D01*
X867370Y416540D01*
X861372D01*
X859872Y415041D01*
Y412042D01*
X861372Y410542D01*
X859872Y403044D02*
X868869D01*
X864371Y407543D01*
Y401545D01*
X867870Y497542D02*
X869369Y499041D01*
Y502040D01*
X867870Y503540D01*
X861872D01*
X860372Y502040D01*
Y499041D01*
X861872Y497542D01*
X867870Y494543D02*
X869369Y493043D01*
Y490044D01*
X867870Y488545D01*
X866370D01*
X864871Y490044D01*
Y491544D01*
Y490044D01*
X863371Y488545D01*
X861872D01*
X860372Y490044D01*
Y493043D01*
X861872Y494543D01*
X720610Y497332D02*
X722109Y498831D01*
Y501830D01*
X720610Y503330D01*
X714612D01*
X713112Y501830D01*
Y498831D01*
X714612Y497332D01*
X713112Y488335D02*
Y494333D01*
X719110Y488335D01*
X720610D01*
X722109Y489834D01*
Y492833D01*
X720610Y494333D01*
X720420Y409812D02*
X721919Y411311D01*
Y414310D01*
X720420Y415810D01*
X714422D01*
X712922Y414310D01*
Y411311D01*
X714422Y409812D01*
X712922Y406813D02*
Y403814D01*
Y405313D01*
X721919D01*
X720420Y406813D01*
X741369Y458040D02*
X732372D01*
Y453541D01*
X733872Y452042D01*
X735371D01*
X736871Y453541D01*
Y458040D01*
Y453541D01*
X738370Y452042D01*
X739870D01*
X741369Y453541D01*
Y458040D01*
X739870Y443045D02*
X741369Y444544D01*
Y447543D01*
X739870Y449043D01*
X733872D01*
X732372Y447543D01*
Y444544D01*
X733872Y443045D01*
X736871D01*
Y446044D01*
X732372Y440046D02*
X738370D01*
X741369Y437047D01*
X738370Y434048D01*
X732372D01*
X736871D01*
Y440046D01*
X732372Y431049D02*
Y428050D01*
Y429549D01*
X741369D01*
X739870Y431049D01*
X741369Y417553D02*
Y423551D01*
X736871D01*
X738370Y420552D01*
Y419053D01*
X736871Y417553D01*
X733872D01*
X732372Y419053D01*
Y422052D01*
X733872Y423551D01*
X739870Y414554D02*
X741369Y413055D01*
Y410056D01*
X739870Y408556D01*
X738370D01*
X736871Y410056D01*
Y411555D01*
Y410056D01*
X735371Y408556D01*
X733872D01*
X732372Y410056D01*
Y413055D01*
X733872Y414554D01*
X788382Y631660D02*
X800378D01*
X796379Y627661D01*
X800378Y623663D01*
X788382D01*
Y619664D02*
Y615665D01*
Y617665D01*
X796379D01*
Y619664D01*
Y601670D02*
Y607668D01*
X794380Y609667D01*
X790381D01*
X788382Y607668D01*
Y601670D01*
X796379Y597671D02*
X788382D01*
X792381D01*
X794380Y595672D01*
X796379Y593672D01*
Y591673D01*
X788382Y583675D02*
Y579677D01*
X790381Y577677D01*
X794380D01*
X796379Y579677D01*
Y583675D01*
X794380Y585675D01*
X790381D01*
X788382Y583675D01*
X798379Y565681D02*
X800378Y567681D01*
Y571679D01*
X798379Y573679D01*
X796379D01*
X794380Y571679D01*
Y567681D01*
X792381Y565681D01*
X790381D01*
X788382Y567681D01*
Y571679D01*
X790381Y573679D01*
X800378Y561683D02*
X788382D01*
Y555685D01*
X790381Y553685D01*
X798379D01*
X800378Y555685D01*
Y561683D01*
X714474Y329538D02*
X712975Y328039D01*
Y325040D01*
X714474Y323540D01*
X720473D01*
X721972Y325040D01*
Y328039D01*
X720473Y329538D01*
X721972Y337036D02*
X712975D01*
X717474Y332537D01*
Y338535D01*
X713975Y242538D02*
X712475Y241039D01*
Y238039D01*
X713975Y236540D01*
X719973D01*
X721472Y238039D01*
Y241039D01*
X719973Y242538D01*
X713975Y245537D02*
X712475Y247037D01*
Y250036D01*
X713975Y251535D01*
X715474D01*
X716973Y250036D01*
Y248536D01*
Y250036D01*
X718473Y251535D01*
X719973D01*
X721472Y250036D01*
Y247037D01*
X719973Y245537D01*
X861235Y242748D02*
X859735Y241249D01*
Y238249D01*
X861235Y236750D01*
X867233D01*
X868732Y238249D01*
Y241249D01*
X867233Y242748D01*
X868732Y251745D02*
Y245747D01*
X862734Y251745D01*
X861235D01*
X859735Y250246D01*
Y247247D01*
X861235Y245747D01*
X861424Y330268D02*
X859925Y328769D01*
Y325770D01*
X861424Y324270D01*
X867423D01*
X868922Y325770D01*
Y328769D01*
X867423Y330268D01*
X868922Y333267D02*
Y336266D01*
Y334767D01*
X859925D01*
X861424Y333267D01*
X840475Y282040D02*
X849472D01*
Y286539D01*
X847973Y288038D01*
X846473D01*
X844974Y286539D01*
Y282040D01*
Y286539D01*
X843474Y288038D01*
X841974D01*
X840475Y286539D01*
Y282040D01*
X841974Y297035D02*
X840475Y295536D01*
Y292537D01*
X841974Y291037D01*
X847973D01*
X849472Y292537D01*
Y295536D01*
X847973Y297035D01*
X844974D01*
Y294036D01*
X849472Y300034D02*
X843474D01*
X840475Y303033D01*
X843474Y306032D01*
X849472D01*
X844974D01*
Y300034D01*
X849472Y309031D02*
Y312030D01*
Y310531D01*
X840475D01*
X841974Y309031D01*
X840475Y322527D02*
Y316529D01*
X844974D01*
X843474Y319528D01*
Y321027D01*
X844974Y322527D01*
X847973D01*
X849472Y321027D01*
Y318028D01*
X847973Y316529D01*
X841974Y325526D02*
X840475Y327025D01*
Y330024D01*
X841974Y331524D01*
X843474D01*
X844974Y330024D01*
Y328525D01*
Y330024D01*
X846473Y331524D01*
X847973D01*
X849472Y330024D01*
Y327025D01*
X847973Y325526D01*
X793462Y108420D02*
X781466D01*
X785465Y112419D01*
X781466Y116417D01*
X793462D01*
Y120416D02*
Y124415D01*
Y122416D01*
X785465D01*
Y120416D01*
Y138410D02*
Y132412D01*
X787464Y130413D01*
X791463D01*
X793462Y132412D01*
Y138410D01*
X785465Y142409D02*
X793462D01*
X789463D01*
X787464Y144408D01*
X785465Y146408D01*
Y148407D01*
X793462Y156404D02*
Y160403D01*
X791463Y162403D01*
X787464D01*
X785465Y160403D01*
Y156404D01*
X787464Y154405D01*
X791463D01*
X793462Y156404D01*
X783465Y174399D02*
X781466Y172399D01*
Y168401D01*
X783465Y166401D01*
X785465D01*
X787464Y168401D01*
Y172399D01*
X789463Y174399D01*
X791463D01*
X793462Y172399D01*
Y168401D01*
X791463Y166401D01*
X781466Y178397D02*
X793462D01*
Y184395D01*
X791463Y186395D01*
X783465D01*
X781466Y184395D01*
Y178397D01*
X549375Y329538D02*
X547875Y328039D01*
Y325040D01*
X549375Y323540D01*
X555373D01*
X556872Y325040D01*
Y328039D01*
X555373Y329538D01*
X556872Y337036D02*
X547875D01*
X552374Y332537D01*
Y338535D01*
X548875Y242538D02*
X547375Y241039D01*
Y238039D01*
X548875Y236540D01*
X554873D01*
X556372Y238039D01*
Y241039D01*
X554873Y242538D01*
X548875Y245537D02*
X547375Y247037D01*
Y250036D01*
X548875Y251535D01*
X550374D01*
X551874Y250036D01*
Y248536D01*
Y250036D01*
X553373Y251535D01*
X554873D01*
X556372Y250036D01*
Y247037D01*
X554873Y245537D01*
X696134Y242748D02*
X694635Y241249D01*
Y238249D01*
X696134Y236750D01*
X702133D01*
X703632Y238249D01*
Y241249D01*
X702133Y242748D01*
X703632Y251745D02*
Y245747D01*
X697634Y251745D01*
X696134D01*
X694635Y250246D01*
Y247247D01*
X696134Y245747D01*
X696324Y330268D02*
X694825Y328769D01*
Y325770D01*
X696324Y324270D01*
X702323D01*
X703822Y325770D01*
Y328769D01*
X702323Y330268D01*
X703822Y333267D02*
Y336266D01*
Y334767D01*
X694825D01*
X696324Y333267D01*
X675375Y282040D02*
X684372D01*
Y286539D01*
X682873Y288038D01*
X681373D01*
X679874Y286539D01*
Y282040D01*
Y286539D01*
X678374Y288038D01*
X676874D01*
X675375Y286539D01*
Y282040D01*
X676874Y297035D02*
X675375Y295536D01*
Y292537D01*
X676874Y291037D01*
X682873D01*
X684372Y292537D01*
Y295536D01*
X682873Y297035D01*
X679874D01*
Y294036D01*
X684372Y300034D02*
X678374D01*
X675375Y303033D01*
X678374Y306032D01*
X684372D01*
X679874D01*
Y300034D01*
X684372Y309031D02*
Y312030D01*
Y310531D01*
X675375D01*
X676874Y309031D01*
X675375Y322527D02*
Y316529D01*
X679874D01*
X678374Y319528D01*
Y321027D01*
X679874Y322527D01*
X682873D01*
X684372Y321027D01*
Y318028D01*
X682873Y316529D01*
X676874Y325526D02*
X675375Y327025D01*
Y330024D01*
X676874Y331524D01*
X678374D01*
X679874Y330024D01*
Y328525D01*
Y330024D01*
X681373Y331524D01*
X682873D01*
X684372Y330024D01*
Y327025D01*
X682873Y325526D01*
X628362Y108420D02*
X616366D01*
X620365Y112419D01*
X616366Y116417D01*
X628362D01*
Y120416D02*
Y124415D01*
Y122416D01*
X620365D01*
Y120416D01*
Y138410D02*
Y132412D01*
X622364Y130413D01*
X626363D01*
X628362Y132412D01*
Y138410D01*
X620365Y142409D02*
X628362D01*
X624363D01*
X622364Y144408D01*
X620365Y146408D01*
Y148407D01*
X628362Y156404D02*
Y160403D01*
X626363Y162403D01*
X622364D01*
X620365Y160403D01*
Y156404D01*
X622364Y154405D01*
X626363D01*
X628362Y156404D01*
X618365Y174399D02*
X616366Y172399D01*
Y168401D01*
X618365Y166401D01*
X620365D01*
X622364Y168401D01*
Y172399D01*
X624363Y174399D01*
X626363D01*
X628362Y172399D01*
Y168401D01*
X626363Y166401D01*
X616366Y178397D02*
X628362D01*
Y184395D01*
X626363Y186395D01*
X618365D01*
X616366Y184395D01*
Y178397D01*
X384274Y329538D02*
X382775Y328039D01*
Y325040D01*
X384274Y323540D01*
X390273D01*
X391772Y325040D01*
Y328039D01*
X390273Y329538D01*
X391772Y337036D02*
X382775D01*
X387273Y332537D01*
Y338535D01*
X383774Y242538D02*
X382275Y241039D01*
Y238039D01*
X383774Y236540D01*
X389773D01*
X391272Y238039D01*
Y241039D01*
X389773Y242538D01*
X383774Y245537D02*
X382275Y247037D01*
Y250036D01*
X383774Y251535D01*
X385274D01*
X386773Y250036D01*
Y248536D01*
Y250036D01*
X388273Y251535D01*
X389773D01*
X391272Y250036D01*
Y247037D01*
X389773Y245537D01*
X531035Y242748D02*
X529535Y241249D01*
Y238249D01*
X531035Y236750D01*
X537033D01*
X538532Y238249D01*
Y241249D01*
X537033Y242748D01*
X538532Y251745D02*
Y245747D01*
X532534Y251745D01*
X531035D01*
X529535Y250246D01*
Y247247D01*
X531035Y245747D01*
X531225Y330268D02*
X529725Y328769D01*
Y325770D01*
X531225Y324270D01*
X537223D01*
X538722Y325770D01*
Y328769D01*
X537223Y330268D01*
X538722Y333267D02*
Y336266D01*
Y334767D01*
X529725D01*
X531225Y333267D01*
X510275Y282040D02*
X519272D01*
Y286539D01*
X517773Y288038D01*
X516273D01*
X514773Y286539D01*
Y282040D01*
Y286539D01*
X513274Y288038D01*
X511774D01*
X510275Y286539D01*
Y282040D01*
X511774Y297035D02*
X510275Y295536D01*
Y292537D01*
X511774Y291037D01*
X517773D01*
X519272Y292537D01*
Y295536D01*
X517773Y297035D01*
X514773D01*
Y294036D01*
X519272Y300034D02*
X513274D01*
X510275Y303033D01*
X513274Y306032D01*
X519272D01*
X514773D01*
Y300034D01*
X519272Y309031D02*
Y312030D01*
Y310531D01*
X510275D01*
X511774Y309031D01*
X510275Y322527D02*
Y316529D01*
X514773D01*
X513274Y319528D01*
Y321027D01*
X514773Y322527D01*
X517773D01*
X519272Y321027D01*
Y318028D01*
X517773Y316529D01*
X511774Y325526D02*
X510275Y327025D01*
Y330024D01*
X511774Y331524D01*
X513274D01*
X514773Y330024D01*
Y328525D01*
Y330024D01*
X516273Y331524D01*
X517773D01*
X519272Y330024D01*
Y327025D01*
X517773Y325526D01*
X463262Y108420D02*
X451266D01*
X455265Y112419D01*
X451266Y116417D01*
X463262D01*
Y120416D02*
Y124415D01*
Y122416D01*
X455265D01*
Y120416D01*
Y138410D02*
Y132412D01*
X457264Y130413D01*
X461263D01*
X463262Y132412D01*
Y138410D01*
X455265Y142409D02*
X463262D01*
X459263D01*
X457264Y144408D01*
X455265Y146408D01*
Y148407D01*
X463262Y156404D02*
Y160403D01*
X461263Y162403D01*
X457264D01*
X455265Y160403D01*
Y156404D01*
X457264Y154405D01*
X461263D01*
X463262Y156404D01*
X453265Y174399D02*
X451266Y172399D01*
Y168401D01*
X453265Y166401D01*
X455265D01*
X457264Y168401D01*
Y172399D01*
X459263Y174399D01*
X461263D01*
X463262Y172399D01*
Y168401D01*
X461263Y166401D01*
X451266Y178397D02*
X463262D01*
Y184395D01*
X461263Y186395D01*
X453265D01*
X451266Y184395D01*
Y178397D01*
X219174Y329538D02*
X217675Y328039D01*
Y325040D01*
X219174Y323540D01*
X225173D01*
X226672Y325040D01*
Y328039D01*
X225173Y329538D01*
X226672Y337036D02*
X217675D01*
X222174Y332537D01*
Y338535D01*
X218675Y242538D02*
X217175Y241039D01*
Y238039D01*
X218675Y236540D01*
X224673D01*
X226172Y238039D01*
Y241039D01*
X224673Y242538D01*
X218675Y245537D02*
X217175Y247037D01*
Y250036D01*
X218675Y251535D01*
X220174D01*
X221674Y250036D01*
Y248536D01*
Y250036D01*
X223173Y251535D01*
X224673D01*
X226172Y250036D01*
Y247037D01*
X224673Y245537D01*
X365934Y242748D02*
X364435Y241249D01*
Y238249D01*
X365934Y236750D01*
X371933D01*
X373432Y238249D01*
Y241249D01*
X371933Y242748D01*
X373432Y251745D02*
Y245747D01*
X367434Y251745D01*
X365934D01*
X364435Y250246D01*
Y247247D01*
X365934Y245747D01*
X366124Y330268D02*
X364625Y328769D01*
Y325770D01*
X366124Y324270D01*
X372123D01*
X373622Y325770D01*
Y328769D01*
X372123Y330268D01*
X373622Y333267D02*
Y336266D01*
Y334767D01*
X364625D01*
X366124Y333267D01*
X345175Y282040D02*
X354172D01*
Y286539D01*
X352673Y288038D01*
X351173D01*
X349674Y286539D01*
Y282040D01*
Y286539D01*
X348174Y288038D01*
X346674D01*
X345175Y286539D01*
Y282040D01*
X346674Y297035D02*
X345175Y295536D01*
Y292537D01*
X346674Y291037D01*
X352673D01*
X354172Y292537D01*
Y295536D01*
X352673Y297035D01*
X349674D01*
Y294036D01*
X354172Y300034D02*
X348174D01*
X345175Y303033D01*
X348174Y306032D01*
X354172D01*
X349674D01*
Y300034D01*
X354172Y309031D02*
Y312030D01*
Y310531D01*
X345175D01*
X346674Y309031D01*
X345175Y322527D02*
Y316529D01*
X349674D01*
X348174Y319528D01*
Y321027D01*
X349674Y322527D01*
X352673D01*
X354172Y321027D01*
Y318028D01*
X352673Y316529D01*
X346674Y325526D02*
X345175Y327025D01*
Y330024D01*
X346674Y331524D01*
X348174D01*
X349674Y330024D01*
Y328525D01*
Y330024D01*
X351173Y331524D01*
X352673D01*
X354172Y330024D01*
Y327025D01*
X352673Y325526D01*
X298162Y108420D02*
X286166D01*
X290165Y112419D01*
X286166Y116417D01*
X298162D01*
Y120416D02*
Y124415D01*
Y122416D01*
X290165D01*
Y120416D01*
Y138410D02*
Y132412D01*
X292164Y130413D01*
X296163D01*
X298162Y132412D01*
Y138410D01*
X290165Y142409D02*
X298162D01*
X294163D01*
X292164Y144408D01*
X290165Y146408D01*
Y148407D01*
X298162Y156404D02*
Y160403D01*
X296163Y162403D01*
X292164D01*
X290165Y160403D01*
Y156404D01*
X292164Y154405D01*
X296163D01*
X298162Y156404D01*
X288165Y174399D02*
X286166Y172399D01*
Y168401D01*
X288165Y166401D01*
X290165D01*
X292164Y168401D01*
Y172399D01*
X294163Y174399D01*
X296163D01*
X298162Y172399D01*
Y168401D01*
X296163Y166401D01*
X286166Y178397D02*
X298162D01*
Y184395D01*
X296163Y186395D01*
X288165D01*
X286166Y184395D01*
Y178397D01*
X54075Y329538D02*
X52575Y328039D01*
Y325040D01*
X54075Y323540D01*
X60073D01*
X61572Y325040D01*
Y328039D01*
X60073Y329538D01*
X61572Y337036D02*
X52575D01*
X57073Y332537D01*
Y338535D01*
X53575Y242538D02*
X52075Y241039D01*
Y238039D01*
X53575Y236540D01*
X59573D01*
X61072Y238039D01*
Y241039D01*
X59573Y242538D01*
X53575Y245537D02*
X52075Y247037D01*
Y250036D01*
X53575Y251535D01*
X55074D01*
X56574Y250036D01*
Y248536D01*
Y250036D01*
X58073Y251535D01*
X59573D01*
X61072Y250036D01*
Y247037D01*
X59573Y245537D01*
X200835Y242748D02*
X199335Y241249D01*
Y238249D01*
X200835Y236750D01*
X206833D01*
X208332Y238249D01*
Y241249D01*
X206833Y242748D01*
X208332Y251745D02*
Y245747D01*
X202334Y251745D01*
X200835D01*
X199335Y250246D01*
Y247247D01*
X200835Y245747D01*
X201024Y330268D02*
X199525Y328769D01*
Y325770D01*
X201024Y324270D01*
X207023D01*
X208522Y325770D01*
Y328769D01*
X207023Y330268D01*
X208522Y333267D02*
Y336266D01*
Y334767D01*
X199525D01*
X201024Y333267D01*
X180075Y282040D02*
X189072D01*
Y286539D01*
X187573Y288038D01*
X186073D01*
X184573Y286539D01*
Y282040D01*
Y286539D01*
X183074Y288038D01*
X181574D01*
X180075Y286539D01*
Y282040D01*
X181574Y297035D02*
X180075Y295536D01*
Y292537D01*
X181574Y291037D01*
X187573D01*
X189072Y292537D01*
Y295536D01*
X187573Y297035D01*
X184573D01*
Y294036D01*
X189072Y300034D02*
X183074D01*
X180075Y303033D01*
X183074Y306032D01*
X189072D01*
X184573D01*
Y300034D01*
X189072Y309031D02*
Y312030D01*
Y310531D01*
X180075D01*
X181574Y309031D01*
X180075Y322527D02*
Y316529D01*
X184573D01*
X183074Y319528D01*
Y321027D01*
X184573Y322527D01*
X187573D01*
X189072Y321027D01*
Y318028D01*
X187573Y316529D01*
X181574Y325526D02*
X180075Y327025D01*
Y330024D01*
X181574Y331524D01*
X183074D01*
X184573Y330024D01*
Y328525D01*
Y330024D01*
X186073Y331524D01*
X187573D01*
X189072Y330024D01*
Y327025D01*
X187573Y325526D01*
X133062Y108420D02*
X121066D01*
X125065Y112419D01*
X121066Y116417D01*
X133062D01*
Y120416D02*
Y124415D01*
Y122416D01*
X125065D01*
Y120416D01*
Y138410D02*
Y132412D01*
X127064Y130413D01*
X131063D01*
X133062Y132412D01*
Y138410D01*
X125065Y142409D02*
X133062D01*
X129063D01*
X127064Y144408D01*
X125065Y146408D01*
Y148407D01*
X133062Y156404D02*
Y160403D01*
X131063Y162403D01*
X127064D01*
X125065Y160403D01*
Y156404D01*
X127064Y154405D01*
X131063D01*
X133062Y156404D01*
X123065Y174399D02*
X121066Y172399D01*
Y168401D01*
X123065Y166401D01*
X125065D01*
X127064Y168401D01*
Y172399D01*
X129063Y174399D01*
X131063D01*
X133062Y172399D01*
Y168401D01*
X131063Y166401D01*
X121066Y178397D02*
X133062D01*
Y184395D01*
X131063Y186395D01*
X123065D01*
X121066Y184395D01*
Y178397D01*
D24*
X199972Y432890D02*
Y436440D01*
X207972Y432890D02*
Y436440D01*
X75232Y538080D02*
X185232D01*
X52522Y468660D02*
Y472210D01*
X60522Y468660D02*
Y472210D01*
X60702Y433050D02*
Y436600D01*
X52702Y433050D02*
Y436600D01*
X207972Y468640D02*
Y472190D01*
X199972Y468640D02*
Y472190D01*
X190212Y498310D02*
Y511010D01*
X177512D02*
X190212D01*
X177512D02*
X190212Y498310D01*
X365072Y432890D02*
Y436440D01*
X373072Y432890D02*
Y436440D01*
X240332Y538080D02*
X350332D01*
X217622Y468660D02*
Y472210D01*
X225622Y468660D02*
Y472210D01*
X225802Y433050D02*
Y436600D01*
X217802Y433050D02*
Y436600D01*
X373072Y468640D02*
Y472190D01*
X365072Y468640D02*
Y472190D01*
X355312Y498310D02*
Y511010D01*
X342612D02*
X355312D01*
X342612D02*
X355312Y498310D01*
X530172Y432890D02*
Y436440D01*
X538172Y432890D02*
Y436440D01*
X405432Y538080D02*
X515432D01*
X382722Y468660D02*
Y472210D01*
X390722Y468660D02*
Y472210D01*
X390902Y433050D02*
Y436600D01*
X382902Y433050D02*
Y436600D01*
X538172Y468640D02*
Y472190D01*
X530172Y468640D02*
Y472190D01*
X520412Y498310D02*
Y511010D01*
X507712D02*
X520412D01*
X507712D02*
X520412Y498310D01*
X695272Y432890D02*
Y436440D01*
X703272Y432890D02*
Y436440D01*
X570532Y538080D02*
X680532D01*
X547822Y468660D02*
Y472210D01*
X555822Y468660D02*
Y472210D01*
X556002Y433050D02*
Y436600D01*
X548002Y433050D02*
Y436600D01*
X703272Y468640D02*
Y472190D01*
X695272Y468640D02*
Y472190D01*
X685512Y498310D02*
Y511010D01*
X672812D02*
X685512D01*
X672812D02*
X685512Y498310D01*
X860372Y432890D02*
Y436440D01*
X868372Y432890D02*
Y436440D01*
X735632Y538080D02*
X845632D01*
X712922Y468660D02*
Y472210D01*
X720922Y468660D02*
Y472210D01*
X721102Y433050D02*
Y436600D01*
X713102Y433050D02*
Y436600D01*
X868372Y468640D02*
Y472190D01*
X860372Y468640D02*
Y472190D01*
X850612Y498310D02*
Y511010D01*
X837912D02*
X850612D01*
X837912D02*
X850612Y498310D01*
X721472Y307190D02*
Y303640D01*
X713472Y307190D02*
Y303640D01*
X846212Y202000D02*
X736212D01*
X868922Y271420D02*
Y267870D01*
X860922Y271420D02*
Y267870D01*
X860742Y307030D02*
Y303480D01*
X868742Y307030D02*
Y303480D01*
X713472Y271440D02*
Y267890D01*
X721472Y271440D02*
Y267890D01*
X731232Y241770D02*
Y229070D01*
X743932D02*
X731232D01*
X743932D02*
X731232Y241770D01*
X556372Y307190D02*
Y303640D01*
X548372Y307190D02*
Y303640D01*
X681112Y202000D02*
X571112D01*
X703822Y271420D02*
Y267870D01*
X695822Y271420D02*
Y267870D01*
X695642Y307030D02*
Y303480D01*
X703642Y307030D02*
Y303480D01*
X548372Y271440D02*
Y267890D01*
X556372Y271440D02*
Y267890D01*
X566132Y241770D02*
Y229070D01*
X578832D02*
X566132D01*
X578832D02*
X566132Y241770D01*
X391272Y307190D02*
Y303640D01*
X383272Y307190D02*
Y303640D01*
X516012Y202000D02*
X406012D01*
X538722Y271420D02*
Y267870D01*
X530722Y271420D02*
Y267870D01*
X530542Y307030D02*
Y303480D01*
X538542Y307030D02*
Y303480D01*
X383272Y271440D02*
Y267890D01*
X391272Y271440D02*
Y267890D01*
X401032Y241770D02*
Y229070D01*
X413732D02*
X401032D01*
X413732D02*
X401032Y241770D01*
X226172Y307190D02*
Y303640D01*
X218172Y307190D02*
Y303640D01*
X350912Y202000D02*
X240912D01*
X373622Y271420D02*
Y267870D01*
X365622Y271420D02*
Y267870D01*
X365442Y307030D02*
Y303480D01*
X373442Y307030D02*
Y303480D01*
X218172Y271440D02*
Y267890D01*
X226172Y271440D02*
Y267890D01*
X235932Y241770D02*
Y229070D01*
X248632D02*
X235932D01*
X248632D02*
X235932Y241770D01*
X61072Y307190D02*
Y303640D01*
X53072Y307190D02*
Y303640D01*
X185812Y202000D02*
X75812D01*
X208522Y271420D02*
Y267870D01*
X200522Y271420D02*
Y267870D01*
X200342Y307030D02*
Y303480D01*
X208342Y307030D02*
Y303480D01*
X53072Y271440D02*
Y267890D01*
X61072Y271440D02*
Y267890D01*
X70832Y241770D02*
Y229070D01*
X83532D02*
X70832D01*
X83532D02*
X70832Y241770D01*
D25*
X65768Y516694D02*
X195768D01*
X65768Y401694D02*
Y516694D01*
Y401694D02*
X195768D01*
Y516694D01*
X230868D02*
X360868D01*
X230868Y401694D02*
Y516694D01*
Y401694D02*
X360868D01*
Y516694D01*
X395968D02*
X525968D01*
X395968Y401694D02*
Y516694D01*
Y401694D02*
X525968D01*
Y516694D01*
X561068D02*
X691068D01*
X561068Y401694D02*
Y516694D01*
Y401694D02*
X691068D01*
Y516694D01*
X726168D02*
X856168D01*
X726168Y401694D02*
Y516694D01*
Y401694D02*
X856168D01*
Y516694D01*
X855676Y223386D02*
X725676D01*
X855676Y338386D02*
Y223386D01*
Y338386D02*
X725676D01*
Y223386D01*
X690576D02*
X560576D01*
X690576Y338386D02*
Y223386D01*
Y338386D02*
X560576D01*
Y223386D01*
X525476D02*
X395476D01*
X525476Y338386D02*
Y223386D01*
Y338386D02*
X395476D01*
Y223386D01*
X360376D02*
X230376D01*
X360376Y338386D02*
Y223386D01*
Y338386D02*
X230376D01*
Y223386D01*
X195276D02*
X65276D01*
X195276Y338386D02*
Y223386D01*
Y338386D02*
X65276D01*
Y223386D01*
M02*
