M48
;Layer_Color=9474304
;FILE_FORMAT=4:4
METRIC,LZ
;TYPE=PLATED
;TYPE=NON_PLATED
T2F00S00C1.5000
%
G90
G05
T02
G00X00768422Y0035204
M15
G01X00813422
M16
G00X00603322Y0035204
M15
G01X00648322
M16
G00X00438222Y0035204
M15
G01X00483222
M16
G00X00273122Y0035204
M15
G01X00318122
M16
G00X00108022Y0035204
M15
G01X00153022
M16
G00X00153022Y0038804
M15
G01X00108022
M16
G00X00318122Y0038804
M15
G01X00273122
M16
G00X00483222Y0038804
M15
G01X00438222
M16
G00X00648322Y0038804
M15
G01X00603322
M16
G00X00813422Y0038804
M15
G01X00768422
M16
M17
M30
