G04 Layer_Color=128*
%FSLAX44Y44*%
%MOMM*%
G71*
G01*
G75*
%ADD31C,0.0508*%
D31*
X123022Y388040D02*
X138022D01*
X130522Y380540D02*
Y395540D01*
X135972Y501540D02*
X138972D01*
X137472Y500040D02*
Y503040D01*
X190972Y431040D02*
X193972D01*
X192472Y429540D02*
Y432540D01*
X146768Y459623D02*
X149768D01*
X148268Y458123D02*
Y461123D01*
X69332Y503390D02*
X72332D01*
X70832Y501890D02*
Y504890D01*
X80762Y483070D02*
X83762D01*
X82262Y481570D02*
Y484570D01*
X149342Y569430D02*
X152342D01*
X150842Y567930D02*
Y570930D01*
X176012Y528790D02*
X179012D01*
X177512Y527290D02*
Y530290D01*
X90742Y411270D02*
X93742D01*
X92242Y409770D02*
Y412770D01*
X98362Y411270D02*
X101362D01*
X99862Y409770D02*
Y412770D01*
X85842Y495770D02*
X88842D01*
X87342Y494270D02*
Y497270D01*
X89652Y474180D02*
X92652D01*
X91152Y472680D02*
Y475680D01*
X130292Y476720D02*
X133292D01*
X131792Y475220D02*
Y478220D01*
X84321Y585940D02*
X87321D01*
X85821Y584440D02*
Y587440D01*
X84321Y578320D02*
X87321D01*
X85821Y576820D02*
Y579820D01*
X69332Y511010D02*
X72332D01*
X70832Y509510D02*
Y512510D01*
X182362Y460210D02*
X185362D01*
X183862Y458710D02*
Y461710D01*
X182362Y467830D02*
X185362D01*
X183862Y466330D02*
Y469330D01*
X151522Y626110D02*
X154522D01*
X153022Y624610D02*
Y627610D01*
X151522Y632460D02*
X154522D01*
X153022Y630960D02*
Y633960D01*
X151522Y638810D02*
X154522D01*
X153022Y637310D02*
Y640310D01*
X92192Y466560D02*
X95192D01*
X93692Y465060D02*
Y468060D01*
X123942Y467830D02*
X126942D01*
X125442Y466330D02*
Y469330D01*
X135372Y461480D02*
X138372D01*
X136872Y459980D02*
Y462980D01*
X126768Y452964D02*
X129768D01*
X128268Y451464D02*
Y454464D01*
X146802Y471728D02*
X149802D01*
X148302Y470228D02*
Y473228D01*
X125212Y552920D02*
X128212D01*
X126712Y551420D02*
Y554420D01*
X148072Y500850D02*
X151072D01*
X149572Y499350D02*
Y502350D01*
X96002Y528790D02*
X99002D01*
X97502Y527290D02*
Y530290D01*
X155692Y540220D02*
X158692D01*
X157192Y538720D02*
Y541720D01*
X107732Y540520D02*
X110732D01*
X109232Y539020D02*
Y542020D01*
X187472Y489040D02*
X190472D01*
X188972Y487540D02*
Y490540D01*
X101972Y502540D02*
X104972D01*
X103472Y501040D02*
Y504040D01*
X288122Y388040D02*
X303122D01*
X295622Y380540D02*
Y395540D01*
X301072Y501540D02*
X304072D01*
X302572Y500040D02*
Y503040D01*
X356072Y431040D02*
X359072D01*
X357572Y429540D02*
Y432540D01*
X311868Y459623D02*
X314868D01*
X313368Y458123D02*
Y461123D01*
X234432Y503390D02*
X237432D01*
X235932Y501890D02*
Y504890D01*
X245862Y483070D02*
X248862D01*
X247362Y481570D02*
Y484570D01*
X314442Y569430D02*
X317442D01*
X315942Y567930D02*
Y570930D01*
X341112Y528790D02*
X344112D01*
X342612Y527290D02*
Y530290D01*
X255842Y411270D02*
X258842D01*
X257342Y409770D02*
Y412770D01*
X263462Y411270D02*
X266462D01*
X264962Y409770D02*
Y412770D01*
X250942Y495770D02*
X253942D01*
X252442Y494270D02*
Y497270D01*
X254752Y474180D02*
X257752D01*
X256252Y472680D02*
Y475680D01*
X295392Y476720D02*
X298392D01*
X296892Y475220D02*
Y478220D01*
X249421Y585940D02*
X252421D01*
X250921Y584440D02*
Y587440D01*
X249421Y578320D02*
X252421D01*
X250921Y576820D02*
Y579820D01*
X234432Y511010D02*
X237432D01*
X235932Y509510D02*
Y512510D01*
X347462Y460210D02*
X350462D01*
X348962Y458710D02*
Y461710D01*
X347462Y467830D02*
X350462D01*
X348962Y466330D02*
Y469330D01*
X316622Y626110D02*
X319622D01*
X318122Y624610D02*
Y627610D01*
X316622Y632460D02*
X319622D01*
X318122Y630960D02*
Y633960D01*
X316622Y638810D02*
X319622D01*
X318122Y637310D02*
Y640310D01*
X257292Y466560D02*
X260292D01*
X258792Y465060D02*
Y468060D01*
X289042Y467830D02*
X292042D01*
X290542Y466330D02*
Y469330D01*
X300472Y461480D02*
X303472D01*
X301972Y459980D02*
Y462980D01*
X291868Y452964D02*
X294868D01*
X293368Y451464D02*
Y454464D01*
X311902Y471728D02*
X314902D01*
X313402Y470228D02*
Y473228D01*
X290312Y552920D02*
X293312D01*
X291812Y551420D02*
Y554420D01*
X313172Y500850D02*
X316172D01*
X314672Y499350D02*
Y502350D01*
X261102Y528790D02*
X264102D01*
X262602Y527290D02*
Y530290D01*
X320792Y540220D02*
X323792D01*
X322292Y538720D02*
Y541720D01*
X272832Y540520D02*
X275832D01*
X274332Y539020D02*
Y542020D01*
X352572Y489040D02*
X355572D01*
X354072Y487540D02*
Y490540D01*
X267072Y502540D02*
X270072D01*
X268572Y501040D02*
Y504040D01*
X453222Y388040D02*
X468222D01*
X460722Y380540D02*
Y395540D01*
X466172Y501540D02*
X469172D01*
X467672Y500040D02*
Y503040D01*
X521172Y431040D02*
X524172D01*
X522672Y429540D02*
Y432540D01*
X476968Y459623D02*
X479968D01*
X478468Y458123D02*
Y461123D01*
X399532Y503390D02*
X402532D01*
X401032Y501890D02*
Y504890D01*
X410962Y483070D02*
X413962D01*
X412462Y481570D02*
Y484570D01*
X479542Y569430D02*
X482542D01*
X481042Y567930D02*
Y570930D01*
X506212Y528790D02*
X509212D01*
X507712Y527290D02*
Y530290D01*
X420942Y411270D02*
X423942D01*
X422442Y409770D02*
Y412770D01*
X428562Y411270D02*
X431562D01*
X430062Y409770D02*
Y412770D01*
X416042Y495770D02*
X419042D01*
X417542Y494270D02*
Y497270D01*
X419852Y474180D02*
X422852D01*
X421352Y472680D02*
Y475680D01*
X460492Y476720D02*
X463492D01*
X461992Y475220D02*
Y478220D01*
X414521Y585940D02*
X417521D01*
X416021Y584440D02*
Y587440D01*
X414521Y578320D02*
X417521D01*
X416021Y576820D02*
Y579820D01*
X399532Y511010D02*
X402532D01*
X401032Y509510D02*
Y512510D01*
X512562Y460210D02*
X515562D01*
X514062Y458710D02*
Y461710D01*
X512562Y467830D02*
X515562D01*
X514062Y466330D02*
Y469330D01*
X481722Y626110D02*
X484722D01*
X483222Y624610D02*
Y627610D01*
X481722Y632460D02*
X484722D01*
X483222Y630960D02*
Y633960D01*
X481722Y638810D02*
X484722D01*
X483222Y637310D02*
Y640310D01*
X422392Y466560D02*
X425392D01*
X423892Y465060D02*
Y468060D01*
X454142Y467830D02*
X457142D01*
X455642Y466330D02*
Y469330D01*
X465572Y461480D02*
X468572D01*
X467072Y459980D02*
Y462980D01*
X456968Y452964D02*
X459968D01*
X458468Y451464D02*
Y454464D01*
X477002Y471728D02*
X480002D01*
X478502Y470228D02*
Y473228D01*
X455412Y552920D02*
X458412D01*
X456912Y551420D02*
Y554420D01*
X478272Y500850D02*
X481272D01*
X479772Y499350D02*
Y502350D01*
X426202Y528790D02*
X429202D01*
X427702Y527290D02*
Y530290D01*
X485892Y540220D02*
X488892D01*
X487392Y538720D02*
Y541720D01*
X437932Y540520D02*
X440932D01*
X439432Y539020D02*
Y542020D01*
X517672Y489040D02*
X520672D01*
X519172Y487540D02*
Y490540D01*
X432172Y502540D02*
X435172D01*
X433672Y501040D02*
Y504040D01*
X618322Y388040D02*
X633322D01*
X625822Y380540D02*
Y395540D01*
X631272Y501540D02*
X634272D01*
X632772Y500040D02*
Y503040D01*
X686272Y431040D02*
X689272D01*
X687772Y429540D02*
Y432540D01*
X642068Y459623D02*
X645068D01*
X643568Y458123D02*
Y461123D01*
X564632Y503390D02*
X567632D01*
X566132Y501890D02*
Y504890D01*
X576062Y483070D02*
X579062D01*
X577562Y481570D02*
Y484570D01*
X644642Y569430D02*
X647642D01*
X646142Y567930D02*
Y570930D01*
X671312Y528790D02*
X674312D01*
X672812Y527290D02*
Y530290D01*
X586042Y411270D02*
X589042D01*
X587542Y409770D02*
Y412770D01*
X593662Y411270D02*
X596662D01*
X595162Y409770D02*
Y412770D01*
X581142Y495770D02*
X584142D01*
X582642Y494270D02*
Y497270D01*
X584952Y474180D02*
X587952D01*
X586452Y472680D02*
Y475680D01*
X625592Y476720D02*
X628592D01*
X627092Y475220D02*
Y478220D01*
X579621Y585940D02*
X582621D01*
X581121Y584440D02*
Y587440D01*
X579621Y578320D02*
X582621D01*
X581121Y576820D02*
Y579820D01*
X564632Y511010D02*
X567632D01*
X566132Y509510D02*
Y512510D01*
X677662Y460210D02*
X680662D01*
X679162Y458710D02*
Y461710D01*
X677662Y467830D02*
X680662D01*
X679162Y466330D02*
Y469330D01*
X646822Y626110D02*
X649822D01*
X648322Y624610D02*
Y627610D01*
X646822Y632460D02*
X649822D01*
X648322Y630960D02*
Y633960D01*
X646822Y638810D02*
X649822D01*
X648322Y637310D02*
Y640310D01*
X587492Y466560D02*
X590492D01*
X588992Y465060D02*
Y468060D01*
X619242Y467830D02*
X622242D01*
X620742Y466330D02*
Y469330D01*
X630672Y461480D02*
X633672D01*
X632172Y459980D02*
Y462980D01*
X622068Y452964D02*
X625068D01*
X623568Y451464D02*
Y454464D01*
X642102Y471728D02*
X645102D01*
X643602Y470228D02*
Y473228D01*
X620512Y552920D02*
X623512D01*
X622012Y551420D02*
Y554420D01*
X643372Y500850D02*
X646372D01*
X644872Y499350D02*
Y502350D01*
X591302Y528790D02*
X594302D01*
X592802Y527290D02*
Y530290D01*
X650992Y540220D02*
X653992D01*
X652492Y538720D02*
Y541720D01*
X603032Y540520D02*
X606032D01*
X604532Y539020D02*
Y542020D01*
X682772Y489040D02*
X685772D01*
X684272Y487540D02*
Y490540D01*
X597272Y502540D02*
X600272D01*
X598772Y501040D02*
Y504040D01*
X783422Y388040D02*
X798422D01*
X790922Y380540D02*
Y395540D01*
X796372Y501540D02*
X799372D01*
X797872Y500040D02*
Y503040D01*
X851372Y431040D02*
X854372D01*
X852872Y429540D02*
Y432540D01*
X807168Y459623D02*
X810168D01*
X808668Y458123D02*
Y461123D01*
X729732Y503390D02*
X732732D01*
X731232Y501890D02*
Y504890D01*
X741162Y483070D02*
X744162D01*
X742662Y481570D02*
Y484570D01*
X809742Y569430D02*
X812742D01*
X811242Y567930D02*
Y570930D01*
X836412Y528790D02*
X839412D01*
X837912Y527290D02*
Y530290D01*
X751142Y411270D02*
X754142D01*
X752642Y409770D02*
Y412770D01*
X758762Y411270D02*
X761762D01*
X760262Y409770D02*
Y412770D01*
X746242Y495770D02*
X749242D01*
X747742Y494270D02*
Y497270D01*
X750052Y474180D02*
X753052D01*
X751552Y472680D02*
Y475680D01*
X790692Y476720D02*
X793692D01*
X792192Y475220D02*
Y478220D01*
X744721Y585940D02*
X747721D01*
X746221Y584440D02*
Y587440D01*
X744721Y578320D02*
X747721D01*
X746221Y576820D02*
Y579820D01*
X729732Y511010D02*
X732732D01*
X731232Y509510D02*
Y512510D01*
X842762Y460210D02*
X845762D01*
X844262Y458710D02*
Y461710D01*
X842762Y467830D02*
X845762D01*
X844262Y466330D02*
Y469330D01*
X811922Y626110D02*
X814922D01*
X813422Y624610D02*
Y627610D01*
X811922Y632460D02*
X814922D01*
X813422Y630960D02*
Y633960D01*
X811922Y638810D02*
X814922D01*
X813422Y637310D02*
Y640310D01*
X752592Y466560D02*
X755592D01*
X754092Y465060D02*
Y468060D01*
X784342Y467830D02*
X787342D01*
X785842Y466330D02*
Y469330D01*
X795772Y461480D02*
X798772D01*
X797272Y459980D02*
Y462980D01*
X787168Y452964D02*
X790168D01*
X788668Y451464D02*
Y454464D01*
X807202Y471728D02*
X810202D01*
X808702Y470228D02*
Y473228D01*
X785612Y552920D02*
X788612D01*
X787112Y551420D02*
Y554420D01*
X808472Y500850D02*
X811472D01*
X809972Y499350D02*
Y502350D01*
X756402Y528790D02*
X759402D01*
X757902Y527290D02*
Y530290D01*
X816092Y540220D02*
X819092D01*
X817592Y538720D02*
Y541720D01*
X768132Y540520D02*
X771132D01*
X769632Y539020D02*
Y542020D01*
X847872Y489040D02*
X850872D01*
X849372Y487540D02*
Y490540D01*
X762372Y502540D02*
X765372D01*
X763872Y501040D02*
Y504040D01*
X783422Y352040D02*
X798422D01*
X790922Y344540D02*
Y359540D01*
X782472Y238540D02*
X785472D01*
X783972Y237040D02*
Y240040D01*
X727472Y309040D02*
X730472D01*
X728972Y307540D02*
Y310540D01*
X771676Y280457D02*
X774676D01*
X773176Y278957D02*
Y281957D01*
X849112Y236690D02*
X852112D01*
X850612Y235190D02*
Y238190D01*
X837682Y257010D02*
X840682D01*
X839182Y255510D02*
Y258510D01*
X769102Y170650D02*
X772102D01*
X770602Y169150D02*
Y172150D01*
X742432Y211290D02*
X745432D01*
X743932Y209790D02*
Y212790D01*
X827702Y328810D02*
X830702D01*
X829202Y327310D02*
Y330310D01*
X820082Y328810D02*
X823082D01*
X821582Y327310D02*
Y330310D01*
X832602Y244310D02*
X835602D01*
X834102Y242810D02*
Y245810D01*
X828792Y265900D02*
X831792D01*
X830292Y264400D02*
Y267400D01*
X788152Y263360D02*
X791152D01*
X789652Y261860D02*
Y264860D01*
X834124Y154140D02*
X837124D01*
X835624Y152640D02*
Y155640D01*
X834124Y161760D02*
X837124D01*
X835624Y160260D02*
Y163260D01*
X849112Y229070D02*
X852112D01*
X850612Y227570D02*
Y230570D01*
X736082Y279870D02*
X739082D01*
X737582Y278370D02*
Y281370D01*
X736082Y272250D02*
X739082D01*
X737582Y270750D02*
Y273750D01*
X766922Y113970D02*
X769922D01*
X768422Y112470D02*
Y115470D01*
X766922Y107620D02*
X769922D01*
X768422Y106120D02*
Y109120D01*
X766922Y101270D02*
X769922D01*
X768422Y99770D02*
Y102770D01*
X826252Y273520D02*
X829252D01*
X827752Y272020D02*
Y275020D01*
X794502Y272250D02*
X797502D01*
X796002Y270750D02*
Y273750D01*
X783072Y278600D02*
X786072D01*
X784572Y277100D02*
Y280100D01*
X791676Y287116D02*
X794676D01*
X793176Y285616D02*
Y288616D01*
X771642Y268352D02*
X774642D01*
X773142Y266852D02*
Y269852D01*
X793232Y187160D02*
X796232D01*
X794732Y185660D02*
Y188660D01*
X770372Y239230D02*
X773372D01*
X771872Y237730D02*
Y240730D01*
X822442Y211290D02*
X825442D01*
X823942Y209790D02*
Y212790D01*
X762752Y199860D02*
X765752D01*
X764252Y198360D02*
Y201360D01*
X810712Y199560D02*
X813712D01*
X812212Y198060D02*
Y201060D01*
X730972Y251040D02*
X733972D01*
X732472Y249540D02*
Y252540D01*
X816472Y237540D02*
X819472D01*
X817972Y236040D02*
Y239040D01*
X618322Y352040D02*
X633322D01*
X625822Y344540D02*
Y359540D01*
X617372Y238540D02*
X620372D01*
X618872Y237040D02*
Y240040D01*
X562372Y309040D02*
X565372D01*
X563872Y307540D02*
Y310540D01*
X606576Y280457D02*
X609576D01*
X608076Y278957D02*
Y281957D01*
X684012Y236690D02*
X687012D01*
X685512Y235190D02*
Y238190D01*
X672582Y257010D02*
X675582D01*
X674082Y255510D02*
Y258510D01*
X604002Y170650D02*
X607002D01*
X605502Y169150D02*
Y172150D01*
X577332Y211290D02*
X580332D01*
X578832Y209790D02*
Y212790D01*
X662602Y328810D02*
X665602D01*
X664102Y327310D02*
Y330310D01*
X654982Y328810D02*
X657982D01*
X656482Y327310D02*
Y330310D01*
X667502Y244310D02*
X670502D01*
X669002Y242810D02*
Y245810D01*
X663692Y265900D02*
X666692D01*
X665192Y264400D02*
Y267400D01*
X623052Y263360D02*
X626052D01*
X624552Y261860D02*
Y264860D01*
X669024Y154140D02*
X672024D01*
X670524Y152640D02*
Y155640D01*
X669024Y161760D02*
X672024D01*
X670524Y160260D02*
Y163260D01*
X684012Y229070D02*
X687012D01*
X685512Y227570D02*
Y230570D01*
X570982Y279870D02*
X573982D01*
X572482Y278370D02*
Y281370D01*
X570982Y272250D02*
X573982D01*
X572482Y270750D02*
Y273750D01*
X601822Y113970D02*
X604822D01*
X603322Y112470D02*
Y115470D01*
X601822Y107620D02*
X604822D01*
X603322Y106120D02*
Y109120D01*
X601822Y101270D02*
X604822D01*
X603322Y99770D02*
Y102770D01*
X661152Y273520D02*
X664152D01*
X662652Y272020D02*
Y275020D01*
X629402Y272250D02*
X632402D01*
X630902Y270750D02*
Y273750D01*
X617972Y278600D02*
X620972D01*
X619472Y277100D02*
Y280100D01*
X626576Y287116D02*
X629576D01*
X628076Y285616D02*
Y288616D01*
X606542Y268352D02*
X609542D01*
X608042Y266852D02*
Y269852D01*
X628132Y187160D02*
X631132D01*
X629632Y185660D02*
Y188660D01*
X605272Y239230D02*
X608272D01*
X606772Y237730D02*
Y240730D01*
X657342Y211290D02*
X660342D01*
X658842Y209790D02*
Y212790D01*
X597652Y199860D02*
X600652D01*
X599152Y198360D02*
Y201360D01*
X645612Y199560D02*
X648612D01*
X647112Y198060D02*
Y201060D01*
X565872Y251040D02*
X568872D01*
X567372Y249540D02*
Y252540D01*
X651372Y237540D02*
X654372D01*
X652872Y236040D02*
Y239040D01*
X453222Y352040D02*
X468222D01*
X460722Y344540D02*
Y359540D01*
X452272Y238540D02*
X455272D01*
X453772Y237040D02*
Y240040D01*
X397272Y309040D02*
X400272D01*
X398772Y307540D02*
Y310540D01*
X441476Y280457D02*
X444476D01*
X442976Y278957D02*
Y281957D01*
X518912Y236690D02*
X521912D01*
X520412Y235190D02*
Y238190D01*
X507482Y257010D02*
X510482D01*
X508982Y255510D02*
Y258510D01*
X438902Y170650D02*
X441902D01*
X440402Y169150D02*
Y172150D01*
X412232Y211290D02*
X415232D01*
X413732Y209790D02*
Y212790D01*
X497502Y328810D02*
X500502D01*
X499002Y327310D02*
Y330310D01*
X489882Y328810D02*
X492882D01*
X491382Y327310D02*
Y330310D01*
X502402Y244310D02*
X505402D01*
X503902Y242810D02*
Y245810D01*
X498592Y265900D02*
X501592D01*
X500092Y264400D02*
Y267400D01*
X457952Y263360D02*
X460952D01*
X459452Y261860D02*
Y264860D01*
X503924Y154140D02*
X506924D01*
X505424Y152640D02*
Y155640D01*
X503924Y161760D02*
X506924D01*
X505424Y160260D02*
Y163260D01*
X518912Y229070D02*
X521912D01*
X520412Y227570D02*
Y230570D01*
X405882Y279870D02*
X408882D01*
X407382Y278370D02*
Y281370D01*
X405882Y272250D02*
X408882D01*
X407382Y270750D02*
Y273750D01*
X436722Y113970D02*
X439722D01*
X438222Y112470D02*
Y115470D01*
X436722Y107620D02*
X439722D01*
X438222Y106120D02*
Y109120D01*
X436722Y101270D02*
X439722D01*
X438222Y99770D02*
Y102770D01*
X496052Y273520D02*
X499052D01*
X497552Y272020D02*
Y275020D01*
X464302Y272250D02*
X467302D01*
X465802Y270750D02*
Y273750D01*
X452872Y278600D02*
X455872D01*
X454372Y277100D02*
Y280100D01*
X461476Y287116D02*
X464476D01*
X462976Y285616D02*
Y288616D01*
X441442Y268352D02*
X444442D01*
X442942Y266852D02*
Y269852D01*
X463032Y187160D02*
X466032D01*
X464532Y185660D02*
Y188660D01*
X440172Y239230D02*
X443172D01*
X441672Y237730D02*
Y240730D01*
X492242Y211290D02*
X495242D01*
X493742Y209790D02*
Y212790D01*
X432552Y199860D02*
X435552D01*
X434052Y198360D02*
Y201360D01*
X480512Y199560D02*
X483512D01*
X482012Y198060D02*
Y201060D01*
X400772Y251040D02*
X403772D01*
X402272Y249540D02*
Y252540D01*
X486272Y237540D02*
X489272D01*
X487772Y236040D02*
Y239040D01*
X288122Y352040D02*
X303122D01*
X295622Y344540D02*
Y359540D01*
X287172Y238540D02*
X290172D01*
X288672Y237040D02*
Y240040D01*
X232172Y309040D02*
X235172D01*
X233672Y307540D02*
Y310540D01*
X276376Y280457D02*
X279376D01*
X277876Y278957D02*
Y281957D01*
X353812Y236690D02*
X356812D01*
X355312Y235190D02*
Y238190D01*
X342382Y257010D02*
X345382D01*
X343882Y255510D02*
Y258510D01*
X273802Y170650D02*
X276802D01*
X275302Y169150D02*
Y172150D01*
X247132Y211290D02*
X250132D01*
X248632Y209790D02*
Y212790D01*
X332402Y328810D02*
X335402D01*
X333902Y327310D02*
Y330310D01*
X324782Y328810D02*
X327782D01*
X326282Y327310D02*
Y330310D01*
X337302Y244310D02*
X340302D01*
X338802Y242810D02*
Y245810D01*
X333492Y265900D02*
X336492D01*
X334992Y264400D02*
Y267400D01*
X292852Y263360D02*
X295852D01*
X294352Y261860D02*
Y264860D01*
X338824Y154140D02*
X341824D01*
X340324Y152640D02*
Y155640D01*
X338824Y161760D02*
X341824D01*
X340324Y160260D02*
Y163260D01*
X353812Y229070D02*
X356812D01*
X355312Y227570D02*
Y230570D01*
X240782Y279870D02*
X243782D01*
X242282Y278370D02*
Y281370D01*
X240782Y272250D02*
X243782D01*
X242282Y270750D02*
Y273750D01*
X271622Y113970D02*
X274622D01*
X273122Y112470D02*
Y115470D01*
X271622Y107620D02*
X274622D01*
X273122Y106120D02*
Y109120D01*
X271622Y101270D02*
X274622D01*
X273122Y99770D02*
Y102770D01*
X330952Y273520D02*
X333952D01*
X332452Y272020D02*
Y275020D01*
X299202Y272250D02*
X302202D01*
X300702Y270750D02*
Y273750D01*
X287772Y278600D02*
X290772D01*
X289272Y277100D02*
Y280100D01*
X296376Y287116D02*
X299376D01*
X297876Y285616D02*
Y288616D01*
X276342Y268352D02*
X279342D01*
X277842Y266852D02*
Y269852D01*
X297932Y187160D02*
X300932D01*
X299432Y185660D02*
Y188660D01*
X275072Y239230D02*
X278072D01*
X276572Y237730D02*
Y240730D01*
X327142Y211290D02*
X330142D01*
X328642Y209790D02*
Y212790D01*
X267452Y199860D02*
X270452D01*
X268952Y198360D02*
Y201360D01*
X315412Y199560D02*
X318412D01*
X316912Y198060D02*
Y201060D01*
X235672Y251040D02*
X238672D01*
X237172Y249540D02*
Y252540D01*
X321172Y237540D02*
X324172D01*
X322672Y236040D02*
Y239040D01*
X123022Y352040D02*
X138022D01*
X130522Y344540D02*
Y359540D01*
X122072Y238540D02*
X125072D01*
X123572Y237040D02*
Y240040D01*
X67072Y309040D02*
X70072D01*
X68572Y307540D02*
Y310540D01*
X111276Y280457D02*
X114276D01*
X112776Y278957D02*
Y281957D01*
X188712Y236690D02*
X191712D01*
X190212Y235190D02*
Y238190D01*
X177282Y257010D02*
X180282D01*
X178782Y255510D02*
Y258510D01*
X108702Y170650D02*
X111702D01*
X110202Y169150D02*
Y172150D01*
X82032Y211290D02*
X85032D01*
X83532Y209790D02*
Y212790D01*
X167302Y328810D02*
X170302D01*
X168802Y327310D02*
Y330310D01*
X159682Y328810D02*
X162682D01*
X161182Y327310D02*
Y330310D01*
X172202Y244310D02*
X175202D01*
X173702Y242810D02*
Y245810D01*
X168392Y265900D02*
X171392D01*
X169892Y264400D02*
Y267400D01*
X127752Y263360D02*
X130752D01*
X129252Y261860D02*
Y264860D01*
X173724Y154140D02*
X176724D01*
X175224Y152640D02*
Y155640D01*
X173724Y161760D02*
X176724D01*
X175224Y160260D02*
Y163260D01*
X188712Y229070D02*
X191712D01*
X190212Y227570D02*
Y230570D01*
X75682Y279870D02*
X78682D01*
X77182Y278370D02*
Y281370D01*
X75682Y272250D02*
X78682D01*
X77182Y270750D02*
Y273750D01*
X106522Y113970D02*
X109522D01*
X108022Y112470D02*
Y115470D01*
X106522Y107620D02*
X109522D01*
X108022Y106120D02*
Y109120D01*
X106522Y101270D02*
X109522D01*
X108022Y99770D02*
Y102770D01*
X165852Y273520D02*
X168852D01*
X167352Y272020D02*
Y275020D01*
X134102Y272250D02*
X137102D01*
X135602Y270750D02*
Y273750D01*
X122672Y278600D02*
X125672D01*
X124172Y277100D02*
Y280100D01*
X131276Y287116D02*
X134276D01*
X132776Y285616D02*
Y288616D01*
X111242Y268352D02*
X114242D01*
X112742Y266852D02*
Y269852D01*
X132832Y187160D02*
X135832D01*
X134332Y185660D02*
Y188660D01*
X109972Y239230D02*
X112972D01*
X111472Y237730D02*
Y240730D01*
X162042Y211290D02*
X165042D01*
X163542Y209790D02*
Y212790D01*
X102352Y199860D02*
X105352D01*
X103852Y198360D02*
Y201360D01*
X150312Y199560D02*
X153312D01*
X151812Y198060D02*
Y201060D01*
X70572Y251040D02*
X73572D01*
X72072Y249540D02*
Y252540D01*
X156072Y237540D02*
X159072D01*
X157572Y236040D02*
Y239040D01*
M02*
